<svg xmlns="http://www.w3.org/2000/svg" width="61.12" height="100.3">
  <path fill="currentColor" d="M61.12 63.53v-44l-2.85-.66v-2.03l-4.46-1.4-6 .9V19l-3.27.54v14.13l-2.72-.42V2.63L33.85 0 22 2.31v31l-2.88.44V14.67l-2.1-.23v-4l-8.14-.89-6 1.28v5.8L0 17.09v52.65a30.56 30.56 0 1 0 61.12 0zM47.9 22.29l2.7-.29v5.17l-2.7.08zm0 7.41h2.7v5.17l-2.7-.27zm0 7.41l2.7.38v5.18l-2.7-.61zM33.81 2.34l5.83 1.91v33l-5.83 1.32zm-5 2.9l2.05-.33v4l-2.05.25zm0 5.85l2.05-.21v4l-2.05.12zm0 5.86l2.05-.1v4h-2.05zm0 5.85h2.05v4l-2.05-.1zm0 5.63l2.05.13v4l-2.05-.21zm0 5.63l2.05.24v4l-2.05-.3zm-3.87-28.2l2-.33v3.84l-2 .25zm0 5.64l2-.22v3.84l-2 .14zm0 5.64l2-.1v3.83h-2zm0 5.64h2v3.83l-2-.08zm0 5.42l2 .12v3.83l-2-.19zm0 5.42l2 .23v3.84l-2-.31zM9 11.81l5.83.65v4l2.1.23V44l-4.62 1.5V15.15L9 15.68zm-2 6.81l2.27-.26v27L7 45zm-2.09 26l-2.28-.42v-25l2.28-.26zm25.7 49.61A24.44 24.44 0 1 1 55 69.74a24.44 24.44 0 0 1-24.44 24.44zM54 47.56V20.2l4.88 1.13v24.82zM35.49 63.12h2.07v9.2L27.54 57H15.63v6.09h2.83v13.3h-2.83v6.1h11v-6.1h-2.2V65.53l11.48 17.29h7.63v-19.7h2.82V57H35.49z" fill="#231f20"/>
</svg>