<svg xmlns="http://www.w3.org/2000/svg" width="114.34" height="14.63">
  <g fill="currentColor">
    <path d="M2 2.09H0V.36h4.72l6 10.73v-9H8.8V.36h5.68v1.73h-2v12.22h-2.21L3.72 2.51v9.93h2v1.73H0v-1.73h2zM18.51 2.09h-1.79V.36h11.45v4.15h-1.71V2.09h-5.88v4.1H25v1.73h-4.42v4.52h5.88V9.92h1.71v4.25H16.72v-1.73h1.79zM32 2.09h-1.65V.36h5.29v1.73H34l2.59 9 2.48-9h-1.62V.36h6.35v1.73h-1.63l2.52 9 2.54-9h-1.6V.36h5.06v1.73h-1.63l-3.43 12.22h-2L40.56 3.39l-3.11 10.92h-1.91zM66.27.23v5.16L63 5.37a2.6 2.6 0 0 0-2.74-2.24c-2.32 0-3.06 1.51-3.06 4.23s.71 4.07 2.85 4.07c1.59 0 2.64-.75 3.12-2.94l3.31 1.18c-1 3.83-4.11 5-6.84 5-5.89 0-7.48-4.21-7.48-7.3A7 7 0 0 1 59.38 0a6.18 6.18 0 0 1 4.55 1.89V.23zM69.3 11.31h2.28v-8.1H69.3V.36h9.19v2.85h-2.28v8.1h2.28v2.86H69.3zM95.91 5.91h-2.62v-2.7h-2.4v8.1h2v3h-8.6v-2.87l2-.13v-8.1h-2.4v2.7h-2.66V.36h14.68zM102.08 11.31h1.84V8.44l-3.73-5.23h-1.91V.36h7.2v2.85h-1.37l2.43 2.91 2.34-2.91h-1.31V.36h6.77v2.85h-1.91l-4 5.23v2.87h1.84v2.86h-8.22z"/>
  </g>
</svg>