<svg xmlns="http://www.w3.org/2000/svg" viewport="0 0 159 54" width="159" height="54">
  <g fill="currentColor">
    <path d="M46 32.31h-2v-1.73h4.7l6 10.74v-9h-1.92v-1.74h5.68v1.73h-2v12.22h-2.21l-6.55-11.8v9.93h2v1.73H44v-1.73h2zM62.48 32.31H60.7v-1.73h11.44v4.15h-1.7v-2.42h-5.88v4.1H69v1.73h-4.44v4.52h5.88v-2.52h1.7v4.25H60.7v-1.73h1.78zM76 32.31h-1.67v-1.73h5.29v1.73H78l2.58 9 2.48-9h-1.63v-1.73h6.34v1.73h-1.62l2.52 9 2.54-9h-1.6v-1.73h5.06v1.73H93l-3.39 12.22h-2l-3.07-10.92-3.11 10.92h-1.91zM110.25 30.45v5.16h-3.32a2.58 2.58 0 0 0-2.73-2.23c-2.32 0-3.06 1.5-3.06 4.22s.7 4.07 2.85 4.07c1.58 0 2.64-.75 3.12-2.94l3.3 1.18c-1 3.83-4.1 5-6.83 5-5.89 0-7.48-4.21-7.48-7.3a7 7 0 0 1 7.26-7.33 6.16 6.16 0 0 1 4.55 1.9v-1.73zM113.28 41.53h2.28v-8.1h-2.28v-2.85h9.19v2.85h-2.28v8.1h2.28v2.86h-9.19zM139.89 36.13h-2.62v-2.7h-2.4v8.1h2v3h-8.56v-2.87l2-.13v-8.1h-2.4v2.7h-2.71v-5.55h14.69zM146.06 41.53h1.84v-2.87l-3.73-5.23h-1.88v-2.85h7.2v2.85h-1.37l2.43 2.92 2.34-2.92h-1.31v-2.85h6.76v2.85h-1.94l-4 5.23v2.87h1.83v2.86h-8.21zM32.82 34.12V10.5l-1.53-.35v-1.1l-2.39-.76-3.21.48v1.41l-1.75.29v7.61l-1.46-.22V1.42L18.18 0l-6.35 1.24V17.9l-1.54.24V7.88l-1.13-.12V5.62l-4.39-.49-3.2.69v3.11L0 9.18v28.28a16.41 16.41 0 0 0 32.82 0zM25.72 12l1.45-.16v2.77l-1.45.05zm0 4h1.45v2.78l-1.45-.14zm0 4l1.45.21v2.77l-1.45-.32zM18.16 1.26l3.13 1V20l-3.13.71zm-2.69 1.55l1.1-.17v2.13l-1.1.14zm0 3.15l1.1-.12V8l-1.1.07zm0 3.14h1.1v2.14h-1.1zm0 3.15h1.1v2.13l-1.1-.05zm0 3l1.1.07v2.14l-1.1-.11zm0 3l1.1.13v2.14l-1.1-.17zm-2.08-15.1L14.5 3v2l-1.11.14zm0 3l1.11-.12v2.09l-1.11.08zm0 3l1.11-.06v2.06h-1.11zm0 3h1.11v2.15l-1.11-.05zm0 2.91l1.11.07v2.06l-1.11-.11zm0 2.92l1.11.12v2.06L13.39 20zM4.81 6.35L8 6.69v2.14L9.09 9v14.62l-2.48.81V8.14l-1.8.28zM3.73 10L5 9.86v14.51l-1.22-.23zM2.61 23.94l-1.22-.23V10.3l1.22-.14zm13.8 26.64a13.13 13.13 0 1 1 13.13-13.12 13.11 13.11 0 0 1-13.13 13.12zM29 25.54V10.85l2.62.6v13.33zm-9.94 8.36h1.11v4.94l-5.38-8.21h-6.4v3.27h1.52V41H8.39v3.3h5.94V41h-1.21v-5.8l6.17 9.28h4.09V33.9h1.52v-3.27h-5.84z"/>
  </g>
</svg>