<svg xmlns="http://www.w3.org/2000/svg" width="114.34" height="107.56">
  <g fill="currentColor">
    <path d="M2 95H0v-1.71h4.72l6 10.73V95H8.81v-1.71h5.67V95h-2v12.22h-2.21L3.72 95.44v9.93h2v1.73H0v-1.73h2zM18.51 95h-1.79v-1.71h11.45v4.15h-1.71V95h-5.88v4.1H25v1.73h-4.42v4.52h5.88v-2.52h1.71v4.25H16.72v-1.73h1.79zM32 95h-1.65v-1.71h5.29V95H34l2.59 9 2.48-9h-1.62v-1.71h6.35V95h-1.63l2.52 9 2.54-9h-1.6v-1.71h5.06V95h-1.63l-3.43 12.22h-2l-3.07-10.9-3.07 10.92h-1.95zM66.27 93.16v5.16L63 98.3a2.59 2.59 0 0 0-2.74-2.23c-2.32 0-3.06 1.5-3.06 4.22s.71 4.07 2.85 4.07c1.59 0 2.64-.75 3.12-2.94l3.31 1.18c-1 3.83-4.11 5-6.84 5-5.89 0-7.48-4.21-7.48-7.3a7 7 0 0 1 7.26-7.33 6.18 6.18 0 0 1 4.55 1.89v-1.7zM69.3 104.24h2.28v-8.1H69.3v-2.85h9.19v2.85h-2.28v8.1h2.28v2.86H69.3zM95.92 98.84h-2.63v-2.7h-2.4v8.1h2v3h-8.6v-2.86l2-.13v-8.1h-2.4v2.7h-2.66v-5.56h14.69zM102.08 104.24h1.84v-2.87l-3.73-5.23h-1.91v-2.85h7.2v2.85h-1.37l2.43 2.91 2.34-2.91h-1.31v-2.85h6.77v2.85h-1.91l-4 5.23v2.87h1.84v2.86h-8.22zM82.71 51.31V15.79l-2.3-.53V13.6l-3.6-1.13-4.81.72v2.11l-2.64.44v11.45l-2.19-.33V2.13L60.69 0l-9.55 1.86v25.06l-2.32.36V11.85l-1.7-.19V8.45l-6.6-.73-4.8 1v4.68l-2.37.37v42.56a24.68 24.68 0 0 0 49.36 0zM72 18l2.18-.25v4.18L72 22zm0 6h2.18v4.17L72 28zm0 6l2.18.3v4.18L72 34zM60.66 1.89l4.7 1.54v26.66l-4.7 1.06zm-4 2.34L58.28 4v3.18l-1.66.2zm0 4.73l1.66-.18V12l-1.66.11zm0 4.73l1.66-.08v3.21h-1.66zm0 4.73h1.66v3.21l-1.66-.07zm0 4.54l1.66.1v3.22l-1.66-.17zm0 4.55l1.66.19v3.22l-1.66-.26zM53.49 4.73l1.66-.26v3.09l-1.66.21zm0 4.56l1.66-.18v3.1l-1.66.11zm0 4.55l1.66-.08v3.1h-1.66zm0 4.56h1.66v3.1l-1.66-.07zm0 4.37l1.66.1V26l-1.66-.16zm0 4.38l1.66.19v3.1l-1.66-.25zM40.59 9.54l4.71.52v3.21l1.7.19v22.07l-3.74 1.21v-24.5l-2.69.42zM39 15l1.84-.21v21.85L39 36.31zm-1.73 21l-1.83-.33V15.48l1.83-.21zM58 76.06a19.74 19.74 0 1 1 19.77-19.73A19.73 19.73 0 0 1 58 76.06zm19-37.65v-22.1l3.94.91v20.05zM62 51h1.67v7.43l-8.08-12.37H46V51h2.29v10.7H46v4.92h8.9V61.7h-1.82v-8.77l9.27 14h6.16V51h2.28v-4.94H62z"/>
  </g>
</svg>