<?xml version="1.0" encoding="utf-8"?>
<!-- Generator: Adobe Illustrator 19.2.0, SVG Export Plug-In . SVG Version: 6.00 Build 0)  -->
<svg version="1.1" id="Layer_1" xmlns="http://www.w3.org/2000/svg" xmlns:xlink="http://www.w3.org/1999/xlink" x="0px" y="0px"
	 width="24px" height="24px" viewBox="0 0 24 24" style="enable-background:new 0 0 24 24;" xml:space="preserve">
<g>
	<path d="M20.5,3.001h-14c-0.276,0-0.5,0.224-0.5,0.5v1c0,0.276,0.224,0.5,0.5,0.5S7,4.778,7,4.501v-0.5h13v17h-0.5
		c-0.276,0-0.5,0.224-0.5,0.5s0.224,0.5,0.5,0.5h1c0.276,0,0.5-0.224,0.5-0.5v-18C21,3.225,20.776,3.001,20.5,3.001z"/>
	<path d="M23.5,0.001h-14c-0.276,0-0.5,0.224-0.5,0.5v1c0,0.276,0.224,0.5,0.5,0.5s0.5-0.224,0.5-0.5v-0.5h13v17h-0.5
		c-0.276,0-0.5,0.224-0.5,0.5s0.224,0.5,0.5,0.5h1c0.276,0,0.5-0.224,0.5-0.5v-18C24,0.225,23.776,0.001,23.5,0.001z"/>
	<path d="M17.5,6.001h-14c-0.276,0-0.5,0.224-0.5,0.5v17c0,0.276,0.224,0.5,0.5,0.5h14c0.276,0,0.5-0.224,0.5-0.5v-17
		C18,6.225,17.776,6.001,17.5,6.001z M17,23.001H4v-16h13V23.001z"/>
	<path d="M8,15.001h2v2c0,0.276,0.224,0.5,0.5,0.5s0.5-0.224,0.5-0.5v-2h2c0.276,0,0.5-0.224,0.5-0.5s-0.224-0.5-0.5-0.5h-2v-2
		c0-0.276-0.224-0.5-0.5-0.5s-0.5,0.224-0.5,0.5v2H8c-0.276,0-0.5,0.224-0.5,0.5S7.724,15.001,8,15.001z"/>
</g>
</svg>
