<?xml version="1.0" encoding="utf-8"?>
<!-- Generator: Adobe Illustrator 19.2.0, SVG Export Plug-In . SVG Version: 6.00 Build 0)  -->
<svg version="1.1" id="Layer_1" xmlns="http://www.w3.org/2000/svg" xmlns:xlink="http://www.w3.org/1999/xlink" x="0px" y="0px"
	 width="24px" height="24px" viewBox="0 0 24 24" style="enable-background:new 0 0 24 24;" xml:space="preserve">
<g>
	<path d="M21.517,0.032H1.552c-0.276,0-0.5,0.224-0.5,0.5v22.966c0,0.276,0.224,0.5,0.5,0.5h16.937c0.276,0,0.5-0.224,0.5-0.5V6.999
		h2.528c0.276,0,0.5-0.224,0.5-0.5V0.532C22.017,0.256,21.793,0.032,21.517,0.032z M21.017,5.999h-2.528c-0.276,0-0.5,0.224-0.5,0.5
		v16.499H2.052V1.032h18.965V5.999z"/>
	<path d="M5.482,19.998h9.024c0.276,0,0.5-0.224,0.5-0.5s-0.224-0.5-0.5-0.5H5.482c-0.276,0-0.5,0.224-0.5,0.5
		S5.206,19.998,5.482,19.998z"/>
	<path d="M5.482,16.998h9.024c0.276,0,0.5-0.224,0.5-0.5s-0.224-0.5-0.5-0.5H5.482c-0.276,0-0.5,0.224-0.5,0.5
		S5.206,16.998,5.482,16.998z"/>
	<path d="M21.5,16.998h-1.012c-0.276,0-0.5,0.224-0.5,0.5s0.224,0.5,0.5,0.5H21v5h-0.512c-0.276,0-0.5,0.224-0.5,0.5
		s0.224,0.5,0.5,0.5H21.5c0.276,0,0.5-0.224,0.5-0.5v-6C22,17.221,21.776,16.998,21.5,16.998z"/>
	<path d="M21.5,8.998h-1.012c-0.276,0-0.5,0.224-0.5,0.5s0.224,0.5,0.5,0.5H21v5h-0.512c-0.276,0-0.5,0.224-0.5,0.5
		s0.224,0.5,0.5,0.5H21.5c0.276,0,0.5-0.224,0.5-0.5v-6C22,9.221,21.776,8.998,21.5,8.998z"/>
	<path d="M5.804,13.998h8.448c0.453,0,0.821-0.369,0.821-0.823v-1.136c0-0.339-0.212-0.648-0.528-0.769
		c-2.258-0.864-2.794-1.261-2.903-1.351v-0.13c0.266-0.314,0.477-0.704,0.62-1.143c0.197-0.19,0.328-0.443,0.366-0.718
		c0.039-0.279-0.017-0.554-0.158-0.792V6.274c0-1.42-0.913-2.268-2.441-2.268c-1.506,0-2.442,0.869-2.442,2.268v0.862
		C7.446,7.374,7.39,7.649,7.428,7.927c0.038,0.275,0.168,0.528,0.366,0.718c0.143,0.439,0.355,0.829,0.621,1.144V9.9
		c-0.15,0.139-0.727,0.538-2.904,1.37c-0.316,0.122-0.528,0.43-0.528,0.769v1.136C4.982,13.629,5.351,13.998,5.804,13.998z
		 M5.982,12.16c2.929-1.128,3.292-1.587,3.409-1.96c0.015-0.049,0.023-0.1,0.023-0.15V9.595c0-0.132-0.052-0.258-0.145-0.352
		C9.022,8.993,8.829,8.639,8.71,8.221C8.679,8.11,8.61,8.013,8.515,7.948C8.463,7.911,8.428,7.854,8.419,7.79
		C8.413,7.744,8.417,7.676,8.472,7.609c0.074-0.089,0.114-0.202,0.114-0.317V6.274c0-0.841,0.485-1.268,1.442-1.268
		c0.983,0,1.441,0.403,1.441,1.268v1.017c0,0.116,0.04,0.228,0.114,0.317c0.056,0.068,0.06,0.137,0.054,0.182
		c-0.009,0.063-0.044,0.121-0.096,0.157c-0.095,0.066-0.165,0.163-0.196,0.275c-0.118,0.418-0.312,0.771-0.559,1.021
		c-0.093,0.094-0.145,0.22-0.145,0.352v0.454c0,0.051,0.008,0.102,0.023,0.15c0.118,0.373,0.479,0.832,3.409,1.96v0.838H5.982V12.16
		z"/>
</g>
</svg>
