<?xml version="1.0" encoding="utf-8"?>
<!-- Generator: Adobe Illustrator 19.2.0, SVG Export Plug-In . SVG Version: 6.00 Build 0)  -->
<svg version="1.1" id="Layer_1" xmlns="http://www.w3.org/2000/svg" xmlns:xlink="http://www.w3.org/1999/xlink" x="0px" y="0px"
	 width="24px" height="24px" viewBox="0 0 24 24" style="enable-background:new 0 0 24 24;" xml:space="preserve">
<g>
	<path d="M13.179,13.629c-0.281-0.378-0.711-0.595-1.184-0.595h0c-0.476,0-0.91,0.221-1.174,0.586l-6.516,8.044
		c-0.321,0.441-0.364,1.053-0.107,1.556c0.249,0.489,0.735,0.781,1.299,0.781h12.999c0.557,0,1.06-0.31,1.312-0.809
		c0.252-0.496,0.205-1.082-0.137-1.55L13.179,13.629z M18.916,22.739c-0.083,0.164-0.24,0.262-0.421,0.262H5.496
		c-0.191,0-0.328-0.079-0.408-0.235c-0.084-0.166-0.074-0.377,0.009-0.493l6.516-8.044c0.09-0.123,0.229-0.194,0.382-0.194
		c0.153,0,0.293,0.071,0.384,0.195c0.005,0.007,0.01,0.014,0.015,0.02l6.484,8.003C19.03,22.46,18.956,22.662,18.916,22.739z"/>
	<path d="M23.5,0.001h-23c-0.276,0-0.5,0.224-0.5,0.5v16c0,0.276,0.224,0.5,0.5,0.5H6c0.276,0,0.5-0.224,0.5-0.5s-0.224-0.5-0.5-0.5
		H1v-15h22v15h-5c-0.276,0-0.5,0.224-0.5,0.5s0.224,0.5,0.5,0.5h5.5c0.276,0,0.5-0.224,0.5-0.5v-16
		C24,0.225,23.776,0.001,23.5,0.001z"/>
</g>
</svg>
