<?xml version="1.0" encoding="utf-8"?>
<!-- Generator: Adobe Illustrator 19.2.0, SVG Export Plug-In . SVG Version: 6.00 Build 0)  -->
<svg version="1.1" id="Layer_1" xmlns="http://www.w3.org/2000/svg" xmlns:xlink="http://www.w3.org/1999/xlink" x="0px" y="0px"
	 width="24px" height="24px" viewBox="0 0 24 24" style="enable-background:new 0 0 24 24;" xml:space="preserve">
<g>
	<path d="M12.495,6.551c-0.276,0-0.5,0.224-0.5,0.5v6.253L8.204,15.98c-0.226,0.159-0.279,0.471-0.12,0.696
		c0.098,0.139,0.252,0.212,0.409,0.212c0.1,0,0.2-0.029,0.288-0.092l4.003-2.826c0.132-0.094,0.211-0.246,0.211-0.408V7.051
		C12.995,6.774,12.771,6.551,12.495,6.551z"/>
	<path d="M20.895,13.125c0-4.911-3.995-8.906-8.905-8.906c-4.911,0-8.906,3.995-8.906,8.906c0,2.806,1.308,5.309,3.343,6.943
		l-1.791,3.061c-0.139,0.238-0.059,0.545,0.179,0.685c0.079,0.046,0.166,0.068,0.252,0.068c0.172,0,0.339-0.089,0.432-0.247
		l1.748-2.986c1.375,0.87,2.999,1.382,4.744,1.382c1.744,0,3.367-0.511,4.742-1.381l1.747,2.986
		c0.093,0.158,0.261,0.247,0.432,0.247c0.086,0,0.173-0.022,0.253-0.068c0.238-0.14,0.318-0.445,0.179-0.685l-1.791-3.06
		C19.586,18.435,20.895,15.931,20.895,13.125z M11.989,21.03c-4.359,0-7.906-3.546-7.906-7.905s3.546-7.906,7.906-7.906
		s7.905,3.546,7.905,7.906S16.349,21.03,11.989,21.03z"/>
	<path d="M3.729,6.057c0.085,0,0.171-0.021,0.25-0.067l5.587-3.226C9.68,2.698,9.764,2.589,9.798,2.461s0.017-0.265-0.05-0.379
		C8.72,0.302,6.438-0.309,4.659,0.718C3.797,1.216,3.181,2.019,2.923,2.98C2.666,3.942,2.798,4.946,3.295,5.807
		C3.388,5.968,3.556,6.057,3.729,6.057z M3.889,3.239c0.188-0.703,0.64-1.291,1.27-1.655c0.428-0.247,0.896-0.365,1.358-0.365
		c0.783,0,1.549,0.337,2.075,0.952l-4.642,2.68C3.768,4.337,3.745,3.779,3.889,3.239z"/>
	<path d="M14.435,2.765l5.587,3.226c0.077,0.044,0.163,0.067,0.25,0.067c0.043,0,0.087-0.006,0.13-0.017
		c0.128-0.034,0.237-0.118,0.303-0.233c0.498-0.862,0.63-1.866,0.373-2.827c-0.258-0.961-0.874-1.765-1.736-2.262
		c-1.78-1.027-4.063-0.416-5.089,1.364c-0.066,0.115-0.085,0.251-0.051,0.379C14.236,2.589,14.319,2.698,14.435,2.765z
		 M18.841,1.584c1.153,0.666,1.637,2.054,1.208,3.267l-4.642-2.68C16.244,1.195,17.688,0.918,18.841,1.584z"/>
</g>
</svg>
