<?xml version="1.0" encoding="utf-8"?>
<!-- Generator: Adobe Illustrator 19.2.0, SVG Export Plug-In . SVG Version: 6.00 Build 0)  -->
<svg version="1.1" id="Layer_1" xmlns="http://www.w3.org/2000/svg" xmlns:xlink="http://www.w3.org/1999/xlink" x="0px" y="0px"
	 width="24px" height="24px" viewBox="0 0 24 24" style="enable-background:new 0 0 24 24;" xml:space="preserve">
<g>
	<path d="M23.5,6.004h-23c-0.276,0-0.5,0.224-0.5,0.5v17c0,0.276,0.224,0.5,0.5,0.5h23c0.276,0,0.5-0.224,0.5-0.5v-17
		C24,6.228,23.776,6.004,23.5,6.004z M23,23.004H1v-16h22V23.004z"/>
	<path d="M2.584,4.004h19.836c0.276,0,0.5-0.224,0.5-0.5s-0.224-0.5-0.5-0.5H2.584c-0.276,0-0.5,0.224-0.5,0.5
		S2.308,4.004,2.584,4.004z"/>
	<path d="M4.474,1.004h15.011c0.276,0,0.5-0.224,0.5-0.5s-0.224-0.5-0.5-0.5H4.474c-0.276,0-0.5,0.224-0.5,0.5
		S4.198,1.004,4.474,1.004z"/>
</g>
</svg>
