<?xml version="1.0" encoding="utf-8"?>
<!-- Generator: Adobe Illustrator 19.2.0, SVG Export Plug-In . SVG Version: 6.00 Build 0)  -->
<svg version="1.1" id="Layer_1" xmlns="http://www.w3.org/2000/svg" xmlns:xlink="http://www.w3.org/1999/xlink" x="0px" y="0px"
	 width="24px" height="24px" viewBox="0 0 24 24" style="enable-background:new 0 0 24 24;" xml:space="preserve">
<path d="M21.309,18.104c-0.2-0.188-0.517-0.177-0.706,0.024l-1.619,1.735V7.607c0-2.34-1.792-4.245-3.995-4.245
	s-3.995,1.904-3.995,4.245v8.834c0,1.789-1.344,3.245-2.995,3.245s-2.995-1.456-2.995-3.245V4.186l1.619,1.735
	C6.72,6.026,6.854,6.079,6.987,6.079c0.122,0,0.245-0.044,0.341-0.134C7.53,5.757,7.541,5.44,7.353,5.238L4.869,2.576
	C4.867,2.574,4.864,2.573,4.861,2.571C4.825,2.533,4.78,2.505,4.732,2.48C4.721,2.474,4.712,2.463,4.7,2.458
	C4.64,2.432,4.573,2.417,4.503,2.417S4.366,2.432,4.306,2.458C4.294,2.463,4.285,2.474,4.273,2.48
	C4.226,2.505,4.181,2.533,4.144,2.571C4.142,2.573,4.139,2.574,4.137,2.576L1.652,5.238C1.464,5.44,1.475,5.757,1.677,5.945
	c0.202,0.188,0.518,0.178,0.707-0.024l1.619-1.735v12.255c0,2.341,1.792,4.245,3.995,4.245s3.995-1.904,3.995-4.245V7.607
	c0-1.789,1.344-3.245,2.995-3.245s2.995,1.456,2.995,3.245v12.256l-1.619-1.735c-0.188-0.201-0.506-0.213-0.706-0.024
	c-0.202,0.188-0.213,0.505-0.024,0.706l2.484,2.662c0.002,0.002,0.004,0.002,0.006,0.004c0.04,0.042,0.088,0.073,0.14,0.099
	c0.008,0.004,0.014,0.011,0.022,0.015c0.061,0.026,0.127,0.041,0.198,0.041s0.137-0.015,0.198-0.041
	c0.008-0.003,0.014-0.011,0.022-0.015c0.052-0.026,0.1-0.058,0.14-0.099c0.002-0.002,0.004-0.002,0.006-0.004l2.484-2.662
	C21.521,18.609,21.511,18.293,21.309,18.104z"/>
</svg>
