<?xml version="1.0" encoding="utf-8"?>
<!-- Generator: Adobe Illustrator 19.2.0, SVG Export Plug-In . SVG Version: 6.00 Build 0)  -->
<svg version="1.1" id="Layer_1" xmlns="http://www.w3.org/2000/svg" xmlns:xlink="http://www.w3.org/1999/xlink" x="0px" y="0px"
	 width="24px" height="24px" viewBox="0 0 24 24" style="enable-background:new 0 0 24 24;" xml:space="preserve">
<path d="M23.202,10.776l-8.804-7.021c-0.461-0.336-1.103-0.38-1.63-0.11C12.25,3.908,11.94,4.418,11.94,5.008l0.001,3.113
	L3.041,9.073c-1.968,0.293-2.865,1.67-2.881,2.903c-0.016,1.228,0.865,2.625,2.902,2.982l8.879,0.95l0.001,3.113
	c0,0.593,0.324,1.125,0.845,1.39c0.217,0.11,0.452,0.165,0.688,0.165c0.326,0,0.655-0.105,0.941-0.315l8.77-6.993
	c0.406-0.297,0.64-0.755,0.638-1.259C23.821,11.508,23.588,11.053,23.202,10.776z M22.579,12.473l-8.77,6.994
	c-0.25,0.184-0.482,0.098-0.57,0.053c-0.187-0.095-0.297-0.28-0.297-0.498l-0.002-3.562c0-0.256-0.193-0.47-0.447-0.497
	l-9.292-0.993c-1.522-0.269-2.051-1.234-2.042-1.979c0.011-0.811,0.642-1.721,2.008-1.925l9.328-0.997
	c0.254-0.027,0.447-0.242,0.447-0.498L12.94,5.008c0-0.271,0.154-0.407,0.283-0.472c0.09-0.046,0.19-0.068,0.285-0.068
	c0.108,0,0.21,0.029,0.285,0.083l8.806,7.023c0.142,0.103,0.224,0.262,0.225,0.439C22.823,12.191,22.741,12.354,22.579,12.473z"/>
</svg>
