<?xml version="1.0" encoding="utf-8"?>
<!-- Generator: Adobe Illustrator 19.2.0, SVG Export Plug-In . SVG Version: 6.00 Build 0)  -->
<svg version="1.1" id="Layer_1" xmlns="http://www.w3.org/2000/svg" xmlns:xlink="http://www.w3.org/1999/xlink" x="0px" y="0px"
	 width="24px" height="24px" viewBox="0 0 24 24" style="enable-background:new 0 0 24 24;" xml:space="preserve">
<g>
	<path d="M11.994,2.465c-4.822,0-8.81,3.635-9.442,8.332L1.369,9.323C1.195,9.108,0.88,9.073,0.666,9.246
		C0.45,9.419,0.416,9.734,0.588,9.949l1.976,2.462c0.005,0.007,0.014,0.009,0.019,0.015c0.035,0.04,0.077,0.07,0.123,0.097
		c0.015,0.009,0.028,0.022,0.044,0.029c0.063,0.028,0.131,0.045,0.204,0.045c0,0,0,0,0,0s0,0,0,0c0,0,0,0,0.001,0
		c0.108,0,0.202-0.042,0.284-0.1c0.009-0.006,0.02-0.003,0.028-0.01l2.462-1.976c0.215-0.173,0.25-0.488,0.077-0.703
		C5.635,9.594,5.32,9.559,5.104,9.732l-1.571,1.261c0.539-4.239,4.124-7.528,8.462-7.528c4.717,0,8.554,3.837,8.554,8.554
		s-3.837,8.554-8.554,8.554c-0.276,0-0.5,0.224-0.5,0.5s0.224,0.5,0.5,0.5c5.268,0,9.554-4.286,9.554-9.554
		C21.548,6.751,17.262,2.465,11.994,2.465z"/>
	<path d="M13.274,14.007c0.098,0.098,0.226,0.146,0.354,0.146s0.256-0.049,0.354-0.146c0.195-0.195,0.195-0.512,0-0.707l-1.28-1.28
		l1.28-1.28c0.195-0.195,0.195-0.512,0-0.707s-0.512-0.195-0.707,0l-1.28,1.28l-1.28-1.28c-0.195-0.195-0.512-0.195-0.707,0
		s-0.195,0.512,0,0.707l1.28,1.28l-1.28,1.28c-0.195,0.195-0.195,0.512,0,0.707c0.098,0.098,0.226,0.146,0.354,0.146
		s0.256-0.049,0.354-0.146l1.28-1.28L13.274,14.007z"/>
</g>
</svg>
