<?xml version="1.0" encoding="utf-8"?>
<!-- Generator: Adobe Illustrator 19.2.0, SVG Export Plug-In . SVG Version: 6.00 Build 0)  -->
<svg version="1.1" id="Layer_1" xmlns="http://www.w3.org/2000/svg" xmlns:xlink="http://www.w3.org/1999/xlink" x="0px" y="0px"
	 width="24px" height="24px" viewBox="0 0 24 24" style="enable-background:new 0 0 24 24;" xml:space="preserve">
<g>
	<path d="M17.444,5.958h3.806l-1.839,1.838c-0.195,0.195-0.195,0.512,0,0.707c0.098,0.098,0.226,0.146,0.354,0.146
		s0.256-0.049,0.354-0.146l2.692-2.691c0.046-0.046,0.083-0.101,0.108-0.162c0.025-0.06,0.039-0.126,0.039-0.192
		s-0.014-0.132-0.039-0.192c-0.025-0.061-0.062-0.116-0.108-0.162l-2.692-2.692c-0.195-0.195-0.512-0.195-0.707,0
		s-0.195,0.512,0,0.707l1.839,1.839h-3.806c-3.282,0-6.161,3.052-6.161,6.531v0.351c0,2.845-2.315,5.161-5.161,5.161H1.525
		c-0.276,0-0.5,0.224-0.5,0.5s0.224,0.5,0.5,0.5h4.598c3.397,0,6.161-2.764,6.161-6.161V11.49
		C12.284,8.543,14.695,5.958,17.444,5.958z"/>
	<path d="M22.919,17.31c-0.025-0.062-0.062-0.117-0.109-0.163l-2.692-2.692c-0.195-0.195-0.512-0.195-0.707,0s-0.195,0.512,0,0.707
		l1.839,1.839h-3.806c-1.246,0-2.452-0.455-3.396-1.281c-0.207-0.182-0.523-0.162-0.705,0.047c-0.182,0.207-0.161,0.523,0.047,0.705
		c1.125,0.986,2.564,1.529,4.054,1.529h3.806l-1.839,1.839c-0.195,0.195-0.195,0.512,0,0.707c0.098,0.098,0.226,0.146,0.354,0.146
		s0.256-0.049,0.354-0.146l2.692-2.692c0.046-0.046,0.083-0.102,0.109-0.163C22.969,17.569,22.969,17.432,22.919,17.31z"/>
	<path d="M1.525,5.958h4.598c1.247,0,2.453,0.455,3.396,1.281c0.095,0.083,0.212,0.124,0.33,0.124c0.139,0,0.277-0.058,0.376-0.17
		c0.182-0.208,0.161-0.523-0.046-0.706C9.052,5.501,7.612,4.958,6.123,4.958H1.525c-0.276,0-0.5,0.224-0.5,0.5
		S1.249,5.958,1.525,5.958z"/>
</g>
</svg>
