<?xml version="1.0" encoding="utf-8"?>
<!-- Generator: Adobe Illustrator 19.2.0, SVG Export Plug-In . SVG Version: 6.00 Build 0)  -->
<svg version="1.1" id="Layer_1" xmlns="http://www.w3.org/2000/svg" xmlns:xlink="http://www.w3.org/1999/xlink" x="0px" y="0px"
	 width="24px" height="24px" viewBox="0 0 24 24" style="enable-background:new 0 0 24 24;" xml:space="preserve">
<g>
	<path d="M10.672,7.188l0-1.331c0-0.415-0.232-0.791-0.605-0.981C9.7,4.69,9.265,4.726,8.893,4.998L4.371,8.967
		C4.084,9.176,3.919,9.499,3.919,9.853c0,0.35,0.168,0.683,0.417,0.861l4.593,4.025c0.328,0.239,0.782,0.271,1.156,0.082
		c0.368-0.188,0.587-0.55,0.587-0.971l0-1.292c3.095,0.326,5.368,1.664,5.368,3.213c0,0.945-0.822,1.875-2.257,2.552
		c-0.411,0.195-0.591,0.66-0.418,1.083c0.135,0.328,0.441,0.525,0.773,0.525c0.095,0,0.191-0.016,0.287-0.05
		c0.001,0,0.002-0.001,0.004-0.001c3.495-1.252,5.582-3.462,5.582-5.911C20.011,10.677,16.146,7.87,10.672,7.188z M15.854,18.155
		c0.768-0.703,1.186-1.525,1.186-2.383c0-2.241-2.811-3.992-6.835-4.256c-0.011,0-0.022-0.001-0.033-0.001
		c-0.126,0-0.249,0.048-0.342,0.135c-0.101,0.094-0.158,0.227-0.158,0.365l-0.04,1.916c-0.041,0.021-0.092,0.018-0.079,0.029
		L4.995,9.963c-0.011-0.01-0.064-0.1-0.076-0.108l4.693-4.087c0.014,0.007,0.059,0.035,0.059,0.09l0,1.774
		c0,0.276,0.224,0.5,0.5,0.5c0.01,0,0.021,0,0.034-0.001c5.105,0.529,8.805,2.98,8.805,5.84
		C19.011,15.559,17.859,17.053,15.854,18.155z"/>
	<path d="M11.991,0.36c-6.429,0-11.659,5.23-11.659,11.659s5.23,11.659,11.659,11.659s11.659-5.23,11.659-11.659
		S18.42,0.36,11.991,0.36z M11.991,22.678c-5.877,0-10.659-4.781-10.659-10.659c0-5.877,4.782-10.659,10.659-10.659
		c5.878,0,10.659,4.782,10.659,10.659C22.65,17.897,17.869,22.678,11.991,22.678z"/>
</g>
</svg>
