<?xml version="1.0" encoding="utf-8"?>
<!-- Generator: Adobe Illustrator 19.2.0, SVG Export Plug-In . SVG Version: 6.00 Build 0)  -->
<svg version="1.1" id="Layer_1" xmlns="http://www.w3.org/2000/svg" xmlns:xlink="http://www.w3.org/1999/xlink" x="0px" y="0px"
	 width="24px" height="24px" viewBox="0 0 24 24" style="enable-background:new 0 0 24 24;" xml:space="preserve">
<path d="M20.926,9.08l-8.879-0.95l-0.001-3.113c0-0.586-0.328-1.116-0.856-1.384c-0.524-0.266-1.124-0.218-1.618,0.145l-8.77,6.993
	c-0.407,0.296-0.639,0.755-0.638,1.258c0.001,0.501,0.234,0.957,0.62,1.234l8.805,7.021c0.263,0.19,0.582,0.288,0.904,0.288
	c0.25,0,0.501-0.058,0.732-0.176c0.515-0.262,0.822-0.772,0.822-1.365l-0.001-3.113l8.901-0.953
	c1.968-0.293,2.865-1.669,2.882-2.902C23.844,10.834,22.964,9.437,20.926,9.08z M20.82,13.973l-9.328,0.998
	c-0.254,0.027-0.447,0.241-0.447,0.497l0.001,3.562c0,0.276-0.15,0.41-0.276,0.475c-0.192,0.1-0.433,0.087-0.576-0.017l-8.806-7.023
	c-0.143-0.103-0.224-0.263-0.225-0.44c0-0.179,0.082-0.341,0.244-0.46l8.771-6.993c0.111-0.081,0.22-0.107,0.313-0.107
	c0.109,0,0.198,0.036,0.246,0.06c0.149,0.076,0.309,0.245,0.309,0.492l0.001,3.562c0,0.256,0.193,0.47,0.447,0.497l9.292,0.994
	c1.522,0.268,2.052,1.233,2.042,1.979C22.817,12.86,22.186,13.769,20.82,13.973z"/>
</svg>
