<?xml version="1.0" encoding="utf-8"?>
<!-- Generator: Adobe Illustrator 19.2.0, SVG Export Plug-In . SVG Version: 6.00 Build 0)  -->
<svg version="1.1" id="Layer_1" xmlns="http://www.w3.org/2000/svg" xmlns:xlink="http://www.w3.org/1999/xlink" x="0px" y="0px"
	 width="24px" height="24px" viewBox="0 0 24 24" style="enable-background:new 0 0 24 24;" xml:space="preserve">
<g>
	<path d="M18.307,6.001l-2.021,2.021c-0.195,0.195-0.195,0.512,0,0.707c0.098,0.098,0.226,0.146,0.354,0.146
		s0.256-0.049,0.354-0.146l2.867-2.867c0.099-0.099,0.147-0.228,0.146-0.357c0-0.001,0.001-0.002,0.001-0.004
		c0-0.148-0.067-0.278-0.17-0.369l-2.844-2.844c-0.195-0.195-0.512-0.195-0.707,0s-0.195,0.512,0,0.707l2.006,2.006H4.669
		C2.095,5.001,0,7.113,0,9.708v3.293c0,0.276,0.224,0.5,0.5,0.5s0.5-0.223,0.5-0.5V9.708c0-2.044,1.646-3.707,3.669-3.707H18.307z"
		/>
	<path d="M23.5,10.501c-0.276,0-0.5,0.224-0.5,0.5v3.297c0,2.041-1.653,3.702-3.687,3.702H5.68l2.017-2.017
		c0.195-0.195,0.195-0.512,0-0.707s-0.512-0.195-0.707,0l-2.867,2.867c-0.098,0.098-0.147,0.227-0.146,0.355c0,0,0,0.001,0,0.001
		c0,0.029,0.012,0.055,0.017,0.083C3.999,18.619,4,18.654,4.014,18.687c0.027,0.067,0.067,0.125,0.118,0.173l2.858,2.858
		c0.098,0.098,0.226,0.146,0.354,0.146s0.256-0.049,0.354-0.146c0.195-0.195,0.195-0.512,0-0.707l-2.011-2.011h13.627
		c2.584,0,4.687-2.109,4.687-4.702v-3.297C24,10.725,23.776,10.501,23.5,10.501z"/>
</g>
</svg>
