<?xml version="1.0" encoding="utf-8"?>
<!-- Generator: Adobe Illustrator 19.2.0, SVG Export Plug-In . SVG Version: 6.00 Build 0)  -->
<svg version="1.1" id="Layer_1" xmlns="http://www.w3.org/2000/svg" xmlns:xlink="http://www.w3.org/1999/xlink" x="0px" y="0px"
	 width="24px" height="24px" viewBox="0 0 24 24" style="enable-background:new 0 0 24 24;" xml:space="preserve">
<g>
	<path d="M11.99,0.195c-6.51,0-11.807,5.297-11.807,11.807c0,6.51,5.297,11.807,11.807,11.807s11.807-5.297,11.807-11.807
		C23.797,5.491,18.5,0.195,11.99,0.195z M11.99,22.808c-5.959,0-10.807-4.848-10.807-10.807S6.031,1.195,11.99,1.195
		c5.959,0,10.807,4.848,10.807,10.807S17.949,22.808,11.99,22.808z"/>
	<path d="M17.784,11.502H7.51l3.891-3.891c0.195-0.195,0.195-0.512,0-0.707s-0.512-0.195-0.707,0L5.95,11.648
		c-0.046,0.046-0.083,0.102-0.109,0.163c-0.051,0.122-0.051,0.26,0,0.382c0.025,0.062,0.062,0.117,0.109,0.163l4.744,4.745
		c0.098,0.098,0.226,0.146,0.354,0.146s0.256-0.049,0.354-0.146c0.195-0.195,0.195-0.512,0-0.707L7.51,12.502h10.274
		c0.276,0,0.5-0.224,0.5-0.5S18.061,11.502,17.784,11.502z"/>
</g>
</svg>
