<?xml version="1.0" encoding="utf-8"?>
<!-- Generator: Adobe Illustrator 19.2.0, SVG Export Plug-In . SVG Version: 6.00 Build 0)  -->
<svg version="1.1" id="Layer_1" xmlns="http://www.w3.org/2000/svg" xmlns:xlink="http://www.w3.org/1999/xlink" x="0px" y="0px"
	 width="24px" height="24px" viewBox="0 0 24 24" style="enable-background:new 0 0 24 24;" xml:space="preserve">
<g>
	<path d="M21.952,16.308c-0.025-0.061-0.062-0.116-0.108-0.162l-2.737-2.736c-0.195-0.195-0.512-0.195-0.707,0s-0.195,0.512,0,0.707
		l1.884,1.883H2.491c-0.276,0-0.5,0.224-0.5,0.5s0.224,0.5,0.5,0.5h17.793L18.4,18.885c-0.195,0.195-0.195,0.512,0,0.707
		c0.098,0.098,0.226,0.146,0.354,0.146s0.256-0.049,0.354-0.146l2.737-2.737c0.046-0.046,0.083-0.101,0.108-0.162
		c0.025-0.06,0.039-0.126,0.039-0.192S21.978,16.369,21.952,16.308z"/>
	<path d="M2.491,8h17.793L18.4,9.884c-0.195,0.195-0.195,0.512,0,0.707c0.098,0.098,0.226,0.146,0.354,0.146
		s0.256-0.049,0.354-0.146l2.737-2.736c0.046-0.046,0.083-0.101,0.108-0.162c0.025-0.06,0.039-0.126,0.039-0.192
		s-0.014-0.132-0.039-0.192c-0.025-0.061-0.062-0.116-0.108-0.162L19.107,4.41c-0.195-0.195-0.512-0.195-0.707,0
		s-0.195,0.512,0,0.707L20.284,7H2.491c-0.276,0-0.5,0.224-0.5,0.5S2.215,8,2.491,8z"/>
</g>
</svg>
