<?xml version="1.0" encoding="utf-8"?>
<!-- Generator: Adobe Illustrator 19.2.0, SVG Export Plug-In . SVG Version: 6.00 Build 0)  -->
<svg version="1.1" id="Layer_1" xmlns="http://www.w3.org/2000/svg" xmlns:xlink="http://www.w3.org/1999/xlink" x="0px" y="0px"
	 width="24px" height="24px" viewBox="0 0 24 24" style="enable-background:new 0 0 24 24;" xml:space="preserve">
<g>
	<path d="M23.367,9.246c-0.216-0.171-0.53-0.139-0.703,0.077l-1.184,1.475c-0.632-4.697-4.62-8.333-9.442-8.333
		c-5.268,0-9.554,4.286-9.554,9.554c0,5.268,4.286,9.554,9.554,9.554c0.276,0,0.5-0.224,0.5-0.5s-0.224-0.5-0.5-0.5
		c-4.717,0-8.554-3.837-8.554-8.554s3.837-8.554,8.554-8.554c4.337,0,7.922,3.289,8.461,7.528l-1.571-1.261
		c-0.213-0.171-0.529-0.138-0.702,0.077s-0.139,0.53,0.077,0.703l2.462,1.976c0.008,0.006,0.019,0.004,0.027,0.01
		c0.082,0.059,0.177,0.1,0.285,0.1c0.073,0,0.141-0.017,0.204-0.045c0.016-0.007,0.029-0.021,0.044-0.03
		c0.046-0.027,0.088-0.058,0.123-0.097c0.005-0.006,0.013-0.008,0.018-0.015l1.977-2.462C23.616,9.734,23.582,9.419,23.367,9.246z"
		/>
	<path d="M14.025,10.032c-0.195-0.195-0.512-0.195-0.707,0l-1.28,1.28l-1.28-1.28c-0.195-0.195-0.512-0.195-0.707,0
		s-0.195,0.512,0,0.707l1.28,1.28l-1.28,1.28c-0.195,0.195-0.195,0.512,0,0.707c0.098,0.098,0.226,0.146,0.354,0.146
		s0.256-0.049,0.354-0.146l1.28-1.28l1.28,1.28c0.098,0.098,0.226,0.146,0.354,0.146s0.256-0.049,0.354-0.146
		c0.195-0.195,0.195-0.512,0-0.707l-1.28-1.28l1.28-1.28C14.221,10.544,14.221,10.227,14.025,10.032z"/>
</g>
</svg>
