<?xml version="1.0" encoding="utf-8"?>
<!-- Generator: Adobe Illustrator 19.2.0, SVG Export Plug-In . SVG Version: 6.00 Build 0)  -->
<svg version="1.1" id="Layer_1" xmlns="http://www.w3.org/2000/svg" xmlns:xlink="http://www.w3.org/1999/xlink" x="0px" y="0px"
	 width="24px" height="24px" viewBox="0 0 24 24" style="enable-background:new 0 0 24 24;" xml:space="preserve">
<path d="M21.901,17.321c-0.025-0.062-0.062-0.117-0.109-0.163l-3.065-3.065c-0.195-0.195-0.512-0.195-0.707,0s-0.195,0.512,0,0.707
	l2.212,2.212h-4.921c-0.018,0-1.775-0.012-2.741-0.988c-0.422-0.427-0.624-0.969-0.616-1.656c0.009-0.756-0.253-1.408-0.777-1.938
	c-0.421-0.426-0.972-0.723-1.54-0.933c0.568-0.21,1.119-0.508,1.54-0.933c0.524-0.53,0.786-1.183,0.777-1.938
	c-0.008-0.686,0.192-1.227,0.613-1.653c0.958-0.974,2.727-0.991,2.744-0.991h4.921l-2.212,2.211c-0.195,0.195-0.195,0.512,0,0.707
	c0.098,0.098,0.226,0.146,0.354,0.146s0.256-0.049,0.354-0.146l3.065-3.064c0.046-0.046,0.083-0.101,0.108-0.162
	c0.025-0.06,0.039-0.126,0.039-0.192s-0.014-0.132-0.039-0.192c-0.025-0.061-0.062-0.116-0.108-0.162l-3.065-3.065
	c-0.195-0.195-0.512-0.195-0.707,0s-0.195,0.512,0,0.707l2.212,2.212h-4.921c-0.089,0-2.196,0.015-3.452,1.285
	c-0.611,0.618-0.915,1.416-0.904,2.371c0.006,0.484-0.154,0.884-0.487,1.222c-1.105,1.12-3.627,1.137-3.652,1.137H1.562
	c-0.276,0-0.5,0.224-0.5,0.5c0,0,0,0,0,0s0,0,0,0c0,0.276,0.224,0.5,0.5,0.5h5.253c0.025,0,2.548,0.017,3.653,1.137
	c0.333,0.338,0.493,0.738,0.487,1.222c-0.011,0.955,0.293,1.753,0.904,2.371c1.256,1.271,3.363,1.285,3.452,1.285h4.921
	l-2.212,2.212c-0.195,0.195-0.195,0.512,0,0.707c0.098,0.098,0.226,0.146,0.354,0.146s0.256-0.049,0.354-0.146l3.065-3.065
	c0.046-0.046,0.083-0.102,0.109-0.163C21.952,17.58,21.952,17.443,21.901,17.321z"/>
</svg>
