<?xml version="1.0" encoding="utf-8"?>
<!-- Generator: Adobe Illustrator 19.2.0, SVG Export Plug-In . SVG Version: 6.00 Build 0)  -->
<svg version="1.1" id="Layer_1" xmlns="http://www.w3.org/2000/svg" xmlns:xlink="http://www.w3.org/1999/xlink" x="0px" y="0px"
	 width="24px" height="24px" viewBox="0 0 24 24" style="enable-background:new 0 0 24 24;" xml:space="preserve">
<path d="M22.437,2.228c-0.751-0.766-1.749-1.188-2.812-1.187c-1.062,0-2.061,0.421-2.811,1.187L6.196,13.063
	c-1.09,1.114-1.09,2.926,0,4.038c0.532,0.543,1.239,0.842,1.992,0.842c0,0,0,0,0,0c0.753,0,1.46-0.299,1.992-0.842l7.758-7.915
	c0.193-0.197,0.189-0.514-0.008-0.707c-0.195-0.194-0.512-0.189-0.707,0.007l-7.757,7.916c-0.342,0.349-0.796,0.541-1.278,0.541h0
	c-0.482,0-0.936-0.192-1.278-0.541c-0.712-0.728-0.712-1.911,0-2.64L17.529,2.928c1.122-1.145,3.072-1.143,4.192,0
	c1.164,1.187,1.164,3.119,0,4.306L8.445,20.783c-0.779,0.794-1.813,1.231-2.914,1.231c-1.1,0-2.135-0.438-2.914-1.231
	c-1.615-1.647-1.615-4.328,0-5.977L13.031,4.18c0.193-0.197,0.19-0.514-0.007-0.707c-0.198-0.195-0.514-0.191-0.707,0.007
	L1.903,14.107c-1.993,2.033-1.993,5.342,0,7.375c0.968,0.988,2.257,1.532,3.628,1.532c1.371,0,2.659-0.544,3.627-1.532L22.437,7.935
	C23.978,6.362,23.978,3.802,22.437,2.228z"/>
</svg>
