<svg xmlns="http://www.w3.org/2000/svg" width="68" height="68"><path d="M24.87 1.058c-.02-.427.3-.79.736-.808s.788.31.808.736c.002.038.737 13.25-10.162 13.032a9.25 9.25 0 0 0-1.546.101c-2.193.326-4.232 1.427-5.735 3.084s-2.47 3.87-2.52 6.42a11.18 11.18 0 0 0 .124 1.867.77.77 0 0 1-.037.374c-.352 1.27-.833 2.676-1.368 4.233C3.59 34.7 1.55 40.65 1.55 46.654c0 .817 1.834 3.065 6.008 6.22 3.01 2.276 7.19 4.933 12.71 7.737l1.588-3.05c-.824-1.122-1.58-2.37-2.337-3.62-1.9-3.134-3.816-6.297-6.78-7.252-.406-.13-.63-.566-.5-.972a.77.77 0 0 1 .156-.275c.948-1.202 1.627-2.095 2.137-3.657.534-1.638.906-4.037 1.232-8.272.032-.427.403-.746.83-.715a.77.77 0 0 1 .333.103c.026.014 8.904 5.105 10.474 13.842 1.392 7.743-.038 11.133-.362 11.774l-1.92 7.872 27.384.022c.163-1.456.5-4.812.248-5.597-.19-.596.222-2.633.786-5.4 1.017-5 2.55-12.56 2.008-16.887-.844-6.755-1.993-12.598-1.996-12.615-.082-.42.192-.826.612-.908.04-.008.082-.013.123-.014 2.963-.203 5.47-.893 7.47-1.97 1.976-1.064 3.456-2.508 4.387-4.232V9.074l-4.23.292c-2.176.175-2.748.22-4.892-.126-.048-.008-.094-.02-.138-.035v.002c-1.862-.665-3.884-.795-5.76-.637-2.58.217-4.856.97-6.086 1.637a.77.77 0 0 1-.369.094v.003c-1.34 0-2.708-.662-3.872-1.66a10.01 10.01 0 0 1-2.208-2.714c-.57-1.033-.91-2.128-.91-3.128 0-.854.243-1.642.792-2.283.277-.324.766-.362 1.1-.085s.362.766.085 1.1c-.29.337-.417.78-.417 1.278 0 .734.27 1.57.718 2.384.465.844 1.116 1.65 1.857 2.284.845.724 1.795 1.22 2.692 1.278 1.413-.72 3.826-1.497 6.502-1.723 2.052-.173 4.274-.028 6.35.702 1.882.3 2.432.257 4.447.095l5.028-.332a.76.76 0 0 1 .098-.006c.428 0 .775.347.775.775l-.002 10.71c0 .12-.027.24-.086.354-1.068 2.077-2.796 3.803-5.117 5.053-1.995 1.074-4.43 1.795-7.257 2.08.348 1.87 1.194 6.604 1.853 11.877.57 4.556-.994 12.262-2.032 17.377-.517 2.55-.897 4.42-.83 4.635.43 1.345-.258 6.92-.26 6.935h-.002c-.046.382-.372.678-.767.678l-28.946-.024c-.052.004-.105.003-.16-.003-.425-.052-.727-.438-.675-.863.148-1.18 2.142-8.996 2.147-9.02.02-.07.046-.138.085-.203.005-.008 1.69-2.74.237-10.83-1.124-6.252-6.397-10.512-8.68-12.093-.313 3.582-.684 5.762-1.2 7.34-.47 1.44-1.045 2.364-1.79 3.354 2.92 1.405 4.782 4.476 6.628 7.523.81 1.34 1.62 2.673 2.508 3.832.207.233.26.578.108.87L21.29 62a.77.77 0 0 1-1.03.334C14.292 59.35 9.815 56.52 6.626 54.11 2.023 50.63 0 47.846 0 46.654c0-6.258 2.09-12.35 3.704-17.06.524-1.527.998-2.91 1.316-4.038-.1-.663-.127-1.32-.114-1.964.06-2.95 1.18-5.51 2.92-7.43a11.27 11.27 0 0 1 6.655-3.575 10.79 10.79 0 0 1 1.8-.113c9.23.184 8.59-11.382 8.588-11.415zm14.533 38.3c2.532 0 4.825 1.026 6.485 2.686a9.14 9.14 0 0 1 2.686 6.485c0 2.532-1.026 4.825-2.686 6.485a9.17 9.17 0 0 1-3.618 2.229c-.09 1.08-.247 2.146-.482 3.192-.094.416-.507.678-.923.584s-.678-.507-.584-.923a21.38 21.38 0 0 0 .403-2.484 9.26 9.26 0 0 1-1.28.089 9.14 9.14 0 0 1-6.485-2.686c-1.66-1.66-2.686-3.953-2.686-6.485s1.027-4.825 2.686-6.485c1.245-1.245 2.847-2.134 4.64-2.5-1.632-4.38-3.54-8.236-4.892-10.943-3.53-7.058-1.376-14.008-1.37-14.028.122-.4.553-.643.963-.52s.643.553.52.963c-.006.018-1.982 6.398 1.266 12.895 1.4 2.82 3.412 6.87 5.095 11.45.087-.003.175-.004.262-.004zm5.39 3.782c-1.316-1.316-3.11-2.153-5.102-2.227l.467 1.42.194.624a5.64 5.64 0 0 1 3.049 1.576c1.023 1.023 1.656 2.436 1.656 3.996s-.633 2.973-1.656 3.996c-.324.324-.687.61-1.082.847.04.73.052 1.46.038 2.185.917-.386 1.743-.946 2.437-1.64 1.38-1.38 2.232-3.285 2.232-5.39a7.6 7.6 0 0 0-2.232-5.389zM38.1 41.02c-1.578.274-3 1.034-4.075 2.12-1.38 1.38-2.232 3.285-2.232 5.39s.853 4 2.232 5.39 3.285 2.232 5.39 2.232a7.66 7.66 0 0 0 1.393-.127c.026-.667.026-1.34.002-2.016-.446.113-.914.174-1.395.174-1.56 0-2.973-.633-3.996-1.655s-1.656-2.436-1.656-3.996.633-2.973 1.656-3.996c.87-.87 2.024-1.458 3.31-1.614l-.038-.12-.59-1.778zm4.58 4.243c-.545-.545-1.225-.954-1.985-1.173a51.93 51.93 0 0 1 .775 3.095c.253.386.4.847.4 1.343a2.46 2.46 0 0 1-.045.471 38.48 38.48 0 0 1 .421 3.179c.153-.12.3-.247.436-.384.836-.836 1.353-2 1.353-3.266s-.517-2.43-1.353-3.266zm-3.645-1.337c-1.124.09-2.134.585-2.886 1.337-.836.836-1.353 2-1.353 3.266s.517 2.43 1.353 3.266 2 1.353 3.266 1.353c.466 0 .916-.07 1.34-.197-.05-.742-.13-1.486-.23-2.23-.333.17-.7.265-1.1.265-.678 0-1.29-.275-1.735-.72s-.72-1.058-.72-1.735.275-1.29.72-1.735 1.058-.72 1.735-.72a2.39 2.39 0 0 1 .207.009 53.55 53.55 0 0 0-.587-2.157zm.783 2.972a1.67 1.67 0 0 0-.403-.049c-.464 0-.884.188-1.187.492s-.492.724-.492 1.188.188.884.492 1.187.724.492 1.187.492c.37 0 .71-.12.988-.32a43.21 43.21 0 0 0-.585-2.989zM38 29.41c-.35-.243-.44-.724-.197-1.075s.724-.44 1.075-.197c1.866 1.292 3.74 2.31 5.484 2.39 1.654.074 3.268-.738 4.77-3.065.23-.36.71-.464 1.07-.233s.464.71.233 1.07c-1.855 2.873-3.944 3.87-6.138 3.774-2.103-.094-4.224-1.227-6.295-2.66zm-15.294 2.954c-.32-.284-.348-.774-.064-1.093s.774-.348 1.093-.064c.893.795 1.886 1.28 2.824 1.32.798.033 1.578-.27 2.24-1.004.286-.318.775-.344 1.093-.058s.343.775.057 1.093c-.998 1.108-2.202 1.565-3.45 1.513-1.31-.054-2.642-.683-3.793-1.707z" fill="#83003f" fill-rule="nonzero"/></svg>