<?xml version="1.0" encoding="utf-8"?>
<!-- Generator: Adobe Illustrator 19.2.0, SVG Export Plug-In . SVG Version: 6.00 Build 0)  -->
<svg version="1.1" id="Layer_1" xmlns="http://www.w3.org/2000/svg" xmlns:xlink="http://www.w3.org/1999/xlink" x="0px" y="0px"
	 width="24px" height="24px" viewBox="0 0 24 24" style="enable-background:new 0 0 24 24;" xml:space="preserve">
<g>
	<path d="M23.511,4.865H7.209c-0.133,0-0.26,0.053-0.354,0.146l-6.633,6.632c-0.094,0.094-0.146,0.221-0.146,0.354
		s0.053,0.26,0.146,0.354l6.633,6.632c0.094,0.094,0.221,0.146,0.354,0.146h16.302c0.276,0,0.5-0.224,0.5-0.5V5.365
		C24.011,5.089,23.787,4.865,23.511,4.865z M23.011,18.13H7.416l-6.133-6.132l6.133-6.132h15.595V18.13z"/>
	<path d="M10.33,15.697c0.098,0.098,0.226,0.146,0.354,0.146s0.256-0.049,0.354-0.146l2.992-2.993l2.992,2.993
		c0.098,0.098,0.226,0.146,0.354,0.146s0.256-0.049,0.354-0.146c0.195-0.195,0.195-0.512,0-0.707l-2.992-2.993l2.992-2.993
		c0.195-0.195,0.195-0.512,0-0.707s-0.512-0.195-0.707,0l-2.992,2.993l-2.992-2.993c-0.195-0.195-0.512-0.195-0.707,0
		s-0.195,0.512,0,0.707l2.992,2.993L10.33,14.99C10.134,15.185,10.134,15.502,10.33,15.697z"/>
</g>
</svg>
