<svg xmlns="http://www.w3.org/2000/svg" width="68" height="48"><path d="M.353 19.56l2.55-1.658 3.243-5.946.16-.3c.504-.943 1-1.853 2.056-2.384l16.215-8.07C26.267.05 28.026.01 29.383.622c.6.27 1.123.67 1.526 1.157.4.496.698 1.083.826 1.72.268 1.34-.166 2.886-1.674 4.247a.79.79 0 0 1-.087.067l-9.767 7.82a.66.66 0 0 0 .061.195.31.31 0 0 0 .099.123c.04.028.09.047.15.053 2.15.23 4.478.295 7.072.233l8.668-.53 18.06-5.58c2.13-.658 3.98-.12 5.127.93.466.426.816.935 1.027 1.484.216.563.287 1.17.187 1.78-.213 1.3-1.197 2.573-3.2 3.342l-.034.012-11.007 3.63 14.94-1.506c2.703-.435 4.564.428 5.543 1.738a4.01 4.01 0 0 1 .791 2.133c.05.753-.11 1.52-.488 2.206-.762 1.4-2.39 2.45-4.885 2.384l-10.824.93 9.62.43c2.105.094 3.393 1.1 3.94 2.358.226.52.322 1.08.294 1.635s-.176 1.102-.44 1.604c-.67 1.28-2.08 2.26-4.11 2.204l-12.12.48 5.87.82c2.46.205 3.95 1.293 4.56 2.536.244.5.35 1.022.323 1.53-.028.52-.19 1.02-.483 1.46-.666 1.004-1.99 1.694-3.87 1.535l-.07-.01-19.16-1.85c-3.72.78-7.728 1.305-12.09 1.517-4.392.213-9.145.106-14.327-.38-.62-.058-1.2-.053-1.766.02-.558.072-1.117.215-1.706.43L1.177 47.26c-.4.147-.846-.06-.993-.46-.038-.105-.053-.213-.046-.318L.002 20.21a.77.77 0 0 1 .351-.651zM7.26 13.14C8.913 17.28 10.606 21 12.395 24.24c1.588 2.876 3.25 5.377 5.027 7.462l-.005-2.282c.037-4.87.393-9.55 1.32-13.297a1.9 1.9 0 0 1-.073-.647c.027-.372.176-.72.504-.983l9.86-7.895c1.045-.943 1.358-1.95 1.19-2.794a2.35 2.35 0 0 0-.499-1.037 2.69 2.69 0 0 0-.969-.733c-.908-.41-2.1-.365-3.298.445a.77.77 0 0 1-.147.095L9.055 10.658c-.63.314-1 1.006-1.384 1.724l-.167.31-.245.448zm12.274 4.112c-.755 3.506-1.054 7.756-1.087 12.17-.01 1.2.002 2.4.028 3.624.001.014.001.028.001.042.083 3.737.316 7.487.587 10.907 1.58.005 3.115-.03 4.608-.102a82.17 82.17 0 0 0 2.721-.177 158.37 158.37 0 0 1-.551-13.015 154.5 154.5 0 0 1 .523-12.9c-2.17.018-4.155-.06-6.01-.26-.302-.033-.58-.132-.82-.3zm-2.696 26.7c-2.582-2.323-5.574-5.887-8.264-10.27C6.13 29.71 3.93 25.04 2.508 20l-.96.624.128 24.803 3.735-1.372c.686-.252 1.355-.42 2.045-.5a9.36 9.36 0 0 1 2.1-.027c2.528.238 4.952.383 7.282.445zM3.414 19.412c1.39 5.057 3.59 9.75 6.04 13.743 2.805 4.57 5.93 8.22 8.543 10.454-.252-3.247-.465-6.78-.547-10.322-2.134-2.314-4.1-5.184-5.96-8.552-1.697-3.075-3.306-6.563-4.872-10.42L4.18 18.8c-.06.118-.15.223-.27.3l-.496.322zM27.42 43.627c1.99-.19 3.9-.447 5.742-.767a157.25 157.25 0 0 1-.327-12.794 154.07 154.07 0 0 1 .707-12.587c-2.106.153-4.067.258-5.917.303l-.224.005c-.36 4.31-.536 8.615-.53 12.916a157.18 157.18 0 0 0 .551 12.924zm6.763-.953l1.445-.29a.79.79 0 0 1 .23-.012l19.282 1.863c.016.001.032.001.048.002 1.248.106 2.078-.277 2.454-.845.138-.21.216-.444.23-.685.013-.253-.04-.518-.166-.772-.394-.804-1.46-1.517-3.3-1.67v-.001c-.014-.001-.028-.003-.043-.005l-14.462-2.024c-.364-.05-.65-.356-.666-.736-.017-.427.315-.786.742-.802l20.77-.82a.96.96 0 0 1 .055 0c1.373.045 2.3-.572 2.725-1.38a2.31 2.31 0 0 0 .264-.956c.016-.324-.038-.648-.167-.945-.33-.76-1.17-1.37-2.6-1.432l-21.427-.954c-.408.01-.758-.3-.79-.71-.035-.426.282-.8.708-.836L62.2 26.718c.03-.003.058-.003.088-.002 1.86.064 3.032-.646 3.546-1.583.232-.423.332-.895.3-1.358s-.194-.916-.488-1.31c-.668-.895-2.022-1.47-4.073-1.135-.016.002-.032.004-.048.006l-21.942 2.213c-.372.065-.746-.15-.868-.52-.134-.406.087-.844.493-.978l17.707-5.84c1.41-.544 2.086-1.346 2.215-2.135.054-.33.013-.666-.11-.982a2.38 2.38 0 0 0-.621-.897c-.78-.715-2.083-1.068-3.63-.59l-18.092 5.6a.77.77 0 0 1-.218.05l-1.875.154c-.416 4.222-.656 8.448-.72 12.678-.064 4.182.043 8.38.32 12.596z" fill="#83003f" fill-rule="nonzero"/></svg>