<svg xmlns="http://www.w3.org/2000/svg" width="64" height="68"><path d="M4.23 17.122L29.43.652A3.9 3.9 0 0 1 31.571 0a3.9 3.9 0 0 1 2.14.652l25.2 16.47h1.026a1.98 1.98 0 0 1 1.405.587 2 2 0 0 1 .583 1.412v1.22c0 .43-.347.78-.775.78h-1.6v3.796c0 .72-.293 1.374-.764 1.848l-.032.03c-.4.4-.925.653-1.505.72v1.246c0 .365-.15.7-.39.942l.001.001a1.32 1.32 0 0 1-.938.392h-.128v27.85h.128a1.32 1.32 0 0 1 .938.392c.24.242.4.576.4.943v1.23h1.09c.437 0 .836.18 1.125.47h.001a1.6 1.6 0 0 1 .468 1.132v1.235H61.3c.5 0 .974.21 1.31.546a1.86 1.86 0 0 1 .544 1.316v2.014c0 .43-.347.78-.775.78H.775C.347 68 0 67.65 0 67.22v-2.014c0-.5.21-.975.545-1.314l-.002-.002c.335-.337.8-.546 1.31-.546h1.363V62.11a1.6 1.6 0 0 1 .469-1.131h-.001c.29-.3.687-.47 1.126-.47H5.9v-1.23a1.33 1.33 0 0 1 .357-.908l.032-.036a1.32 1.32 0 0 1 .938-.392h.13l.033-27.85H7.23a1.32 1.32 0 0 1-.937-.393l-.001.001c-.24-.242-.4-.576-.4-.943v-1.246a2.6 2.6 0 0 1-1.535-.751l-.001.001c-.47-.474-.764-1.128-.764-1.848V21.12h-1.6c-.428 0-.775-.35-.775-.78v-1.22a2 2 0 0 1 .584-1.412 1.98 1.98 0 0 1 1.405-.587H4.23zm51.847 0L32.87 1.954c-.404-.264-.852-.396-1.3-.396s-.895.132-1.3.396L7.064 17.122H56.08zm2.43 3.998H4.634v3.796c0 .433.177.828.46 1.114h-.001.001a1.56 1.56 0 0 0 1.108.462H56.94a1.56 1.56 0 0 0 1.086-.44l.022-.024c.284-.286.46-.68.46-1.114V21.12zm1.43-2.44H3.205c-.12 0-.23.05-.3.13s-.13.19-.13.31v.442h57.612v-.442a.44.44 0 0 0-.13-.311c-.08-.08-.2-.13-.3-.13zM31.924 39v.642a.52.52 0 0 1-.516.519.52.52 0 0 1-.516-.519v-.69a1.9 1.9 0 0 1-.34-.158c-.358-.21-.62-.525-.74-.787a1.13 1.13 0 0 1-.074-.212.52.52 0 0 1 .385-.623c.277-.065.555.108.62.387l.005.014c.047.103.16.232.325.33a.8.8 0 0 0 .6.091c.065-.015.132-.038.2-.07a.57.57 0 0 0 .302-.297c.042-.103.05-.22.032-.335a.69.69 0 0 0-.141-.321.47.47 0 0 0-.308-.177v-.002l-.715-.112-.02-.002c-.4-.05-.747-.26-.986-.554-.186-.23-.3-.51-.36-.803s-.02-.6.097-.9c.142-.348.41-.653.823-.845a2.09 2.09 0 0 1 .296-.112v-.332a.52.52 0 0 1 .516-.519.52.52 0 0 1 .516.519v.328c.153.045.295.1.424.186.358.21.62.525.74.787a1.13 1.13 0 0 1 .074.212.52.52 0 0 1-.386.623c-.277.065-.555-.108-.62-.387l-.006-.013c-.047-.103-.16-.233-.325-.33-.114-.067-.25-.113-.404-.114h-.025a.82.82 0 0 0-.171.022 1.02 1.02 0 0 0-.201.071.57.57 0 0 0-.303.297.62.62 0 0 0-.032.335.69.69 0 0 0 .141.321.47.47 0 0 0 .308.177l.06.01.676.106v-.001c.4.05.747.26.986.554.186.23.31.5.36.803a1.66 1.66 0 0 1-.097.899c-.142.347-.41.653-.823.845a2.08 2.08 0 0 1-.38.135zm-.473-9.074c1.74 0 3.315.71 4.454 1.855s1.845 2.73 1.845 4.477-.705 3.33-1.845 4.477-2.715 1.855-4.454 1.855-3.314-.71-4.454-1.855-1.845-2.73-1.845-4.477.705-3.33 1.845-4.477 2.715-1.855 4.454-1.855zm3.36 2.956c-.86-.864-2.047-1.398-3.36-1.398s-2.5.534-3.36 1.398a4.77 4.77 0 0 0 0 6.752c.86.864 2.047 1.398 3.36 1.398s2.5-.534 3.36-1.398a4.77 4.77 0 0 0 0-6.752zm17.862 8.963a.39.39 0 0 1 .387-.389.39.39 0 0 1 .387.389v.607a.39.39 0 0 1-.387.389.39.39 0 0 1-.387-.389v-.607zm0 2.532a.39.39 0 0 1 .387-.389.39.39 0 0 1 .387.389v10.227a.39.39 0 0 1-.387.389.39.39 0 0 1-.387-.389V44.368zM42.345 34.1a.39.39 0 0 1 .387-.389.39.39 0 0 1 .387.389v.644a.39.39 0 0 1-.387.389.39.39 0 0 1-.387-.389V34.1zm0 3.662a.39.39 0 0 1 .387-.389.39.39 0 0 1 .387.389v11.39a.39.39 0 0 1-.387.389.39.39 0 0 1-.387-.389v-11.39zm-21.112 4.073a.39.39 0 0 1 .387-.389.39.39 0 0 1 .387.389v.7a.39.39 0 0 1-.387.389.39.39 0 0 1-.387-.389v-.7zm0 2.532a.39.39 0 0 1 .387-.389.39.39 0 0 1 .387.389v5.768a.39.39 0 0 1-.387.389.39.39 0 0 1-.387-.389v-5.768zM10.904 34.1a.39.39 0 0 1 .387-.389.39.39 0 0 1 .387.389v1.99a.39.39 0 0 1-.387.389.39.39 0 0 1-.387-.389V34.1zm0 4.59a.39.39 0 0 1 .387-.389.39.39 0 0 1 .387.389v14.093a.39.39 0 0 1-.387.389.39.39 0 0 1-.387-.389V38.69zM30.84 4.873c.18-.117.418-.066.534.114a.39.39 0 0 1-.113.537l-.872.57c-.18.117-.418.065-.534-.114a.39.39 0 0 1 .114-.537l.87-.57zm-2.56 1.674c.18-.117.418-.066.534.114a.39.39 0 0 1-.113.537l-8.828 5.75c-.18.117-.418.066-.534-.114a.39.39 0 0 1 .113-.537l8.828-5.75zm-10.2 6.666c.18-.117.418-.066.534.114a.39.39 0 0 1-.113.537l-1.228.803c-.18.117-.418.065-.534-.114a.39.39 0 0 1 .113-.537l1.228-.803zM6.934 60.51h7.507v-1.23c0-.083-.033-.157-.085-.21s-.128-.087-.2-.087H7.23c-.08 0-.154.034-.208.087l-.016.015c-.044.052-.07.12-.07.194v1.23zm8.54 0h.756v-1.23c0-.368.15-.702.4-.943v.001-.001a1.32 1.32 0 0 1 .936-.392h.128v-27.85h-.128a1.32 1.32 0 0 1-.936-.392l-.001-.001v.001c-.24-.242-.4-.576-.4-.943v-1.23h-.756v1.23c0 .367-.15.7-.4.943l-.035.032a1.32 1.32 0 0 1-.903.359h-.096l-.033 27.85h.13a1.32 1.32 0 0 1 .937.392c.242.243.392.577.392.943v1.23zm1.79 0h7.507v-1.23c0-.08-.034-.155-.087-.21s-.127-.087-.208-.087h-6.916c-.08 0-.155.033-.21.087h.001c-.054.054-.087.128-.087.21v1.23zm8.54 0h11.54v-1.23a1.33 1.33 0 0 1 .358-.908c.01-.012.02-.024.032-.036a1.32 1.32 0 0 1 .938-.392h.128v-27.85h-.128a1.32 1.32 0 0 1-.937-.393l-.001.001c-.24-.242-.4-.576-.4-.943v-1.23h-11.54v1.23c0 .365-.15.7-.39.942l.001.001a1.32 1.32 0 0 1-.938.392h-.128v27.85h.128a1.32 1.32 0 0 1 .938.392c.24.242.4.576.4.943v1.23zm12.573 0h7.507v-1.23c0-.083-.033-.157-.085-.21s-.128-.087-.2-.087H38.67c-.08 0-.154.034-.208.087l-.016.015c-.044.052-.07.12-.07.194v1.23zm8.54 0h.756v-1.23c0-.368.15-.702.4-.943v.001-.001a1.32 1.32 0 0 1 .936-.392h.128v-27.85h-.128a1.32 1.32 0 0 1-.936-.392l-.001-.001v.001c-.24-.242-.4-.576-.4-.943v-1.23h-.756v1.23c0 .367-.15.7-.4.943l-.035.032a1.32 1.32 0 0 1-.903.359h-.128v27.85h.128a1.32 1.32 0 0 1 .936.392c.242.243.392.577.392.943v1.23zm1.79 0h7.507v-1.23c0-.08-.034-.155-.087-.21s-.127-.087-.208-.087h-6.917c-.08 0-.155.033-.21.087h.001c-.054.054-.087.128-.087.21v1.23zm10.192 2.837V62.11c0-.155-.063-.296-.165-.398v-.001-.001a.56.56 0 0 0-.396-.164H4.8a.56.56 0 0 0-.396.166l-.001-.001-.001.001a.56.56 0 0 0-.163.398v1.235h54.645zm2.396 1.557H1.853c-.083 0-.16.035-.214.1l-.002-.002-.002.002c-.053.054-.087.13-.087.215v1.235h60.044v-1.235c0-.083-.034-.16-.1-.215s-.13-.1-.214-.1zm-6.28-6.958v-27.85H49.9v27.85h5.11zm-10.328 0v-27.85h-5.11v27.85h5.11zm-21.112 0v-27.85h-5.11v27.85h5.11zM56.21 27.53h-7.507v1.23c0 .08.033.155.087.21h-.001c.054.053.128.086.21.086h6.917c.08 0 .154-.033.208-.087h.001.001c.052-.053.085-.127.085-.21v-1.23zm-10.328 0h-7.507v1.23c0 .08.033.155.087.21h-.001.001c.052.053.126.085.208.085h6.916c.074 0 .14-.027.193-.072l.015-.016c.054-.054.087-.128.087-.21v-1.23zm-21.112 0h-7.507v1.23c0 .08.033.155.087.21h-.001c.054.053.128.086.21.086h6.916c.08 0 .154-.033.208-.087h.001.001c.052-.053.085-.127.085-.21v-1.23zm-10.328 0H6.934v1.23c0 .08.033.155.087.21H7.02h.001c.052.053.126.085.208.085h6.916c.074 0 .142-.027.193-.072l.015-.016c.054-.054.087-.128.087-.21v-1.23zm-6.3 30.414h5.114l.033-27.85H8.164l-.033 27.85zm-1.107-34.93a.39.39 0 0 1 .387-.389.39.39 0 0 1 .387.389v1.272a.39.39 0 0 1-.387.389.39.39 0 0 1-.387-.389v-1.272zm48.32 0a.39.39 0 0 1 .387-.389.39.39 0 0 1 .387.389v1.272a.39.39 0 0 1-.387.389.39.39 0 0 1-.387-.389v-1.272zm-4.393 0a.39.39 0 0 1 .387-.389.39.39 0 0 1 .387.389v1.272a.39.39 0 0 1-.387.389.39.39 0 0 1-.387-.389v-1.272zm-4.393 0a.39.39 0 0 1 .387-.389.39.39 0 0 1 .387.389v1.272a.39.39 0 0 1-.387.389.39.39 0 0 1-.387-.389v-1.272zm-4.393 0a.39.39 0 0 1 .387-.389.39.39 0 0 1 .387.389v1.272a.39.39 0 0 1-.387.389.39.39 0 0 1-.387-.389v-1.272zm-4.393 0a.39.39 0 0 1 .387-.389.39.39 0 0 1 .387.389v1.272a.39.39 0 0 1-.387.389.39.39 0 0 1-.387-.389v-1.272zm-4.393 0a.39.39 0 0 1 .387-.389.39.39 0 0 1 .387.389v1.272a.39.39 0 0 1-.387.389.39.39 0 0 1-.387-.389v-1.272zm-4.393 0a.39.39 0 0 1 .387-.389.39.39 0 0 1 .388.389v1.272a.39.39 0 0 1-.388.389.39.39 0 0 1-.387-.389v-1.272zm-4.393 0a.39.39 0 0 1 .387-.389.39.39 0 0 1 .387.389v1.272a.39.39 0 0 1-.387.389.39.39 0 0 1-.387-.389v-1.272zm-4.393 0a.39.39 0 0 1 .387-.389.39.39 0 0 1 .387.389v1.272a.39.39 0 0 1-.387.389.39.39 0 0 1-.387-.389v-1.272zm-4.393 0a.39.39 0 0 1 .387-.389.39.39 0 0 1 .387.389v1.272a.39.39 0 0 1-.387.389.39.39 0 0 1-.387-.389v-1.272zm-4.393 0a.39.39 0 0 1 .387-.389.39.39 0 0 1 .387.389v1.272a.39.39 0 0 1-.387.389.39.39 0 0 1-.387-.389v-1.272z" fill="#83003f" fill-rule="nonzero"/></svg>