<?xml version="1.0" encoding="utf-8"?>
<!-- Generator: Adobe Illustrator 19.2.0, SVG Export Plug-In . SVG Version: 6.00 Build 0)  -->
<svg version="1.1" id="Layer_1" xmlns="http://www.w3.org/2000/svg" xmlns:xlink="http://www.w3.org/1999/xlink" x="0px" y="0px"
	 width="24px" height="24px" viewBox="0 0 24 24" style="enable-background:new 0 0 24 24;" xml:space="preserve">
<g>
	<path d="M5.499,9h-2c-0.276,0-0.5,0.224-0.5,0.5v5c0,0.276,0.224,0.5,0.5,0.5h2c0.276,0,0.5-0.224,0.5-0.5v-5
		C5.999,9.223,5.775,9,5.499,9z M4.999,14h-1v-4h1V14z"/>
	<path d="M9.5,9h-2C7.223,9,7,9.223,7,9.5v5C7,14.776,7.223,15,7.5,15h2c0.276,0,0.5-0.224,0.5-0.5v-5C10,9.223,9.776,9,9.5,9z
		 M9,14H8v-4h1V14z"/>
	<path d="M13.5,9h-2C11.224,9,11,9.223,11,9.5v5c0,0.276,0.224,0.5,0.5,0.5h2c0.276,0,0.5-0.224,0.5-0.5v-5
		C14,9.223,13.776,9,13.5,9z M13,14h-1v-4h1V14z"/>
	<path d="M17.5,9h-2C15.224,9,15,9.223,15,9.5v5c0,0.276,0.224,0.5,0.5,0.5h2c0.276,0,0.5-0.224,0.5-0.5v-5
		C18,9.223,17.776,9,17.5,9z M17,14h-1v-4h1V14z"/>
	<path d="M23.02,9h-1V6c0-0.551-0.448-1-1-1h-20c-0.551,0-1,0.449-1,1v12c0,0.552,0.449,1,1,1h20c0.552,0,1-0.448,1-1v-3h1
		c0.552,0,1-0.448,1-1v-4C24.02,9.448,23.571,9,23.02,9z M23.02,14h-1.5c-0.276,0-0.5,0.224-0.5,0.5V18h-20V6h20v3.5
		c0,0.276,0.224,0.5,0.5,0.5h1.5V14z"/>
</g>
</svg>
