<?xml version="1.0" encoding="utf-8"?>
<!-- Generator: Adobe Illustrator 19.2.0, SVG Export Plug-In . SVG Version: 6.00 Build 0)  -->
<svg version="1.1" id="Layer_1" xmlns="http://www.w3.org/2000/svg" xmlns:xlink="http://www.w3.org/1999/xlink" x="0px" y="0px"
	 width="24px" height="24px" viewBox="0 0 24 24" style="enable-background:new 0 0 24 24;" xml:space="preserve">
<g>
	<path d="M23.024,9h-1V6c0-0.551-0.448-1-1-1h-3.492c-0.276,0-0.5,0.224-0.5,0.5s0.224,0.5,0.5,0.5h3.492v3.5
		c0,0.276,0.224,0.5,0.5,0.5h1.5v4h-1.5c-0.276,0-0.5,0.224-0.5,0.5V18h-8.552c-0.276,0-0.5,0.224-0.5,0.5s0.224,0.5,0.5,0.5h8.552
		c0.552,0,1-0.448,1-1v-3h1c0.552,0,1-0.448,1-1v-4C24.024,9.448,23.576,9,23.024,9z"/>
	<path d="M7.467,18H1.024V6h4.437c0.276,0,0.5-0.224,0.5-0.5S5.737,5,5.461,5H1.024c-0.551,0-1,0.449-1,1v12c0,0.552,0.449,1,1,1
		h6.443c0.276,0,0.5-0.224,0.5-0.5S7.743,18,7.467,18z"/>
	<path d="M14.342,12.247c-0.09-0.152-0.253-0.245-0.43-0.245h-1.85l4.218-6.222c0.104-0.153,0.114-0.352,0.027-0.515
		C16.222,5.102,16.052,5,15.866,5h-1.897l1.557-3.256c0.074-0.155,0.063-0.337-0.028-0.482c-0.092-0.146-0.251-0.233-0.423-0.233
		H9.167c-0.204,0-0.388,0.124-0.464,0.313l-2.795,6.94C5.846,8.436,5.865,8.611,5.958,8.748c0.093,0.138,0.249,0.22,0.415,0.22
		h1.865L5.903,15.26c-0.057,0.153-0.035,0.325,0.058,0.459c0.094,0.135,0.247,0.215,0.411,0.215h2.663v4.581
		c0,0.229,0.155,0.428,0.376,0.484c0.041,0.011,0.083,0.016,0.124,0.016c0.18,0,0.35-0.097,0.439-0.261l4.376-8.012
		C14.436,12.587,14.433,12.399,14.342,12.247z M10.035,18.556v-3.123c0-0.276-0.224-0.5-0.5-0.5H7.091l2.334-6.291
		C9.482,8.489,9.46,8.317,9.367,8.183C9.273,8.049,9.12,7.969,8.956,7.969H7.112l2.393-5.94h4.776l-1.557,3.256
		c-0.074,0.155-0.063,0.337,0.028,0.482C12.844,5.912,13.004,6,13.176,6h1.747l-4.218,6.222c-0.104,0.153-0.114,0.352-0.028,0.515
		c0.087,0.164,0.257,0.266,0.442,0.266h1.95L10.035,18.556z"/>
</g>
</svg>
