<svg xmlns="http://www.w3.org/2000/svg" width="54" height="68"><path d="M51.575 66.18l-.88-17.74c-.138-1.302-.185-2.74-.233-4.214-.198-6.09-.418-12.89-7.907-12.89-3.95 0-9.846-2.484-9.863-2.49-.262-.11-.43-.348-.46-.61l-.698-6.1c-.028-.248.067-.48.237-.64 2.185-2.23 3.472-6.277 3.4-10.177-.028-1.506-.26-2.985-.726-4.322-.456-1.31-1.133-2.477-2.06-3.39-1.34-1.324-3.22-2.132-5.732-2.086-2.568.048-4.492.91-5.858 2.26-1 .99-1.71 2.244-2.168 3.64-.467 1.428-.67 2.998-.64 4.58.068 3.672 1.368 7.382 3.482 9.52.177.18.246.424.208.654l-.693 6.072c-.033.3-.227.523-.482.62-.39.162-6.024 2.482-9.84 2.482-7.025 0-7.427 6.665-7.802 12.886-.09 1.466-.176 2.9-.338 4.23-.345 2.8-.772 14.58-.882 17.727h7.4l1.46-16.744c.036-.416.402-.724.818-.688.36.03.64.3.684.654L15.22 66.18H38l3.226-16.82c.078-.41.474-.677.883-.6.34.065.582.348.6.676h.001l1.46 16.744h7.397zM24.268 33.446a.5.5 0 1 1 0 1.003c-.02 0-6.758-.1-10.622 5.728-.153.23-.465.295-.697.142s-.295-.465-.142-.697c4.166-6.274 11.44-6.177 11.46-6.177zm4.684 1.003a.5.5 0 1 1 0-1.003c.02 0 7.294-.097 11.46 6.177.153.23.1.543-.142.697s-.543.1-.697-.142C35.7 34.36 28.97 34.45 28.952 34.45zm-.018 17.855a.5.5 0 1 1 .035-1.004c.02.001 7.24.197 9.718 5.193.123.25.02.55-.228.673s-.55.02-.673-.228c-2.207-4.45-8.833-4.633-8.852-4.634zm.053-5.952c-.277.02-.518-.19-.537-.466s.19-.518.466-.537c.02-.001 7.2-.593 10.605 6.134.125.248.025.55-.222.675s-.55.025-.675-.222c-3.108-6.12-9.618-5.584-9.637-5.582zm-.004-5.952c-.277.017-.516-.193-.533-.47s.193-.516.47-.533c.022-.002 7.85-.59 11.518 6.412a.5.5 0 1 1-.89.464C36.19 39.86 29.004 40.4 28.983 40.4zM24.25 51.3c.277-.01.5.207.52.484a.5.5 0 0 1-.484.52c-.02.001-6.645.183-8.852 4.634-.123.25-.424.35-.673.228s-.35-.424-.228-.673c2.477-4.995 9.697-5.192 9.717-5.193zm.053-5.952c.277.02.486.26.466.537s-.26.486-.537.466c-.02-.002-6.53-.538-9.637 5.582-.125.248-.427.347-.675.222a.5.5 0 0 1-.222-.675c3.415-6.726 10.584-6.135 10.605-6.134zm-.004-5.952c.277.017.488.256.47.533s-.256.488-.533.47c-.02-.001-7.206-.542-10.566 5.873a.5.5 0 0 1-.89-.464c3.667-7.003 11.495-6.413 11.518-6.412zm27.896 8.882c.336 3.162.874 17.517.913 18.565a.78.78 0 0 1 .005.089c0 .417-.338.756-.755.756h-8.87c-.388 0-.72-.297-.753-.69l-1.05-12.03-2.313 12.06c-.047.372-.365.66-.75.66H14.597v-.001c-.355.001-.672-.25-.74-.613l-2.32-12.105-1.048 12.017c-.027.392-.354.702-.754.702H.862v-.003H.84c-.416-.013-.742-.36-.73-.776l.915-18.642c.16-1.316.246-2.715.33-4.136.416-6.907.863-14.31 9.307-14.31 3.064 0 7.515-1.668 8.874-2.207l.607-5.314c-2.227-2.433-3.588-6.396-3.66-10.292-.032-1.747.192-3.484.71-5.07.53-1.62 1.363-3.083 2.54-4.247 1.628-1.6 3.895-2.637 6.897-2.692 2.957-.055 5.198.92 6.812 2.517 1.1 1.086 1.896 2.452 2.424 3.97.52 1.5.778 3.13.81 4.794.076 4.14-1.282 8.47-3.603 11.016l.607 5.318c1.36.54 5.8 2.207 8.874 2.207 8.946 0 9.192 7.572 9.412 14.355.047 1.434.092 2.83.227 4.1z" fill="#83003f" fill-rule="nonzero"/></svg>