<?xml version="1.0" encoding="utf-8"?>
<!-- Generator: Adobe Illustrator 19.2.0, SVG Export Plug-In . SVG Version: 6.00 Build 0)  -->
<svg version="1.1" id="Layer_1" xmlns="http://www.w3.org/2000/svg" xmlns:xlink="http://www.w3.org/1999/xlink" x="0px" y="0px"
	 width="24px" height="24px" viewBox="0 0 24 24" style="enable-background:new 0 0 24 24;" xml:space="preserve">
<path d="M22.69,6.364c-0.125-0.046-2.896-0.971-9.405,1.696c1.495-1.427,4.248-3.325,8.484-3.559
	c0.276-0.015,0.487-0.251,0.472-0.526c-0.015-0.275-0.242-0.496-0.526-0.472c-4.272,0.236-7.123,2.009-8.794,3.506
	c1.061-1.762,3.292-4.007,7.948-5.085c0.269-0.062,0.437-0.331,0.374-0.6c-0.062-0.269-0.33-0.437-0.601-0.375
	c-5.954,1.38-8.25,4.591-9.127,6.62c-0.877-2.029-3.173-5.24-9.127-6.62c-0.268-0.061-0.538,0.106-0.6,0.375
	c-0.062,0.269,0.105,0.538,0.375,0.6C6.818,3.003,9.048,5.248,10.11,7.01C8.438,5.513,5.587,3.739,1.315,3.503
	C1.046,3.467,0.804,3.699,0.789,3.975C0.773,4.25,0.984,4.486,1.26,4.501c4.29,0.237,7.063,2.182,8.544,3.615
	C3.207,5.377,0.483,6.32,0.361,6.365C0.15,6.444,0.019,6.654,0.039,6.878l1.206,13.534c0.023,0.259,0.24,0.456,0.498,0.456
	c0.002,0,0.005,0,0.008,0c5.084-0.076,9.391,2.929,9.434,2.959c0.009,0.007,0.022,0.004,0.032,0.01
	c0.012,0.007,0.017,0.021,0.03,0.028c0.072,0.037,0.151,0.056,0.229,0.056c0.078,0,0.157-0.019,0.229-0.056
	c0.012-0.006,0.017-0.019,0.028-0.026c0.01-0.006,0.023-0.004,0.033-0.01c0.042-0.03,4.243-2.963,9.276-2.963
	c0.072,0,0.11,0.005,0.22,0.002c0.258,0,0.474-0.196,0.498-0.454L23.018,6.88C23.038,6.653,22.904,6.441,22.69,6.364z M1.074,7.227
	c0.99-0.142,4.04-0.226,9.902,2.49v12.79c-1.468-0.876-4.811-2.574-8.775-2.639L1.074,7.227z M20.805,19.868
	c-3.975,0.064-7.354,1.77-8.829,2.644V9.717c5.878-2.723,8.994-2.636,10.005-2.488L20.805,19.868z"/>
</svg>
