<?xml version="1.0" encoding="utf-8"?>
<!-- Generator: Adobe Illustrator 19.2.0, SVG Export Plug-In . SVG Version: 6.00 Build 0)  -->
<svg version="1.1" id="Layer_1" xmlns="http://www.w3.org/2000/svg" xmlns:xlink="http://www.w3.org/1999/xlink" x="0px" y="0px"
	 width="24px" height="24px" viewBox="0 0 24 24" style="enable-background:new 0 0 24 24;" xml:space="preserve">
<path d="M18.5,0h-13C5.224,0,5,0.223,5,0.5v21.929c0,0.526,0.265,0.979,0.69,1.185c0.404,0.194,0.875,0.127,1.294-0.214l4.964-4.895
	l5.049,4.896c0.011,0.011,0.022,0.021,0.034,0.03c0.238,0.191,0.512,0.29,0.782,0.29c0.166,0,0.332-0.037,0.488-0.112
	C18.732,23.403,19,22.95,19,22.427V0.5C19,0.223,18.776,0,18.5,0z M18,22.427c0,0.161-0.069,0.251-0.129,0.28
	c-0.069,0.032-0.143-0.004-0.197-0.044l-5.38-5.218c-0.196-0.188-0.507-0.188-0.699,0.003L6.32,22.653
	c-0.045,0.034-0.131,0.088-0.197,0.058C6.062,22.681,6,22.583,6,22.428V1h12V22.427z"/>
</svg>
