<?xml version="1.0" encoding="utf-8"?>
<!-- Generator: Adobe Illustrator 19.2.0, SVG Export Plug-In . SVG Version: 6.00 Build 0)  -->
<svg version="1.1" id="Layer_1" xmlns="http://www.w3.org/2000/svg" xmlns:xlink="http://www.w3.org/1999/xlink" x="0px" y="0px"
	 width="24px" height="24px" viewBox="0 0 24 24" style="enable-background:new 0 0 24 24;" xml:space="preserve">
<path d="M23.802,1.257c-0.101-0.094-0.236-0.137-0.374-0.134c0,0-0.588,0.038-1.506,0.137V0.738c0-0.138-0.057-0.27-0.157-0.364
	c-0.1-0.094-0.229-0.14-0.373-0.135c-1.376,0.084-7.539,0.572-9.404,2.686c-1.806-2.106-8.059-2.601-9.445-2.686
	C2.408,0.232,2.271,0.279,2.17,0.374C2.07,0.469,2.013,0.6,2.013,0.738v0.529C1.076,1.163,0.509,1.123,0.509,1.123
	C0.372,1.117,0.235,1.162,0.133,1.256C0.032,1.351-0.025,1.483-0.025,1.622v19.354c0,0.141,0.059,0.274,0.163,0.369
	c0.103,0.094,0.242,0.142,0.382,0.129c4.073-0.361,10.651-0.156,10.953,1.948c0.002,0.01,0.008,0.019,0.01,0.029
	c0.006,0.028,0.016,0.052,0.026,0.078c0.013,0.033,0.026,0.064,0.045,0.092c0.015,0.023,0.032,0.042,0.051,0.062
	c0.023,0.025,0.047,0.048,0.075,0.068c0.022,0.016,0.045,0.029,0.07,0.042c0.032,0.016,0.066,0.027,0.101,0.036
	c0.016,0.004,0.03,0.014,0.047,0.017c0.024,0.003,0.047,0.005,0.07,0.005c0,0,0,0,0.001,0c0,0,0,0,0.001,0c0,0,0,0,0,0s0,0,0,0
	c0.012,0,0.023,0,0.035-0.001c0.023-0.002,0.042-0.013,0.064-0.017c0.033-0.007,0.066-0.013,0.096-0.026
	c0.027-0.012,0.049-0.028,0.073-0.044c0.026-0.017,0.052-0.033,0.074-0.055c0.021-0.02,0.036-0.042,0.053-0.065
	c0.019-0.026,0.037-0.051,0.051-0.08c0.012-0.026,0.02-0.053,0.027-0.081c0.006-0.021,0.017-0.039,0.02-0.061
	c0.303-2.104,6.882-2.311,10.953-1.948c0.146,0.009,0.279-0.035,0.383-0.129c0.104-0.095,0.162-0.229,0.162-0.369V1.622
	C23.96,1.484,23.902,1.352,23.802,1.257z M20.922,1.275v16.6c-1.864-0.13-6.419-0.29-8.455,0.998L12.462,4.051
	C12.684,2.55,17.373,1.556,20.922,1.275z M3.013,1.275c3.549,0.281,8.238,1.272,8.455,2.703v14.894
	c-1.391-0.878-3.957-1.082-6.037-1.082c-0.965,0-1.827,0.044-2.417,0.085V1.275z M0.975,20.435V2.166
	C1.237,2.19,1.589,2.225,2.013,2.273v16.142c0,0.14,0.059,0.273,0.162,0.368c0.103,0.095,0.236,0.137,0.381,0.13
	c3.554-0.31,8.653-0.058,8.911,1.46v1.402C9.043,20.028,2.978,20.292,0.975,20.435z M22.96,20.435
	c-2.006-0.142-8.072-0.405-10.493,1.344v-1.407c0.259-1.516,5.354-1.769,8.912-1.46c0.132,0.01,0.277-0.035,0.381-0.13
	s0.162-0.229,0.162-0.368V2.266c0.419-0.046,0.773-0.08,1.038-0.103V20.435z"/>
</svg>
