<?xml version="1.0" encoding="utf-8"?>
<!-- Generator: Adobe Illustrator 19.2.0, SVG Export Plug-In . SVG Version: 6.00 Build 0)  -->
<svg version="1.1" id="Layer_1" xmlns="http://www.w3.org/2000/svg" xmlns:xlink="http://www.w3.org/1999/xlink" x="0px" y="0px"
	 width="24px" height="24px" viewBox="0 0 24 24" style="enable-background:new 0 0 24 24;" xml:space="preserve">
<g>
	<path d="M8.5,9h-5C3.224,9,3,9.223,3,9.5S3.224,10,3.5,10h5C8.776,10,9,9.776,9,9.5S8.776,9,8.5,9z"/>
	<path d="M8.5,12h-5C3.224,12,3,12.223,3,12.5S3.224,13,3.5,13h5C8.776,13,9,12.776,9,12.5S8.776,12,8.5,12z"/>
	<path d="M8.5,15h-5C3.224,15,3,15.223,3,15.5S3.224,16,3.5,16h5C8.776,16,9,15.776,9,15.5S8.776,15,8.5,15z"/>
	<path d="M21,3.984V2.5C21,2.223,20.776,2,20.5,2h-6C14.224,2,14,2.223,14,2.5v1.488c-1.199,0.234-2.044,0.549-2.52,0.958
		C10.491,4.125,8.235,3.7,6,3.7c-2.768,0-6,0.576-6,2.2V20.8c0,0.146,0.063,0.284,0.174,0.379C0.265,21.258,0.381,21.3,0.5,21.3
		c0.024,0,0.049-0.002,0.074-0.006C2.619,20.987,3.976,20.8,6,20.8c2.548,0,4.54,0.14,5.341,0.375
		c0.003,0.001,0.006,0.001,0.01,0.002c0.001,0,0.004,0.001,0.005,0.001c0.006,0.002,0.013-0.001,0.019,0.001
		c0.057,0.015,0.115,0.025,0.174,0.017l0.413-0.041c2.665-0.267,3.562-0.356,5.538-0.356c1.842,0,3.613,0.147,5.926,0.494
		c0.024,0.004,0.05,0.006,0.074,0.006c0.119,0,0.235-0.042,0.326-0.121C23.937,21.084,24,20.945,24,20.8V5.9
		C24,4.767,22.144,4.216,21,3.984z M15,3h5v10.394c-0.003-0.001-0.007-0.002-0.01-0.003l-1.836-1.543
		c-0.192-0.194-0.461-0.223-0.604-0.223c-0.142,0-0.41,0.029-0.562,0.185L15,13.322V3z M1,20.219V5.9c0-0.419,1.717-1.2,5-1.2
		c3.281,0,5,0.892,5,1.2v14.178C9.528,19.83,7.093,19.8,6,19.8C4.103,19.8,2.785,19.957,1,20.219z M23,20.221
		c-2.09-0.295-3.763-0.422-5.5-0.422c-1.99,0-2.904,0.088-5.5,0.348V5.9c0-0.134,0.394-0.556,2-0.895V13.5
		c0,0.306,0.181,0.585,0.483,0.747c0.351,0.188,0.781,0.177,1.129-0.057l1.934-1.55l1.832,1.542
		c0.015,0.012,0.029,0.022,0.045,0.033c0.183,0.122,0.401,0.184,0.618,0.184c0.173,0,0.344-0.039,0.493-0.119
		C20.826,14.125,21,13.833,21,13.5V5.007c1.42,0.315,1.966,0.756,2,0.893V20.221z"/>
</g>
</svg>
