<?xml version="1.0" encoding="utf-8"?>
<!-- Generator: Adobe Illustrator 19.2.0, SVG Export Plug-In . SVG Version: 6.00 Build 0)  -->
<svg version="1.1" id="Layer_1" xmlns="http://www.w3.org/2000/svg" xmlns:xlink="http://www.w3.org/1999/xlink" x="0px" y="0px"
	 width="24px" height="24px" viewBox="0 0 24 24" style="enable-background:new 0 0 24 24;" xml:space="preserve">
<path d="M21.002,4.025c0.001-0.016-0.005-0.03-0.005-0.046V3.979c0,0,0,0,0-0.001c0-0.076-0.018-0.146-0.049-0.21
	c-0.004-0.008-0.008-0.015-0.012-0.022c-0.031-0.056-0.07-0.104-0.12-0.145c-0.006-0.005-0.009-0.014-0.015-0.019
	c-0.005-0.004-0.011-0.004-0.016-0.007c-0.046-0.032-0.097-0.053-0.152-0.069c-0.019-0.005-0.035-0.013-0.054-0.016
	c-0.01-0.001-0.017-0.007-0.027-0.008c-1.664-0.155-2.801-0.626-3.287-1.36c-0.432-0.652-0.227-1.321-0.219-1.345
	c0.06-0.177,0.017-0.373-0.113-0.507c-0.13-0.135-0.325-0.185-0.503-0.133L4.335,3.724c-0.01,0.003-0.016,0.01-0.025,0.013
	C4.301,3.741,4.29,3.741,4.281,3.744C4.257,3.755,4.24,3.773,4.218,3.787c-0.026,0.016-0.052,0.03-0.074,0.05
	C4.137,3.843,4.129,3.846,4.122,3.852c-0.017,0.017-0.026,0.04-0.04,0.059C4.064,3.937,4.044,3.961,4.031,3.989
	C4.027,3.997,4.02,4.003,4.016,4.012c-0.008,0.02-0.008,0.044-0.013,0.066c-0.009,0.033-0.018,0.065-0.02,0.1
	c-0.001,0.01-0.005,0.018-0.005,0.027v0.004l0,0v0l0.018,15.792c0,0.035,0.061,3.481,4.446,3.874c0.01,0.001,0.019,0.01,0.029,0.01
	c0.008,0,0.015-0.003,0.022-0.003c0.003,0,0.005,0.001,0.008,0.001c0.014,0.001,0.028,0.002,0.042,0.002
	c0.084,0,0.16-0.027,0.23-0.064l11.857-3.231c0.217-0.06,0.368-0.257,0.368-0.482V4.042C20.998,4.036,21.001,4.031,21.002,4.025z
	 M8.455,6.742C7.718,6.669,7.137,6.512,6.68,6.307l10.308-3.019c0.363,0.309,0.821,0.56,1.37,0.755L8.455,6.742z M16.304,2.446
	L5.619,5.576C5.273,5.204,5.113,4.826,5.04,4.559l10.954-3.251C16.007,1.641,16.09,2.04,16.304,2.446z M4.996,19.999L4.98,6.34
	c0.058,0.059,0.115,0.118,0.18,0.176c0.014,0.012,0.025,0.023,0.041,0.033c0.59,0.511,1.47,0.951,2.77,1.139v15.121
	C5.065,22.298,4.997,20.096,4.996,19.999z M19.997,19.725L8.971,22.73V7.638l11.026-3.005V19.725z"/>
</svg>
