<?xml version="1.0" encoding="utf-8"?>
<!-- Generator: Adobe Illustrator 19.2.0, SVG Export Plug-In . SVG Version: 6.00 Build 0)  -->
<svg version="1.1" id="Layer_1" xmlns="http://www.w3.org/2000/svg" xmlns:xlink="http://www.w3.org/1999/xlink" x="0px" y="0px"
	 width="24px" height="24px" viewBox="0 0 24 24" style="enable-background:new 0 0 24 24;" xml:space="preserve">
<g>
	<path d="M20.918,9.068c-0.015-0.025-0.036-0.041-0.055-0.063c-0.026-0.029-0.044-0.065-0.077-0.087
		c-0.022-0.016-0.05-0.017-0.075-0.029c-0.016-0.008-0.024-0.025-0.04-0.031l-6.983-2.547c-0.255-0.095-0.546,0.04-0.641,0.298
		c-0.095,0.259,0.039,0.546,0.299,0.641l5.696,2.077l-7.539,2.754L3.959,9.328l5.742-2.092C9.961,7.142,10.095,6.855,10,6.595
		C9.906,6.336,9.619,6.202,9.359,6.297l-7.03,2.561c-0.017,0.006-0.024,0.023-0.04,0.031C2.264,8.9,2.236,8.902,2.213,8.918
		C2.181,8.94,2.163,8.976,2.137,9.005c-0.019,0.022-0.04,0.038-0.055,0.062C2.033,9.146,2,9.233,2,9.327v10.636
		c0,0.21,0.131,0.397,0.329,0.47l9,3.288c0.056,0.021,0.114,0.03,0.171,0.03s0.116-0.01,0.171-0.03l9-3.288
		c0.197-0.072,0.328-0.26,0.328-0.47V9.327C21,9.233,20.967,9.146,20.918,9.068z M3,10.042l0.053,0.019L11,12.965v9.572l-8-2.923
		V10.042z M12,22.537v-9.57l8-2.924v9.571L12,22.537z"/>
	<path d="M9.239,4.024L11,2.221v6.986c0,0.276,0.224,0.5,0.5,0.5s0.5-0.224,0.5-0.5V2.2l1.828,1.827
		c0.098,0.098,0.226,0.146,0.354,0.146s0.256-0.049,0.354-0.146c0.195-0.195,0.195-0.512,0-0.707l-2.681-2.68
		c-0.046-0.046-0.101-0.083-0.162-0.108c-0.06-0.025-0.126-0.039-0.192-0.039c-0.143-0.045-0.256,0.05-0.349,0.143
		c-0.002,0.002-0.004,0.003-0.005,0.004c-0.001,0.001-0.002,0.002-0.003,0.003L8.523,3.324C8.331,3.522,8.334,3.839,8.532,4.032
		C8.73,4.225,9.047,4.221,9.239,4.024z"/>
</g>
</svg>
