<svg xmlns="http://www.w3.org/2000/svg" width="66" height="68"><path d="M15.277 61.06c.017.042.03.086.04.132l-.04-.132zM45.34 17.343a.52.52 0 0 1 .7-.21c.25.135.346.447.2.698l-.26.495c-.41.82-.798 1.772-1.03 2.834-.278 1.27-.335 2.705.054 4.267.164.66.534 1.272 1.02 1.802.47.515 1.048.95 1.652 1.276l.323.163c.258.12.37.427.25.684s-.428.368-.686.248c-.84-.392-1.657-.97-2.304-1.676-.593-.65-1.05-1.412-1.258-2.25-.432-1.735-.37-3.325-.062-4.73.305-1.396.85-2.606 1.4-3.6zM3.424 32.43l-.058.06c-.966 1.032-1.654 2.867-1.716 4.84-.062 1.965.51 4.043 2.063 5.56l.11.103a.77.77 0 0 1 .168.907c-.5 1.082-.42 2.2-.068 3.21.656 1.886 2.167 3.38 2.584 3.704a.77.77 0 0 1 .297.599c.01.777.094 1.516.24 2.213.472 2.248 1.593 4.025 2.914 5.234 1.28 1.173 2.727 1.8 3.91 1.786a2.77 2.77 0 0 0 .532-.057c.373-.078.74.127.877.468.953 2.107 3.068 3.81 5.453 4.604 1.33.444 2.74.6 4.067.38a6.25 6.25 0 0 0 3.521-1.821c1.533-1.578 2.557-4.226 2.557-8.26v-16.86a.52.52 0 0 1-.515-.039l-.107-.072c-.915-.604-1.86-.963-2.79-1.067-.947-.107-1.882.05-2.755.48s-1.63 1.113-2.193 1.952a6.63 6.63 0 0 0-1.072 2.924l-.104.882c-.032.283-.29.486-.573.454-.06-.007-.117-.024-.17-.05l-.698-.315c-.674-.306-1.418-.406-2.122-.364-.806.05-1.55.284-2.07.613-.9.57-1.664 1.572-2.008 2.883-.3 1.104-.284 2.427.185 3.895l.053.162c.09.27-.053.563-.324.654a.52.52 0 0 1-.656-.323c-.59-1.74-.607-3.32-.258-4.647.415-1.58 1.35-2.798 2.454-3.496.656-.415 1.58-.71 2.564-.77.86-.052 1.772.074 2.608.452l.07.03.02-.18c.145-1.238.582-2.4 1.24-3.38.664-.987 1.552-1.8 2.594-2.303a5.93 5.93 0 0 1 3.325-.582c1.11.125 2.23.55 3.298 1.267V8.5c0-2.122-.426-3.974-1.288-5.237-.73-1.07-1.796-1.713-3.205-1.713-1.252 0-2.31.51-3.155 1.21-1.255 1.043-2.038 2.487-2.292 3.376-.117.41-.547.65-.96.533a.77.77 0 0 1-.176-.074c-.62-.306-1.238-.442-1.833-.442-1.015 0-1.983.396-2.814 1.014-.862.64-1.572 1.512-2.04 2.434-.38.75-.596 1.524-.596 2.222 0 .428-.348.775-.777.775a.8.8 0 0 1-.127-.01c-.21-.022-.423-.023-.636-.004-1.214.105-2.384.86-3.31 2.003C6.7 15.78 6.01 17.377 5.81 19.1a8.87 8.87 0 0 0-.051 1.438l.087-.01c.337-.036.677-.104 1.016-.208 1.554-.478 2.632-1.94 3.225-2.978a8.99 8.99 0 0 0 .54-1.098l.285-.757c.1-.266.4-.4.666-.3a.51.51 0 0 1 .159.095l.57.43.001-.001.037.028c.922.694 1.806 1.15 2.648 1.364.822.2 1.603.19 2.337-.064 1.125-.39 2.026-1.272 2.686-2.15.57-.757.958-1.506 1.165-1.95a10.32 10.32 0 0 1-.523-1.28 14.07 14.07 0 0 1-.417-1.537l-.047-.23c-.055-.28.128-.55.41-.606a.52.52 0 0 1 .607.408c.12.597.262 1.142.428 1.637s.358.946.573 1.352l-.001.001a.51.51 0 0 1 .017.444l-.292.616c.114-.005.23.04.31.133.107.123.302.248.528.368l.678.322.572.275c.324.18.654.303.98.38a4.12 4.12 0 0 0 .95.108c.45 0 .87-.067 1.227-.157.264-.066.494-.144.68-.216.296-.115.477-.214.503-.23.186-.105.423-.04.528.145s.04.42-.146.527c-.05.028-.592.326-1.375.523-.413.104-.896.18-1.415.18-.36 0-.74-.037-1.13-.13s-.782-.238-1.176-.458c-.12-.067-.31-.152-.514-.244-.523-.236-1.15-.518-1.472-.89a.39.39 0 0 1-.041-.057c-.21.366-.47.773-.778 1.18-.76 1.01-1.817 2.035-3.176 2.504-.933.322-1.91.352-2.928.092-.986-.252-2.007-.777-3.057-1.574l.001-.001-.044-.033-.042.11-.004.01h-.001c-.07.18-1.518 3.793-4.424 4.687a6.43 6.43 0 0 1-1.215.248l-.494.033a.77.77 0 0 1-.179.094c-.778.336-1.305 1.7-1.623 3.324-.38 1.94-.422 4.17-.24 5.64.58-.197 1.2-.355 1.867-.427.695-.076 1.42-.055 2.14.12.71.17 1.386.538 1.978 1.055a6.11 6.11 0 0 1 1.452 1.915h-.002c.286.584.474 1.2.556 1.767.083.586.06 1.15-.08 1.642l-.007.025-.004.016-.085.288.165-.035.23-.045c1.412-.262 3.316-.3 4.995.685 1.25.742 2.36 2.048 3.017 4.25.082.273-.074.56-.348.642s-.562-.074-.643-.347l-.232-.684c-.577-1.506-1.407-2.43-2.32-2.972-1.01-.6-2.143-.745-3.155-.694a8.62 8.62 0 0 0-1.333.175l-1 .213c-.28.058-.553-.12-.61-.4a.51.51 0 0 1 .012-.256l.338-1.145a2.23 2.23 0 0 0 .061-.291c.04-.282.035-.595-.01-.924-.068-.474-.223-.974-.46-1.457H9.92a5.07 5.07 0 0 0-1.201-1.592c-.468-.41-.996-.697-1.54-.83-.592-.142-1.198-.16-1.787-.095-.597.065-1.178.215-1.712.4l-.064.023a.77.77 0 0 1-.191.759zM.103 37.283c.07-2.205.83-4.298 1.918-5.607-.336-1.587-.367-4.517.11-6.96.357-1.83 1.016-3.44 2.072-4.193a10.45 10.45 0 0 1 .064-1.598c.237-2.024 1.05-3.903 2.192-5.31 1.183-1.46 2.73-2.43 4.385-2.573l.183-.012c.107-.702.35-1.426.703-2.122.572-1.13 1.44-2.195 2.494-2.978 1.084-.807 2.37-1.323 3.743-1.323.582 0 1.177.093 1.776.297.463-1.042 1.306-2.338 2.494-3.326C23.336.663 24.725.001 26.383.001c1.976 0 3.468.9 4.486 2.39 1.045 1.53 1.56 3.688 1.56 6.11v47.463c0 4.48-1.2 7.486-3 9.337a7.78 7.78 0 0 1-4.383 2.269c-1.582.26-3.246.08-4.808-.442-2.587-.863-4.912-2.67-6.13-4.944l-.22.007c-1.562.02-3.405-.75-4.98-2.192-1.535-1.405-2.836-3.463-3.38-6.057-.143-.68-.233-1.402-.262-2.16-.71-.66-2.138-2.25-2.805-4.17-.418-1.2-.553-2.533-.078-3.87-1.715-1.826-2.35-4.21-2.28-6.46zm62.324-4.793l-.06-.064c-.188-.194-.27-.48-.187-.757-.504-.18-1.053-.33-1.62-.405-.637-.086-1.298-.08-1.944.076-.545.13-1.073.42-1.54.828-.477.417-.892.96-1.2 1.593a4.93 4.93 0 0 0-.461 1.457c-.06.423-.05.82.033 1.156l.016.06.006.02.332 1.126c.025.08.03.168.012.256-.058.28-.332.458-.61.4l-1-.213c-.317-.067-.668-.123-1.037-.155-1.084-.095-2.34.015-3.45.674-.943.56-1.796 1.525-2.374 3.118l-.178.538a.52.52 0 0 1-.644.347c-.274-.08-.43-.37-.348-.642.658-2.2 1.767-3.507 3.017-4.25 1.772-1.05 3.794-.94 5.225-.64l.048.01.116.025-.025-.084-.064-.22-.007-.025c-.14-.49-.164-1.055-.08-1.642a5.98 5.98 0 0 1 .554-1.767c.37-.753.87-1.407 1.452-1.915.592-.517 1.268-.883 1.978-1.054.783-.188 1.572-.197 2.325-.096.59.08 1.157.225 1.682.404.182-1.47.14-3.7-.24-5.642-.317-1.625-.844-2.988-1.623-3.324a.77.77 0 0 1-.18-.095l-.61-.046c-.36-.044-.726-.122-1.096-.235-2.906-.894-4.352-4.506-4.423-4.687h-.001l-.004-.01-.042-.11-.043.033.001.001c-1.05.797-2.07 1.322-3.057 1.574-1.016.26-1.995.23-2.928-.092-1.36-.47-2.415-1.493-3.176-2.504a11.6 11.6 0 0 1-.706-1.058l-.015.02c-.34.393-.982.682-1.517.923l-.505.24c-.406.226-.812.377-1.21.47s-.788.133-1.16.133c-.53 0-1.024-.08-1.446-.186-.8-.2-1.357-.507-1.408-.536-.248-.14-.335-.455-.194-.702a.52.52 0 0 1 .704-.194 4.55 4.55 0 0 0 .749.315l.4.116c.348.088.756.153 1.196.153.297 0 .606-.03.92-.104a3.67 3.67 0 0 0 .946-.367c.168-.094.366-.182.582-.28l.312-.142c.354-.165.703-.346.85-.515.09-.105.216-.165.345-.176l-.228-.49a.51.51 0 0 1 .017-.444l-.001-.001c.216-.407.407-.857.573-1.352s.31-1.04.428-1.637a.52.52 0 0 1 .607-.408c.28.055.463.326.41.606l-.048.23a14.06 14.06 0 0 1-.417 1.536c-.155.462-.33.89-.523 1.28.207.443.595 1.193 1.165 1.95.66.877 1.56 1.76 2.686 2.15.734.253 1.515.274 2.336.064.835-.213 1.712-.663 2.627-1.348l.058-.044.001.001.002-.001.567-.43c.045-.04.1-.072.16-.095.267-.1.565.035.666.3l.286.757a9.07 9.07 0 0 0 .579 1.166c.6 1.032 1.665 2.442 3.186 2.9.302.093.61.157.918.195l.185.02a8.85 8.85 0 0 0-.051-1.437c-.202-1.723-.89-3.32-1.858-4.512-.927-1.142-2.097-1.898-3.31-2.004-.213-.018-.425-.018-.636.004-.04.007-.084.01-.127.01-.43 0-.777-.347-.777-.775 0-.698-.216-1.473-.596-2.222a7.06 7.06 0 0 0-2.04-2.434c-.83-.618-1.8-1.014-2.814-1.014-.596 0-1.213.136-1.833.442a.78.78 0 0 1-.176.074c-.412.117-.842-.12-.96-.533-.254-.888-1.037-2.332-2.292-3.376-.844-.7-1.903-1.21-3.155-1.21-1.41 0-2.476.644-3.205 1.713-.862 1.263-1.288 3.115-1.288 5.237v29.667c1.068-.715 2.187-1.14 3.297-1.266 1.14-.128 2.27.06 3.326.582 1.042.513 1.93 1.316 2.594 2.303.66.98 1.097 2.142 1.242 3.38l.02.18.07-.03c.836-.38 1.75-.504 2.608-.452.985.06 1.908.355 2.564.77 1.104.698 2.038 1.916 2.454 3.496.348 1.326.332 2.907-.258 4.647a.52.52 0 0 1-.656.323c-.27-.09-.415-.384-.324-.654l.054-.164c.468-1.468.474-2.79.184-3.893-.345-1.3-1.108-2.314-2.01-2.883-.52-.33-1.265-.565-2.07-.613-.704-.043-1.45.058-2.122.364l-.698.315c-.052.025-.108.042-.17.05-.284.032-.54-.17-.573-.454l-.104-.882c-.126-1.073-.503-2.078-1.072-2.924-.564-.84-1.316-1.52-2.193-1.952s-1.808-.588-2.755-.48c-.903.102-1.822.444-2.713 1.017l-.184.122c-.158.107-.354.116-.514.04v16.86c0 4.033 1.023 6.682 2.557 8.26a6.25 6.25 0 0 0 3.521 1.821c1.328.22 2.737.063 4.068-.38 2.385-.795 4.5-2.497 5.453-4.604.137-.34.504-.545.877-.468a2.77 2.77 0 0 0 .532.057c1.185.014 2.63-.613 3.91-1.786 1.32-1.21 2.442-2.986 2.914-5.234.146-.697.23-1.436.24-2.213a.77.77 0 0 1 .298-.599c.417-.324 1.928-1.82 2.584-3.704.35-1.01.442-2.128-.068-3.21-.147-.298-.088-.67.168-.907l.11-.105c1.553-1.517 2.123-3.594 2.06-5.558-.062-1.974-.75-3.81-1.716-4.84zm1.346-.815c1.1 1.31 1.85 3.403 1.918 5.607.07 2.248-.564 4.634-2.28 6.46.475 1.338.34 2.67-.078 3.87-.668 1.92-2.095 3.508-2.806 4.17-.028.76-.12 1.48-.262 2.16-.545 2.595-1.846 4.652-3.38 6.057-1.574 1.44-3.417 2.2-4.98 2.192l-.22-.007c-1.22 2.274-3.544 4.08-6.13 4.944-1.562.52-3.226.703-4.81.442-1.613-.266-3.137-.987-4.383-2.27-1.8-1.85-3-4.858-3-9.337V8.5c0-2.42.516-4.578 1.56-6.11C35.942.9 37.434.001 39.41.001c1.66 0 3.048.662 4.145 1.574 1.188.988 2.032 2.284 2.494 3.326.6-.203 1.194-.296 1.776-.296 1.374 0 2.66.516 3.743 1.323 1.053.783 1.922 1.85 2.495 2.98.353.696.596 1.42.703 2.122l.182.012c1.655.144 3.202 1.114 4.385 2.573 1.142 1.408 1.955 3.288 2.192 5.31a10.45 10.45 0 0 1 .064 1.598c1.056.754 1.714 2.364 2.072 4.193.477 2.444.446 5.373.1 6.96zm-48.228-8.85c.132.167.104.4-.064.542s-.41.104-.543-.064c-.194-.244-.477-.44-.82-.585-.672-.284-1.557-.368-2.46-.238s-1.824.476-2.55 1.05a3.77 3.77 0 0 0-1.155 1.488c-.083.196-.3.288-.507.206s-.29-.31-.206-.505c.31-.732.8-1.328 1.39-1.794.84-.664 1.89-1.062 2.922-1.2s2.07-.045 2.87.293c.46.195.85.468 1.127.818zM6.576 35.248a.39.39 0 0 1 .44.327c.03.21-.116.408-.328.44-.477.07-.833.346-1.077.736-.265.424-.405.98-.43 1.564-.026.6.068 1.224.27 1.766.252.676.67 1.218 1.22 1.402.203.067.312.287.244.49-.01.025-.02.05-.032.07-.003.005-1.09 1.84-.476 3.167.1.194.005.424-.2.513s-.425.005-.514-.19c-.587-1.27-.012-2.807.316-3.503-.587-.343-1.023-.956-1.293-1.68a5.36 5.36 0 0 1-.32-2.066c.03-.714.208-1.402.546-1.942.36-.576.896-.986 1.623-1.093zM24.833 4.38c-.213-.02-.37-.208-.35-.42s.21-.368.422-.348c.01.001 3.294.267 3.282 3.465 0 .213-.173.386-.387.386s-.387-.173-.387-.386c.01-2.486-2.573-2.695-2.58-2.696zm1.267 55.8a.39.39 0 0 1 .461-.297c.2.045.343.25.297.46l-.046.19c-.334 1.252-1.215 2.235-2.277 2.846s-2.31.85-3.38.62l-.16-.04c-.207-.055-.33-.266-.276-.472s.267-.33.474-.275l.127.03c.887.192 1.933-.014 2.83-.53s1.636-1.336 1.913-2.374l.037-.155zm.14-5.646c.143-.246.46-.33.706-.188s.33.458.188.705l-.678 1.163a.52.52 0 0 1-.706.188.53.53 0 0 1-.087-.063c-.787-.617-1.564-1-2.3-1.175a3.7 3.7 0 0 0-.534-.081c-.567-.043-1.108.06-1.603.314-.25.128-.5.294-.716.498-.21.19-.537.174-.73-.036s-.175-.536.037-.727c.894-.807 1.95-1.165 3.09-1.078.82.062 1.676.357 2.54.883l.404.263.388-.664zm-8.17 7.04c.084.272-.07.56-.342.644s-.562-.07-.646-.34l-.147-.556c-.214-.96-.236-1.964-.087-2.932a7.96 7.96 0 0 1 1.078-2.966c-.588-.826-1.236-1.416-1.912-1.752-.704-.35-1.447-.42-2.19-.186-.78.246-1.475.804-1.987 1.537-.522.748-.852 1.672-.894 2.633-.004.085-.027.165-.067.234-.092.162-.27.268-.47.26-.285-.01-.507-.25-.496-.535.05-1.165.448-2.282 1.076-3.182.64-.915 1.52-1.616 2.526-1.933a3.87 3.87 0 0 1 2.962.247c.913.453 1.765 1.26 2.504 2.386.11.17.115.398-.008.575-.564.814-.942 1.8-1.1 2.834-.156 1.015-.1 2.066.198 3.032zm9.738-33.995c.07-.275.35-.442.627-.372s.443.35.372.626c-.02.078-.268 1.028-.872 2.094-.617 1.088-1.606 2.307-3.117 2.908-.31.123-.624.214-.945.275a5.34 5.34 0 0 1-.99.092c-.863 0-1.775-.2-2.73-.597l-.126-.053c-.627-.27-1.273-.627-1.94-1.068-.014.262-.044.52-.092.772-.11.593-.315 1.155-.612 1.675l-.143.236c-.312.486-.697.914-1.142 1.28-.52.426-1.12.764-1.783 1.004-.268.097-.564-.04-.662-.31s.04-.563.3-.66c.554-.2 1.052-.48 1.48-.83a4.43 4.43 0 0 0 1.043-1.229c.24-.42.405-.875.495-1.356.092-.5.106-1.01.044-1.546-.015-.127.018-.26.1-.37a.52.52 0 0 1 .724-.101c.948.714 1.85 1.248 2.7 1.602l.63.23c.596.2 1.165.285 1.705.285.278 0 .545-.024.8-.072.26-.05.512-.122.755-.218 1.242-.494 2.074-1.528 2.6-2.456.276-.488.468-.943.59-1.28l.18-.564zM19.54 17.83c-.135-.25-.04-.564.21-.698a.52.52 0 0 1 .7.21c.54.993 1.085 2.204 1.4 3.6a10.26 10.26 0 0 1-.063 4.731c-.21.84-.664 1.602-1.258 2.25-.647.707-1.463 1.284-2.303 1.676-.258.12-.565.01-.686-.248s-.01-.564.25-.684l.332-.167a6.31 6.31 0 0 0 1.644-1.271c.485-.53.855-1.143 1.02-1.802a9.25 9.25 0 0 0 .054-4.267c-.213-.974-.556-1.856-.93-2.63l-.36-.7zm31.315 5.473c-.132.167-.376.196-.543.064s-.196-.375-.064-.542c.278-.35.667-.623 1.127-.818.8-.338 1.833-.44 2.87-.293s2.08.546 2.922 1.2a4.54 4.54 0 0 1 1.389 1.794c.083.196-.01.423-.206.505s-.424-.01-.507-.206c-.257-.605-.663-1.1-1.155-1.488-.727-.574-1.643-.92-2.55-1.05s-1.788-.045-2.46.238c-.343.145-.627.34-.82.585zm8.358 12.807c-.212-.03-.36-.227-.328-.44s.228-.358.44-.327c.727.107 1.262.517 1.623 1.093.338.54.515 1.228.546 1.942a5.36 5.36 0 0 1-.32 2.066c-.27.723-.707 1.337-1.293 1.68.328.697.902 2.234.316 3.503a.39.39 0 0 1-.515.189c-.194-.1-.28-.32-.2-.513.613-1.327-.473-3.162-.476-3.167-.013-.022-.024-.046-.032-.07-.068-.202.04-.42.244-.49.55-.183.967-.726 1.22-1.4a4.58 4.58 0 0 0 .271-1.766c-.025-.584-.165-1.14-.43-1.564-.244-.39-.6-.665-1.077-.736zM40.887 3.61c.213-.02.402.136.422.348s-.136.4-.35.42c-.008.001-2.6.2-2.58 2.696 0 .213-.173.386-.387.386s-.387-.173-.387-.386c-.012-3.198 3.273-3.464 3.282-3.465zm-1.953 56.73c-.045-.21.088-.415.297-.46a.39.39 0 0 1 .461.297l.037.155c.277 1.038 1.017 1.86 1.913 2.374s1.944.723 2.83.53l.126-.03c.207-.055.42.07.474.275s-.07.418-.276.472l-.16.04c-1.072.232-2.32-.01-3.38-.62s-1.943-1.594-2.277-2.846l-.046-.19zm-.275-5.292c-.143-.246-.06-.562.188-.705a.52.52 0 0 1 .706.188l.388.664.422-.274c.857-.52 1.708-.8 2.52-.87a4.03 4.03 0 0 1 3.089 1.078c.21.2.227.516.036.727s-.517.227-.728.036c-.228-.206-.47-.373-.723-.5-.494-.25-1.032-.354-1.597-.31a3.69 3.69 0 0 0-.51.075c-.742.163-1.526.557-2.322 1.18a.53.53 0 0 1-.086.063.52.52 0 0 1-.706-.188l-.678-1.163zm10.053 6.826c-.084.272-.373.425-.645.34s-.426-.372-.342-.644c.3-.966.354-2.018.198-3.033-.16-1.032-.537-2.02-1.1-2.833-.123-.177-.12-.405-.007-.575.74-1.127 1.59-1.933 2.503-2.387.95-.472 1.955-.565 2.962-.247s1.886 1.018 2.525 1.933a6.06 6.06 0 0 1 1.076 3.182c.01.284-.21.524-.496.535-.198.008-.374-.097-.467-.256a.51.51 0 0 1-.069-.238 5.02 5.02 0 0 0-.894-2.633c-.512-.733-1.206-1.29-1.987-1.537a2.86 2.86 0 0 0-2.189.187c-.676.336-1.323.926-1.91 1.75a7.96 7.96 0 0 1 1.078 2.966c.154 1 .126 2.035-.107 3.02l-.127.468zM36.988 27.832c-.07-.275.096-.555.372-.626s.557.096.627.372c.008.03.052.2.144.46.12.344.322.844.627 1.383.526.928 1.358 1.962 2.6 2.456a4.1 4.1 0 0 0 .755.218c.255.048.522.072.8.072.555 0 1.14-.1 1.752-.3l.582-.216c.85-.354 1.75-.888 2.7-1.602a.52.52 0 0 1 .724.101c.083.1.116.242.1.37-.063.537-.048 1.056.044 1.546.1.48.255.936.494 1.354a4.46 4.46 0 0 0 1.044 1.23 5.03 5.03 0 0 0 1.479.83c.268.097.407.393.3.66s-.394.406-.662.31a6.06 6.06 0 0 1-1.783-1.004 5.47 5.47 0 0 1-1.163-1.31l-.123-.203v-.002c-.297-.52-.5-1.082-.612-1.675a5.85 5.85 0 0 1-.092-.772c-.653.432-1.288.783-1.904 1.053l-.16.068c-.956.398-1.868.597-2.73.597a5.34 5.34 0 0 1-.99-.092c-.32-.06-.636-.152-.945-.275-1.51-.6-2.5-1.82-3.117-2.908-.605-1.067-.852-2.017-.872-2.094z" fill="#83003f" fill-rule="nonzero"/></svg>