<?xml version="1.0" encoding="utf-8"?>
<!-- Generator: Adobe Illustrator 19.2.0, SVG Export Plug-In . SVG Version: 6.00 Build 0)  -->
<svg version="1.1" id="Layer_1" xmlns="http://www.w3.org/2000/svg" xmlns:xlink="http://www.w3.org/1999/xlink" x="0px" y="0px"
	 width="24px" height="24px" viewBox="0 0 24 24" style="enable-background:new 0 0 24 24;" xml:space="preserve">
<g>
	<path d="M5.5,3h-2C3.224,3,3,3.223,3,3.5v2C3,5.776,3.224,6,3.5,6h2C5.776,6,6,5.776,6,5.5v-2C6,3.223,5.776,3,5.5,3z M5,5H4V4h1V5
		z"/>
	<path d="M5.5,10.001h-2c-0.276,0-0.5,0.224-0.5,0.5v2c0,0.276,0.224,0.5,0.5,0.5h2c0.276,0,0.5-0.224,0.5-0.5v-2
		C6,10.224,5.776,10.001,5.5,10.001z M5,12.001H4v-1h1V12.001z"/>
	<path d="M5.5,17.002h-2c-0.276,0-0.5,0.224-0.5,0.5v2c0,0.276,0.224,0.5,0.5,0.5h2c0.276,0,0.5-0.224,0.5-0.5v-2
		C6,17.225,5.776,17.002,5.5,17.002z M5,19.002H4v-1h1V19.002z"/>
	<path d="M20.44,18H8.509c-0.276,0-0.5,0.224-0.5,0.5s0.224,0.5,0.5,0.5H20.44c0.276,0,0.5-0.224,0.5-0.5S20.717,18,20.44,18z"/>
	<path d="M20.44,11H8.509c-0.276,0-0.5,0.224-0.5,0.5s0.224,0.5,0.5,0.5H20.44c0.276,0,0.5-0.224,0.5-0.5S20.717,11,20.44,11z"/>
	<path d="M8.509,5H20.44c0.276,0,0.5-0.224,0.5-0.5S20.717,4,20.44,4H8.509c-0.276,0-0.5,0.224-0.5,0.5S8.233,5,8.509,5z"/>
</g>
</svg>
