<?xml version="1.0" encoding="utf-8"?>
<!-- Generator: Adobe Illustrator 19.2.0, SVG Export Plug-In . SVG Version: 6.00 Build 0)  -->
<svg version="1.1" id="Layer_1" xmlns="http://www.w3.org/2000/svg" xmlns:xlink="http://www.w3.org/1999/xlink" x="0px" y="0px"
	 width="24px" height="24px" viewBox="0 0 24 24" style="enable-background:new 0 0 24 24;" xml:space="preserve">
<g>
	<path d="M24,2.899C23.999,1.327,22.672,0,21.1,0H2.9C1.328,0,0,1.328,0,2.9v18.3c0,1.572,1.328,2.9,2.9,2.9h18.3
		c1.571,0,2.899-1.328,2.899-2.903L24,2.899z M21.2,23.1H2.9c-1.03,0-1.9-0.87-1.9-1.9V2.9C1,1.87,1.87,1,2.9,1h18.2
		C22.13,1,23,1.87,23,2.9c0,0.001,0,0.002,0,0.003L23.1,21.2C23.1,22.23,22.229,23.1,21.2,23.1z"/>
	<path d="M19.5,5h-15C4.224,5,4,5.223,4,5.5S4.224,6,4.5,6h15C19.776,6,20,5.776,20,5.5S19.776,5,19.5,5z"/>
	<path d="M19.5,9h-11C8.224,9,8,9.223,8,9.5S8.224,10,8.5,10h11c0.276,0,0.5-0.224,0.5-0.5S19.776,9,19.5,9z"/>
	<path d="M19.5,13h-11C8.224,13,8,13.223,8,13.5S8.224,14,8.5,14h11c0.276,0,0.5-0.224,0.5-0.5S19.776,13,19.5,13z"/>
	<path d="M19.5,17h-11C8.224,17,8,17.223,8,17.5S8.224,18,8.5,18h11c0.276,0,0.5-0.224,0.5-0.5S19.776,17,19.5,17z"/>
	<path d="M4.7,9H4.6C4.324,9,4.1,9.223,4.1,9.5S4.324,10,4.6,10h0.1c0.276,0,0.5-0.224,0.5-0.5S4.977,9,4.7,9z"/>
	<path d="M4.7,13H4.6c-0.276,0-0.5,0.224-0.5,0.5S4.324,14,4.6,14h0.1c0.276,0,0.5-0.224,0.5-0.5S4.977,13,4.7,13z"/>
	<path d="M4.7,17H4.6c-0.276,0-0.5,0.224-0.5,0.5S4.324,18,4.6,18h0.1c0.276,0,0.5-0.224,0.5-0.5S4.977,17,4.7,17z"/>
</g>
</svg>
