<?xml version="1.0" encoding="utf-8"?>
<!-- Generator: Adobe Illustrator 19.2.0, SVG Export Plug-In . SVG Version: 6.00 Build 0)  -->
<svg version="1.1" id="Layer_1" xmlns="http://www.w3.org/2000/svg" xmlns:xlink="http://www.w3.org/1999/xlink" x="0px" y="0px"
	 width="24px" height="24px" viewBox="0 0 24 24" style="enable-background:new 0 0 24 24;" xml:space="preserve">
<g>
	<path d="M2.997,5.029L3.202,5.18L3.151,5.343C2.878,6.212,2.766,6.572,3.134,6.841c0.107,0.078,0.21,0.115,0.319,0.115
		c0.262,0,0.56-0.21,1.043-0.551L4.704,6.26l0.208,0.145C5.596,6.887,5.909,7.107,6.274,6.84c0.368-0.269,0.255-0.629-0.019-1.5
		l-0.05-0.162l0.124-0.092c0.748-0.554,1.058-0.783,0.917-1.219c-0.141-0.432-0.523-0.435-1.36-0.442L5.629,3.423L5.574,3.263
		C5.277,2.399,5.153,2.04,4.7,2.04c0,0-0.001,0-0.002,0C4.246,2.041,4.125,2.399,3.859,3.183l-0.082,0.24L3.624,3.426
		C2.686,3.44,2.298,3.445,2.158,3.882C2.021,4.313,2.327,4.537,2.997,5.029z M4.146,4.418C4.355,4.413,4.539,4.28,4.608,4.083
		l0.096-0.278L4.8,4.084c0.069,0.196,0.253,0.33,0.461,0.334l0.287,0.003L5.322,4.589C5.154,4.716,5.083,4.934,5.145,5.135
		l0.084,0.271L4.987,5.238c-0.17-0.117-0.396-0.118-0.567,0L4.179,5.406l0.084-0.271c0.062-0.201-0.009-0.419-0.178-0.546
		L3.859,4.423L4.146,4.418z"/>
	<path d="M2.998,12.03l0.204,0.151l-0.045,0.147c-0.276,0.88-0.39,1.245-0.021,1.514c0.108,0.079,0.211,0.115,0.32,0.115
		c0.261,0,0.556-0.209,1.036-0.548l0.213-0.149l0.207,0.145c0.686,0.483,0.999,0.701,1.363,0.436c0.368-0.269,0.255-0.629-0.019-1.5
		l-0.05-0.162l0.125-0.093c0.748-0.553,1.057-0.782,0.916-1.217c-0.141-0.432-0.522-0.435-1.359-0.442l-0.258-0.003l-0.055-0.159
		C5.277,9.4,5.154,9.041,4.7,9.041c0,0-0.001,0-0.002,0C4.246,9.042,4.125,9.4,3.86,10.184l-0.083,0.241l-0.153,0.002
		c-0.938,0.013-1.327,0.019-1.466,0.455C2.021,11.314,2.327,11.538,2.998,12.03z M4.146,11.419c0.208-0.004,0.393-0.138,0.461-0.334
		l0.096-0.278L4.8,11.085c0.069,0.196,0.253,0.33,0.461,0.334l0.286,0.003L5.322,11.59c-0.168,0.126-0.239,0.345-0.178,0.546
		l0.084,0.271l-0.242-0.169c-0.17-0.117-0.396-0.118-0.567,0l-0.241,0.169l0.084-0.272c0.062-0.201-0.009-0.419-0.178-0.546
		L3.86,11.423L4.146,11.419z"/>
	<path d="M5.881,17.427l-0.251-0.003l-0.06-0.173c-0.293-0.855-0.415-1.211-0.869-1.211c0,0-0.001,0-0.001,0
		c-0.452,0.001-0.574,0.361-0.841,1.15l-0.081,0.234l-0.153,0.002c-0.938,0.014-1.327,0.019-1.466,0.455
		c-0.138,0.433,0.168,0.656,0.839,1.147l0.204,0.151L3.156,19.33c-0.275,0.88-0.389,1.243-0.021,1.513
		c0.108,0.078,0.211,0.114,0.32,0.114c0.261,0,0.556-0.208,1.034-0.546l0.214-0.149l0.208,0.145
		c0.686,0.483,0.999,0.701,1.363,0.436c0.368-0.269,0.255-0.629-0.019-1.5l-0.05-0.162l0.132-0.098
		c0.743-0.549,1.05-0.776,0.909-1.211C7.106,17.439,6.722,17.435,5.881,17.427z M5.323,18.59c-0.169,0.127-0.24,0.346-0.178,0.547
		l0.084,0.271l-0.242-0.169c-0.17-0.117-0.396-0.117-0.567,0l-0.242,0.169l0.084-0.271c0.062-0.202-0.009-0.42-0.178-0.547
		L3.86,18.425l0.286-0.005c0.209-0.004,0.393-0.138,0.462-0.334l0.096-0.278L4.8,18.086c0.069,0.196,0.253,0.33,0.461,0.334
		l0.286,0.004L5.323,18.59z"/>
	<path d="M21.437,18H9.504c-0.276,0-0.5,0.224-0.5,0.5s0.224,0.5,0.5,0.5h11.932c0.276,0,0.5-0.224,0.5-0.5S21.713,18,21.437,18z"/>
	<path d="M21.437,11H9.504c-0.276,0-0.5,0.224-0.5,0.5s0.224,0.5,0.5,0.5h11.932c0.276,0,0.5-0.224,0.5-0.5S21.713,11,21.437,11z"/>
	<path d="M9.504,5h11.932c0.276,0,0.5-0.224,0.5-0.5S21.713,4,21.437,4H9.504c-0.276,0-0.5,0.224-0.5,0.5S9.228,5,9.504,5z"/>
</g>
</svg>
