<?xml version="1.0" encoding="utf-8"?>
<!-- Generator: Adobe Illustrator 19.2.0, SVG Export Plug-In . SVG Version: 6.00 Build 0)  -->
<svg version="1.1" id="Layer_1" xmlns="http://www.w3.org/2000/svg" xmlns:xlink="http://www.w3.org/1999/xlink" x="0px" y="0px"
	 width="24px" height="24px" viewBox="0 0 24 24" style="enable-background:new 0 0 24 24;" xml:space="preserve">
<g>
	<path d="M15.268,21.226c-2.897-1.154-4.274-2.483-4.532-3.142v-0.673c0.575-0.658,1.024-1.512,1.31-2.488
		c0.359-0.317,0.6-0.765,0.668-1.254c0.07-0.504-0.042-1.003-0.319-1.424v-1.962c0-2.665-1.6-4.192-4.389-4.192
		c-2.749,0-4.39,1.567-4.39,4.192v1.963c-0.276,0.42-0.389,0.918-0.318,1.422c0.068,0.489,0.308,0.938,0.667,1.255
		c0.286,0.977,0.735,1.83,1.31,2.488v0.673c-0.257,0.658-1.634,1.985-4.531,3.142c-0.443,0.177-0.73,0.607-0.73,1.096v0.999
		c0,0.276,0.224,0.5,0.5,0.5s0.5-0.224,0.5-0.5v-0.999c0-0.075,0.04-0.143,0.101-0.166c2.748-1.098,4.766-2.605,5.139-3.844
		c0.014-0.047,0.021-0.096,0.021-0.145v-0.949c0-0.128-0.049-0.251-0.137-0.344c-0.559-0.59-0.992-1.409-1.252-2.371
		c-0.03-0.11-0.096-0.207-0.189-0.273c-0.22-0.16-0.369-0.415-0.409-0.699c-0.041-0.293,0.038-0.583,0.221-0.814
		c0.07-0.088,0.107-0.197,0.107-0.31v-2.124c0-2.059,1.204-3.192,3.39-3.192c2.249,0,3.389,1.074,3.389,3.192v2.123
		c0,0.112,0.038,0.221,0.107,0.31c0.184,0.233,0.262,0.523,0.221,0.816c-0.04,0.284-0.188,0.538-0.409,0.697
		c-0.093,0.067-0.16,0.164-0.189,0.274c-0.26,0.961-0.693,1.781-1.252,2.371c-0.088,0.093-0.137,0.216-0.137,0.344v0.949
		c0,0.049,0.007,0.098,0.021,0.145c0.375,1.239,2.393,2.748,5.141,3.844c0.059,0.023,0.099,0.092,0.099,0.166v0.999
		c0,0.276,0.224,0.5,0.5,0.5s0.5-0.224,0.5-0.5v-0.999C15.997,21.84,15.703,21.398,15.268,21.226z"/>
	<path d="M18.949,0.088h-4.522c-2.409,0-4.466,1.862-4.891,4.429C9.49,4.789,9.675,5.046,9.947,5.091
		c0.269,0.049,0.529-0.139,0.575-0.412c0.345-2.081,1.987-3.592,3.905-3.592h4.522c2.188,0,3.969,1.968,3.969,4.386
		c0,2.134-1.379,3.95-3.278,4.319c-0.083,0.016-0.161,0.054-0.227,0.108l-3.416,2.883v-2.29c0-0.276-0.224-0.5-0.5-0.5h-1.2
		c-0.276,0-0.5,0.224-0.5,0.5s0.224,0.5,0.5,0.5h0.7v2.866c0,0.194,0.113,0.371,0.289,0.453c0.067,0.031,0.14,0.047,0.211,0.047
		c0.116,0,0.23-0.04,0.322-0.118l4.142-3.495c2.301-0.515,3.957-2.71,3.957-5.273C23.918,2.504,21.689,0.088,18.949,0.088z"/>
	<path d="M13.573,5h5.816c0.276,0,0.5-0.224,0.5-0.5S19.666,4,19.39,4h-5.816c-0.276,0-0.5,0.224-0.5,0.5S13.297,5,13.573,5z"/>
	<path d="M13.573,7h2.908c0.276,0,0.5-0.224,0.5-0.5S16.758,6,16.481,6h-2.908c-0.276,0-0.5,0.224-0.5,0.5S13.297,7,13.573,7z"/>
</g>
</svg>
