<?xml version="1.0" encoding="utf-8"?>
<!-- Generator: Adobe Illustrator 19.2.0, SVG Export Plug-In . SVG Version: 6.00 Build 0)  -->
<svg version="1.1" id="Layer_1" xmlns="http://www.w3.org/2000/svg" xmlns:xlink="http://www.w3.org/1999/xlink" x="0px" y="0px"
	 width="24px" height="24px" viewBox="0 0 24 24" style="enable-background:new 0 0 24 24;" xml:space="preserve">
<g>
	<path d="M15.838-0.002H8.317c-4.406,0-8.129,4.133-8.129,9.025c0,4.5,2.949,7.955,5.926,8.873v5.382
		c0,0.194,0.113,0.371,0.289,0.453c0.067,0.031,0.139,0.047,0.211,0.047c0.116,0,0.23-0.04,0.322-0.118l6.715-5.662h2.187
		c4.3,0,7.932-4.121,7.932-9S20.138-0.002,15.838-0.002z M15.838,16.998h-2.369c-0.118,0-0.232,0.042-0.322,0.118l-6.032,5.086
		v-4.688c0-0.232-0.16-0.434-0.386-0.487c-2.723-0.638-5.54-3.806-5.54-8.003c0-4.275,3.331-8.025,7.129-8.025h7.521
		c3.758,0,6.932,3.664,6.932,8S19.596,16.998,15.838,16.998z"/>
	<path d="M6.784,6.789c-1.151,0-2.087,0.951-2.087,2.119c0,1.169,0.936,2.12,2.087,2.12s2.087-0.951,2.087-2.12
		C8.871,7.74,7.935,6.789,6.784,6.789z M6.784,10.028c-0.599,0-1.087-0.502-1.087-1.12s0.488-1.119,1.087-1.119
		s1.087,0.502,1.087,1.119S7.383,10.028,6.784,10.028z"/>
	<path d="M11.765,6.789c-1.151,0-2.087,0.951-2.087,2.119c0,1.169,0.936,2.12,2.087,2.12s2.087-0.951,2.087-2.12
		C13.853,7.74,12.916,6.789,11.765,6.789z M11.765,10.028c-0.599,0-1.087-0.502-1.087-1.12s0.488-1.119,1.087-1.119
		c0.6,0,1.087,0.502,1.087,1.119S12.365,10.028,11.765,10.028z"/>
	<path d="M16.746,6.789c-1.15,0-2.087,0.951-2.087,2.119c0,1.169,0.937,2.12,2.087,2.12s2.087-0.951,2.087-2.12
		C18.833,7.74,17.896,6.789,16.746,6.789z M16.746,10.028c-0.6,0-1.087-0.502-1.087-1.12s0.487-1.119,1.087-1.119
		s1.087,0.502,1.087,1.119S17.346,10.028,16.746,10.028z"/>
</g>
</svg>
