<?xml version="1.0" encoding="utf-8"?>
<!-- Generator: Adobe Illustrator 19.2.0, SVG Export Plug-In . SVG Version: 6.00 Build 0)  -->
<svg version="1.1" id="Layer_1" xmlns="http://www.w3.org/2000/svg" xmlns:xlink="http://www.w3.org/1999/xlink" x="0px" y="0px"
	 width="24px" height="24px" viewBox="0 0 24 24" style="enable-background:new 0 0 24 24;" xml:space="preserve">
<g>
	<path d="M15.848-0.002H8.327c-4.406,0-8.129,4.133-8.129,9.025c0,4.5,2.949,7.955,5.926,8.873v5.382
		c0,0.194,0.113,0.371,0.289,0.453c0.067,0.031,0.139,0.047,0.211,0.047c0.116,0,0.23-0.04,0.322-0.118l6.715-5.662h2.187
		c4.299,0,7.931-4.121,7.931-9S20.146-0.002,15.848-0.002z M15.848,16.998h-2.369c-0.118,0-0.232,0.042-0.322,0.118l-6.032,5.086
		v-4.688c0-0.232-0.16-0.434-0.386-0.487c-2.723-0.638-5.54-3.806-5.54-8.003c0-4.275,3.331-8.025,7.129-8.025h7.521
		c3.757,0,6.931,3.664,6.931,8S19.604,16.998,15.848,16.998z"/>
	<path d="M16.904,5.428c-0.601-0.612-1.398-0.949-2.247-0.949c-0.001,0-0.001,0-0.001,0c-0.85,0-1.646,0.337-2.246,0.949
		l-0.273,0.278l-0.273-0.278c-1.199-1.224-3.295-1.223-4.493,0c-1.231,1.256-1.231,3.3,0,4.557l4.409,4.498
		c0.094,0.097,0.223,0.15,0.357,0.15s0.263-0.054,0.357-0.15l4.41-4.499C18.135,8.729,18.135,6.685,16.904,5.428
		C16.904,5.428,16.904,5.428,16.904,5.428z M16.189,9.285l-4.052,4.135L8.085,9.285c-0.853-0.87-0.853-2.286,0-3.156
		C8.496,5.71,9.04,5.48,9.618,5.48c0.579,0,1.123,0.23,1.533,0.649l0.63,0.643c0.188,0.191,0.526,0.191,0.714,0l0.63-0.643
		c0.409-0.418,0.953-0.648,1.531-0.648c0,0,0,0,0.001,0c0.578,0,1.122,0.23,1.532,0.649C17.042,6.999,17.042,8.415,16.189,9.285z"/>
</g>
</svg>
