<?xml version="1.0" encoding="utf-8"?>
<!-- Generator: Adobe Illustrator 19.2.0, SVG Export Plug-In . SVG Version: 6.00 Build 0)  -->
<svg version="1.1" id="Layer_1" xmlns="http://www.w3.org/2000/svg" xmlns:xlink="http://www.w3.org/1999/xlink" x="0px" y="0px"
	 width="24px" height="24px" viewBox="0 0 24 24" style="enable-background:new 0 0 24 24;" xml:space="preserve">
<g>
	<path d="M5.977,15.97c-1.585,0-2.875,1.072-2.875,2.391s1.29,2.392,2.875,2.392s2.875-1.073,2.875-2.392S7.562,15.97,5.977,15.97z
		 M5.977,19.753c-1.034,0-1.875-0.624-1.875-1.392c0-0.767,0.841-1.391,1.875-1.391s1.875,0.624,1.875,1.391
		C7.852,19.129,7.01,19.753,5.977,19.753z"/>
	<path d="M2.406,20.901c-0.881,0-1.598,0.616-1.598,1.374s0.717,1.374,1.598,1.374s1.597-0.616,1.597-1.374
		S3.287,20.901,2.406,20.901z M2.406,22.649c-0.342,0-0.598-0.197-0.598-0.374s0.255-0.374,0.598-0.374
		c0.342,0,0.597,0.197,0.597,0.374S2.748,22.649,2.406,22.649z"/>
	<path d="M23.54,9.085c-0.126-1.154-0.821-2.181-1.922-2.856c-0.014-1.06-0.427-2.055-1.182-2.832
		C19.575,2.51,18.364,2,17.078,1.974c-0.676-0.893-1.715-1.481-2.893-1.63c-1.194-0.149-2.375,0.158-3.313,0.848
		c-0.819-0.716-1.991-0.967-3.111-0.636C6.626,0.891,5.809,1.727,5.56,2.781c-3.025,0.88-5.037,3.65-4.717,6.572
		c0.317,2.899,2.79,5.122,5.912,5.346c0.993,0.852,2.595,0.999,3.867,0.374c0.747,0.524,1.688,0.804,2.676,0.804
		c0.354,0,0.713-0.036,1.071-0.109c1.288-0.262,2.346-0.948,2.957-1.906c1.777,0.235,3.608-0.311,4.856-1.46
		C23.189,11.471,23.672,10.293,23.54,9.085z M21.504,11.665c-1.104,1.017-2.77,1.458-4.346,1.155
		c-0.225-0.04-0.44,0.066-0.541,0.266c-0.423,0.839-1.339,1.475-2.448,1.701c-1.19,0.241-2.381-0.016-3.181-0.693
		c-0.092-0.078-0.208-0.118-0.323-0.118c-0.092,0-0.184,0.025-0.265,0.076c-0.978,0.611-2.363,0.522-3.086-0.196
		c-0.088-0.088-0.206-0.14-0.33-0.145c-2.713-0.126-4.878-2.004-5.148-4.467C1.561,6.719,3.399,4.323,6.113,3.668
		c0.204-0.049,0.356-0.221,0.379-0.429c0.11-0.966,0.874-1.523,1.551-1.723c0.721-0.213,1.732-0.148,2.404,0.671
		c0.087,0.106,0.214,0.172,0.352,0.182c0.138,0.013,0.272-0.038,0.374-0.13c0.769-0.707,1.817-1.035,2.888-0.902
		c0.983,0.124,1.837,0.639,2.341,1.412c0.097,0.147,0.258,0.25,0.436,0.227c1.096-0.04,2.156,0.371,2.883,1.118
		c0.631,0.649,0.948,1.499,0.893,2.391c-0.012,0.196,0.092,0.38,0.265,0.473c0.961,0.51,1.569,1.325,1.669,2.237
		C22.643,10.078,22.272,10.956,21.504,11.665z"/>
</g>
</svg>
