<?xml version="1.0" encoding="utf-8"?>
<!-- Generator: Adobe Illustrator 19.2.0, SVG Export Plug-In . SVG Version: 6.00 Build 0)  -->
<svg version="1.1" id="Layer_1" xmlns="http://www.w3.org/2000/svg" xmlns:xlink="http://www.w3.org/1999/xlink" x="0px" y="0px"
	 width="24px" height="24px" viewBox="0 0 24 24" style="enable-background:new 0 0 24 24;" xml:space="preserve">
<g>
	<path d="M11.459,4.998H7.685c-0.356,0-0.646,0.294-0.646,0.657v3.683c0,0.362,0.29,0.657,0.646,0.657h1.363
		c-0.01,0.476-0.058,0.979-0.269,1.191c-0.055,0.055-0.157,0.129-0.399,0.129c-0.356,0-0.646,0.294-0.646,0.657v1.324
		c0,0.362,0.29,0.657,0.646,0.657c2.472,0,3.726-1.665,3.726-4.949V5.655C12.104,5.292,11.815,4.998,11.459,4.998z M11.104,9.004
		c0,3.178-1.2,3.84-2.371,3.936v-0.656c0.297-0.056,0.549-0.187,0.752-0.391c0.566-0.567,0.565-1.529,0.564-2.398
		c0-0.276-0.224-0.5-0.5-0.5H8.039V5.998h3.066V9.004z"/>
	<path d="M17.34,4.998h-3.774c-0.356,0-0.646,0.294-0.646,0.657v3.683c0,0.362,0.29,0.657,0.646,0.657h1.362
		c-0.01,0.476-0.058,0.979-0.269,1.191c-0.056,0.055-0.157,0.129-0.399,0.129c-0.355,0-0.646,0.294-0.646,0.657v1.324
		c0,0.362,0.29,0.657,0.646,0.657c2.472,0,3.726-1.665,3.726-4.949V5.655C17.985,5.292,17.695,4.998,17.34,4.998z M16.985,9.004
		c0,3.178-1.2,3.84-2.371,3.936v-0.656c0.297-0.056,0.549-0.187,0.752-0.391c0.566-0.567,0.565-1.529,0.564-2.398
		c0-0.276-0.224-0.5-0.5-0.5h-1.512V5.998h3.066V9.004z"/>
	<path d="M15.862-0.002H8.341c-4.406,0-8.129,4.133-8.129,9.025c0,4.5,2.949,7.955,5.926,8.873v5.382
		c0,0.194,0.113,0.371,0.289,0.453c0.067,0.031,0.139,0.047,0.211,0.047c0.116,0,0.23-0.04,0.322-0.118l6.715-5.662h2.187
		c4.299,0,7.931-4.121,7.931-9S20.161-0.002,15.862-0.002z M15.862,16.998h-2.369c-0.118,0-0.232,0.042-0.322,0.118l-6.033,5.087
		v-4.688c0-0.232-0.16-0.434-0.386-0.487c-2.723-0.638-5.54-3.806-5.54-8.003c0-4.275,3.331-8.025,7.129-8.025h7.521
		c3.757,0,6.931,3.664,6.931,8S19.619,16.998,15.862,16.998z"/>
</g>
</svg>
