<?xml version="1.0" encoding="utf-8"?>
<!-- Generator: Adobe Illustrator 19.2.0, SVG Export Plug-In . SVG Version: 6.00 Build 0)  -->
<svg version="1.1" id="Layer_1" xmlns="http://www.w3.org/2000/svg" xmlns:xlink="http://www.w3.org/1999/xlink" x="0px" y="0px"
	 width="24px" height="24px" viewBox="0 0 24 24" style="enable-background:new 0 0 24 24;" xml:space="preserve">
<g>
	<path d="M9.962,10.998H6.001c0.007-0.721,0.047-1.477,0.276-2.078c0.288-0.755,0.814-1.091,1.708-1.091
		C8.555,7.829,9,7.384,9,6.815V4.068C9,3.49,8.585,3.053,8.035,3.053c-2.457,0-4.443,0.775-5.904,2.303
		c-2.215,2.322-2.187,6.112-2.144,11.848C-0.007,18.063,0,18.969,0,19.925c0,0.582,0.462,1.073,1.01,1.073h8.953
		c0.553,0,1.038-0.502,1.038-1.073v-7.917C11,11.451,10.535,10.998,9.962,10.998z M9.962,19.998L1,19.925
		c0-0.958-0.007-1.866-0.013-2.728C0.944,11.51,0.918,8.076,2.854,6.047C4.123,4.72,5.795,4.068,7.931,4.068
		c0.023,0,0.046,0,0.069,0L7.986,6.829c-1.314,0-2.204,0.584-2.643,1.735C5,9.465,5,10.568,5,11.498c0,0.276,0.224,0.5,0.5,0.5
		h4.462L10,12.008L9.962,19.998z"/>
	<path d="M22.963,10.998h-3.961c0.007-0.721,0.047-1.477,0.275-2.078c0.288-0.755,0.814-1.091,1.708-1.091
		c0.56,0,1.015-0.455,1.015-1.014V4.068c0-0.578-0.415-1.014-0.965-1.014c-2.457,0-4.443,0.775-5.904,2.303
		c-2.215,2.322-2.187,6.112-2.144,11.848C12.993,18.063,13,18.969,13,19.925c0,0.582,0.463,1.073,1.01,1.073h8.953
		c0.553,0,1.037-0.502,1.037-1.073v-7.917C24,11.451,23.535,10.998,22.963,10.998z M22.963,19.998L14,19.925
		c0-0.958-0.007-1.866-0.014-2.728c-0.042-5.688-0.067-9.121,1.867-11.149c1.27-1.328,2.942-1.98,5.077-1.98
		c0.023,0,0.046,0,0.069,0l-0.015,2.761c-1.314,0-2.203,0.584-2.643,1.735C18,9.465,18,10.568,18,11.498c0,0.276,0.224,0.5,0.5,0.5
		h4.463L23,12.008L22.963,19.998z"/>
</g>
</svg>
