<?xml version="1.0" encoding="utf-8"?>
<!-- Generator: Adobe Illustrator 19.2.0, SVG Export Plug-In . SVG Version: 6.00 Build 0)  -->
<svg version="1.1" id="Layer_1" xmlns="http://www.w3.org/2000/svg" xmlns:xlink="http://www.w3.org/1999/xlink" x="0px" y="0px"
	 width="24px" height="24px" viewBox="0 0 24 24" style="enable-background:new 0 0 24 24;" xml:space="preserve">
<g>
	<path d="M15.853-0.002H8.332c-4.406,0-8.129,4.133-8.129,9.025c0,4.5,2.949,7.955,5.926,8.873v5.382
		c0,0.194,0.113,0.371,0.289,0.453c0.067,0.031,0.139,0.047,0.211,0.047c0.116,0,0.23-0.04,0.322-0.118l6.715-5.662h2.187
		c4.299,0,7.931-4.121,7.931-9S20.151-0.002,15.853-0.002z M15.853,16.998h-2.369c-0.118,0-0.232,0.042-0.322,0.118l-6.032,5.086
		v-4.688c0-0.232-0.16-0.434-0.386-0.487c-2.723-0.637-5.54-3.805-5.54-8.003c0-4.275,3.331-8.025,7.129-8.025h7.521
		c3.757,0,6.931,3.664,6.931,8S19.609,16.998,15.853,16.998z"/>
	<path d="M15.17,5.663c-0.623,0-1.13,0.513-1.13,1.143s0.507,1.142,1.13,1.142c0.622,0,1.129-0.512,1.129-1.142
		S15.792,5.663,15.17,5.663z M15.04,6.806c0-0.077,0.06-0.143,0.13-0.143s0.129,0.065,0.129,0.143
		C15.299,6.961,15.04,6.961,15.04,6.806z"/>
	<path d="M18.26,6.613c-0.195-0.103-0.43-0.226-0.702-0.377c-0.268-1.252-1.217-2.047-2.479-2.047c-1.106,0-2.234,0.604-3.035,1.602
		c-0.535-0.284-1.389-0.585-2.608-0.585c-0.523,0-1.776,0.042-2.111,0.428C7.23,5.742,7.168,5.943,7.189,6.087
		c0.031,0.216,0.292,1.788,1.395,2.84C8.246,8.968,7.902,8.952,7.571,8.915C6.968,8.849,6.143,8.759,5.726,9.573
		c-0.131,0.256-0.153,0.529-0.071,0.793c-0.375,0.18-0.625,0.44-0.714,0.755c-0.085,0.303-0.028,0.608,0.161,0.857
		c0.554,0.731,2.044,0.752,2.212,0.752c0.743,0,1.562-0.124,2.164-0.268c0.667,0.819,1.601,1.231,2.785,1.231
		c0.172,0,0.351-0.009,0.534-0.026c4.236-0.405,4.861-3.865,4.951-5.028c0.181-0.077,0.341-0.142,0.48-0.2
		c0.658-0.269,1.021-0.417,1.042-0.848C19.289,7.156,18.945,6.975,18.26,6.613z M17.06,7.846c-0.182,0.08-0.298,0.258-0.299,0.456
		c-0.002,0.665-0.208,4.001-4.062,4.37c-1.192,0.11-2.047-0.227-2.601-1.048c-0.094-0.147-0.254-0.231-0.422-0.231
		c-0.047,0-0.095,0.007-0.143,0.021c-0.532,0.158-1.426,0.318-2.221,0.318c-0.703,0-1.334-0.215-1.413-0.33
		c0.019-0.035,0.18-0.185,0.62-0.264c0.188-0.034,0.341-0.173,0.393-0.357s-0.007-0.382-0.15-0.509
		c-0.031-0.027-0.184-0.168-0.147-0.241c0.086-0.167,0.228-0.188,0.847-0.12c0.816,0.089,1.651,0.016,2.501-0.307
		c0.19-0.072,0.318-0.253,0.322-0.457c0.004-0.204-0.116-0.39-0.303-0.47c-1.125-0.483-1.573-1.754-1.73-2.378
		C8.598,6.242,9.16,6.205,9.437,6.205c1.337,0,2.107,0.413,2.447,0.659c0.111,0.081,0.25,0.111,0.385,0.087
		c0.134-0.025,0.253-0.104,0.328-0.219c0.611-0.938,1.586-1.543,2.483-1.543c0.851,0,1.409,0.522,1.531,1.434
		c0.021,0.155,0.112,0.292,0.249,0.369c0.373,0.211,0.685,0.375,0.934,0.507c0.014,0.007,0.027,0.014,0.041,0.021
		C17.62,7.607,17.362,7.712,17.06,7.846z"/>
</g>
</svg>
