<?xml version="1.0" encoding="utf-8"?>
<!-- Generator: Adobe Illustrator 19.2.0, SVG Export Plug-In . SVG Version: 6.00 Build 0)  -->
<svg version="1.1" id="Layer_1" xmlns="http://www.w3.org/2000/svg" xmlns:xlink="http://www.w3.org/1999/xlink" x="0px" y="0px"
	 width="24px" height="24px" viewBox="0 0 24 24" style="enable-background:new 0 0 24 24;" xml:space="preserve">
<g>
	<path d="M18.624,8.018h-1.231c-0.276,0-0.5,0.224-0.5,0.5s0.224,0.5,0.5,0.5h1.231c2.302,0,4.175,2.086,4.175,4.649
		c0,2.262-1.45,4.188-3.448,4.579c-0.235,0.046-0.404,0.251-0.404,0.49v2.574l-3.231-2.867c-0.092-0.081-0.21-0.126-0.332-0.126
		h-1.49c-1.671,0-3.178-1.106-3.838-2.818c-0.099-0.258-0.389-0.384-0.646-0.287c-0.258,0.1-0.386,0.389-0.287,0.646
		c0.81,2.102,2.683,3.459,4.771,3.459h1.301l3.921,3.479c0.094,0.083,0.212,0.126,0.332,0.126c0.069,0,0.14-0.015,0.205-0.044
		c0.18-0.081,0.295-0.259,0.295-0.456v-3.293c2.256-0.646,3.853-2.876,3.853-5.463C23.799,10.552,21.478,8.018,18.624,8.018z"/>
	<path d="M18.534,11.455c-0.196-0.195-0.513-0.192-0.707,0.003l-1.555,1.567l-0.278-0.28c-0.194-0.196-0.511-0.197-0.707-0.003
		c-0.195,0.195-0.197,0.511-0.002,0.708l0.283,0.285l-1.559,1.571c-0.195,0.196-0.193,0.513,0.002,0.707
		c0.098,0.098,0.226,0.146,0.353,0.146c0.129,0,0.257-0.05,0.354-0.147l1.555-1.567l1.555,1.567
		c0.098,0.099,0.226,0.147,0.354,0.147c0.127,0,0.255-0.048,0.353-0.146c0.195-0.194,0.197-0.511,0.002-0.707l-1.56-1.571
		l1.56-1.572C18.731,11.966,18.729,11.649,18.534,11.455z"/>
	<path d="M15.912,8.028c0-3.306-2.461-5.996-5.486-5.996H5.379c-3.025,0-5.487,2.689-5.487,5.996c0,2.755,1.705,5.128,4.11,5.805
		v3.54c0,0.197,0.116,0.375,0.295,0.456c0.066,0.029,0.136,0.044,0.205,0.044c0.12,0,0.239-0.043,0.332-0.126l4.192-3.723h1.4
		C13.451,14.024,15.912,11.334,15.912,8.028z M8.836,13.024c-0.123,0-0.241,0.045-0.332,0.126l-3.502,3.11v-2.822
		c0-0.239-0.169-0.445-0.404-0.491c-2.147-0.42-3.706-2.489-3.706-4.919c0-2.754,2.013-4.996,4.487-4.996h5.047
		c2.474,0,4.486,2.241,4.486,4.996c0,2.755-2.013,4.996-4.486,4.996H8.836z"/>
	<path d="M11.066,5.655c-0.203-0.188-0.52-0.176-0.707,0.026L6.771,9.547l-1.47-1.584C5.113,7.762,4.797,7.748,4.594,7.937
		C4.392,8.125,4.38,8.442,4.568,8.644l1.836,1.979c0.004,0.005,0.01,0.006,0.015,0.011c0.005,0.005,0.006,0.011,0.011,0.016
		c0.029,0.027,0.064,0.042,0.098,0.061c0.019,0.011,0.035,0.026,0.055,0.034c0.06,0.025,0.124,0.038,0.188,0.038
		c0.064,0,0.127-0.014,0.188-0.038c0.02-0.008,0.036-0.024,0.056-0.035c0.033-0.019,0.068-0.033,0.097-0.06
		c0.005-0.005,0.007-0.011,0.011-0.016c0.005-0.004,0.011-0.006,0.015-0.011l3.955-4.261C11.28,6.159,11.268,5.843,11.066,5.655z"/>
</g>
</svg>
