<?xml version="1.0" encoding="utf-8"?>
<!-- Generator: Adobe Illustrator 19.2.0, SVG Export Plug-In . SVG Version: 6.00 Build 0)  -->
<svg version="1.1" id="Layer_1" xmlns="http://www.w3.org/2000/svg" xmlns:xlink="http://www.w3.org/1999/xlink" x="0px" y="0px"
	 width="24px" height="24px" viewBox="0 0 24 24" style="enable-background:new 0 0 24 24;" xml:space="preserve">
<g>
	<path d="M15.857-0.002H8.336c-4.406,0-8.129,4.133-8.129,9.025c0,4.5,2.949,7.955,5.926,8.873v5.382
		c0,0.194,0.113,0.371,0.289,0.453c0.067,0.031,0.139,0.047,0.211,0.047c0.116,0,0.23-0.04,0.322-0.118l6.715-5.662h2.187
		c4.299,0,7.931-4.121,7.931-9S20.156-0.002,15.857-0.002z M15.857,16.998h-2.369c-0.118,0-0.232,0.042-0.322,0.118l-6.033,5.087
		v-4.688c0-0.232-0.16-0.434-0.386-0.487c-2.723-0.638-5.54-3.806-5.54-8.003c0-4.275,3.331-8.025,7.129-8.025h7.521
		c3.757,0,6.931,3.664,6.931,8S19.614,16.998,15.857,16.998z"/>
	<path d="M16.606,5.998H7.468c-0.276,0-0.5,0.224-0.5,0.5s0.224,0.5,0.5,0.5h9.139c0.276,0,0.5-0.224,0.5-0.5
		S16.883,5.998,16.606,5.998z"/>
	<path d="M16.606,8.998H7.468c-0.276,0-0.5,0.224-0.5,0.5s0.224,0.5,0.5,0.5h9.139c0.276,0,0.5-0.224,0.5-0.5
		S16.883,8.998,16.606,8.998z"/>
	<path d="M12.452,11.998H7.468c-0.276,0-0.5,0.224-0.5,0.5s0.224,0.5,0.5,0.5h4.984c0.276,0,0.5-0.224,0.5-0.5
		S12.729,11.998,12.452,11.998z"/>
</g>
</svg>
