<?xml version="1.0" encoding="utf-8"?>
<!-- Generator: Adobe Illustrator 19.2.0, SVG Export Plug-In . SVG Version: 6.00 Build 0)  -->
<svg version="1.1" id="Layer_1" xmlns="http://www.w3.org/2000/svg" xmlns:xlink="http://www.w3.org/1999/xlink" x="0px" y="0px"
	 width="24px" height="24px" viewBox="0 0 24 24" style="enable-background:new 0 0 24 24;" xml:space="preserve">
<g>
	<path d="M6.51,17.002h-5c-0.276,0-0.5,0.224-0.5,0.5v5c0,0.276,0.224,0.5,0.5,0.5h5c0.276,0,0.5-0.224,0.5-0.5v-5
		C7.01,17.225,6.786,17.002,6.51,17.002z M6.01,22.002h-4v-4h4V22.002z"/>
	<path d="M6.51,9.001h-5c-0.276,0-0.5,0.224-0.5,0.5v5c0,0.276,0.224,0.5,0.5,0.5h5c0.276,0,0.5-0.224,0.5-0.5v-5
		C7.01,9.224,6.786,9.001,6.51,9.001z M6.01,14.001h-4v-4h4V14.001z"/>
	<path d="M21.45,19H9.519c-0.276,0-0.5,0.224-0.5,0.5s0.224,0.5,0.5,0.5H21.45c0.276,0,0.5-0.224,0.5-0.5S21.727,19,21.45,19z"/>
	<path d="M21.45,10.999H9.519c-0.276,0-0.5,0.224-0.5,0.5s0.224,0.5,0.5,0.5H21.45c0.276,0,0.5-0.224,0.5-0.5
		S21.727,10.999,21.45,10.999z"/>
	<path d="M9.519,3.998H21.45c0.276,0,0.5-0.224,0.5-0.5s-0.224-0.5-0.5-0.5H9.519c-0.276,0-0.5,0.224-0.5,0.5
		S9.243,3.998,9.519,3.998z"/>
	<path d="M7.177,1.026L3.181,5.747L1.876,4.344C1.687,4.142,1.371,4.132,1.169,4.319C0.967,4.507,0.956,4.823,1.144,5.025
		l1.688,1.815C2.927,6.943,3.06,7,3.198,7C3.202,7,3.206,7,3.21,7c0.143-0.003,0.277-0.068,0.37-0.177l4.361-5.151
		c0.178-0.211,0.152-0.526-0.059-0.705C7.671,0.79,7.355,0.816,7.177,1.026z"/>
</g>
</svg>
