<?xml version="1.0" encoding="utf-8"?>
<!-- Generator: Adobe Illustrator 19.2.0, SVG Export Plug-In . SVG Version: 6.00 Build 0)  -->
<svg version="1.1" id="Layer_1" xmlns="http://www.w3.org/2000/svg" xmlns:xlink="http://www.w3.org/1999/xlink" x="0px" y="0px"
	 width="24px" height="24px" viewBox="0 0 24 24" style="enable-background:new 0 0 24 24;" xml:space="preserve">
<g>
	<path d="M6.524,17.002h-5c-0.276,0-0.5,0.224-0.5,0.5v5c0,0.276,0.224,0.5,0.5,0.5h5c0.276,0,0.5-0.224,0.5-0.5v-5
		C7.024,17.225,6.801,17.002,6.524,17.002z M6.024,22.002h-4v-4h4V22.002z"/>
	<path d="M6.524,9.001h-5c-0.276,0-0.5,0.224-0.5,0.5v5c0,0.276,0.224,0.5,0.5,0.5h5c0.276,0,0.5-0.224,0.5-0.5v-5
		C7.024,9.224,6.801,9.001,6.524,9.001z M6.024,14.001h-4v-4h4V14.001z"/>
	<path d="M21.465,19H9.533c-0.276,0-0.5,0.224-0.5,0.5s0.224,0.5,0.5,0.5h11.932c0.276,0,0.5-0.224,0.5-0.5S21.741,19,21.465,19z"/>
	<path d="M21.465,10.999H9.533c-0.276,0-0.5,0.224-0.5,0.5s0.224,0.5,0.5,0.5h11.932c0.276,0,0.5-0.224,0.5-0.5
		S21.741,10.999,21.465,10.999z"/>
	<path d="M9.533,3.998h11.932c0.276,0,0.5-0.224,0.5-0.5s-0.224-0.5-0.5-0.5H9.533c-0.276,0-0.5,0.224-0.5,0.5
		S9.257,3.998,9.533,3.998z"/>
	<path d="M6.987,1.315C6.971,1.274,6.944,1.24,6.918,1.205C6.906,1.189,6.9,1.17,6.886,1.155C6.885,1.154,6.883,1.153,6.882,1.152
		C6.847,1.116,6.803,1.09,6.759,1.066C6.746,1.059,6.735,1.046,6.721,1.04C6.704,1.033,6.683,1.034,6.665,1.028
		C6.62,1.015,6.576,1.001,6.53,1.001C6.528,1.001,6.526,1,6.524,1h-5c-0.065,0-0.13,0.013-0.191,0.038
		c-0.122,0.051-0.22,0.148-0.271,0.271C1.037,1.37,1.024,1.435,1.024,1.5v5c0,0.276,0.224,0.5,0.5,0.5h5
		c0.065,0,0.13-0.013,0.191-0.038c0.122-0.051,0.22-0.148,0.271-0.271C7.011,6.63,7.024,6.565,7.024,6.5v-5
		c0-0.026-0.011-0.048-0.015-0.072C7.004,1.389,7.002,1.351,6.987,1.315z M2.024,2.707l1.225,1.225L2.024,5.099V2.707z M2.731,2
		h2.544L3.973,3.241L2.731,2z M3.956,4.638L5.317,6H2.526L3.956,4.638z M4.68,3.948l1.345-1.282v2.627L4.68,3.948z"/>
</g>
</svg>
