<?xml version="1.0" encoding="utf-8"?>
<!-- Generator: Adobe Illustrator 19.2.0, SVG Export Plug-In . SVG Version: 6.00 Build 0)  -->
<svg version="1.1" id="Layer_1" xmlns="http://www.w3.org/2000/svg" xmlns:xlink="http://www.w3.org/1999/xlink" x="0px" y="0px"
	 width="24px" height="24px" viewBox="0 0 24 24" style="enable-background:new 0 0 24 24;" xml:space="preserve">
<g>
	<path d="M17.581,1.25c-3.031,0-5.608,2.213-6.12,5.142C10.573,6.073,9.621,5.89,8.625,5.89c-4.648,0-8.43,3.782-8.43,8.431
		s3.782,8.431,8.43,8.431c4.649,0,8.431-3.782,8.431-8.431c0-0.227-0.016-0.45-0.034-0.672c0.186,0.017,0.373,0.028,0.559,0.028
		c3.426,0,6.213-2.787,6.213-6.213C23.794,4.037,21.007,1.25,17.581,1.25z M8.625,21.752c-4.097,0-7.43-3.333-7.43-7.431
		c0-4.097,3.333-7.431,7.43-7.431c4.098,0,7.431,3.333,7.431,7.431C16.056,18.419,12.722,21.752,8.625,21.752z M17.581,12.677
		c-0.236,0-0.468-0.038-0.701-0.069c-0.527-2.539-2.201-4.656-4.452-5.8c0.328-2.573,2.529-4.557,5.153-4.557
		c2.874,0,5.213,2.339,5.213,5.213S20.455,12.677,17.581,12.677z"/>
	<path d="M12.612,11.168L7.259,16.89l-2.29-2.448c-0.188-0.201-0.505-0.211-0.707-0.023c-0.202,0.188-0.212,0.505-0.023,0.707
		l2.656,2.838c0.004,0.004,0.009,0.005,0.013,0.009c0.004,0.004,0.006,0.01,0.01,0.014c0.029,0.027,0.064,0.042,0.097,0.061
		c0.02,0.011,0.037,0.028,0.057,0.036c0.06,0.024,0.123,0.038,0.187,0.038s0.127-0.013,0.187-0.038
		c0.021-0.008,0.038-0.025,0.057-0.036c0.033-0.019,0.068-0.034,0.097-0.061c0.004-0.004,0.006-0.01,0.01-0.014
		c0.004-0.004,0.01-0.005,0.013-0.009l5.719-6.112c0.188-0.202,0.178-0.518-0.023-0.707C13.118,10.956,12.802,10.968,12.612,11.168z
		"/>
	<path d="M19.562,5.482c-0.195-0.195-0.512-0.195-0.707,0l-1.275,1.275l-1.275-1.275c-0.195-0.195-0.512-0.195-0.707,0
		s-0.195,0.512,0,0.707l1.275,1.275L16.116,8.22c-0.195,0.195-0.195,0.512,0,0.707c0.098,0.098,0.226,0.146,0.354,0.146
		s0.256-0.049,0.354-0.146l0.757-0.757l1.275,1.275c0.098,0.098,0.226,0.146,0.354,0.146s0.256-0.049,0.354-0.146
		c0.195-0.195,0.195-0.512,0-0.707l-1.275-1.275l1.275-1.275C19.758,5.993,19.758,5.677,19.562,5.482z"/>
</g>
</svg>
