<?xml version="1.0" encoding="utf-8"?>
<!-- Generator: Adobe Illustrator 19.2.0, SVG Export Plug-In . SVG Version: 6.00 Build 0)  -->
<svg version="1.1" id="Layer_1" xmlns="http://www.w3.org/2000/svg" xmlns:xlink="http://www.w3.org/1999/xlink" x="0px" y="0px"
	 width="24px" height="24px" viewBox="0 0 24 24" style="enable-background:new 0 0 24 24;" xml:space="preserve">
<g>
	<path d="M6.505,17.002h-5c-0.276,0-0.5,0.224-0.5,0.5v5c0,0.276,0.224,0.5,0.5,0.5h5c0.276,0,0.5-0.224,0.5-0.5v-5
		C7.005,17.225,6.781,17.002,6.505,17.002z M6.005,22.002h-4v-4h4V22.002z"/>
	<path d="M6.505,9.001h-5c-0.276,0-0.5,0.224-0.5,0.5v5c0,0.276,0.224,0.5,0.5,0.5h5c0.276,0,0.5-0.224,0.5-0.5v-5
		C7.005,9.224,6.781,9.001,6.505,9.001z M6.005,14.001h-4v-4h4V14.001z"/>
	<path d="M6.505,1h-5c-0.276,0-0.5,0.224-0.5,0.5v5c0,0.276,0.224,0.5,0.5,0.5h5c0.276,0,0.5-0.224,0.5-0.5v-5
		C7.005,1.223,6.781,1,6.505,1z M6.005,6h-4V2h4V6z"/>
	<path d="M21.445,19H9.514c-0.276,0-0.5,0.224-0.5,0.5s0.224,0.5,0.5,0.5h11.931c0.276,0,0.5-0.224,0.5-0.5S21.722,19,21.445,19z"/>
	<path d="M21.445,10.999H9.514c-0.276,0-0.5,0.224-0.5,0.5s0.224,0.5,0.5,0.5h11.931c0.276,0,0.5-0.224,0.5-0.5
		S21.722,10.999,21.445,10.999z"/>
	<path d="M9.514,3.998h11.931c0.276,0,0.5-0.224,0.5-0.5s-0.224-0.5-0.5-0.5H9.514c-0.276,0-0.5,0.224-0.5,0.5
		S9.238,3.998,9.514,3.998z"/>
</g>
</svg>
