<?xml version="1.0" encoding="utf-8"?>
<!-- Generator: Adobe Illustrator 19.2.0, SVG Export Plug-In . SVG Version: 6.00 Build 0)  -->
<svg version="1.1" id="Layer_1" xmlns="http://www.w3.org/2000/svg" xmlns:xlink="http://www.w3.org/1999/xlink" x="0px" y="0px"
	 width="24px" height="24px" viewBox="0 0 24 24" style="enable-background:new 0 0 24 24;" xml:space="preserve">
<g>
	<path d="M23.505,0.001h-23c-0.276,0-0.5,0.224-0.5,0.5v23c0,0.276,0.224,0.5,0.5,0.5h23c0.276,0,0.5-0.224,0.5-0.5v-23
		C24.005,0.225,23.781,0.001,23.505,0.001z M23.005,23.001h-22v-22h22V23.001z"/>
	<path d="M9.283,16.877c0.094,0.097,0.223,0.151,0.358,0.151S9.905,16.973,10,16.877l8.928-9.181
		c0.192-0.198,0.188-0.515-0.01-0.707c-0.198-0.192-0.514-0.188-0.707,0.01l-8.57,8.813l-3.788-3.896
		c-0.192-0.197-0.509-0.203-0.707-0.01c-0.198,0.192-0.202,0.509-0.01,0.707L9.283,16.877z"/>
</g>
</svg>
