<?xml version="1.0" encoding="utf-8"?>
<!-- Generator: Adobe Illustrator 19.2.0, SVG Export Plug-In . SVG Version: 6.00 Build 0)  -->
<svg version="1.1" id="Layer_1" xmlns="http://www.w3.org/2000/svg" xmlns:xlink="http://www.w3.org/1999/xlink" x="0px" y="0px"
	 width="24px" height="24px" viewBox="0 0 24 24" style="enable-background:new 0 0 24 24;" xml:space="preserve">
<g>
	<path d="M12.012,0.12C5.46,0.12,0.129,5.451,0.129,12.003S5.46,23.885,12.012,23.885s11.882-5.33,11.882-11.882
		S18.563,0.12,12.012,0.12z M12.012,22.885c-6,0-10.882-4.882-10.882-10.882c0-6,4.882-10.882,10.882-10.882
		c6,0,10.882,4.882,10.882,10.882C22.894,18.003,18.012,22.885,12.012,22.885z"/>
	<path d="M17.147,7.248l-6.755,8.445l-2.928-3.661c-0.173-0.215-0.487-0.25-0.703-0.078c-0.215,0.173-0.25,0.487-0.078,0.703
		l3.318,4.149c0.095,0.118,0.239,0.188,0.391,0.188s0.295-0.069,0.391-0.188l7.146-8.934c0.172-0.216,0.138-0.53-0.078-0.703
		C17.635,6.998,17.321,7.032,17.147,7.248z"/>
</g>
</svg>
