<?xml version="1.0" encoding="utf-8"?>
<!-- Generator: Adobe Illustrator 19.2.0, SVG Export Plug-In . SVG Version: 6.00 Build 0)  -->
<svg version="1.1" id="Layer_1" xmlns="http://www.w3.org/2000/svg" xmlns:xlink="http://www.w3.org/1999/xlink" x="0px" y="0px"
	 width="24px" height="24px" viewBox="0 0 24 24" style="enable-background:new 0 0 24 24;" xml:space="preserve">
<g>
	<path d="M21.1,0H2.9C1.328,0,0,1.328,0,2.9v18.2C0,22.672,1.328,24,2.9,24h18.2c1.572,0,2.9-1.328,2.9-2.899V2.9
		C24,1.328,22.672,0,21.1,0z M2.9,1h18.2C22.13,1,23,1.87,23,2.9V6H1V2.9C1,1.87,1.87,1,2.9,1z M21.1,23H2.9C1.87,23,1,22.13,1,21.1
		V7h22V21.1C23,22.13,22.13,23,21.1,23z"/>
	<path d="M7.5,4.1h0.1c0.276,0,0.5-0.224,0.5-0.5S7.876,3.1,7.6,3.1H7.5C7.224,3.1,7,3.323,7,3.6S7.224,4.1,7.5,4.1z"/>
	<path d="M16.5,4.1c0.276,0,0.5-0.224,0.5-0.5s-0.224-0.5-0.5-0.5h-0.1c-0.276,0-0.45,0.224-0.45,0.5S16.224,4.1,16.5,4.1z"/>
	<path d="M7.4,10.8c-0.276,0-0.5,0.224-0.5,0.5v4.8c0,0.067-0.014,1.656-1.233,1.801c-1.14,0.072-1.602-0.793-1.62-0.825
		c-0.124-0.246-0.424-0.348-0.671-0.224c-0.247,0.124-0.347,0.424-0.224,0.671c0.029,0.059,0.71,1.381,2.386,1.381
		c0.072,0,0.145-0.002,0.22-0.008C7.452,18.697,7.9,16.98,7.9,16.1v-4.8C7.9,11.024,7.676,10.8,7.4,10.8z"/>
	<path d="M13.02,13.282c-0.778-0.586-1.951-0.603-3.488-0.053c-0.26,0.094-0.395,0.38-0.302,0.64c0.093,0.26,0.38,0.392,0.64,0.302
		c1.178-0.424,2.058-0.456,2.543-0.095c0.411,0.307,0.478,0.854,0.487,1.098c-0.945-0.181-2.665-0.373-3.553,0.395
		c-0.303,0.262-0.644,0.75-0.543,1.591c0.14,1.165,0.923,1.854,2.102,1.854c0.024,0,0.049,0,0.073-0.001
		c0.656-0.016,1.366-0.247,1.922-0.619V18.4c0,0.276,0.224,0.5,0.5,0.5s0.5-0.224,0.5-0.5l-0.001-3.067
		C13.903,15.279,13.976,14.004,13.02,13.282z M10.955,18.013c-1.08-0.006-1.129-0.727-1.159-0.973
		C9.744,16.603,9.887,16.424,10,16.327c0.526-0.455,1.926-0.342,2.901-0.133v0.675C12.86,17.341,11.896,17.991,10.955,18.013z"/>
	<path d="M17.6,12.9c-0.736,0-1.287,0.237-1.699,0.565V13.3c0-0.276-0.224-0.5-0.5-0.5s-0.5,0.224-0.5,0.5V18.4
		c0,0.276,0.224,0.5,0.5,0.5s0.5-0.224,0.5-0.5v-3.15c0.046-0.222,0.344-1.35,1.699-1.35c1.315,0,1.397,1.086,1.4,1.3v3.2
		c0,0.276,0.224,0.5,0.5,0.5s0.5-0.224,0.5-0.5v-3.2C20,14.56,19.568,12.9,17.6,12.9z"/>
</g>
</svg>
