<?xml version="1.0" encoding="utf-8"?>
<!-- Generator: Adobe Illustrator 19.2.0, SVG Export Plug-In . SVG Version: 6.00 Build 0)  -->
<svg version="1.1" id="Layer_1" xmlns="http://www.w3.org/2000/svg" xmlns:xlink="http://www.w3.org/1999/xlink" x="0px" y="0px"
	 width="24px" height="24px" viewBox="0 0 24 24" style="enable-background:new 0 0 24 24;" xml:space="preserve">
<g>
	<path d="M12,0.248c-6.48,0-11.753,5.272-11.753,11.753c0,6.48,5.272,11.752,11.753,11.752s11.753-5.272,11.753-11.752
		C23.753,5.521,18.48,0.248,12,0.248z M12,22.754c-5.929,0-10.753-4.823-10.753-10.752S6.071,1.248,12,1.248
		c5.929,0,10.753,4.824,10.753,10.753S17.929,22.754,12,22.754z"/>
	<path d="M12.331,12.896c0.085,0,0.17-0.021,0.248-0.066l3.481-1.989c0.24-0.137,0.323-0.442,0.187-0.682
		c-0.139-0.241-0.446-0.323-0.683-0.186l-3.15,1.8l-5.457-5.42C6.761,6.158,6.444,6.16,6.25,6.355
		C6.055,6.551,6.056,6.867,6.251,7.062l5.727,5.689C12.074,12.846,12.202,12.896,12.331,12.896z"/>
	<path d="M20.215,10.535c-0.724,0-1.312,0.588-1.312,1.312s0.589,1.312,1.312,1.312s1.312-0.588,1.312-1.312
		S20.938,10.535,20.215,10.535z M20.215,12.159c-0.172,0-0.312-0.14-0.312-0.312s0.141-0.312,0.312-0.312s0.312,0.14,0.312,0.312
		S20.387,12.159,20.215,12.159z"/>
	<path d="M5.097,11.847c0-0.724-0.588-1.312-1.312-1.312c-0.723,0-1.312,0.588-1.312,1.312s0.588,1.312,1.312,1.312
		C4.509,13.159,5.097,12.571,5.097,11.847z M3.785,12.159c-0.172,0-0.312-0.14-0.312-0.312s0.14-0.312,0.312-0.312
		s0.312,0.14,0.312,0.312S3.957,12.159,3.785,12.159z"/>
	<path d="M11.992,4.982c0.724,0,1.312-0.588,1.312-1.312s-0.588-1.312-1.312-1.312S10.68,2.946,10.68,3.67
		S11.268,4.982,11.992,4.982z M11.992,3.358c0.172,0,0.312,0.14,0.312,0.312s-0.14,0.312-0.312,0.312S11.68,3.842,11.68,3.67
		S11.82,3.358,11.992,3.358z"/>
	<path d="M11.992,18.772c-0.724,0-1.312,0.588-1.312,1.312s0.588,1.312,1.312,1.312s1.312-0.589,1.312-1.312
		S12.715,18.772,11.992,18.772z M11.992,20.396c-0.172,0-0.312-0.141-0.312-0.312s0.14-0.312,0.312-0.312s0.312,0.14,0.312,0.312
		S12.164,20.396,11.992,20.396z"/>
	<path d="M7.84,5.29c0.13,0,0.26-0.05,0.35-0.15c0.09-0.1,0.14-0.22,0.14-0.35S8.28,4.54,8.19,4.44C8,4.25,7.67,4.25,7.48,4.44
		c-0.1,0.09-0.15,0.22-0.15,0.35s0.05,0.25,0.15,0.35C7.57,5.24,7.7,5.29,7.84,5.29z"/>
	<path d="M7.48,18.61c-0.09,0.1-0.14,0.229-0.14,0.359s0.05,0.261,0.15,0.36c0.09,0.09,0.22,0.14,0.34,0.14
		c0.13,0,0.26-0.05,0.36-0.149c0.09-0.09,0.15-0.221,0.15-0.351s-0.06-0.26-0.15-0.35C8,18.429,7.67,18.429,7.48,18.61z"/>
	<path d="M15.71,4.39c-0.09,0.09-0.141,0.22-0.141,0.35c0,0.14,0.051,0.26,0.15,0.36c0.09,0.09,0.22,0.14,0.35,0.14
		c0.131,0,0.25-0.05,0.36-0.15c0.09-0.09,0.14-0.22,0.14-0.35c0-0.13-0.05-0.25-0.149-0.35C16.229,4.2,15.899,4.2,15.71,4.39z"/>
	<path d="M15.71,18.67c-0.09,0.09-0.141,0.22-0.141,0.351c0,0.119,0.051,0.25,0.15,0.359c0.1,0.09,0.22,0.141,0.35,0.141
		c0.131,0,0.261-0.061,0.351-0.15s0.149-0.22,0.149-0.35c0-0.141-0.05-0.271-0.149-0.36C16.24,18.48,15.92,18.46,15.71,18.67z"/>
	<path d="M19.1,8.24c0.13,0,0.26-0.05,0.36-0.15C19.55,8,19.6,7.87,19.6,7.74c0-0.13-0.05-0.26-0.14-0.35
		c-0.19-0.19-0.53-0.19-0.71,0c-0.09,0.09-0.15,0.22-0.15,0.35c0,0.13,0.05,0.26,0.15,0.36C18.85,8.19,18.97,8.24,19.1,8.24z"/>
	<path d="M18.75,15.679C18.66,15.77,18.6,15.9,18.6,16.03s0.061,0.26,0.15,0.359c0.1,0.091,0.22,0.141,0.35,0.141
		s0.26-0.05,0.36-0.15c0.09-0.09,0.14-0.22,0.14-0.35s-0.05-0.25-0.149-0.351C19.27,15.5,18.939,15.49,18.75,15.679z"/>
	<path d="M4.48,7.47C4.39,7.56,4.33,7.69,4.33,7.82c0,0.13,0.06,0.26,0.15,0.36c0.1,0.09,0.23,0.14,0.35,0.14
		c0.13,0,0.26-0.05,0.36-0.15c0.09-0.09,0.14-0.22,0.14-0.35c0-0.13-0.05-0.26-0.15-0.36C4.99,7.28,4.68,7.27,4.48,7.47z"/>
	<path d="M4.48,15.599c-0.09,0.091-0.15,0.221-0.15,0.36c0,0.13,0.06,0.25,0.16,0.36c0.09,0.09,0.22,0.14,0.34,0.14
		c0.13,0,0.26-0.05,0.36-0.149c0.09-0.101,0.14-0.221,0.14-0.351s-0.05-0.26-0.14-0.36C5,15.42,4.67,15.42,4.48,15.599z"/>
</g>
</svg>
