<?xml version="1.0" encoding="utf-8"?>
<!-- Generator: Adobe Illustrator 19.2.0, SVG Export Plug-In . SVG Version: 6.00 Build 0)  -->
<svg version="1.1" id="Layer_1" xmlns="http://www.w3.org/2000/svg" xmlns:xlink="http://www.w3.org/1999/xlink" x="0px" y="0px"
	 width="24px" height="24px" viewBox="0 0 24 24" style="enable-background:new 0 0 24 24;" xml:space="preserve">
<g>
	<path d="M17.443,11.995h-5.438V3.546c0-0.276-0.224-0.5-0.5-0.5s-0.5,0.224-0.5,0.5v8.949c0,0.276,0.224,0.5,0.5,0.5h5.938
		c0.276,0,0.5-0.224,0.5-0.5S17.72,11.995,17.443,11.995z"/>
	<path d="M12,0.249c-6.48,0-11.752,5.272-11.752,11.752S5.52,23.753,12,23.753c6.48,0,11.752-5.271,11.752-11.751
		S18.48,0.249,12,0.249z M12,22.753c-5.929,0-10.752-4.823-10.752-10.751C1.248,6.073,6.071,1.249,12,1.249
		s10.752,4.823,10.752,10.752C22.752,17.929,17.929,22.753,12,22.753z"/>
</g>
</svg>
