<?xml version="1.0" encoding="utf-8"?>
<!-- Generator: Adobe Illustrator 19.2.0, SVG Export Plug-In . SVG Version: 6.00 Build 0)  -->
<svg version="1.1" id="Layer_1" xmlns="http://www.w3.org/2000/svg" xmlns:xlink="http://www.w3.org/1999/xlink" x="0px" y="0px"
	 width="24px" height="24px" viewBox="0 0 24 24" style="enable-background:new 0 0 24 24;" xml:space="preserve">
<g>
	<path d="M23.713,3.994l-0.065-0.117c-0.023-0.048-0.056-0.093-0.094-0.131l-3.301-3.301C20.042,0.236,19.707,0.1,19.4,0.1
		c-0.281,0-0.471,0.109-0.608,0.189l-0.116,0.064c-0.048,0.024-0.091,0.056-0.129,0.093l-12.2,12.2
		c-0.141,0.141-0.295,0.414-2.027,4.687c-0.25,0.615-0.433,1.068-0.468,1.145c-0.205,0.412-0.025,0.896,0.101,1.146
		c0.024,0.048,0.056,0.092,0.094,0.13c0.205,0.205,0.488,0.313,0.774,0.313c0.169,0,0.34-0.038,0.496-0.117
		c0.075-0.034,0.462-0.188,1-0.403c4.388-1.752,4.771-1.955,4.9-2.166c0.921-0.654,3.546-3.136,12.337-11.927
		c0,0,0.001,0,0.001-0.001C23.765,5.241,23.9,4.907,23.9,4.6C23.9,4.321,23.792,4.132,23.713,3.994z M9.963,16.971
		c-0.919,0.407-2.772,1.149-3.818,1.567l-0.879-0.879c0.397-0.98,1.178-2.905,1.568-3.818L9.963,16.971z M4.798,19.065
		c-0.033-0.086-0.044-0.142-0.05-0.142h0c0.011-0.023,0.054-0.124,0.11-0.259l0.28,0.28C4.998,19,4.899,19.042,4.875,19.053
		C4.859,19.061,4.827,19.073,4.798,19.065z M22.845,4.748c-4.056,4.056-10.516,10.437-11.991,11.7l-0.695-0.695L20.752,5.255
		c0.196-0.194,0.198-0.511,0.004-0.707c-0.193-0.196-0.512-0.198-0.707-0.003l-10.597,10.5L7.407,13L19.2,1.207
		c0.033-0.018,0.063-0.035,0.092-0.052C19.329,1.134,19.38,1.104,19.4,1.1c0.054,0,0.127,0.036,0.146,0.054L22.793,4.4
		c0.018,0.033,0.036,0.065,0.054,0.095c0.021,0.037,0.05,0.086,0.054,0.105C22.9,4.653,22.864,4.725,22.845,4.748z"/>
	<path d="M18.5,12.5c-0.276,0-0.5,0.224-0.5,0.5v9c0,0.924-0.331,1-0.7,1H2c-0.626,0-1-0.374-1-1V6.8C1,6.269,1.37,6,2.1,6H11
		c0.276,0,0.5-0.224,0.5-0.5S11.276,5,11,5H2.1C0.824,5,0,5.706,0,6.8V22c0,1.178,0.822,2,2,2h15.3c0.635,0,1.7-0.26,1.7-2v-9
		C19,12.723,18.776,12.5,18.5,12.5z"/>
</g>
</svg>
