<?xml version="1.0" encoding="utf-8"?>
<!-- Generator: Adobe Illustrator 19.2.0, SVG Export Plug-In . SVG Version: 6.00 Build 0)  -->
<svg version="1.1" id="Layer_1" xmlns="http://www.w3.org/2000/svg" xmlns:xlink="http://www.w3.org/1999/xlink" x="0px" y="0px"
	 width="24px" height="24px" viewBox="0 0 24 24" style="enable-background:new 0 0 24 24;" xml:space="preserve">
<path d="M22.155,0.001H1.845C0.828,0.001,0,0.829,0,1.846v20.31c0,1.018,0.828,1.845,1.845,1.845h20.31
	c1.018,0,1.845-0.827,1.845-1.845V1.846C24,0.829,23.173,0.001,22.155,0.001z M22.155,23.001H1.845C1.379,23.001,1,22.622,1,22.156
	V12.001h1.356c0.267,2.211,2.233,4,4.558,4H8c0,0.276,0.224,0.5,0.5,0.5s0.5-0.224,0.5-0.5v-0.5v-1.5h2.545
	c0.276,0,0.5-0.224,0.5-0.5s-0.224-0.5-0.5-0.5H9v-3h2.545c0.276,0,0.5-0.224,0.5-0.5s-0.224-0.5-0.5-0.5H9v-1.5v-0.5
	c0-0.276-0.224-0.5-0.5-0.5S8,6.725,8,7.001H6.914c-2.325,0-4.291,1.788-4.558,4H1V1.846c0-0.466,0.379-0.845,0.845-0.845h20.31
	C22.621,1.001,23,1.381,23,1.846v9.155h-1.427c-0.259-2.212-2.169-4-4.426-4H15.5c-0.276,0-0.5,0.224-0.5,0.5v8
	c0,0.276,0.224,0.5,0.5,0.5h1.647c2.257,0,4.166-1.788,4.426-4H23v10.155C23,22.622,22.621,23.001,22.155,23.001z M8,15.001H6.914
	c-1.958,0-3.611-1.603-3.611-3.5s1.654-3.5,3.611-3.5H8V15.001z M16,14.001h1.328c0.276,0,0.5-0.224,0.5-0.5s-0.224-0.5-0.5-0.5H16
	v-3h1.328c0.276,0,0.5-0.224,0.5-0.5s-0.224-0.5-0.5-0.5H16v-1h1.147c1.885,0,3.478,1.603,3.478,3.5s-1.593,3.5-3.478,3.5H16V14.001
	z"/>
</svg>
