<?xml version="1.0" encoding="utf-8"?>
<!-- Generator: Adobe Illustrator 19.2.0, SVG Export Plug-In . SVG Version: 6.00 Build 0)  -->
<svg version="1.1" id="Layer_1" xmlns="http://www.w3.org/2000/svg" xmlns:xlink="http://www.w3.org/1999/xlink" x="0px" y="0px"
	 width="24px" height="24px" viewBox="0 0 24 24" style="enable-background:new 0 0 24 24;" xml:space="preserve">
<g>
	<path d="M12.002,0.12C5.45,0.12,0.12,5.451,0.12,12.003S5.45,23.885,12.002,23.885s11.882-5.33,11.882-11.882
		S18.554,0.12,12.002,0.12z M12.002,22.885c-6,0-10.882-4.882-10.882-10.882c0-6,4.882-10.882,10.882-10.882
		c6,0,10.882,4.882,10.882,10.882C22.884,18.003,18.002,22.885,12.002,22.885z"/>
	<path d="M18.538,11.503H5.469c-0.276,0-0.5,0.224-0.5,0.5s0.224,0.5,0.5,0.5h13.069c0.276,0,0.5-0.224,0.5-0.5
		S18.814,11.503,18.538,11.503z"/>
</g>
</svg>
