<?xml version="1.0" encoding="utf-8"?>
<!-- Generator: Adobe Illustrator 19.2.0, SVG Export Plug-In . SVG Version: 6.00 Build 0)  -->
<svg version="1.1" id="Layer_1" xmlns="http://www.w3.org/2000/svg" xmlns:xlink="http://www.w3.org/1999/xlink" x="0px" y="0px"
	 width="24px" height="24px" viewBox="0 0 24 24" style="enable-background:new 0 0 24 24;" xml:space="preserve">
<g>
	<path d="M23.5,0.001h-23c-0.276,0-0.5,0.224-0.5,0.5v23c0,0.276,0.224,0.5,0.5,0.5h23c0.276,0,0.5-0.224,0.5-0.5v-23
		C24,0.225,23.776,0.001,23.5,0.001z M23,23.001H1v-22h22V23.001z"/>
	<path d="M5.934,18.036c0.098,0.098,0.226,0.146,0.354,0.146s0.256-0.049,0.354-0.146l5.339-5.339l5.339,5.339
		c0.098,0.098,0.226,0.146,0.354,0.146s0.256-0.049,0.354-0.146c0.195-0.195,0.195-0.512,0-0.707l-5.339-5.339l5.339-5.339
		c0.195-0.195,0.195-0.512,0-0.707s-0.512-0.195-0.707,0l-5.339,5.339L6.641,5.944c-0.195-0.195-0.512-0.195-0.707,0
		s-0.195,0.512,0,0.707l5.339,5.339l-5.339,5.339C5.739,17.524,5.739,17.841,5.934,18.036z"/>
</g>
</svg>
