<svg xmlns="http://www.w3.org/2000/svg" width="67" height="68"><path d="M3.977 17.665L18.256 3.58 16.15 1.3a.77.77 0 0 1 .04-1.093.78.78 0 0 1 1.1.039V.25l.005.005c2.786 2.895 5.57 5.793 6.11 11.22.003.02.005.038.006.057.247 2.554-.013 5.594-.282 8.738v.01l1.06-.04c2.683-.06 5.493.21 8.187.873 2.47.607 4.85 1.543 6.954 2.857 1.257.785 2.415 1.705 3.447 2.76l.003.003.016.017a17.14 17.14 0 0 1 2.279 2.905c1.358 2.182 2.274 4.753 2.603 7.716.285 2.57.126 5.42-.1 8.255l1.823-.224c2.66-.338 5.123-.65 7.383-.284.34.055.675.126 1.004.2l.018.005c1.533.396 2.94 1.09 4.275 1.952.996.642 1.953 1.377 2.895 2.146a.82.82 0 0 1 .074.06l1.562 1.307a.77.77 0 0 1 .088 1.087.78.78 0 0 1-1.094.088L64.56 51.1 51.157 64.423c.6.653 1.225 1.278 1.852 1.903.014.012.03.025.042.04l.001.001a.77.77 0 0 1 0 1.096c-.305.303-.8.303-1.103 0l-.001-.001c-.014-.014-.028-.03-.04-.044-2.776-2.766-5.54-5.542-6.264-10.53l-.005-.036c-.03-.217-.06-.438-.082-.663-.26-2.546.013-5.605.296-8.768l.007-.073c-.653.052-1.317.1-2 .105-2.575.06-5.274-.212-7.865-.876a25.85 25.85 0 0 1-.997-.276c-.033-.007-.065-.017-.096-.03-1.985-.602-3.884-1.444-5.6-2.555-2.215-1.443-4.11-3.337-5.516-5.69-1.3-2.177-2.176-4.746-2.49-7.7-.278-2.61-.12-5.496.11-8.358-1.02.096-2.023.218-3 .337-2.282.278-4.423.538-6.43.414a.78.78 0 0 1-.06-.004c-.402-.026-.8-.068-1.19-.13-2.017-.313-3.816-1.114-5.505-2.157-1.645-1.017-3.184-2.263-4.72-3.5a.77.77 0 0 1-.113-1.087.78.78 0 0 1 1.094-.112l2.48 1.96zm45.396 26.76c-.212-.035-.336-.23-.3-.44.18-1.073.36-2.147.25-4.306a28.91 28.91 0 0 0-.462-3.904c-.276-1.447-.7-3-1.347-4.458l-.01-.018c-.625-1.413-1.457-2.757-2.412-3.99-1.04-1.343-2.23-2.554-3.453-3.574-1.174-.98-2.378-1.78-3.634-2.42s-2.573-1.12-3.97-1.458c-2.81-.68-5.972-.782-9.126-.884-.215-.007-.383-.185-.377-.398a.39.39 0 0 1 .401-.374h.01c3.195.103 6.39.207 9.275.905 1.454.352 2.826.853 4.14 1.52s2.567 1.5 3.78 2.513a23.98 23.98 0 0 1 3.569 3.695c.994 1.282 1.86 2.68 2.51 4.15l.01.02c.673 1.527 1.113 3.128 1.4 4.625a29.69 29.69 0 0 1 .474 4.01c.114 2.243-.073 3.356-.26 4.47a.39.39 0 0 1-.36.323c-.035.002-.073-.001-.107-.01zM22.998 21.833c-.235 2.88-.408 5.78-.137 8.323a18.81 18.81 0 0 0 .632 3.256l10.343-10.278a25.79 25.79 0 0 0-1.831-.521c-2.562-.63-5.234-.886-7.785-.83-.408.01-.816.026-1.222.05zm12.446 1.9L24.055 35.04c.314.775.678 1.508 1.1 2.196a15.53 15.53 0 0 0 2.581 3.243l13.396-13.2c-.803-.748-1.68-1.415-2.62-2.002-.96-.6-1.987-1.116-3.057-1.554zm6.76 4.666L28.898 41.5a16.88 16.88 0 0 0 1.276.917c1.472.96 3.096 1.702 4.795 2.25l10.505-10.38c-.422-1.398-1.004-2.672-1.72-3.824-.462-.742-.98-1.434-1.548-2.076zm3.7 7.655l-9.22 9.11c2.358.573 4.807.807 7.153.753.727-.017 1.447-.06 2.158-.122.24-2.847.415-5.713.135-8.244a19.12 19.12 0 0 0-.226-1.496zm4.237 27.202l13.208-13.13c-.696-.55-1.402-1.07-2.126-1.536-1.085-.7-2.212-1.275-3.416-1.64L47.244 57.04c.45 2.58 1.545 4.52 2.898 6.207zm-3.107-8.153l8.92-8.526c-1.907-.2-4.06.073-6.368.366l-2.154.26-.032.358c-.24 2.696-.474 5.314-.365 7.54zm-25.48-34.704l.02-.248c.207-2.4.407-4.758.376-6.812l-8.044 7.842c1.36-.057 2.812-.233 4.326-.418l3.32-.365zm-9.832.747l10.1-9.847c-.33-2.715-1.324-4.745-2.596-6.487L5.257 18.58a23.31 23.31 0 0 0 .803.52c1.532.947 3.145 1.67 4.92 1.945.243.038.49.067.742.09z" fill="#83003f" fill-rule="nonzero"/></svg>