<svg xmlns="http://www.w3.org/2000/svg" width="59" height="69" fill="#83003f" fill-rule="nonzero"><path d="M31.08 14h-3.164a.64.64 0 0 1-.642-.642V10.72h-2.63a.64.64 0 0 1-.642-.642V6.92a.64.64 0 0 1 .642-.642h2.638V3.642A.64.64 0 0 1 27.921 3h3.158a.64.64 0 0 1 .642.642V6.28h2.638a.64.64 0 0 1 .642.642v3.164a.64.64 0 0 1-.642.642h-2.64v2.638a.64.64 0 0 1-.642.635zm-2.516-1.284h1.874V10.08a.64.64 0 0 1 .642-.642h2.638V7.563H31.08a.64.64 0 0 1-.642-.642V4.284h-1.88V6.92a.64.64 0 0 1-.642.642h-2.63v1.88h2.638a.64.64 0 0 1 .642.642v2.63zM42.367 17H19.842a.63.63 0 1 1 0-1.261h21.892V6.102c-6.847-6.507-17.62-6.507-24.468 0V16.37a.633.633 0 1 1-1.266 0V5.875a.63.63 0 0 1 .165-.422A18.8 18.8 0 0 1 29.272 0c8.766 0 13.38 5.244 13.576 5.465a.63.63 0 0 1 .152.41V16.37a.63.63 0 0 1-.633.63z"/><path d="M16.57 20h-.107c-.148-.028-.278-.115-.363-.24s-.117-.282-.1-.432a10.61 10.61 0 0 1 .949-3.06.56.56 0 0 1 .759-.189.58.58 0 0 1 .218.765c-.393.85-.663 1.756-.802 2.686a.57.57 0 0 1-.565.472zm12.434 19c-6.883.064-12.804-4.702-13.993-11.265-.065-.338.166-.662.515-.724a.64.64 0 0 1 .748.498c1.083 5.973 6.465 10.315 12.73 10.268 6.574 0 11.682-4.095 12.724-10.2.058-.338.387-.566.736-.5s.585.374.527.712C41.823 34.47 36.2 39 29.004 39z"/><path d="M42.3 20c-.36.002-.665-.217-.7-.508-.135-.945-.33-1.884-.58-2.813-.065-.3.167-.6.53-.662s.733.1.844.4a23.81 23.81 0 0 1 .61 2.946c.046.316-.23.602-.616.64L42.3 20zm16.042 48c-.348 0-.63-.278-.63-.62.183-7.117-2.522-16.248-2.862-17.344-4.612-5.864-11.375-9.723-18.844-10.753l-5.94 11.52a.63.63 0 0 1-1.122 0L23.067 39.4c-.157-.306-.03-.68.28-.833a.64.64 0 0 1 .848.276L29.49 49.15l5.592-10.8a.63.63 0 0 1 .593-.34c.473 0 11.7.62 20.25 11.342.048.06.084.126.107.198.126.4 3.152 10.103 2.957 17.846a.61.61 0 0 1-.194.44.64.64 0 0 1-.456.173z"/><path d="M.64 68c-.35 0-.63-.277-.63-.62-.202-7.75 2.827-17.44 2.96-17.85.023-.065.057-.126.1-.18C11.64 38.633 22.867 38.02 23.34 38c.35-.015.644.25.66.592s-.254.632-.603.647c-.107 0-11.075.62-19.26 10.78-.334 1.097-3.054 10.23-2.865 17.348 0 .342-.283.62-.63.62V68z"/><path d="M13.654 56c-.36 0-.654-.28-.654-.624.064-2.956 1.328-5.773 3.526-7.86-.654-4.547 2.178-8.108 2.303-8.277.222-.272.634-.32.92-.11s.337.604.114.876c0 .03-2.767 3.48-1.962 7.634.04.22-.044.443-.222.586-2.07 1.865-3.28 4.434-3.37 7.148a.61.61 0 0 1-.192.441.67.67 0 0 1-.463.183z"/><path d="M13.854 60c-.284.01-.538-.18-.615-.458-.97-3.59 1.094-7.306 4.612-8.297s7.156 1.117 8.127 4.708a.63.63 0 0 1-.399.759l-2.09.71c-.21.07-.438.022-.602-.127s-.238-.376-.194-.596.2-.4.41-.47l1.506-.508c-1.007-2.605-3.774-4.02-6.42-3.28s-4.323 3.394-3.89 6.16l1.7-.458c.318-.065.63.134.714.455a.63.63 0 0 1-.401.756l-2.31.627c-.044.01-.1.018-.135.02z"/><path d="M23.4 54c-.217-.001-.417-.136-.52-.352-2.157-4.552-5.375-5.3-5.405-5.3-.2-.046-.383-.215-.453-.444s-.026-.48.115-.664a.56.56 0 0 1 .568-.22c.153.033 3.796.9 6.212 6.005a.74.74 0 0 1-.01.658.58.58 0 0 1-.508.324zm16.314-2c-.252 0-.487-.1-.618-.3a.52.52 0 0 1-.025-.593c1.943-3.22 1.943-7.023 0-10.244-.17-.288-.04-.637.293-.795s.757-.07.963.202c2.217 3.575 2.217 7.83 0 11.406-.123.2-.357.3-.614.315z"/><path d="M38.006 57A3 3 0 1 1 41 54a3 3 0 0 1-2.994 3zm0-4.82a1.82 1.82 0 0 0-1.69 1.123 1.83 1.83 0 0 0 .392 1.992c.522.524 1.307.68 2 .398a1.81 1.81 0 0 0 1.128-1.687c0-1.006-.814-1.823-1.82-1.826zM48.4 69H38.6a.61.61 0 0 1-.609-.608v-8.785a.61.61 0 0 1 .609-.608h9.782a.61.61 0 0 1 .609.608v8.785a.61.61 0 0 1-.609.608zm-9.167-1.215h8.558v-7.57h-8.564l.006 7.57zM29.5 69c-.276 0-.5-.28-.5-.625v-17.75c0-.345.224-.625.5-.625s.5.28.5.625v17.75c0 .345-.224.625-.5.625zm13.12-41a.61.61 0 0 1-.621-.599.61.61 0 0 1 .621-.599c1.16 0 2.137-1.5 2.137-3.302s-.98-3.302-2.137-3.302a.61.61 0 0 1-.621-.599.61.61 0 0 1 .621-.599c1.894 0 3.38 1.977 3.38 4.5S44.516 28 42.62 28zm-26.24 0C14.484 28 13 26.023 13 23.5s1.484-4.5 3.38-4.5a.61.61 0 0 1 .621.599.61.61 0 0 1-.621.599c-1.16 0-2.137 1.5-2.137 3.302s.957 3.302 2.137 3.302a.61.61 0 0 1 .621.599.61.61 0 0 1-.621.599z"/></svg>