<?xml version="1.0" encoding="utf-8"?>
<!-- Generator: Adobe Illustrator 19.2.0, SVG Export Plug-In . SVG Version: 6.00 Build 0)  -->
<svg version="1.1" id="Layer_1" xmlns="http://www.w3.org/2000/svg" xmlns:xlink="http://www.w3.org/1999/xlink" x="0px" y="0px"
	 width="24px" height="24px" viewBox="0 0 24 24" style="enable-background:new 0 0 24 24;" xml:space="preserve">
<g>
	<path d="M23.5,3H1C0.724,3,0.5,3.223,0.5,3.5S0.724,4,1,4h9.999v10H1c-0.276,0-0.5,0.224-0.5,0.5S0.724,15,1,15h13.382l0.802,4.593
		c0.046,0.273,0.239,0.496,0.504,0.58c0.265,0.087,0.553,0.015,0.748-0.181l0.557-0.558l0.951,1.671
		c0.104,0.178,0.277,0.306,0.478,0.352c0.054,0.013,0.109,0.019,0.164,0.019c0.146,0,0.292-0.044,0.413-0.126l1.309-0.882
		c0.167-0.112,0.281-0.291,0.315-0.49c0.033-0.199-0.017-0.406-0.138-0.567c-0.001-0.001-0.001-0.002-0.002-0.002l-0.937-1.235
		l0.489-0.097c0.276-0.054,0.495-0.257,0.57-0.529c0.075-0.271-0.009-0.558-0.219-0.747L18.383,15H23.5c0.276,0,0.5-0.224,0.5-0.5
		v-11C24,3.223,23.776,3,23.5,3z M18.266,18.138l1.254,1.654l-0.848,0.57l-1.135-1.994c-0.077-0.136-0.213-0.228-0.368-0.248
		c-0.022-0.003-0.044-0.005-0.066-0.005c-0.132,0-0.26,0.052-0.354,0.146l-0.666,0.667l-0.963-5.517l4.211,3.783l-0.764,0.15
		c-0.169,0.033-0.31,0.151-0.37,0.312C18.136,17.82,18.161,18.002,18.266,18.138z M23,14h-5.73l-2.039-1.832
		c-0.233-0.211-0.576-0.251-0.852-0.1c-0.277,0.153-0.428,0.464-0.373,0.775L14.208,14h-2.209V4H23V14z"/>
	<path d="M16.851,10.703c0.148,0.197,0.384,0.314,0.632,0.314c0.254,0,0.493-0.122,0.626-0.306l1.976-2.44
		c0.175-0.238,0.199-0.565,0.063-0.833c-0.135-0.264-0.404-0.428-0.704-0.428h-3.922c-0.177,0-0.436,0.083-0.588,0.261
		c-0.255,0.279-0.277,0.696-0.038,1.02L16.851,10.703z M19.01,8.01l-1.527,1.885L15.955,8.01H19.01z"/>
</g>
</svg>
