<svg xmlns="http://www.w3.org/2000/svg" width="65" height="68"><path d="M5.023 0h52.354c1.182 0 2.257.483 3.035 1.26s1.262 1.853 1.262 3.035v39.81c0 1.183-.483 2.257-1.262 3.035s-1.853 1.262-3.035 1.262h-1.694v5.3h4.537c1.044 0 1.993.427 2.68 1.114s1.114 1.636 1.114 2.68V67.7h-1.568V57.487a2.22 2.22 0 0 0-2.227-2.227H3.853a2.22 2.22 0 0 0-1.572.655 2.22 2.22 0 0 0-.655 1.572V67.7H.058V57.487c0-1.045.427-1.993 1.114-2.68s1.636-1.114 2.68-1.114H8.39v-5.3H5.023c-1.183 0-2.257-.483-3.035-1.262s-1.26-1.853-1.26-3.035V4.297c0-1.183.483-2.257 1.26-3.035S3.84 0 5.023 0zM42.18 39.304a2.87 2.87 0 0 1 2.878 2.878 2.87 2.87 0 0 1-2.878 2.878 2.87 2.87 0 0 1-2.878-2.878 2.87 2.87 0 0 1 2.878-2.878zm.926 1.952c-.237-.237-.565-.384-.926-.384s-.69.147-.926.384-.384.565-.384.926.147.7.384.926.565.384.926.384.7-.147.926-.384.384-.565.384-.926-.147-.69-.384-.926zm10.386-.516c.397 0 .758.16 1.02.423l.001.002c.26.26.423.62.423 1.018s-.16.758-.423 1.02v.002a1.44 1.44 0 0 1-2.04 0 1.44 1.44 0 0 1 0-2.04l.025-.022c.26-.248.6-.4.996-.4zm.467.976a.66.66 0 0 0-.917-.016l-.016.016a.66.66 0 0 0-.193.466c0 .182.074.347.193.466s.284.193.466.193.347-.074.466-.193.193-.283.193-.466a.66.66 0 0 0-.192-.466zM27.424 40.62h4.286c.217 0 .392.176.392.392v2.337c0 .217-.175.392-.392.392h-4.286c-.217 0-.392-.175-.392-.392v-2.337c0-.217.176-.392.392-.392zm3.894.784h-3.502v1.553h3.502v-1.553zm-8.737 0H19.08v1.553h3.502v-1.553zm-3.893-.784h4.286c.217 0 .392.176.392.392v2.337c0 .217-.175.392-.392.392h-4.286c-.217 0-.392-.175-.392-.392v-2.337c0-.217.176-.392.392-.392zm-8.737 0h4.286c.217 0 .392.176.392.392v2.337c0 .217-.175.392-.392.392H9.95c-.217 0-.392-.175-.392-.392v-2.337c0-.217.175-.392.392-.392zm3.894.784h-3.502v1.553h3.502v-1.553zm26.088-10.05c.29 0 .523.234.523.523s-.234.523-.523.523h-4.917c-.29 0-.523-.234-.523-.523s.234-.523.523-.523h4.917zm-9.1 0c.29 0 .523.234.523.523s-.234.523-.523.523H11.9c-.29 0-.523-.234-.523-.523s.234-.523.523-.523H30.83zM50.5 27.42c.29 0 .523.234.523.523s-.234.523-.523.523h-6.77c-.29 0-.523-.234-.523-.523s.234-.523.523-.523h6.77zm-12.532 0c.29 0 .523.234.523.523s-.234.523-.523.523H11.9c-.29 0-.523-.234-.523-.523s.234-.523.523-.523h26.07zM6.696 5.47h49.01c.29 0 .523.234.523.523V37.2c0 .29-.234.523-.523.523H6.696c-.29 0-.523-.234-.523-.523V5.992c0-.29.234-.523.523-.523zm48.486 1.046H7.22v30.153h47.963V6.514zm-5.3 11.1a2.31 2.31 0 0 1 2.315 2.315 2.31 2.31 0 0 1-2.315 2.315 2.31 2.31 0 0 1-2.289-1.964h-7.02c-.18 0-.332-.12-.378-.287L38.66 15.79l-2.43 6.918a.39.39 0 0 1-.723.037l-2.12-4.05-1.202 2.08a.39.39 0 0 1-.655.034l-1.73-2.075-.66 1.33a.39.39 0 0 1-.351.218v.001c-4.236 0-.693-.001-5.62-.002-2.21 0 4.418.001-5.62.001-.18 0-.33-.12-.377-.287l-1.538-4.206-2.43 6.92a.39.39 0 0 1-.723.038l-2.235-4.27a.39.39 0 1 1 .692-.361l1.825 3.488 2.243-6.4a.39.39 0 0 1 .034-.087.7.7 0 0 1 .109-.17c.052-.06.114-.1.185-.148l.03-.016.05-.02h.001.003a.62.62 0 0 1 .476.02c.137.063.254.176.324.327l.012.03.01.026 1.58 4.324 5.35.002c2.19.001-4.307-.001 5.38-.001l.63-1.27a.39.39 0 0 1 .084-.128.9.9 0 0 1 .115-.118c.213-.178.544-.32.883.084v.002l1.526 1.83 1.038-1.797c.067-.123.163-.213.272-.27.09-.047.188-.072.288-.073s.2.022.293.07c.115.06.216.153.285.284v.002L35.79 21.6l2.254-6.42c.052-.148.143-.26.254-.337.105-.072.23-.1.354-.11.11-.001.223.027.322.085.012.006.025.014.037.022a.67.67 0 0 1 .255.333l1.58 4.324h6.76a2.31 2.31 0 0 1 2.275-1.883zm1.083 1.232c-.277-.277-.66-.448-1.083-.448s-.806.172-1.083.448-.448.66-.448 1.083.17.806.448 1.083.66.45 1.083.45.806-.172 1.083-.45.45-.66.45-1.083-.172-.806-.45-1.083zm3.672 34.846v-5.3H9.435v5.3h45.203zm2.74-52.124H5.023a2.72 2.72 0 0 0-1.926.802 2.72 2.72 0 0 0-.802 1.926v39.81a2.72 2.72 0 0 0 .802 1.926 2.72 2.72 0 0 0 1.926.802h52.354a2.72 2.72 0 0 0 2.728-2.729V4.297a2.72 2.72 0 0 0-.802-1.926 2.72 2.72 0 0 0-1.926-.802z" fill="#83003f" fill-rule="nonzero"/></svg>