<?xml version="1.0" encoding="utf-8"?>
<!-- Generator: Adobe Illustrator 19.2.0, SVG Export Plug-In . SVG Version: 6.00 Build 0)  -->
<svg version="1.1" id="Layer_1" xmlns="http://www.w3.org/2000/svg" xmlns:xlink="http://www.w3.org/1999/xlink" x="0px" y="0px"
	 width="24px" height="24px" viewBox="0 0 24 24" style="enable-background:new 0 0 24 24;" xml:space="preserve">
<g>
	<path d="M23.462,6.214C23.462,6.214,23.462,6.214,23.462,6.214l-5.799-5.8c-0.238-0.238-0.557-0.335-0.87-0.314
		c-0.055,0.002-0.107,0.012-0.157,0.031c-0.206,0.044-0.406,0.125-0.566,0.284L6.334,10.15c-0.161,0.161-0.242,0.361-0.285,0.568
		c-0.018,0.049-0.027,0.098-0.029,0.151c-0.022,0.314,0.075,0.634,0.315,0.874l5.799,5.8c0.22,0.219,0.508,0.327,0.796,0.327
		s0.577-0.109,0.797-0.328l9.735-9.736C23.9,7.367,23.9,6.653,23.462,6.214z M16.001,1.898l-1.494,6.665l-6.685,1.513L16.001,1.898z
		 M22.755,7.099l-9.734,9.734c-0.051,0.051-0.131,0.05-0.18,0.001l-5.601-5.601l7.797-1.765c0.188-0.043,0.335-0.19,0.378-0.378
		l1.741-7.769l5.599,5.599C22.804,6.97,22.804,7.05,22.755,7.099z"/>
	<path d="M5.856,13.383c-0.195-0.195-0.512-0.195-0.707,0l-4.9,4.9c-0.195,0.195-0.195,0.512,0,0.707
		c0.098,0.098,0.226,0.146,0.354,0.146s0.256-0.049,0.354-0.146l4.9-4.9C6.051,13.894,6.051,13.578,5.856,13.383z"/>
	<path d="M7.916,15.442c-0.195-0.195-0.512-0.195-0.707,0l-3.287,3.287c-0.195,0.195-0.195,0.512,0,0.707
		c0.098,0.098,0.226,0.146,0.354,0.146s0.256-0.049,0.354-0.146l3.287-3.287C8.111,15.954,8.111,15.637,7.916,15.442z"/>
	<path d="M9.269,17.502l-1.644,1.644c-0.195,0.195-0.195,0.512,0,0.707c0.098,0.098,0.226,0.146,0.354,0.146
		s0.256-0.049,0.354-0.146l1.644-1.644c0.195-0.195,0.195-0.512,0-0.707S9.464,17.306,9.269,17.502z"/>
</g>
</svg>
