<?xml version="1.0" encoding="utf-8"?>
<!-- Generator: Adobe Illustrator 19.2.0, SVG Export Plug-In . SVG Version: 6.00 Build 0)  -->
<svg version="1.1" id="Layer_1" xmlns="http://www.w3.org/2000/svg" xmlns:xlink="http://www.w3.org/1999/xlink" x="0px" y="0px"
	 width="24px" height="24px" viewBox="0 0 24 24" style="enable-background:new 0 0 24 24;" xml:space="preserve">
<path d="M23.443,7.978L12.794,0.325c-0.457-0.328-1.071-0.328-1.526,0L0.582,7.979C0.217,8.241,0,8.629,0,9.016v0.022
	c-0.004,0.028-0.001,0.055,0,0.083v12.61C0,22.419,0.634,23,1.384,23h21.275C23.461,23,24,22.351,24,21.745V9.016
	C24,8.619,23.792,8.232,23.443,7.978z M11.851,1.137c0.052-0.038,0.116-0.056,0.18-0.056s0.128,0.019,0.18,0.056l10.648,7.652
	c0.018,0.013,0.029,0.031,0.044,0.047l-10.881,5.91L1.094,8.862c0.022-0.024,0.038-0.048,0.07-0.071L11.851,1.137z M22.659,22H1.384
	C1.187,22,1,21.848,1,21.731V9.947l10.785,5.807c0.074,0.04,0.155,0.06,0.237,0.06c0.082,0,0.164-0.021,0.239-0.061L23,9.921v11.824
	C23,21.815,22.896,22,22.659,22z"/>
</svg>
