<?xml version="1.0" encoding="utf-8"?>
<!-- Generator: Adobe Illustrator 19.2.0, SVG Export Plug-In . SVG Version: 6.00 Build 0)  -->
<svg version="1.1" id="Layer_1" xmlns="http://www.w3.org/2000/svg" xmlns:xlink="http://www.w3.org/1999/xlink" x="0px" y="0px"
	 width="24px" height="24px" viewBox="0 0 24 24" style="enable-background:new 0 0 24 24;" xml:space="preserve">
<path d="M15.519,11.043c-1.561-0.356-5.561-1.062-7.419,0.514c-0.77,0.653-1.093,1.591-0.962,2.791
	c0.228,2.079,1.627,3.316,3.749,3.316c0.013,0,0.025,0,0.038,0c1.697-0.012,3.727-0.872,4.817-2.115
	c0.134,0.404,0.344,0.821,0.672,1.179c0.57,0.621,1.366,0.937,2.364,0.937c1.336,0,2.519-0.524,3.421-1.518
	c1.201-1.322,1.771-3.314,1.563-5.475C23.084,4.749,18.039,0.283,12.027,0.283c-6.512,0-11.81,5.258-11.81,11.72
	c0,6.462,5.298,11.72,11.81,11.72c2.53,0,4.942-0.782,6.975-2.262c0.224-0.162,0.272-0.476,0.11-0.698
	c-0.163-0.224-0.476-0.271-0.698-0.11c-1.861,1.354-4.07,2.07-6.387,2.07c-5.96,0-10.81-4.809-10.81-10.72s4.85-10.72,10.81-10.72
	c5.503,0,10.122,4.084,10.739,9.492c0.178,1.844-0.312,3.6-1.309,4.698c-0.707,0.779-1.634,1.19-2.681,1.19
	c-0.715,0-1.246-0.199-1.624-0.609c-0.734-0.796-0.637-2.136-0.636-2.149c0.001-0.007-0.003-0.013-0.002-0.02
	c0-0.007,0.004-0.014,0.004-0.021l-0.001-3.065c0.006-0.098,0.105-2.412-1.634-3.711c-1.438-1.074-3.641-1.098-6.546-0.069
	C8.077,7.111,7.94,7.396,8.033,7.656C8.125,7.917,8.409,8.053,8.67,7.961c2.568-0.907,4.457-0.933,5.609-0.077
	c1.312,0.974,1.241,2.845,1.239,2.889V11.043z M10.916,16.664c-0.011,0-0.021,0-0.032,0c-1.143,0-2.535-0.425-2.753-2.426
	c-0.094-0.86,0.107-1.487,0.615-1.918c1.446-1.228,5.087-0.663,6.773-0.25v1.754C15.381,15.191,13.02,16.649,10.916,16.664z"/>
</svg>
