<?xml version="1.0" encoding="utf-8"?>
<!-- Generator: Adobe Illustrator 19.2.0, SVG Export Plug-In . SVG Version: 6.00 Build 0)  -->
<svg version="1.1" id="Layer_1" xmlns="http://www.w3.org/2000/svg" xmlns:xlink="http://www.w3.org/1999/xlink" x="0px" y="0px"
	 width="24px" height="24px" viewBox="0 0 24 24" style="enable-background:new 0 0 24 24;" xml:space="preserve">
<g>
	<path d="M20.557,5.489l-7.927,7.128c-0.408,0.367-1.072,0.367-1.481,0L3.222,5.489C3.017,5.305,2.701,5.321,2.516,5.526
		C2.331,5.731,2.348,6.047,2.553,6.232l7.927,7.128c0.395,0.355,0.902,0.533,1.41,0.533c0.507,0,1.014-0.178,1.409-0.533
		l7.927-7.128c0.206-0.185,0.223-0.5,0.038-0.706S20.759,5.304,20.557,5.489z"/>
	<path d="M15.9,13.341c-0.21-0.174-0.525-0.147-0.704,0.065c-0.176,0.212-0.147,0.527,0.065,0.704l5.311,4.417
		c0.093,0.077,0.206,0.115,0.319,0.115c0.144,0,0.285-0.062,0.385-0.181c0.176-0.212,0.147-0.527-0.065-0.704L15.9,13.341z"/>
	<path d="M7.878,13.341l-5.311,4.417c-0.212,0.177-0.241,0.492-0.064,0.704c0.099,0.119,0.241,0.181,0.385,0.181
		c0.112,0,0.226-0.038,0.319-0.115l5.311-4.417c0.212-0.177,0.241-0.492,0.064-0.704C8.406,13.194,8.09,13.164,7.878,13.341z"/>
	<path d="M21.15,3H2.842C1.249,3,0,4.226,0,5.791v12.422C0,19.775,1.249,21,2.842,21H21.15c1.571,0,2.85-1.25,2.85-2.787V5.791
		C24,4.252,22.722,3,21.15,3z M23,18.213C23,19.215,22.188,20,21.15,20H2.842C1.809,20,1,19.215,1,18.213V5.791
		C1,4.786,1.809,4,2.842,4H21.15C22.188,4,23,4.786,23,5.791V18.213z"/>
</g>
</svg>
