<?xml version="1.0" encoding="utf-8"?>
<!-- Generator: Adobe Illustrator 19.2.0, SVG Export Plug-In . SVG Version: 6.00 Build 0)  -->
<svg version="1.1" id="Layer_1" xmlns="http://www.w3.org/2000/svg" xmlns:xlink="http://www.w3.org/1999/xlink" x="0px" y="0px"
	 width="24px" height="24px" viewBox="0 0 24 24" style="enable-background:new 0 0 24 24;" xml:space="preserve">
<g>
	<path d="M20.56,5.489l-7.927,7.128c-0.408,0.367-1.073,0.367-1.481,0L3.225,5.489C3.02,5.305,2.704,5.321,2.519,5.526
		C2.333,5.731,2.351,6.047,2.556,6.232l7.927,7.128c0.396,0.355,0.902,0.533,1.41,0.533c0.507,0,1.014-0.178,1.409-0.533
		l7.927-7.128c0.206-0.185,0.223-0.5,0.038-0.706S20.763,5.304,20.56,5.489z"/>
	<path d="M7.881,13.341l-5.31,4.417c-0.212,0.177-0.241,0.492-0.064,0.704c0.099,0.119,0.241,0.181,0.385,0.181
		c0.112,0,0.226-0.038,0.319-0.115l5.31-4.417c0.212-0.177,0.241-0.492,0.064-0.704C8.409,13.194,8.092,13.164,7.881,13.341z"/>
	<path d="M21.153,3H2.845c0,0,0,0-0.001,0C2.078,3,1.362,3.29,0.829,3.815C0.296,4.34,0.003,5.042,0.003,5.791v12.422
		C0.003,19.775,1.251,21,2.845,21h9.187c0.892,1.674,2.635,2.829,4.661,2.829c2.038,0,3.79-1.168,4.677-2.858
		c1.475-0.144,2.633-1.318,2.633-2.758V5.791C24.003,4.252,22.725,3,21.153,3z M16.693,22.829c-2.372,0-4.301-1.93-4.301-4.302
		s1.929-4.302,4.301-4.302s4.302,1.93,4.302,4.302S19.065,22.829,16.693,22.829z M23.003,18.213c0,0.73-0.503,1.374-1.198,1.647
		c0.112-0.428,0.191-0.87,0.191-1.333c0-2.924-2.378-5.302-5.302-5.302c-2.923,0-5.301,2.378-5.301,5.302
		c0,0.514,0.097,1.002,0.234,1.473H2.845c-1.033,0-1.842-0.785-1.842-1.787V5.791c0-0.479,0.188-0.928,0.528-1.263
		C1.876,4.187,2.342,4,2.844,4c0,0,0.001,0,0.001,0h18.308c1.037,0,1.85,0.787,1.85,1.791V18.213z"/>
	<path d="M18.723,17.293l-2.805,2.426L15.1,18.976c-0.203-0.185-0.52-0.17-0.706,0.034c-0.186,0.204-0.17,0.521,0.034,0.706
		l1.146,1.04c0.095,0.087,0.216,0.13,0.336,0.13c0.116,0,0.233-0.041,0.327-0.122l3.14-2.716c0.209-0.181,0.231-0.496,0.051-0.705
		C19.247,17.134,18.931,17.112,18.723,17.293z"/>
</g>
</svg>
