<?xml version="1.0" encoding="utf-8"?>
<!-- Generator: Adobe Illustrator 19.2.0, SVG Export Plug-In . SVG Version: 6.00 Build 0)  -->
<svg version="1.1" id="Layer_1" xmlns="http://www.w3.org/2000/svg" xmlns:xlink="http://www.w3.org/1999/xlink" x="0px" y="0px"
	 width="24px" height="24px" viewBox="0 0 24 24" style="enable-background:new 0 0 24 24;" xml:space="preserve">
<g>
	<path d="M20.563,5.489l-7.928,7.128c-0.409,0.367-1.073,0.367-1.481,0L3.228,5.489C3.023,5.305,2.707,5.321,2.521,5.526
		C2.336,5.731,2.354,6.047,2.559,6.232l7.927,7.128c0.395,0.355,0.902,0.533,1.41,0.533c0.507,0,1.014-0.178,1.409-0.533
		l7.927-7.128c0.206-0.185,0.223-0.5,0.038-0.706C21.084,5.32,20.767,5.304,20.563,5.489z"/>
	<path d="M7.884,13.341l-5.31,4.417c-0.212,0.177-0.241,0.492-0.064,0.704c0.099,0.119,0.241,0.181,0.385,0.181
		c0.112,0,0.226-0.038,0.319-0.115l5.31-4.417c0.212-0.177,0.241-0.492,0.064-0.704S8.096,13.164,7.884,13.341z"/>
	<path d="M21.156,3H2.849C1.254,3,0.006,4.226,0.006,5.791v12.422C0.006,19.775,1.254,21,2.849,21h6.632c0.276,0,0.5-0.224,0.5-0.5
		S9.757,20,9.481,20H2.849c-1.033,0-1.843-0.785-1.843-1.787V5.791C1.006,4.787,1.815,4,2.849,4h18.308
		c1.037,0,1.85,0.787,1.85,1.791v12.422c0,0.779-0.455,1.441-1.16,1.686c-0.261,0.091-0.398,0.376-0.309,0.637
		c0.092,0.262,0.375,0.398,0.637,0.309c1.113-0.387,1.832-1.42,1.832-2.631V5.791C24.006,4.252,22.728,3,21.156,3z"/>
	<path d="M15.997,14.042c-2.69,0-4.88,2.174-4.88,4.846s2.189,4.845,4.88,4.845c1.045,0,2.041-0.323,2.881-0.935
		c0.224-0.162,0.272-0.476,0.11-0.698c-0.162-0.225-0.477-0.271-0.698-0.11c-0.668,0.486-1.461,0.743-2.293,0.743
		c-2.14,0-3.88-1.725-3.88-3.845s1.74-3.846,3.88-3.846c1.976,0,3.633,1.465,3.854,3.399c0.062,0.63-0.099,1.222-0.428,1.584
		c-0.218,0.239-0.49,0.36-0.812,0.36c-0.276,0-0.372-0.103-0.403-0.136c-0.158-0.171-0.174-0.501-0.167-0.6
		c0.001-0.006-0.004-0.011-0.003-0.017c0-0.009,0.005-0.017,0.005-0.026l-0.001-1.17c0.003-0.045,0.048-1.1-0.756-1.699
		c-0.643-0.481-1.592-0.505-2.82-0.07c-0.26,0.093-0.396,0.378-0.305,0.639c0.093,0.261,0.376,0.396,0.639,0.305
		c0.876-0.31,1.528-0.337,1.884-0.075c0.216,0.159,0.297,0.406,0.332,0.601c-0.782-0.139-2.043-0.247-2.738,0.344
		c-0.261,0.222-0.557,0.636-0.479,1.348c0.105,0.962,0.777,1.558,1.757,1.558c0.005,0,0.011,0,0.016,0
		c0.61-0.004,1.284-0.239,1.773-0.618c0.037,0.054,0.078,0.105,0.125,0.156c0.193,0.211,0.548,0.462,1.142,0.462
		c0.606,0,1.143-0.238,1.552-0.688c0.522-0.576,0.771-1.433,0.683-2.36C20.565,15.888,18.48,14.042,15.997,14.042z M15.565,20.385
		c-0.004,0-0.008,0-0.011,0c-0.617,0-0.73-0.38-0.762-0.667c-0.032-0.295,0.053-0.409,0.131-0.476
		c0.186-0.157,0.538-0.218,0.941-0.218c0.384,0,0.803,0.061,1.178,0.139v0.401C17.006,19.873,16.284,20.381,15.565,20.385z"/>
</g>
</svg>
