<?xml version="1.0" encoding="utf-8"?>
<!-- Generator: Adobe Illustrator 19.2.0, SVG Export Plug-In . SVG Version: 6.00 Build 0)  -->
<svg version="1.1" id="Layer_1" xmlns="http://www.w3.org/2000/svg" xmlns:xlink="http://www.w3.org/1999/xlink" x="0px" y="0px"
	 width="24px" height="24px" viewBox="0 0 24 24" style="enable-background:new 0 0 24 24;" xml:space="preserve">
<path d="M23.993,10.453c-0.002-0.032-0.01-0.063-0.019-0.095c-0.009-0.033-0.018-0.065-0.034-0.095
	c-0.005-0.011-0.005-0.023-0.012-0.033c-0.01-0.017-0.027-0.027-0.039-0.043c-0.013-0.018-0.021-0.039-0.036-0.055
	c-0.01-0.01-0.023-0.014-0.034-0.023c-0.025-0.021-0.052-0.038-0.08-0.053c-0.027-0.015-0.054-0.029-0.084-0.039
	c-0.033-0.011-0.066-0.016-0.101-0.02c-0.019-0.002-0.036-0.011-0.055-0.011h-0.001L19,9.998V6.402c0-0.307-0.099-0.56-0.292-0.753
	l-2.38-2.361C16.136,3.099,15.876,3,15.575,3H13V2.093c0-1.052-0.916-1.942-2-1.942c-1.084,0-2,0.89-2,1.942V3H6.062
	C5.457,3,5,3.444,5,4.033v5.954H0.5c-0.019,0-0.035,0.009-0.054,0.011c-0.036,0.004-0.071,0.009-0.105,0.021
	c-0.029,0.01-0.055,0.023-0.082,0.038c-0.029,0.016-0.055,0.033-0.08,0.054c-0.026,0.022-0.047,0.047-0.068,0.074
	c-0.012,0.016-0.029,0.026-0.04,0.044c-0.006,0.01-0.006,0.022-0.012,0.033c-0.015,0.029-0.024,0.06-0.033,0.093
	c-0.009,0.033-0.018,0.065-0.02,0.098C0.006,10.465,0,10.475,0,10.487V23.5C0,23.776,0.224,24,0.5,24h23c0.276,0,0.5-0.224,0.5-0.5
	V10.487C24,10.475,23.994,10.465,23.993,10.453z M21.685,10.991L19,12.601v-1.602L21.685,10.991z M17.602,6h-1.61V4.371L17.602,6z
	 M10,2.093c0-0.502,0.467-0.942,1-0.942c0.533,0,1,0.441,1,0.942V3h-2V2.093z M12,4v5.525c0,0.771-0.687,1.422-1.5,1.423
	c-0.813,0-1.5-0.651-1.5-1.423V6.5C9,6.223,8.776,6,8.5,6S8,6.223,8,6.5v3.025c0,1.313,1.145,2.423,2.5,2.423
	c1.355,0,2.5-1.11,2.5-2.423V4h1.992v2.5c0,0.276,0.224,0.5,0.5,0.5H18V13.2l-6.019,3.607l-5.98-3.596L6.062,4H12z M5,12.609
	l-2.698-1.622H5V12.609z M1,23V11.371l10.723,6.448c0.08,0.048,0.168,0.071,0.258,0.071c0.089,0,0.178-0.023,0.257-0.071L23,11.369
	V23H1z"/>
</svg>
