<?xml version="1.0" encoding="utf-8"?>
<!-- Generator: Adobe Illustrator 19.2.0, SVG Export Plug-In . SVG Version: 6.00 Build 0)  -->
<svg version="1.1" id="Layer_1" xmlns="http://www.w3.org/2000/svg" xmlns:xlink="http://www.w3.org/1999/xlink" x="0px" y="0px"
	 width="24px" height="24px" viewBox="0 0 24 24" style="enable-background:new 0 0 24 24;" xml:space="preserve">
<path d="M23.567,17.589l-5.656-5.655l5.623-5.624c0.211-0.21,0.326-0.491,0.326-0.79c0-0.298-0.116-0.578-0.326-0.787l-4.319-4.319
	c-0.406-0.406-1.17-0.406-1.576,0l-5.623,5.624L6.391,0.413C5.963-0.012,5.242-0.012,4.814,0.414L0.429,4.801
	C-0.003,5.235-0.003,5.942,0.43,6.377L6.053,12l-5.587,5.589c-0.212,0.211-0.329,0.491-0.329,0.79c0,0.298,0.117,0.578,0.328,0.787
	l4.319,4.319c0.434,0.434,1.139,0.434,1.575,0l5.59-5.59l5.655,5.656c0.209,0.21,0.488,0.326,0.787,0.327c0.001,0,0.001,0,0.002,0
	c0.299,0,0.579-0.116,0.789-0.326l4.385-4.385c0.211-0.21,0.327-0.489,0.327-0.788C23.895,18.081,23.778,17.8,23.567,17.589z
	 M22.86,18.459l-4.386,4.387l0.354,0.354l-0.516-0.354l-6.011-6.011c-0.098-0.098-0.226-0.146-0.354-0.146s-0.256,0.049-0.354,0.146
	l-5.943,5.942c-0.045,0.045-0.118,0.046-0.162,0.001l-4.318-4.319c0-0.001,0-0.161,0-0.161l5.942-5.944
	c0.195-0.195,0.195-0.512,0-0.707L1.138,5.671C1.093,5.626,1.092,5.552,1.137,5.508l4.384-4.386c0.037-0.037,0.129-0.035,0.164,0
	l5.978,5.977c0.188,0.188,0.52,0.188,0.707,0l5.977-5.977c0.035-0.035,0.127-0.035,0.162,0l4.319,4.319c0,0,0,0.162,0,0.163
	l-5.977,5.977c-0.094,0.094-0.146,0.221-0.146,0.354s0.053,0.26,0.146,0.354l6.01,6.008l0.354-0.354L22.86,18.459z"/>
</svg>
