<?xml version="1.0" encoding="utf-8"?>
<!-- Generator: Adobe Illustrator 19.2.0, SVG Export Plug-In . SVG Version: 6.00 Build 0)  -->
<svg version="1.1" id="Layer_1" xmlns="http://www.w3.org/2000/svg" xmlns:xlink="http://www.w3.org/1999/xlink" x="0px" y="0px"
	 width="24px" height="24px" viewBox="0 0 24 24" style="enable-background:new 0 0 24 24;" xml:space="preserve">
<g>
	<path d="M11.541,5.184c-0.276,0-0.5,0.224-0.5,0.5v6.88c0,0.276,0.224,0.5,0.5,0.5s0.5-0.224,0.5-0.5v-6.88
		C12.041,5.407,11.817,5.184,11.541,5.184z"/>
	<path d="M11.541,14.903c-0.276,0-0.5,0.224-0.5,0.5v0.176c0,0.276,0.224,0.5,0.5,0.5s0.5-0.224,0.5-0.5v-0.176
		C12.041,15.127,11.817,14.903,11.541,14.903z"/>
	<path d="M22.102,15.915L13.926,1.51c-0.492-0.868-1.383-1.387-2.383-1.387c0,0,0,0-0.001,0c-1.001,0-1.893,0.519-2.385,1.387
		L0.98,15.915c-0.486,0.857-0.48,1.879,0.018,2.733c0.497,0.853,1.382,1.362,2.368,1.362H3.99v2.99c0,0.385,0.231,0.726,0.589,0.869
		c0.117,0.047,0.238,0.069,0.357,0.069c0.247,0,0.484-0.096,0.646-0.268l4.006-3.661h10.129c0.985,0,1.87-0.51,2.367-1.363
		S22.588,16.772,22.102,15.915z M21.221,18.144c-0.315,0.542-0.878,0.866-1.503,0.866H9.395c-0.125,0-0.245,0.047-0.337,0.131
		L4.99,22.858V19.51c0-0.276-0.224-0.5-0.5-0.5H3.365c-0.626,0-1.188-0.323-1.503-0.866c-0.316-0.543-0.321-1.191-0.012-1.735
		l8.176-14.405c0.312-0.551,0.879-0.88,1.515-0.88c0,0,0,0,0,0c0.636,0,1.201,0.329,1.514,0.88l8.177,14.405
		C21.541,16.953,21.537,17.601,21.221,18.144z"/>
</g>
</svg>
