<?xml version="1.0" encoding="utf-8"?>
<!-- Generator: Adobe Illustrator 19.2.0, SVG Export Plug-In . SVG Version: 6.00 Build 0)  -->
<svg version="1.1" id="Layer_1" xmlns="http://www.w3.org/2000/svg" xmlns:xlink="http://www.w3.org/1999/xlink" x="0px" y="0px"
	 width="24px" height="24px" viewBox="0 0 24 24" style="enable-background:new 0 0 24 24;" xml:space="preserve">
<g>
	<path d="M23.618,6.648L17.35,0.383c-0.242-0.242-0.577-0.381-0.92-0.381H7.565c-0.343,0-0.678,0.139-0.92,0.381L0.379,6.649
		C0.136,6.891-0.003,7.226-0.003,7.57v8.866c0,0.343,0.139,0.678,0.381,0.92l6.267,6.269c0.243,0.242,0.578,0.382,0.92,0.382h8.864
		c0.347,0,0.674-0.136,0.92-0.382l6.273-6.27c0.244-0.247,0.378-0.573,0.378-0.919V7.57C24.001,7.221,23.865,6.894,23.618,6.648z
		 M23.001,16.435c0,0.08-0.032,0.158-0.087,0.214l-6.271,6.268c-0.058,0.058-0.133,0.089-0.213,0.089H7.565
		c-0.079,0-0.157-0.032-0.213-0.089l-6.267-6.269c-0.056-0.057-0.088-0.134-0.088-0.213V7.57c0-0.079,0.032-0.157,0.089-0.213
		L7.352,1.09c0.056-0.056,0.134-0.088,0.213-0.088h8.864c0.079,0,0.156,0.032,0.213,0.088l6.27,6.266c0,0,0,0,0.001,0
		c0.057,0.057,0.088,0.133,0.088,0.213V16.435z"/>
	<path d="M17.062,7.149c-0.195-0.195-0.512-0.195-0.707,0l-4.355,4.356L7.644,7.149c-0.195-0.195-0.512-0.195-0.707,0
		s-0.195,0.512,0,0.707l4.355,4.356l-4.355,4.356c-0.195,0.195-0.195,0.512,0,0.707c0.098,0.098,0.226,0.146,0.354,0.146
		s0.256-0.049,0.354-0.146l4.355-4.356l4.355,4.356c0.098,0.098,0.226,0.146,0.354,0.146s0.256-0.049,0.354-0.146
		c0.195-0.195,0.195-0.512,0-0.707l-4.355-4.356l4.355-4.356C17.257,7.66,17.257,7.344,17.062,7.149z"/>
</g>
</svg>
