<?xml version="1.0" encoding="utf-8"?>
<!-- Generator: Adobe Illustrator 19.2.0, SVG Export Plug-In . SVG Version: 6.00 Build 0)  -->
<svg version="1.1" id="Layer_1" xmlns="http://www.w3.org/2000/svg" xmlns:xlink="http://www.w3.org/1999/xlink" x="0px" y="0px"
	 width="24px" height="24px" viewBox="0 0 24 24" style="enable-background:new 0 0 24 24;" xml:space="preserve">
<g>
	<path d="M11.991,0.191c-6.522,0-11.828,5.306-11.828,11.827c0,6.522,5.306,11.828,11.828,11.828
		c6.522,0,11.828-5.306,11.828-11.828C23.819,5.497,18.514,0.191,11.991,0.191z M11.991,22.846c-5.971,0-10.828-4.857-10.828-10.828
		c0-5.97,4.857-10.827,10.828-10.827s10.828,4.857,10.828,10.827C22.819,17.989,17.962,22.846,11.991,22.846z"/>
	<path d="M20.555,12.21c0.051-0.122,0.051-0.26,0-0.382c-0.025-0.062-0.062-0.117-0.109-0.163l-2.886-2.886
		c-0.195-0.195-0.512-0.195-0.707,0s-0.195,0.512,0,0.707l2.033,2.033h-6.323V5.196l1.96,1.96c0.098,0.098,0.226,0.146,0.354,0.146
		s0.256-0.049,0.354-0.146c0.195-0.195,0.195-0.512,0-0.707l-2.887-2.887c-0.195-0.195-0.512-0.195-0.707,0L8.751,6.449
		c-0.195,0.195-0.195,0.512,0,0.707s0.512,0.195,0.707,0l2.106-2.106v6.469H5.096l2.033-2.033c0.195-0.195,0.195-0.512,0-0.707
		s-0.512-0.195-0.707,0l-2.886,2.887c-0.195,0.195-0.195,0.512,0,0.707l2.886,2.887c0.098,0.098,0.226,0.146,0.354,0.146
		s0.256-0.049,0.354-0.146c0.195-0.195,0.195-0.512,0-0.707l-2.033-2.033h6.468v6.468l-2.106-2.106
		c-0.195-0.195-0.512-0.195-0.707,0s-0.195,0.512,0,0.707l2.887,2.887c0.098,0.098,0.226,0.146,0.354,0.146s0.256-0.049,0.354-0.146
		l2.887-2.887c0.195-0.195,0.195-0.512,0-0.707s-0.512-0.195-0.707,0l-1.96,1.96v-6.323h6.323l-2.033,2.033
		c-0.195,0.195-0.195,0.512,0,0.707c0.098,0.098,0.226,0.146,0.354,0.146s0.256-0.049,0.354-0.146l2.886-2.886
		C20.493,12.327,20.53,12.272,20.555,12.21z"/>
</g>
</svg>
