<svg xmlns="http://www.w3.org/2000/svg" width="68" height="42"><path d="M.36 23.124C2.178 19.74 7.116 14.33 14.627 10.44c5.24-2.713 11.748-4.7 19.342-4.763H34c7.6.065 14.094 2.05 19.333 4.763 7.522 3.894 12.463 9.315 14.274 12.7a.77.77 0 0 1-.009.742c-1.817 3.385-6.755 8.795-14.266 12.683-5.24 2.713-11.748 4.7-19.342 4.764h-.02c-7.6-.065-14.094-2.052-19.333-4.764C7.105 32.67 2.163 27.25.353 23.867a.77.77 0 0 1 .009-.742zm66.893-8.862c.273.33.226.817-.103 1.1s-.817.226-1.1-.103c-1.116-1.345-2.542-2.673-4.055-3.888-1.803-1.448-3.72-2.73-5.383-3.684l-.006-.004c-6.928-4.077-14.912-6.115-22.9-6.115s-15.973 2.04-22.9 6.116l-.028.016c-1.658.954-3.566 2.23-5.36 3.672-1.512 1.214-2.94 2.543-4.055 3.888-.272.33-.76.376-1.1.103s-.375-.76-.103-1.1c1.184-1.426 2.688-2.828 4.28-4.106a44.94 44.94 0 0 1 5.559-3.804l.017-.01C17.21 2.12 25.466.008 33.717.008S50.225 2.12 57.4 6.342a44.97 44.97 0 0 1 5.576 3.814c1.59 1.278 3.095 2.68 4.28 4.106zm-33.507 4.68c-.426.025-.792-.3-.817-.727s.3-.792.727-.817l.154-.006h.01l.156-.005c1.405 0 2.677.57 3.598 1.49s1.49 2.193 1.49 3.598-.57 2.677-1.5 3.598-2.193 1.5-3.598 1.5-2.677-.57-3.598-1.5a5.07 5.07 0 0 1-1.49-3.598 5.12 5.12 0 0 1 .077-.884 5.05 5.05 0 0 1 .23-.854c.145-.4.59-.61 1-.463s.61.59.463 1c-.067.186-.12.384-.157.594-.035.198-.053.405-.053.617 0 .977.396 1.862 1.036 2.502s1.525 1.036 2.502 1.036a3.53 3.53 0 0 0 3.538-3.538c0-.977-.396-1.862-1.037-2.502s-1.525-1.037-2.502-1.037c-.08 0-.098-.001-.108-.001h-.002c-.014.001-.057.003-.118.007zm.227-8.742c3.39 0 6.458 1.374 8.68 3.595s3.595 5.3 3.595 8.68-1.374 6.458-3.595 8.68-5.3 3.595-8.68 3.595-6.458-1.374-8.68-3.595-3.595-5.3-3.595-8.68 1.374-6.458 3.595-8.68 5.3-3.595 8.68-3.595zm7.583 4.69a10.69 10.69 0 0 0-15.165 0 10.69 10.69 0 0 0-3.141 7.583 10.69 10.69 0 0 0 10.724 10.724 10.69 10.69 0 0 0 10.724-10.724 10.69 10.69 0 0 0-3.141-7.583zm-26.222-3.075C8.4 15.41 3.773 20.3 1.918 23.503 3.773 26.706 8.4 31.595 15.335 35.19c5.053 2.616 11.324 4.532 18.64 4.594a41.08 41.08 0 0 0 18.64-4.594c6.945-3.596 11.562-8.485 13.417-11.688-1.855-3.203-6.472-8.092-13.418-11.688C47.562 9.2 41.3 7.284 33.975 7.222c-7.315.062-13.587 1.978-18.64 4.594z" fill="#83003f" fill-rule="nonzero"/></svg>