<?xml version="1.0" encoding="UTF-8"?>
<svg width="35px" height="35px" viewBox="0 0 35 35" version="1.1" xmlns="http://www.w3.org/2000/svg" xmlns:xlink="http://www.w3.org/1999/xlink">
    <title>facebook</title>
    <g id="facebook" stroke="none" stroke-width="1" fill="none" fill-rule="evenodd">
        <g id="facebook_virginia" transform="translate(13.000000, 7.000000)" fill="#FFFFFF">
            <path d="M0,6.75366784 L2.11037115,6.75366784 L2.11037115,4.70211819 C2.11037115,3.79698745 2.13317948,2.40207774 2.79101986,1.53776191 C3.48247252,0.623027659 4.43321993,0 6.06701694,0 C8.72958986,0 9.852,0.379338613 9.852,0.379338613 L9.32380699,3.50768174 C9.32380699,3.50768174 8.44388546,3.25318874 7.62398587,3.25318874 C6.80288583,3.25318874 6.06701694,3.54729621 6.06701694,4.36839625 L6.06701694,6.75366784 L9.43304691,6.75366784 L9.19896137,9.80878421 L6.06701694,9.80878421 L6.06701694,20.4218623 L2.11037115,20.4218623 L2.11037115,9.80878421 L0,9.80878421 L0,6.75366784 Z" id="Fill-2"></path>
        </g>
    </g>
</svg>