<?xml version="1.0" encoding="utf-8"?>
<!-- Generator: Adobe Illustrator 19.2.0, SVG Export Plug-In . SVG Version: 6.00 Build 0)  -->
<svg version="1.1" id="Layer_1" xmlns="http://www.w3.org/2000/svg" xmlns:xlink="http://www.w3.org/1999/xlink" x="0px" y="0px"
	 width="24px" height="24px" viewBox="0 0 24 24" style="enable-background:new 0 0 24 24;" xml:space="preserve">
<g>
	<path d="M23.744,9.853c-0.158-0.089-0.351-0.086-0.505,0.01L18,13.068v-2.78c0-0.181-0.098-0.348-0.256-0.436
		c-0.158-0.089-0.351-0.086-0.505,0.01L12,13.068v-2.779c0-0.18-0.097-0.347-0.254-0.436c-0.157-0.088-0.349-0.085-0.504,0.007
		l-5.565,3.353L5.205,0.481C5.195,0.213,4.974,0,4.705,0H1.076c-0.271,0-0.494,0.217-0.5,0.488l-0.542,23
		c-0.003,0.135,0.048,0.265,0.142,0.361C0.27,23.945,0.398,24,0.533,24h5.025H11.5h6h6c0.276,0,0.5-0.224,0.5-0.5V10.289
		C24,10.108,23.902,9.941,23.744,9.853z M11,11.174v2.787V23H6.04l-0.321-8.643L11,11.174z M1.045,23L1.564,1h2.659l0.485,13.085
		c0,0.006-0.004,0.011-0.004,0.017l0.332,8.824L5.039,23H1.045z M12,14.241l5-3.06v2.78V23h-5V14.241z M23,23h-5v-8.759l5-3.06V23z"
		/>
	<path d="M8.507,17.135c0.276,0,0.5-0.224,0.5-0.5v-1.257c0-0.276-0.224-0.5-0.5-0.5s-0.5,0.224-0.5,0.5v1.257
		C8.007,16.911,8.23,17.135,8.507,17.135z"/>
	<path d="M14.508,14.878c-0.276,0-0.5,0.224-0.5,0.5v1.257c0,0.276,0.224,0.5,0.5,0.5s0.5-0.224,0.5-0.5v-1.257
		C15.008,15.101,14.784,14.878,14.508,14.878z"/>
	<path d="M20.508,17.135c0.276,0,0.5-0.224,0.5-0.5v-1.257c0-0.276-0.224-0.5-0.5-0.5s-0.5,0.224-0.5,0.5v1.257
		C20.008,16.911,20.231,17.135,20.508,17.135z"/>
</g>
</svg>
