<?xml version="1.0" encoding="utf-8"?>
<!-- Generator: Adobe Illustrator 19.2.0, SVG Export Plug-In . SVG Version: 6.00 Build 0)  -->
<svg version="1.1" id="Layer_1" xmlns="http://www.w3.org/2000/svg" xmlns:xlink="http://www.w3.org/1999/xlink" x="0px" y="0px"
	 width="24px" height="24px" viewBox="0 0 24 24" style="enable-background:new 0 0 24 24;" xml:space="preserve">
<path d="M22.358,3.688c0.029-0.054,0.066-0.107,0.086-0.162c0.046-0.124,0.072-0.252,0.072-0.385c0-2.024-5.451-2.947-10.517-2.947
	S1.483,1.116,1.483,3.141c0,0.13,0.024,0.256,0.068,0.377C1.581,3.604,1.63,3.68,1.678,3.757C1.699,3.791,1.713,3.826,1.737,3.86
	c0.008,0.011,0.012,0.025,0.02,0.035l7.375,11.269v8.065c0,0.187,0.104,0.357,0.269,0.443c0.073,0.038,0.152,0.057,0.231,0.057
	c0.101,0,0.201-0.03,0.287-0.09l4.769-3.333c0.134-0.094,0.214-0.247,0.214-0.41v-4.733l7.311-11.227
	c0.016-0.019,0.021-0.04,0.035-0.06C22.293,3.815,22.324,3.751,22.358,3.688z M12,1.194c6.157,0,9.517,1.286,9.517,1.947
	c0,0.042-0.029,0.1-0.112,0.207l-0.04,0.061C20.649,4.098,17.402,5.087,12,5.087c-5.442,0-8.693-1.003-9.377-1.693L2.564,3.305
	C2.512,3.24,2.483,3.182,2.483,3.141C2.483,2.48,5.842,1.194,12,1.194z M13.982,14.742c-0.053,0.081-0.081,0.176-0.081,0.272v4.621
	l-3.77,2.635v-7.256c0-0.098-0.028-0.192-0.082-0.273L3.699,5.037C5.754,5.749,8.943,6.087,12,6.087c3.059,0,6.25-0.339,8.304-1.051
	L13.982,14.742z"/>
</svg>
