<?xml version="1.0" encoding="utf-8"?>
<!-- Generator: Adobe Illustrator 19.2.0, SVG Export Plug-In . SVG Version: 6.00 Build 0)  -->
<svg version="1.1" id="Layer_1" xmlns="http://www.w3.org/2000/svg" xmlns:xlink="http://www.w3.org/1999/xlink" x="0px" y="0px"
	 width="24px" height="24px" viewBox="0 0 24 24" style="enable-background:new 0 0 24 24;" xml:space="preserve">
<g>
	<path d="M23.261,20.802l-6.12-6.12c1.019-1.484,1.619-3.277,1.619-5.209c0-5.087-4.139-9.226-9.225-9.226
		c-5.087,0-9.226,4.139-9.226,9.226s4.139,9.226,9.226,9.226c1.932,0,3.726-0.6,5.209-1.619l6.12,6.12
		c0.32,0.32,0.746,0.497,1.198,0.497c0.001,0,0.001,0,0.001-0.001c0.453,0,0.878-0.176,1.197-0.496
		C23.922,22.539,23.922,21.464,23.261,20.802z M1.309,9.473c0-4.536,3.69-8.226,8.226-8.226s8.225,3.69,8.225,8.226
		c0,4.535-3.689,8.226-8.225,8.226S1.309,14.009,1.309,9.473z M22.554,22.493c-0.131,0.131-0.305,0.203-0.49,0.203h-0.001
		c-0.186,0-0.359-0.072-0.491-0.203l-6.031-6.031c0.352-0.303,0.68-0.631,0.983-0.983l6.031,6.031
		C22.825,21.781,22.825,22.221,22.554,22.493z"/>
	<path d="M10.119,2.969C8.213,2.902,6.425,3.61,5.085,4.95C3.744,6.291,3.04,8.079,3.103,9.985c0.009,0.271,0.231,0.483,0.499,0.483
		c0.006,0,0.011,0,0.017,0c0.276-0.009,0.492-0.24,0.483-0.516c-0.054-1.626,0.546-3.151,1.69-4.294
		c1.143-1.143,2.681-1.733,4.294-1.69c0.294,0.038,0.507-0.207,0.516-0.483C10.611,3.208,10.395,2.977,10.119,2.969z"/>
</g>
</svg>
