<?xml version="1.0" encoding="utf-8"?>
<!-- Generator: Adobe Illustrator 19.2.0, SVG Export Plug-In . SVG Version: 6.00 Build 0)  -->
<svg version="1.1" id="Layer_1" xmlns="http://www.w3.org/2000/svg" xmlns:xlink="http://www.w3.org/1999/xlink" x="0px" y="0px"
	 width="24px" height="24px" viewBox="0 0 24 24" style="enable-background:new 0 0 24 24;" xml:space="preserve">
<path d="M20.838,2.306c-2.919-2.681-5.609-1.875-8.21-1.093C10.574,1.83,8.449,2.45,6,1.531V1c0-0.276-0.224-0.5-0.5-0.5
	S5,0.723,5,1v0.885v10.978V23c0,0.276,0.224,0.5,0.5,0.5S6,23.276,6,23v-9.552c0.663,0.107,1.326,0.171,1.986,0.171
	c1.488,0,2.962-0.223,4.406-0.439c2.74-0.414,5.324-0.801,7.928,0.206c0.155,0.062,0.327,0.041,0.463-0.054
	C20.919,13.239,21,13.085,21,12.92V2.675C21,2.534,20.941,2.401,20.838,2.306z M20,12.218c-2.623-0.801-5.229-0.409-7.757-0.027
	C10.091,12.515,8.051,12.822,6,12.454V2.606c2.618,0.854,4.891,0.173,6.916-0.436C15.407,1.424,17.566,0.776,20,2.898V12.218z"/>
</svg>
