<svg xmlns="http://www.w3.org/2000/svg" width="68" height="68"><path d="M62.17 18.545c-.227-1.96.16-4.325.627-7.196l1.08-9.32-23.013-.26 1.76 20.326 19.544-3.552zm-20.038 5.21a.77.77 0 0 1-.133.024l-1.007.183v5.56l1.973 2.033 20.4-8.878v-2.78l-21.233 3.86zm-1.038-1.38L39.25.983a.77.77 0 0 1 .778-.766l24.667.277a.77.77 0 0 1 .754.79c-.094 3.998-.652 7.416-1.124 10.313-.442 2.707-.807 4.944-.63 6.67l.24-.043a.77.77 0 0 1 .207-.028c.428 0 .775.347.775.775v27.105c.516 1.174 3.692 8.7 2.5 13.427-.608 2.43-2.208 4.124-4.21 5.197h-.001-.002c-2.367 1.27-5.304 1.66-7.78 1.364-.623-.074-1.546-.22-2.632-.4-5.508-.866-15.448-2.428-20.07.573l-.202.127-.075.045h-.001l-.004.003-.005.003-.054.032c-1.647.968-3.56 1.397-5.49 1.503-2.8.154-5.633-.373-7.677-.903l-.07-.018c-1.27-.332-2.226-.66-2.668-.822-.946.292-4.1 1.007-9.967-.113-2.943-.563-4.723-2.084-5.663-3.76a6.66 6.66 0 0 1-.832-2.679c-.075-.882.05-1.702.322-2.337.326-.76.87-1.284 1.565-1.42l7.708-1.503c.03-.008.062-.014.094-.018.006-.001 2.23-.258 3.054-1.908 1.053-2.106 23.15-11.63 26.676-13.14l.003-16.024a.77.77 0 0 1 .636-.76l1.013-.184zM20.188 65.707c1.865.446 4.27.84 6.628.71 1.512-.083 3.002-.383 4.303-1.028l-10.93-7.71v8.028zM32.1 64.82c5.185-3.146 15.298-1.557 20.937-.67l.948.148-21.97-20.036c-6.546 2.895-14.863 6.698-17.232 8.34L32.1 64.82zm23.688-.274c2.162.224 4.676-.125 6.695-1.207h-.001c1.642-.88 2.95-2.255 3.44-4.2.168-.673.234-1.418.223-2.198l-11.5-11.843a.53.53 0 0 1-.027-.027L42.486 32.54c-.01-.008-.017-.017-.025-.026l-1.468-1.513v8.85c0 .34-.22.63-.523.733l-7.424 3.22 22.744 20.74zm10.245-9.213c-.514-4.208-2.592-8.76-2.6-8.777-.047-.103-.068-.212-.068-.318h-.001V36.3l-7.644 8.402 10.313 10.63zm-2.67-20.565V23.8l-19.633 8.545 11.27 11.616 8.363-9.193zM14.053 53.35l-.002.003C12.84 55.5 10.127 55.9 9.915 55.927L2.202 57.43c-.157.03-.31.218-.432.505-.176.41-.254.973-.2 1.604.056.654.256 1.367.64 2.05.744 1.325 2.183 2.535 4.603 2.997 6.663 1.274 9.382.1 9.4.096a.77.77 0 0 1 .578-.006c.003.001.93.366 2.376.764v-8.335a.51.51 0 0 1 .02-.143l-5.122-3.613z" fill="#83003f" fill-rule="nonzero"/></svg>