<?xml version="1.0" encoding="utf-8"?>
<!-- Generator: Adobe Illustrator 19.2.0, SVG Export Plug-In . SVG Version: 6.00 Build 0)  -->
<svg version="1.1" id="Layer_1" xmlns="http://www.w3.org/2000/svg" xmlns:xlink="http://www.w3.org/1999/xlink" x="0px" y="0px"
	 width="24px" height="24px" viewBox="0 0 24 24" style="enable-background:new 0 0 24 24;" xml:space="preserve">
<g>
	<path d="M22.518,13.896c0.558-1.044,1.791-3.662,0.994-5.055c-0.176-0.308-0.509-0.662-1.134-0.81
		c0.323-1.32,0.65-4.497-2.542-7.348c-0.189-0.169-0.477-0.169-0.666,0c-3.192,2.851-2.865,6.028-2.542,7.348
		c-0.625,0.148-0.958,0.502-1.134,0.81c-0.797,1.393,0.438,4.011,0.994,5.055c-0.618,0.477-0.937,1.057-0.947,1.731
		c-0.03,1.924,2.606,3.855,3.462,4.431v3.421c0,0.276,0.224,0.5,0.5,0.5s0.5-0.224,0.5-0.5v-3.421
		c0.856-0.576,3.492-2.507,3.462-4.431C23.454,14.953,23.136,14.373,22.518,13.896z M19.503,19.189
		c-0.996-0.686-2.981-2.31-2.962-3.546c0.007-0.442,0.288-0.821,0.861-1.158c0.237-0.14,0.316-0.445,0.178-0.684
		c-0.738-1.259-1.722-3.584-1.218-4.464c0.054-0.093,0.216-0.377,0.92-0.377c0.168,0,0.325-0.085,0.417-0.226
		c0.093-0.141,0.107-0.318,0.041-0.473c-0.015-0.035-1.411-3.387,1.763-6.52c3.157,3.11,1.822,6.379,1.762,6.521
		c-0.065,0.154-0.049,0.332,0.043,0.472c0.093,0.14,0.249,0.225,0.416,0.225c0.705,0,0.867,0.284,0.92,0.377
		c0.504,0.88-0.479,3.205-1.218,4.464c-0.139,0.238-0.06,0.544,0.178,0.684c0.573,0.337,0.854,0.716,0.861,1.157
		C22.485,16.887,20.533,18.484,19.503,19.189z"/>
	<path d="M19.503,9.016c-0.276,0-0.5,0.224-0.5,0.5v6.923c0,0.276,0.224,0.5,0.5,0.5s0.5-0.224,0.5-0.5V9.516
		C20.003,9.24,19.779,9.016,19.503,9.016z"/>
	<path d="M9.917,16.473V15.5c0-0.275,0.22-0.5,0.49-0.5c0.276,0,0.5-0.224,0.5-0.5v-3c0-0.276-0.224-0.5-0.5-0.5H3.538
		c-0.276,0-0.5,0.224-0.5,0.5v3c0,0.276,0.224,0.5,0.5,0.5c0.271,0,0.49,0.225,0.49,0.5v0.974c-2.01,1.189-3.96,3.904-3.96,7.026
		c0,0.276,0.224,0.5,0.5,0.5h12.808c0.276,0,0.5-0.224,0.5-0.5C13.876,20.378,11.926,17.663,9.917,16.473z M1.087,23
		c0.206-2.626,1.988-4.91,3.672-5.789c0.165-0.086,0.269-0.257,0.269-0.443V15.5c0-0.65-0.414-1.206-0.99-1.413V12h5.869v2.087
		c-0.577,0.207-0.99,0.763-0.99,1.413v1.268c0,0.187,0.104,0.357,0.269,0.443c1.683,0.879,3.466,3.163,3.671,5.789H1.087z"/>
</g>
</svg>
