<?xml version="1.0" encoding="utf-8"?>
<!-- Generator: Adobe Illustrator 19.2.0, SVG Export Plug-In . SVG Version: 6.00 Build 0)  -->
<svg version="1.1" id="Layer_1" xmlns="http://www.w3.org/2000/svg" xmlns:xlink="http://www.w3.org/1999/xlink" x="0px" y="0px"
	 width="24px" height="24px" viewBox="0 0 24 24" style="enable-background:new 0 0 24 24;" xml:space="preserve">
<g>
	<path d="M21.711,1.502c-0.059-0.27-0.32-0.439-0.596-0.381L14.281,2.62l-1.328-2.119c-0.113-0.179-0.326-0.269-0.531-0.223
		L8.189,1.207C7.982,1.252,7.827,1.422,7.8,1.631l-0.319,2.48L0.646,5.611c-0.27,0.059-0.44,0.326-0.381,0.595
		C0.315,6.44,0.522,6.599,0.752,6.599c0.036,0,0.072-0.004,0.107-0.012l2.052-0.45c-0.04,0.024-0.082,0.047-0.115,0.082
		c-0.095,0.103-0.142,0.24-0.131,0.379l1.377,16.98c0.021,0.26,0.238,0.46,0.499,0.46h14.774c0.261,0,0.478-0.2,0.498-0.46
		l1.378-16.98c0.012-0.139-0.036-0.277-0.131-0.379s-0.228-0.161-0.367-0.161h-1.176l-1.082-1.949
		c-0.072-0.129-0.197-0.22-0.343-0.248c-0.145-0.028-0.295,0.011-0.41,0.103l-1.089,0.885l-1.715-0.936
		c-0.159-0.087-0.354-0.081-0.508,0.017l-3.346,2.128H3.272l4.765-1.045c0,0,0.001,0,0.001,0l6.112-1.341c0,0,0,0,0,0l7.178-1.575
		C21.6,2.038,21.771,1.771,21.711,1.502z M8.747,2.108l3.545-0.778l0.951,1.517L8.519,3.884L8.747,2.108z M14.659,4.931l1.75,0.955
		c0.178,0.097,0.398,0.076,0.555-0.051l0.887-0.72l0.523,0.942h-5.486L14.659,4.931z M20.151,7.058l-1.297,15.981H5.002L3.706,7.058
		H20.151z"/>
	<path d="M11.938,20.911c0.276,0,0.5-0.224,0.5-0.5V9.717c0-0.276-0.224-0.5-0.5-0.5s-0.5,0.224-0.5,0.5v10.694
		C11.438,20.687,11.662,20.911,11.938,20.911z"/>
	<path d="M15.598,20.909c0.014,0.001,0.027,0.002,0.041,0.002c0.258,0,0.477-0.198,0.497-0.46L16.99,9.757
		c0.022-0.275-0.183-0.517-0.458-0.539c-0.273-0.019-0.517,0.183-0.538,0.458L15.14,20.371
		C15.117,20.646,15.322,20.887,15.598,20.909z"/>
	<path d="M8.237,20.911c0.013,0,0.027-0.001,0.041-0.002c0.275-0.021,0.48-0.263,0.458-0.538L7.882,9.677
		C7.86,9.402,7.621,9.198,7.343,9.219C7.068,9.24,6.863,9.482,6.885,9.757l0.854,10.694C7.76,20.713,7.979,20.911,8.237,20.911z"/>
</g>
</svg>
