<?xml version="1.0" encoding="utf-8"?>
<!-- Generator: Adobe Illustrator 19.2.0, SVG Export Plug-In . SVG Version: 6.00 Build 0)  -->
<svg version="1.1" id="Layer_1" xmlns="http://www.w3.org/2000/svg" xmlns:xlink="http://www.w3.org/1999/xlink" x="0px" y="0px"
	 width="24px" height="24px" viewBox="0 0 24 24" style="enable-background:new 0 0 24 24;" xml:space="preserve">
<g>
	<path d="M22.811,4.031h-2.046h-5.174l-0.88-2.694c-0.067-0.206-0.259-0.345-0.476-0.345H9.765c-0.216,0-0.408,0.139-0.475,0.345
		L8.41,4.031H3.236H1.19c-0.276,0-0.5,0.224-0.5,0.5s0.224,0.5,0.5,0.5h1.581l1.344,18.544c0.019,0.262,0.236,0.464,0.499,0.464
		h14.773c0.262,0,0.479-0.202,0.499-0.464L21.23,5.031h1.581c0.276,0,0.5-0.224,0.5-0.5S23.087,4.031,22.811,4.031z M10.127,1.992
		h3.746l0.665,2.039H9.462L10.127,1.992z M18.922,23.039H5.078L3.773,5.031h4.999h6.455h5L18.922,23.039z"/>
	<path d="M14.766,16.647c-0.928,0.935-2.258,1.304-3.505,1.054l0.975-0.432c0.252-0.112,0.366-0.407,0.254-0.659
		c-0.112-0.254-0.408-0.368-0.66-0.255l-2.106,0.934c-0.018,0.008-0.03,0.023-0.047,0.034c-0.03,0.018-0.057,0.035-0.083,0.059
		c-0.026,0.024-0.046,0.05-0.066,0.078c-0.012,0.016-0.028,0.027-0.038,0.045c-0.005,0.01-0.005,0.021-0.01,0.031
		c-0.015,0.031-0.022,0.063-0.03,0.097c-0.007,0.031-0.015,0.06-0.017,0.092c-0.001,0.03,0.004,0.059,0.008,0.089
		c0.005,0.035,0.01,0.069,0.022,0.102c0.004,0.01,0.002,0.021,0.007,0.031l0.928,2.118c0.082,0.188,0.266,0.3,0.458,0.3
		c0.067,0,0.135-0.014,0.2-0.042c0.253-0.11,0.368-0.405,0.257-0.658l-0.448-1.023c0.38,0.093,0.768,0.141,1.155,0.141
		c1.267,0,2.523-0.491,3.455-1.43c1.521-1.528,1.859-3.921,0.826-5.817c-0.132-0.243-0.437-0.332-0.679-0.2s-0.332,0.436-0.2,0.678
		C16.246,13.525,15.976,15.43,14.766,16.647z"/>
	<path d="M12.783,10.072l-0.948,0.42c-0.252,0.112-0.366,0.407-0.254,0.66c0.083,0.187,0.266,0.297,0.458,0.297
		c0.067,0,0.136-0.014,0.202-0.043l2.018-0.895c0.017-0.005,0.032-0.015,0.048-0.021l0.039-0.017
		c0.005-0.002,0.008-0.007,0.013-0.009c0.041-0.022,0.078-0.046,0.112-0.079c0.031-0.028,0.056-0.059,0.079-0.093
		c0.005-0.008,0.013-0.012,0.017-0.02c0.002-0.004,0.002-0.009,0.004-0.014c0.075-0.132,0.096-0.293,0.031-0.443l-0.928-2.119
		c-0.11-0.253-0.409-0.368-0.658-0.257c-0.253,0.111-0.369,0.406-0.258,0.659l0.464,1.059c-1.634-0.411-3.415,0.034-4.641,1.267
		c-1.52,1.529-1.859,3.921-0.826,5.817c0.091,0.167,0.262,0.261,0.439,0.261c0.081,0,0.163-0.02,0.239-0.061
		c0.243-0.133,0.332-0.437,0.2-0.679C7.81,14.252,8.08,12.346,9.29,11.129C10.215,10.197,11.539,9.826,12.783,10.072z"/>
</g>
</svg>
