<?xml version="1.0" encoding="utf-8"?>
<!-- Generator: Adobe Illustrator 19.2.0, SVG Export Plug-In . SVG Version: 6.00 Build 0)  -->
<svg version="1.1" id="Layer_1" xmlns="http://www.w3.org/2000/svg" xmlns:xlink="http://www.w3.org/1999/xlink" x="0px" y="0px"
	 width="24px" height="24px" viewBox="0 0 24 24" style="enable-background:new 0 0 24 24;" xml:space="preserve">
<g>
	<path d="M22.801,4.031h-2.046h-5.174l-0.879-2.694c-0.067-0.206-0.259-0.345-0.476-0.345H9.755c-0.216,0-0.408,0.139-0.475,0.345
		L8.401,4.031H3.226H1.18c-0.276,0-0.5,0.224-0.5,0.5s0.224,0.5,0.5,0.5h1.581l1.344,18.544c0.019,0.262,0.236,0.464,0.499,0.464
		h14.774c0.262,0,0.479-0.202,0.499-0.464L21.22,5.031h1.581c0.276,0,0.5-0.224,0.5-0.5S23.077,4.031,22.801,4.031z M10.118,1.992
		h3.746l0.665,2.039H9.452L10.118,1.992z M18.913,23.039H5.068L3.764,5.031h5h6.455h5L18.913,23.039z"/>
	<path d="M12,7.084c-0.276,0-0.5,0.224-0.5,0.5v12.827c0,0.276,0.224,0.5,0.5,0.5s0.5-0.224,0.5-0.5V7.584
		C12.5,7.307,12.276,7.084,12,7.084z"/>
	<path d="M15.667,20.91c0.012,0.001,0.022,0.001,0.034,0.001c0.261,0,0.48-0.202,0.498-0.467l0.854-12.827
		c0.019-0.275-0.19-0.514-0.466-0.532c-0.27-0.012-0.514,0.19-0.532,0.466l-0.854,12.827C15.183,20.653,15.392,20.891,15.667,20.91z
		"/>
	<path d="M7.413,7.085C7.137,7.103,6.929,7.342,6.947,7.617l0.854,12.827c0.018,0.265,0.237,0.467,0.499,0.467
		c0.011,0,0.022,0,0.034-0.001c0.275-0.019,0.484-0.257,0.466-0.532L7.945,7.551C7.927,7.275,7.681,7.073,7.413,7.085z"/>
</g>
</svg>
