<?xml version="1.0" encoding="utf-8"?>
<!-- Generator: Adobe Illustrator 19.2.0, SVG Export Plug-In . SVG Version: 6.00 Build 0)  -->
<svg version="1.1" id="Layer_1" xmlns="http://www.w3.org/2000/svg" xmlns:xlink="http://www.w3.org/1999/xlink" x="0px" y="0px"
	 width="24px" height="24px" viewBox="0 0 24 24" style="enable-background:new 0 0 24 24;" xml:space="preserve">
<g>
	<path d="M6.515,17.002h-5c-0.276,0-0.5,0.224-0.5,0.5v5c0,0.276,0.224,0.5,0.5,0.5h5c0.276,0,0.5-0.224,0.5-0.5v-5
		C7.015,17.225,6.791,17.002,6.515,17.002z M6.015,22.002h-4v-4h4V22.002z"/>
	<path d="M6.515,9.001h-5c-0.276,0-0.5,0.224-0.5,0.5v5c0,0.276,0.224,0.5,0.5,0.5h5c0.276,0,0.5-0.224,0.5-0.5v-5
		C7.015,9.224,6.791,9.001,6.515,9.001z M6.015,14.001h-4v-4h4V14.001z"/>
	<path d="M6.515,1h-5c-0.276,0-0.5,0.224-0.5,0.5v5c0,0.276,0.224,0.5,0.5,0.5h5c0.276,0,0.5-0.224,0.5-0.5v-5
		C7.015,1.223,6.791,1,6.515,1z M6.015,6h-4V2h4V6z"/>
	<path d="M14.516,17.002h-5c-0.276,0-0.5,0.224-0.5,0.5v5c0,0.276,0.224,0.5,0.5,0.5h5c0.276,0,0.5-0.224,0.5-0.5v-5
		C15.016,17.225,14.792,17.002,14.516,17.002z M14.016,22.002h-4v-4h4V22.002z"/>
	<path d="M14.516,9.001h-5c-0.276,0-0.5,0.224-0.5,0.5v5c0,0.276,0.224,0.5,0.5,0.5h5c0.276,0,0.5-0.224,0.5-0.5v-5
		C15.016,9.224,14.792,9.001,14.516,9.001z M14.016,14.001h-4v-4h4V14.001z"/>
	<path d="M14.516,1h-5c-0.276,0-0.5,0.224-0.5,0.5v5c0,0.276,0.224,0.5,0.5,0.5h5c0.276,0,0.5-0.224,0.5-0.5v-5
		C15.016,1.223,14.792,1,14.516,1z M14.016,6h-4V2h4V6z"/>
	<path d="M22.517,17.002h-5.001c-0.276,0-0.5,0.224-0.5,0.5v5c0,0.276,0.224,0.5,0.5,0.5h5.001c0.276,0,0.5-0.224,0.5-0.5v-5
		C23.017,17.225,22.793,17.002,22.517,17.002z M22.017,22.002h-4.001v-4h4.001V22.002z"/>
	<path d="M22.517,9.001h-5.001c-0.276,0-0.5,0.224-0.5,0.5v5c0,0.276,0.224,0.5,0.5,0.5h5.001c0.276,0,0.5-0.224,0.5-0.5v-5
		C23.017,9.224,22.793,9.001,22.517,9.001z M22.017,14.001h-4.001v-4h4.001V14.001z"/>
	<path d="M22.517,1h-5.001c-0.276,0-0.5,0.224-0.5,0.5v5c0,0.276,0.224,0.5,0.5,0.5h5.001c0.276,0,0.5-0.224,0.5-0.5v-5
		C23.017,1.223,22.793,1,22.517,1z M22.017,6h-4.001V2h4.001V6z"/>
</g>
</svg>
