<svg xmlns="http://www.w3.org/2000/svg" width="68" height="62"><path d="M33.204 61.706c-.217 0-.434-.072-.506-.217L8.753 34.868c-.217-.217-.217-.506-.145-.796.145-.29.362-.434.65-.434h29.37L40.15 17a.65.65 0 0 1 .651-.651c.362 0 .65.217.723.58l3.834 19.243 2.604-25.464c.072-.362.362-.65.723-.65s.65.217.723.58l2.677 17.506L54.4 16.42c.072-.362.362-.58.723-.58s.65.217.723.58l1.736 8.826h7.09c2.677-6.438 1.085-13.89-3.98-18.736C53.966.072 43.26.362 36.82 7.09L34.434 9.62c-.145.145-.362.217-.506.217-.217 0-.362-.072-.506-.217l-1.953-2.17C25.247.58 14.54 0 7.596 6.22c-3.328 3.038-5.353 7.162-5.57 11.647s1.302 8.826 4.268 12.153c.29.29.217.723-.072 1.013s-.723.217-1.013-.072C1.953 27.345.29 22.643.506 17.723c.29-4.92 2.387-9.404 6.077-12.66 7.596-6.655 19.17-6.004 25.97 1.52L34 8.174l1.88-1.953a18.22 18.22 0 0 1 25.826-.723c5.643 5.353 7.234 13.672 4.05 20.762-.145.29-.362.434-.65.434h-8.102c-.362 0-.65-.217-.723-.58l-1.157-5.787-2.387 12.153c-.072.362-.362.58-.723.58a.78.78 0 0 1-.723-.579l-2.46-15.987-2.532 24.596c-.072.362-.362.65-.65.65-.362 0-.65-.217-.723-.58l-3.762-19.026-1.085 12.298c0 .362-.362.65-.723.65h-28.43l22.28 24.813 28.14-29.515a.7.7 0 1 1 1.013 1.013L33.71 61.49c-.145.145-.362.217-.506.217z" fill="#83003f" fill-rule="nonzero"/></svg>