<?xml version="1.0" encoding="utf-8"?>
<!-- Generator: Adobe Illustrator 19.2.0, SVG Export Plug-In . SVG Version: 6.00 Build 0)  -->
<svg version="1.1" id="Layer_1" xmlns="http://www.w3.org/2000/svg" xmlns:xlink="http://www.w3.org/1999/xlink" x="0px" y="0px"
	 width="24px" height="24px" viewBox="0 0 24 24" style="enable-background:new 0 0 24 24;" xml:space="preserve">
<g>
	<path d="M9.518,14.006H6.469c-0.276,0-0.5,0.224-0.5,0.5v3.04c0,0.276,0.224,0.5,0.5,0.5h3.049c0.276,0,0.5-0.224,0.5-0.5v-3.04
		C10.018,14.229,9.794,14.006,9.518,14.006z M9.018,17.046H6.969v-2.04h2.049V17.046z"/>
	<path d="M23.832,10.96L12.327,1.219c-0.187-0.157-0.46-0.157-0.646,0L0.175,10.96c-0.21,0.179-0.237,0.494-0.059,0.705
		c0.179,0.21,0.495,0.236,0.705,0.059l1.155-0.978v12.736c0,0.276,0.224,0.5,0.5,0.5h9.974h5.056h4.024c0.276,0,0.5-0.224,0.5-0.5
		V10.745l1.155,0.978c0.094,0.079,0.209,0.118,0.323,0.118c0.142,0,0.282-0.06,0.382-0.177
		C24.068,11.454,24.043,11.138,23.832,10.96z M12.95,22.981v-7.976h4.056v7.976H12.95z M21.03,22.981h-3.024v-8.476
		c0-0.276-0.224-0.5-0.5-0.5H12.45c-0.276,0-0.5,0.224-0.5,0.5v8.476H2.977V9.899l9.027-7.643l9.027,7.643V22.981z"/>
</g>
</svg>
