<?xml version="1.0" encoding="utf-8"?>
<!-- Generator: Adobe Illustrator 19.2.0, SVG Export Plug-In . SVG Version: 6.00 Build 0)  -->
<svg version="1.1" id="Layer_1" xmlns="http://www.w3.org/2000/svg" xmlns:xlink="http://www.w3.org/1999/xlink" x="0px" y="0px"
	 width="24px" height="24px" viewBox="0 0 24 24" style="enable-background:new 0 0 24 24;" xml:space="preserve">
<g>
	<path d="M6.452,15.99h2.989c0.276,0,0.5-0.224,0.5-0.5v-3.008c0-0.276-0.224-0.5-0.5-0.5H6.452c-0.276,0-0.5,0.224-0.5,0.5v3.008
		C5.952,15.766,6.175,15.99,6.452,15.99z M6.952,12.982h1.989v2.008H6.952V12.982z"/>
	<path d="M6.452,9.99h2.989c0.276,0,0.5-0.224,0.5-0.5V6.481c0-0.276-0.224-0.5-0.5-0.5H6.452c-0.276,0-0.5,0.224-0.5,0.5V9.49
		C5.952,9.766,6.175,9.99,6.452,9.99z M6.952,6.981h1.989V8.99H6.952V6.981z"/>
	<path d="M22.602,10.076L15,8.493V1.006c0-0.146-0.063-0.284-0.174-0.379c-0.109-0.095-0.25-0.135-0.4-0.116L1.409,2.456
		C1.164,2.493,0.983,2.703,0.983,2.951V23.5c0,0.276,0.224,0.5,0.5,0.5H14.5h8c0.276,0,0.5-0.224,0.5-0.5V10.565
		C23,10.328,22.834,10.124,22.602,10.076z M1.983,3.382L14,1.586v7.313V23H9.941v-4.456c0-0.276-0.224-0.5-0.5-0.5H6.452
		c-0.276,0-0.5,0.224-0.5,0.5V23H1.983V3.382z M6.952,22.981v-3.938h1.989v3.938H6.952z M22,23h-3.045v-2.482
		c0-0.276-0.224-0.5-0.5-0.5s-0.5,0.224-0.5,0.5V23H15V9.514l7,1.458V23z"/>
	<path d="M18.455,17.969c0.276,0,0.5-0.224,0.5-0.5v-1.08c0-0.276-0.224-0.5-0.5-0.5s-0.5,0.224-0.5,0.5v1.08
		C17.955,17.745,18.179,17.969,18.455,17.969z"/>
	<path d="M18.455,14.969c0.276,0,0.5-0.224,0.5-0.5v-1.08c0-0.276-0.224-0.5-0.5-0.5s-0.5,0.224-0.5,0.5v1.08
		C17.955,14.745,18.179,14.969,18.455,14.969z"/>
</g>
</svg>
