<svg xmlns="http://www.w3.org/2000/svg" width="56" height="68"><path d="M.114 59.16V7.296c0-2.007.82-3.832 2.143-5.153S5.404 0 7.41 0H54.42c.428 0 .775.347.775.775v66.14c0 .428-.347.775-.775.775H8.068c-2.193 0-4.187-.897-5.63-2.342S.095 61.9.095 59.717l.02-.558zm53.53-7.415V1.55H7.41c-1.58 0-3.016.647-4.058 1.69s-1.69 2.478-1.69 4.058V54.98c.235-.317.493-.615.772-.894a7.95 7.95 0 0 1 5.631-2.341h45.577zm0 1.55H8.068c-1.765 0-3.37.723-4.535 1.887s-1.887 2.77-1.887 4.535.723 3.37 1.887 4.535 2.77 1.887 4.535 1.887h45.576V53.294zm-11.132-8.103c.428 0 .775.347.775.775s-.347.775-.775.775h-26c-.428 0-.775-.347-.775-.775s.347-.775.775-.775h26zm-5.694-4.66c.428 0 .775.347.775.775s-.347.775-.775.775H22.216c-.428 0-.775-.347-.775-.775s.347-.775.775-.775h14.602zm-9.452-28.725h4.302c.428 0 .775.347.775.775V17.9h5.307c.428 0 .775.347.775.775v4.302c0 .428-.347.775-.775.775h-5.307v5.308c0 .428-.347.775-.775.775h-4.302c-.428 0-.775-.347-.775-.775v-5.308h-5.308c-.428 0-.775-.347-.775-.775v-4.302c0-.428.347-.775.775-.775H26.6v-5.307c0-.428.347-.775.775-.775zm3.527 1.55H28.14v5.307c0 .428-.347.775-.775.775h-5.308v2.752h5.308c.428 0 .775.347.775.775v5.308h2.752v-5.308c0-.428.347-.775.775-.775h5.307V19.44h-5.307c-.428 0-.775-.347-.775-.775v-5.307zm-1.376-8.23a15.64 15.64 0 0 1 11.094 4.595 15.64 15.64 0 0 1 4.595 11.094 15.64 15.64 0 0 1-4.595 11.094 15.64 15.64 0 0 1-11.094 4.595 15.64 15.64 0 0 1-11.094-4.595 15.64 15.64 0 0 1-4.595-11.094 15.64 15.64 0 0 1 4.595-11.094 15.64 15.64 0 0 1 11.094-4.595zm9.998 5.69c-2.56-2.56-6.094-4.14-9.998-4.14s-7.44 1.582-9.998 4.14-4.14 6.093-4.14 9.998 1.583 7.44 4.14 9.998 6.094 4.14 9.998 4.14 7.44-1.583 9.998-4.14 4.14-6.093 4.14-9.998-1.582-7.44-4.14-9.998z" fill="#83003f" fill-rule="evenodd"/></svg>