<svg xmlns="http://www.w3.org/2000/svg" width="68" height="59"><path d="M3.97 52.294V15.12a3.3 3.3 0 0 1 .972-2.339 3.3 3.3 0 0 1 2.339-.972h13.114V4.294a4.18 4.18 0 0 1 1.231-2.962A4.18 4.18 0 0 1 24.586.102h18.3a4.18 4.18 0 0 1 2.961 1.231 4.18 4.18 0 0 1 1.231 2.962V11.8h13.776a3.3 3.3 0 0 1 3.31 3.31v37.173h2.75c.428 0 .775.347.775.775v4.96c0 .428-.347.775-.775.775H.775c-.428 0-.775-.347-.775-.775v-4.96c0-.428.347-.775.775-.775H3.97zm54.29-10.687h-2.274v2.274h2.274v-2.274zm-2.8-1.033h3.307c.285 0 .517.23.517.517v3.307c0 .285-.23.517-.517.517H55.47c-.285 0-.517-.23-.517-.517V41.1c0-.285.23-.517.517-.517zm-6.247 0h3.307c.285 0 .517.23.517.517v3.307c0 .285-.23.517-.517.517h-3.307c-.285 0-.517-.23-.517-.517V41.1c0-.285.23-.517.517-.517zm2.8 1.033H49.74v2.274h2.274v-2.274zm6.763-2.94H55.47c-.285 0-.517-.23-.517-.517v-3.307c0-.285.23-.517.517-.517h3.307c.285 0 .517.23.517.517v3.307c0 .285-.23.517-.517.517zm-2.8-1.033h2.274V35.36h-2.274v2.274zm-6.247 0h2.274V35.36H49.74v2.274zm2.8 1.033h-3.307c-.285 0-.517-.23-.517-.517v-3.307c0-.285.23-.517.517-.517h3.307c.285 0 .517.23.517.517v3.307c0 .285-.23.517-.517.517zm5.73-9.554h-2.274v2.274h2.274v-2.274zm-2.8-1.033h3.307c.285 0 .517.23.517.517v3.307c0 .285-.23.517-.517.517H55.47c-.285 0-.517-.23-.517-.517v-3.307c0-.285.23-.517.517-.517zm-6.247 0h3.307c.285 0 .517.23.517.517v3.307c0 .285-.23.517-.517.517h-3.307c-.285 0-.517-.23-.517-.517v-3.307c0-.285.23-.517.517-.517zm2.8 1.033H49.74v2.274h2.274v-2.274zm-34.65 12.493H15.1v2.274h2.274v-2.274zm-2.8-1.033h3.307c.285 0 .517.23.517.517v3.307c0 .285-.23.517-.517.517h-3.307c-.285 0-.517-.23-.517-.517V41.1c0-.285.23-.517.517-.517zm-6.247 0h3.307c.285 0 .517.23.517.517v3.307c0 .285-.23.517-.517.517H8.327c-.285 0-.517-.23-.517-.517V41.1c0-.285.23-.517.517-.517zm2.8 1.033H8.844v2.274h2.274v-2.274zm6.763-2.94h-3.307c-.285 0-.517-.23-.517-.517v-3.307c0-.285.23-.517.517-.517h3.307c.285 0 .517.23.517.517v3.307c0 .285-.23.517-.517.517zm-2.8-1.033h2.274V35.36H15.1v2.274zm-6.247 0h2.274V35.36H8.844v2.274zm2.8 1.033H8.327c-.285 0-.517-.23-.517-.517v-3.307c0-.285.23-.517.517-.517h3.307c.285 0 .517.23.517.517v3.307c0 .285-.23.517-.517.517zm50.98 13.627V15.12c0-.483-.198-.923-.518-1.242s-.76-.518-1.242-.518H47.077v38.933h3.41v-4.957c0-.285.23-.517.517-.517h6c.285 0 .517.23.517.517v4.957h5.102zm-17.086 0v-48c0-.726-.298-1.386-.777-1.865s-1.14-.777-1.865-.777h-18.3c-.726 0-1.386.298-1.866.777s-.777 1.14-.777 1.866v48h4.884v-10.07c0-.285.23-.517.517-.517h12.78c.285 0 .517.23.517.517v10.07h4.884zm-25.133 0V13.36H7.28c-.483 0-.923.198-1.243.517s-.518.76-.518 1.243v37.173h4.073v-4.957c0-.285.23-.517.517-.517h6c.285 0 .517.23.517.517v4.957h3.778zm-9.768 0h4.956v-4.44h-4.956v4.44zm17.236 0H39.61V42.74H27.862v9.554zm23.66 0h4.956v-4.44h-4.956v4.44zm14.618 1.55H1.55v3.41h64.6v-3.41zm-40.995-14.22c-.428 0-.775-.347-.775-.775s.347-.775.775-.775h17.18c.428 0 .775.347.775.775s-.347.775-.775.775h-17.18zM32.53 14.55h2.41c.285 0 .517.23.517.517v2.34h2.34c.285 0 .517.23.517.517v2.41c0 .285-.23.517-.517.517h-2.34v2.342c0 .285-.23.517-.517.517h-2.41c-.285 0-.517-.23-.517-.517v-2.342h-2.342c-.285 0-.517-.23-.517-.517v-2.41c0-.285.23-.517.517-.517h2.342v-2.34c0-.285.23-.517.517-.517zm1.894 1.033h-1.378v2.34c0 .285-.23.517-.517.517h-2.34v1.378h2.34c.285 0 .517.23.517.517v2.34h1.378v-2.34c0-.285.23-.517.517-.517h2.34V18.44h-2.34c-.285 0-.517-.23-.517-.517v-2.34zm-.69-4.073c2.123 0 4.045.86 5.437 2.252s2.252 3.313 2.252 5.437-.86 4.045-2.252 5.437-3.314 2.252-5.437 2.252-4.045-.86-5.437-2.252-2.252-3.314-2.252-5.437.86-4.045 2.252-5.437 3.314-2.252 5.437-2.252zm4.706 2.983c-1.204-1.204-2.868-1.95-4.706-1.95s-3.502.745-4.706 1.95-1.95 2.868-1.95 4.706.745 3.502 1.95 4.706 2.868 1.95 4.706 1.95 3.502-.745 4.706-1.95 1.95-2.868 1.95-4.706-.745-3.502-1.95-4.706zm-21.078 14.62H15.1v2.274h2.274v-2.274zm-2.8-1.033h3.307c.285 0 .517.23.517.517v3.307c0 .285-.23.517-.517.517h-3.307c-.285 0-.517-.23-.517-.517v-3.307c0-.285.23-.517.517-.517zm-6.247 0h3.307c.285 0 .517.23.517.517v3.307c0 .285-.23.517-.517.517H8.327c-.285 0-.517-.23-.517-.517v-3.307c0-.285.23-.517.517-.517zm2.8 1.033H8.844v2.274h2.274v-2.274z" fill="#83003f" fill-rule="nonzero"/></svg>