<svg xmlns="http://www.w3.org/2000/svg" width="58" height="68"><path d="M4.097 0a3.93 3.93 0 0 1 2.784 1.157 3.93 3.93 0 0 1 1.157 2.784v11.215h7.637v-3.332c0-1.306.534-2.493 1.394-3.353s2.047-1.394 3.354-1.394h32.03c1.307 0 2.494.534 3.354 1.394s1.394 2.047 1.394 3.353v34.885c0 1.307-.534 2.494-1.394 3.354s-2.047 1.394-3.354 1.394h-32.03c-1.307 0-2.494-.534-3.354-1.394s-1.394-2.047-1.394-3.354v-6.2l-7.637.067v26.34c0 .428-.347.775-.775.775H.932c-.428 0-.775-.347-.775-.775V3.94a3.93 3.93 0 0 1 1.157-2.784A3.93 3.93 0 0 1 4.097 0zm30.426 20.112h3.827c.428 0 .775.347.775.775v4.635h4.635c.428 0 .775.347.775.775v3.827c0 .428-.347.775-.775.775h-4.635v4.636c0 .428-.347.775-.775.775h-3.827c-.428 0-.775-.347-.775-.775V30.9h-4.636c-.428 0-.775-.347-.775-.775v-3.827c0-.428.347-.775.775-.775h4.636v-4.635c0-.428.347-.775.775-.775zm3.052 1.55h-2.277v4.635c0 .428-.347.775-.775.775h-4.636v2.277h4.636c.428 0 .775.347.775.775v4.636h2.277v-4.636c0-.428.347-.775.775-.775h4.635v-2.277H38.35c-.428 0-.775-.347-.775-.775v-4.635zm-1.14-7.234A13.74 13.74 0 0 1 50.22 28.211a13.74 13.74 0 0 1-13.783 13.783 13.74 13.74 0 0 1-13.783-13.783 13.74 13.74 0 0 1 13.783-13.783zm9.016 4.767a12.71 12.71 0 0 0-18.031 0 12.71 12.71 0 0 0-3.734 9.016 12.71 12.71 0 0 0 12.75 12.75 12.71 12.71 0 0 0 12.75-12.75 12.71 12.71 0 0 0-3.734-9.016zM15.675 16.19H8.038v3.56h7.637v-3.56zm0 4.593H8.038v14.17l7.637-.067V20.782zm0 15.13l-7.637.067v3.564l7.637-.067v-3.564zM52.45 8.626h-32.03c-.878 0-1.678.36-2.258.94s-.94 1.38-.94 2.258v34.885c0 .878.36 1.678.94 2.258s1.38.94 2.258.94h32.03c.878 0 1.678-.36 2.258-.94s.94-1.38.94-2.258V11.824c0-.878-.36-1.678-.94-2.258s-1.38-.94-2.258-.94zM4.097 1.55c-.656 0-1.254.27-1.688.703s-.703 1.03-.703 1.688v62.2h4.78V3.94c0-.656-.27-1.254-.703-1.688s-1.03-.703-1.688-.703z" fill="#83003f" fill-rule="nonzero"/></svg>