<?xml version="1.0" encoding="UTF-8"?>
<svg width="35px" height="35px" viewBox="0 0 35 35" version="1.1" xmlns="http://www.w3.org/2000/svg" xmlns:xlink="http://www.w3.org/1999/xlink">
    <title>instagram</title>
    <g id="instagram" stroke="none" stroke-width="1" fill="none" fill-rule="evenodd">
        <g id="brands-and-logotypes-2" transform="translate(8.000000, 8.000000)" fill="#FFFFFF" fill-rule="nonzero">
            <path d="M14.5861816,0 L5.41381836,0 C2.42858887,0 0,2.42858887 0,5.41381836 L0,14.5863342 C0,17.5714111 2.42858887,20 5.41381836,20 L14.5863342,20 C17.5714111,20 20,17.5714111 20,14.5863342 L20,5.41381836 C20,2.42858887 17.5714111,0 14.5861816,0 Z M10,15.4685974 C6.98455813,15.4685974 4.53140258,13.0154419 4.53140258,10 C4.53140258,6.98455812 6.98455813,4.53140258 10,4.53140258 C13.0154419,4.53140258 15.4685974,6.98455812 15.4685974,10 C15.4685974,13.0154419 13.0154419,15.4685974 10,15.4685974 L10,15.4685974 Z M15.5993652,5.82107543 C14.708252,5.82107543 13.9834595,5.09628297 13.9834595,4.20516969 C13.9834595,3.31405641 14.708252,2.58911133 15.5993652,2.58911133 C16.4904785,2.58911133 17.2154236,3.31405641 17.2154236,4.20516969 C17.2154236,5.09628297 16.4904785,5.82107543 15.5993652,5.82107543 Z" id="Shape"></path>
            <path d="M10,6 C7.79449477,6 6,7.7943527 6,10 C6,12.2055052 7.79449477,14 10,14 C12.2056473,14 14,12.2055052 14,10 C14,7.7943527 12.2056473,6 10,6 Z" id="Path"></path>
        </g>
    </g>
</svg>