<?xml version="1.0" encoding="utf-8"?>
<!-- Generator: Adobe Illustrator 19.2.0, SVG Export Plug-In . SVG Version: 6.00 Build 0)  -->
<svg version="1.1" id="Layer_1" xmlns="http://www.w3.org/2000/svg" xmlns:xlink="http://www.w3.org/1999/xlink" x="0px" y="0px"
	 width="24px" height="24px" viewBox="0 0 24 24" style="enable-background:new 0 0 24 24;" xml:space="preserve">
<g>
	<path d="M22.254,22.747c-0.748-0.748-1.712-1.786-2.568-2.765c-0.898-1.092-0.863-2.006-0.805-3.52
		c0.021-0.576,0.047-1.229,0.02-1.98C18.807,11.9,16.683,10,16,9.454V1.2C16,0.527,15.473,0,14.8,0H1.3C0.595,0,0,0.55,0,1.2v16.6
		C0,18.45,0.595,19,1.3,19h13.233c0.693,1.715,1.833,3.571,2.346,4.371c0.096,0.148,0.257,0.229,0.421,0.229
		c0.093,0,0.187-0.025,0.271-0.079c0.232-0.149,0.3-0.459,0.15-0.691c-0.451-0.702-1.968-3.137-2.53-4.929
		c-0.069-0.345-0.545-1.188-1.884-3.341c-0.19-0.306-0.328-0.526-0.385-0.629c-0.104-0.162-0.123-0.307-0.058-0.429
		c0.07-0.133,0.235-0.231,0.393-0.236c0.135-0.01,0.236,0.059,0.334,0.221l1.9,2.7c0.159,0.225,0.472,0.279,0.697,0.121
		c0.226-0.159,0.279-0.471,0.121-0.697L16,15.173v-4.375c0.773,0.766,1.842,2.108,1.9,3.72c0.026,0.714,0.002,1.348-0.02,1.906
		c-0.06,1.568-0.107,2.808,1.043,4.204c0.879,1.006,1.859,2.062,2.623,2.825c0.098,0.098,0.226,0.146,0.354,0.146
		s0.256-0.049,0.354-0.146C22.449,23.259,22.449,22.942,22.254,22.747z M11.981,13.033c-0.236,0.444-0.201,0.968,0.071,1.391
		c0.027,0.054,0.183,0.309,0.405,0.664c0.136,0.219,0.341,0.55,0.563,0.912H3V3h10v9.305C12.572,12.388,12.186,12.65,11.981,13.033z
		 M14.429,12.943C14.316,12.754,14.167,12.612,14,12.5v-10C14,2.223,13.776,2,13.5,2h-11C2.224,2,2,2.223,2,2.5v14
		C2,16.776,2.224,17,2.5,17h11.12c0.243,0.416,0.444,0.779,0.542,1H8H1.3C1.146,18,1,17.887,1,17.8V1.2C1,1.113,1.146,1,1.3,1h13.5
		C14.923,1,15,1.077,15,1.2v12.553L14.429,12.943z"/>
	<path d="M9.5,7h1.9c0.276,0,0.5-0.224,0.5-0.5S11.676,6,11.4,6H9.5C9.224,6,9,6.223,9,6.5S9.224,7,9.5,7z"/>
	<path d="M9.5,5h1.9c0.276,0,0.5-0.224,0.5-0.5S11.676,4,11.4,4H9.5C9.224,4,9,4.223,9,4.5S9.224,5,9.5,5z"/>
	<path d="M9.5,9h1.9c0.276,0,0.5-0.224,0.5-0.5S11.676,8,11.4,8H9.5C9.224,8,9,8.223,9,8.5S9.224,9,9.5,9z"/>
	<path d="M11.5,10h-7C4.224,10,4,10.223,4,10.5S4.224,11,4.5,11h7c0.276,0,0.5-0.224,0.5-0.5S11.776,10,11.5,10z"/>
	<path d="M10.5,12h-6C4.224,12,4,12.223,4,12.5S4.224,13,4.5,13h6c0.276,0,0.5-0.224,0.5-0.5S10.776,12,10.5,12z"/>
	<path d="M8.5,17.5c0-0.13-0.05-0.26-0.15-0.36c-0.19-0.18-0.52-0.18-0.7,0C7.55,17.24,7.5,17.37,7.5,17.5s0.05,0.26,0.15,0.35
		C7.74,17.95,7.87,18,8,18c0.13,0,0.26-0.05,0.36-0.15C8.45,17.76,8.5,17.63,8.5,17.5z"/>
	<path d="M4.5,9h3C7.776,9,8,8.776,8,8.5v-4C8,4.223,7.776,4,7.5,4h-3C4.224,4,4,4.223,4,4.5v4C4,8.776,4.224,9,4.5,9z M5,5h2v3H5V5
		z"/>
</g>
</svg>
