<svg xmlns="http://www.w3.org/2000/svg" width="62" height="68"><path d="M43.178 37.07l.8.878 4-1.47.646-3.904c.034-.21.233-.354.443-.32s.354.233.32.443l-.575 3.474 3.36-1.235c.2-.074.423.03.497.23s-.03.423-.23.497l-1.48.544 2.835 1.2c.196.083.29.31.206.506s-.31.29-.506.206L49.9 36.595l-5.36 1.97 5.114 5.62 5.414.27c.213.01.378.19.368.404s-.19.378-.404.368l-4.64-.232 3.043 3.343 3.072.92c.205.06.32.277.26.48s-.277.32-.48.26l-2.328-.698 2.706 5.51c.094.19.014.422-.177.516s-.422.014-.516-.177l-1.054-2.145-1.198 1.628c-.126.172-.368.2-.54.083s-.2-.368-.083-.54l1.438-1.953L52.9 48.9 49.258 44.9c-.073-.04-.132-.105-.165-.182L47.85 43.35 48 47.732c.006.213-.16.39-.374.398s-.39-.16-.398-.374l-.183-5.29-1.942-2.134-2.55 5.856-.904 3.004 2.113 3.31c.114.18.062.418-.118.533s-.418.062-.533-.118l-1.756-2.75-1.362 4.527c-.06.205-.277.32-.48.26s-.32-.276-.26-.48l2.3-7.647-4.208 2.195c-.19.098-.422.025-.52-.164s-.026-.422.163-.52l4.9-2.556 2.646-6.075-.914-1.004c-.03-.024-.056-.053-.078-.086l-.756-.83a2.51 2.51 0 0 1-.396.446c-.742.65-1.703.727-3.137-.183-.437-.277-1.1-.59-1.868-.94l-2.544-1.262c-.5 1.148-1 3.067-1.035 5.084-.028 1.657.265 3.356 1.153 4.684a.77.77 0 0 1 .112.705c-.91 2.698-1.2 4.985-.773 7.08.435 2.082 1.612 4.017 3.664 6.023.1.09.16.2.2.33a4.65 4.65 0 0 0 .163.449c.502 1.2 1.465 2.064 2.64 2.54 1.205.486 2.633.558 4.03.13l.602-.217c.214-.103.472-.107.698.01l3.266 1.633c1.24.6 3.103 1.2 4.767 1.508 1.173.22 2.206.3 2.752.136a8.21 8.21 0 0 0-.718-2.899c-.75-1.636-2.037-2.917-3.652-3.79-1.637-.886-3.6-1.355-5.708-1.352-2.068.003-4.257.463-6.368 1.432-.26.118-.564.004-.682-.254s-.004-.564.254-.682c2.247-1.03 4.584-1.522 6.796-1.525 2.27-.003 4.412.507 6.196 1.473 1.807.978 3.25 2.42 4.1 4.27a9.11 9.11 0 0 1 .763 2.758c1.088-.86 2.234-2.86 2.234-9.757 0-8.622-3.92-15.137-4.187-15.57a.77.77 0 0 1-.129-.459c.001-.02.33-7.415-2.002-11.96-.92-1.794-3.08-3.542-5.47-4.99-3.482-2.107-7.355-3.534-8.687-3.565-.6-.014-1.056.117-1.395.308a1.97 1.97 0 0 0-.833.896l-.001-.001-.043.1c-.01.04-.022.08-.04.118-.323.77-.33 1.775-.342 3.376-.01 1.208-.02 2.73-.16 4.682a3.22 3.22 0 0 1 .568.895c1.03 2.412 2.88 3.235 4.164 3.807 1.414.63 2.366 1.053 1.915 2.49-.15.476-.297.928-.475 1.33zM3.945 65.37a9.11 9.11 0 0 1 .763-2.758c.85-1.85 2.293-3.294 4.1-4.27 1.784-.965 3.926-1.476 6.197-1.473 2.212.003 4.548.493 6.795 1.525.26.118.373.423.254.682s-.424.373-.682.254c-2.11-.97-4.3-1.43-6.368-1.432-2.098-.003-4.07.466-5.708 1.352-1.615.874-2.9 2.155-3.652 3.79-.398.867-.647 1.836-.717 2.9.546.164 1.58.082 2.752-.136 1.664-.3 3.527-.907 4.767-1.508l3.266-1.633c.226-.12.484-.115.698-.01a6.62 6.62 0 0 0 .602.217c1.397.428 2.825.357 4.03-.13 1.177-.475 2.14-1.35 2.642-2.54a4.65 4.65 0 0 0 .163-.449.77.77 0 0 1 .2-.329c2.05-2.007 3.228-3.94 3.664-6.024.437-2.094.136-4.382-.773-7.08-.083-.248-.033-.51.112-.705.887-1.327 1.18-3.026 1.153-4.684-.035-2.062-.558-4.022-1.07-5.16-.892.51-1.834.947-2.68 1.34-.758.35-1.43.663-1.868.94-1.434.91-2.395.832-3.137.183a2.4 2.4 0 0 1-.32-.344l-.663.73c-.022.033-.048.062-.078.086l-.914 1.004 2.646 6.075 4.9 2.556c.19.098.262.332.164.52s-.332.262-.52.164l-4.207-2.195 2.3 7.647c.06.205-.056.42-.26.48s-.42-.056-.48-.26l-1.362-4.527-1.755 2.75c-.115.18-.353.233-.533.118s-.233-.353-.118-.533l2.113-3.31-.904-3.004-2.55-5.856-1.943 2.134-.183 5.29c-.007.213-.185.38-.398.374s-.38-.185-.374-.398l.152-4.382-1.244 1.367a.39.39 0 0 1-.166.182L9.106 48.9l-1.632 3.322 1.437 1.953c.126.172.09.414-.083.54s-.414.09-.54-.083L7.09 53.006 6.035 55.15c-.094.19-.325.27-.516.177s-.27-.325-.177-.516l1.325-2.696c.006-.015.013-.03.02-.043l1.36-2.77L5.72 50c-.205.06-.42-.056-.48-.26s.056-.42.26-.48l3.072-.92 3.043-3.343-4.64.232c-.213.01-.394-.155-.404-.368s.154-.394.368-.404l5.414-.27 5.114-5.62-5.36-1.97-3.596 1.522c-.197.083-.423-.01-.506-.206s.01-.423.206-.506l2.835-1.2-1.48-.544c-.2-.074-.304-.296-.23-.497s.296-.304.497-.23l3.36 1.235-.574-3.474c-.034-.21.11-.41.32-.443s.41.11.444.32l.646 3.904 4 1.47.687-.755c-.203-.433-.366-.93-.53-1.454-.45-1.436.5-1.86 1.914-2.49 1.285-.57 3.135-1.395 4.164-3.807a3.21 3.21 0 0 1 .725-1.058c-.128-1.875-.14-3.345-.147-4.52-.01-1.602-.02-2.607-.342-3.376-.016-.04-.03-.078-.04-.118l-.043-.1-.001.001c-.11-.25-.36-.63-.833-.896-.34-.19-.793-.322-1.395-.308-1.33.032-5.205 1.458-8.687 3.565-2.4 1.447-4.55 3.195-5.47 4.99-2.332 4.546-2.003 11.94-2.002 11.96a.77.77 0 0 1-.129.459c-.266.433-4.187 6.948-4.187 15.57 0 6.896 1.146 8.9 2.233 9.757zm22.54-36.168c-.104.2-.293.35-.522.4-.11.127-.205.276-.277.445-1.267 2.97-3.445 3.94-4.957 4.612-.66.294-1.106.492-1.067.618.253.806.49 1.514.805 1.8.2.176.576.125 1.3-.328.512-.324 1.235-.66 2.05-1.037 2.126-.985 4.944-2.29 5.36-4.106.052-.378.376-.668.768-.668h1.968 0c.36 0 .682.252.757.618.202.985 1.11 1.82 2.242 2.537a.69.69 0 0 1 .04.023.78.78 0 0 1 .039.026c.965.6 2.08 1.118 3.05 1.568.815.378 1.538.713 2.05 1.037.714.453 1.09.504 1.3.328.315-.276.55-.985.805-1.8.04-.126-.406-.324-1.067-.618-1.512-.673-3.7-1.642-4.957-4.612-.1-.235-.244-.43-.415-.585l-.018-.016-.025-.022c-.174-.146-.376-.253-.59-.32-.26-.082-.468-.297-.527-.58-.107-.514-.26-.978-.45-1.393-.195-.428-.422-.792-.672-1.092-.01-.012-.02-.023-.028-.035h-4.98l-.01.01c-.272.313-.514.682-.714 1.106-.19.406-.346.864-.454 1.373-.046.28-.245.523-.534.613-.086.027-.17.06-.25.1zm1.956 5.723c.615 1.298 1.265 3.6 1.305 5.98.03 1.818-.286 3.703-1.228 5.272.905 2.81 1.184 5.246.706 7.535-.5 2.347-1.765 4.496-3.963 6.68-.048.14-.1.274-.155.406-.67 1.588-1.94 2.75-3.49 3.374-1.52.613-3.3.706-5.053.172a8.32 8.32 0 0 1-.444-.15c-.442.23-1.38.707-3 1.493-1.348.653-3.365 1.3-5.16 1.636-1.62.302-3.117.343-3.926-.085l-.01-.005c-1.566-.83-3.86-2.044-3.86-11.62 0-8.434 3.6-14.985 4.315-16.2-.034-1.327-.088-8.073 2.18-12.492 1.07-2.088 3.446-4.04 6.046-5.613 3.69-2.233 7.926-3.747 9.45-3.783.92-.022 1.637.19 2.188.5a3.54 3.54 0 0 1 1.487 1.617l-.001.001.001.002c.036.08.065.153.087.21l.014.032c.436 1.038.444 2.17.457 3.97l.042 2.39c.235-.458.507-.864.808-1.216a3.83 3.83 0 0 1-.24-.849c-.092-.534-.108-1.137-.05-1.68a4.2 4.2 0 0 1 .227-1.028c-.24-.683-.313-1.626-.222-2.423.04-.358.115-.696.222-.98-.24-.683-.312-1.625-.222-2.42.04-.358.115-.696.222-.98-.24-.683-.312-1.625-.222-2.42.04-.358.115-.696.222-.98-.24-.683-.312-1.625-.222-2.422.04-.358.115-.696.222-.98-.24-.683-.312-1.625-.222-2.42.04-.358.115-.696.222-.98-.24-.683-.312-1.625-.222-2.42.048-.427.144-.825.287-1.136.187-.407.462-.687.834-.762a.97.97 0 0 1 .539.048c.772.287 1.545.42 2.318.413s1.552-.152 2.336-.42l.083-.028h.083a1.12 1.12 0 0 1 .543.141c.37.203.634.608.795 1.11.14.436.2.955.2 1.467h-.002c0 .607-.097 1.222-.293 1.7.03.075.06.153.085.233.14.436.2.955.2 1.467h-.002c0 .607-.097 1.222-.293 1.7.03.075.06.153.085.233.14.436.2.956.2 1.467h-.002c0 .606-.097 1.222-.293 1.7a3.07 3.07 0 0 1 .085.234c.14.436.2.955.2 1.467h-.002c0 .607-.097 1.222-.293 1.7.03.075.06.153.085.233.14.436.2.955.2 1.467h-.002c0 .607-.097 1.222-.293 1.7.03.075.06.153.085.233.14.436.2.955.2 1.467h-.002c0 .607-.098 1.223-.293 1.7.09.214.157.452.205.705.06.32.09.66.09.995s-.03.676-.09.995a3.52 3.52 0 0 1-.237.78c.342.413.643.9.888 1.428l.03.067a78.81 78.81 0 0 0 .054-2.695c.013-1.8.02-2.932.457-3.97.004-.01.01-.02.014-.032a3.91 3.91 0 0 1 .087-.212l.001-.002v-.001c.203-.456.654-1.147 1.487-1.617.55-.3 1.268-.523 2.188-.5 1.523.036 5.76 1.55 9.45 3.783 2.6 1.574 4.975 3.525 6.046 5.613 2.267 4.42 2.214 11.165 2.18 12.492.714 1.216 4.315 7.767 4.315 16.2 0 9.576-2.294 10.8-3.86 11.62l-.01.005c-.81.428-2.305.387-3.926.085-1.796-.334-3.813-.982-5.16-1.636l-3-1.493a8.25 8.25 0 0 1-.445.15c-1.744.534-3.534.44-5.053-.172-1.548-.624-2.82-1.786-3.49-3.374-.056-.132-.107-.267-.154-.406-2.198-2.185-3.473-4.334-3.963-6.68-.478-2.29-.2-4.726.706-7.535-.942-1.57-1.26-3.454-1.228-5.272.04-2.323.66-4.574 1.263-5.887-.98-.702-1.795-1.532-2.19-2.54h-.825c-.38.964-1.142 1.765-2.066 2.448zM28.6 20.6a6.45 6.45 0 0 0 2.318.413c.772-.006 1.55-.152 2.336-.42l.083-.028h.083a1.12 1.12 0 0 1 .451.091c.044-.242.065-.507.065-.775h-.002c0-.416-.052-.825-.157-1.152-.084-.262-.188-.455-.306-.52l-.002-.001a8.36 8.36 0 0 1-2.546.433c-.9.007-1.78-.144-2.668-.473a1.15 1.15 0 0 0-.09.173c-.095.206-.16.496-.198.82-.05.452-.043.952.027 1.392a.98.98 0 0 1 .608.045zm2.322 1.443c-.894.007-1.788-.146-2.68-.478-.015-.005.01.027-.01.057-.135.202-.226.563-.27.985a5.31 5.31 0 0 0 .043 1.403c.063.365.15.678.258.84a.79.79 0 0 1 .091.068c.018.015.034.03.05.048l5.017.002c.195 0 .35-.385.444-.88.047-.248.07-.524.07-.805s-.024-.557-.07-.805c-.085-.448-.22-.807-.39-.87a8.37 8.37 0 0 1-2.549.434zm-2.928-4.874c.022-.006.044-.01.067-.016a.97.97 0 0 1 .539.048 6.45 6.45 0 0 0 2.318.413c.772-.006 1.552-.152 2.336-.42l.083-.028h.083c.16 0 .3.033.45.095a4.43 4.43 0 0 0 .066-.778h-.002c0-.416-.052-.825-.157-1.152-.084-.262-.188-.455-.306-.52l-.002-.001c-.843.276-1.692.426-2.546.433a7.46 7.46 0 0 1-2.668-.473 1.18 1.18 0 0 0-.09.173c-.095.207-.16.496-.198.82a5.32 5.32 0 0 0 .029 1.405zm0-3.4c.022-.006.044-.01.067-.016a.97.97 0 0 1 .539.048 6.45 6.45 0 0 0 2.318.413c.772-.006 1.552-.152 2.336-.42l.083-.028h.083c.16 0 .3.033.45.095a4.43 4.43 0 0 0 .066-.778h-.002c0-.416-.052-.825-.157-1.152-.084-.26-.188-.455-.306-.52l-.002-.001c-.843.276-1.692.426-2.546.433-.9.007-1.78-.144-2.668-.473a1.18 1.18 0 0 0-.09.173c-.095.207-.16.496-.198.82a5.33 5.33 0 0 0 .029 1.405zm0-3.4a.94.94 0 0 1 .067-.016.97.97 0 0 1 .539.048 6.45 6.45 0 0 0 2.318.413c.772-.006 1.552-.152 2.336-.42l.083-.028h.083a1.11 1.11 0 0 1 .45.095c.044-.243.066-.51.066-.778h-.002c0-.417-.052-.825-.157-1.152-.084-.26-.188-.455-.306-.52l-.002-.001c-.843.276-1.692.426-2.546.432a7.46 7.46 0 0 1-2.668-.473 1.15 1.15 0 0 0-.09.173c-.095.206-.16.495-.198.82a5.32 5.32 0 0 0 .029 1.405zm0-3.4a.82.82 0 0 1 .067-.016.97.97 0 0 1 .539.048 6.45 6.45 0 0 0 2.318.413c.772-.006 1.552-.152 2.336-.42l.083-.028h.083a1.11 1.11 0 0 1 .45.095 4.43 4.43 0 0 0 .066-.778h-.002c0-.416-.052-.825-.157-1.152-.084-.262-.188-.455-.306-.52l-.002-.001a8.36 8.36 0 0 1-2.546.433 7.46 7.46 0 0 1-2.668-.473c-.017.02-.05.083-.1.173-.095.206-.16.495-.198.82a5.33 5.33 0 0 0 .029 1.405zm0-3.4c.022-.006.044-.01.067-.016a.97.97 0 0 1 .539.048 6.45 6.45 0 0 0 2.318.413c.772-.006 1.552-.152 2.336-.42l.083-.028h.083c.16 0 .3.033.45.095a4.43 4.43 0 0 0 .066-.778h-.002c0-.416-.052-.825-.157-1.152-.084-.262-.188-.455-.306-.52l-.002-.001c-.843.276-1.692.426-2.546.433-.9.007-1.78-.144-2.668-.473a1.18 1.18 0 0 0-.09.173c-.095.207-.16.496-.198.82a5.32 5.32 0 0 0 .029 1.405z" fill="#83003f" fill-rule="nonzero"/></svg>