<?xml version="1.0" encoding="utf-8"?>
<!-- Generator: Adobe Illustrator 19.2.0, SVG Export Plug-In . SVG Version: 6.00 Build 0)  -->
<svg version="1.1" id="Layer_1" xmlns="http://www.w3.org/2000/svg" xmlns:xlink="http://www.w3.org/1999/xlink" x="0px" y="0px"
	 width="24px" height="24px" viewBox="0 0 24 24" style="enable-background:new 0 0 24 24;" xml:space="preserve">
<g>
	<path d="M11.786,13.386c0.077,0.045,0.164,0.066,0.25,0.066s0.173-0.021,0.25-0.066L23.311,7c0.156-0.091,0.252-0.259,0.249-0.44
		c-0.003-0.182-0.104-0.347-0.264-0.433L12.273,0.205c-0.148-0.079-0.325-0.079-0.474,0L0.777,6.127
		c-0.16,0.086-0.26,0.251-0.263,0.433C0.511,6.741,0.606,6.909,0.763,7L11.786,13.386z M12.037,1.213l9.998,5.372l-9.998,5.792
		L2.04,6.584L12.037,1.213z"/>
	<path d="M20.56,9.641c-0.237-0.138-0.545-0.059-0.684,0.182c-0.139,0.239-0.057,0.544,0.182,0.683l2.005,1.162l-10.026,5.807
		L2.011,11.668l2.004-1.162c0.239-0.139,0.321-0.444,0.182-0.683c-0.138-0.239-0.444-0.32-0.683-0.182l-2.751,1.594
		c-0.154,0.089-0.25,0.254-0.25,0.433s0.095,0.343,0.25,0.433l11.023,6.385c0.077,0.045,0.164,0.067,0.25,0.067
		s0.173-0.022,0.25-0.067l11.023-6.385c0.154-0.089,0.249-0.254,0.249-0.433s-0.095-0.343-0.249-0.433L20.56,9.641z"/>
	<path d="M20.56,14.903c-0.237-0.139-0.545-0.06-0.684,0.182c-0.139,0.239-0.057,0.545,0.182,0.684l2.005,1.161l-10.026,5.808
		L2.011,16.929l2.004-1.161c0.239-0.139,0.321-0.444,0.182-0.684c-0.138-0.239-0.444-0.32-0.683-0.182l-2.751,1.594
		c-0.154,0.09-0.25,0.254-0.25,0.433s0.095,0.343,0.25,0.433l11.023,6.386c0.077,0.045,0.164,0.067,0.25,0.067
		s0.173-0.022,0.25-0.067l11.023-6.386c0.154-0.09,0.249-0.254,0.249-0.433s-0.095-0.343-0.249-0.433L20.56,14.903z"/>
</g>
</svg>
