<?xml version="1.0" encoding="utf-8"?>
<!-- Generator: Adobe Illustrator 19.2.0, SVG Export Plug-In . SVG Version: 6.00 Build 0)  -->
<svg version="1.1" id="Layer_1" xmlns="http://www.w3.org/2000/svg" xmlns:xlink="http://www.w3.org/1999/xlink" x="0px" y="0px"
	 width="24px" height="24px" viewBox="0 0 24 24" style="enable-background:new 0 0 24 24;" xml:space="preserve">
<g>
	<path d="M23.538,1h-23c-0.276,0-0.5,0.224-0.5,0.5v21c0,0.276,0.224,0.5,0.5,0.5h23c0.276,0,0.5-0.224,0.5-0.5v-21
		C24.038,1.223,23.814,1,23.538,1z M23.038,2v2.001h-22V2H23.038z M1.039,22V5.001h22V22H1.039z"/>
	<path d="M3.51,10.999h17.001c0.276,0,0.5-0.224,0.5-0.5v-2c0-0.276-0.224-0.5-0.5-0.5H3.51c-0.276,0-0.5,0.224-0.5,0.5v2
		C3.01,10.776,3.233,10.999,3.51,10.999z M4.01,9h16.001v1H4.01V9z"/>
	<path d="M10.511,13.001H3.51c-0.276,0-0.5,0.224-0.5,0.5V19.5c0,0.276,0.224,0.5,0.5,0.5h7.001c0.276,0,0.5-0.224,0.5-0.5v-5.999
		C11.011,13.224,10.787,13.001,10.511,13.001z M10.011,19H4.01v-4.999h6.001V19z"/>
	<path d="M20.512,13.001h-7.001c-0.276,0-0.5,0.224-0.5,0.5V19.5c0,0.276,0.224,0.5,0.5,0.5h7.001c0.276,0,0.5-0.224,0.5-0.5v-5.999
		C21.012,13.224,20.788,13.001,20.512,13.001z M20.012,19h-6.001v-4.999h6.001V19z"/>
</g>
</svg>
