<?xml version="1.0" encoding="utf-8"?>
<!-- Generator: Adobe Illustrator 19.2.0, SVG Export Plug-In . SVG Version: 6.00 Build 0)  -->
<svg version="1.1" id="Layer_1" xmlns="http://www.w3.org/2000/svg" xmlns:xlink="http://www.w3.org/1999/xlink" x="0px" y="0px"
	 width="24px" height="24px" viewBox="0 0 24 24" style="enable-background:new 0 0 24 24;" xml:space="preserve">
<g>
	<path d="M23.528,1h-23c-0.276,0-0.5,0.224-0.5,0.5v21c0,0.276,0.224,0.5,0.5,0.5h23c0.276,0,0.5-0.224,0.5-0.5v-21
		C24.028,1.223,23.805,1,23.528,1z M23.028,2v2.001h-22V2H23.028z M1.029,22V5.001h22V22H1.029z"/>
	<path d="M6.5,8h-3C3.224,8,3,8.223,3,8.5v11C3,19.776,3.224,20,3.5,20h3C6.776,20,7,19.776,7,19.5v-11C7,8.223,6.776,8,6.5,8z
		 M6,19H4V9h2V19z"/>
	<path d="M20.5,8h-11C9.224,8,9,8.223,9,8.5v11C9,19.776,9.224,20,9.5,20h11c0.276,0,0.5-0.224,0.5-0.5v-11
		C21,8.223,20.776,8,20.5,8z M20,19H10V9h10V19z"/>
</g>
</svg>
