<?xml version="1.0" encoding="utf-8"?>
<!-- Generator: Adobe Illustrator 19.2.0, SVG Export Plug-In . SVG Version: 6.00 Build 0)  -->
<svg version="1.1" id="Layer_1" xmlns="http://www.w3.org/2000/svg" xmlns:xlink="http://www.w3.org/1999/xlink" x="0px" y="0px"
	 width="24px" height="24px" viewBox="0 0 24 24" style="enable-background:new 0 0 24 24;" xml:space="preserve">
<g>
	<path d="M23.533,1h-23c-0.276,0-0.5,0.224-0.5,0.5v21c0,0.276,0.224,0.5,0.5,0.5h23c0.276,0,0.5-0.224,0.5-0.5v-21
		C24.033,1.223,23.81,1,23.533,1z M23.033,2v2.001h-22V2H23.033z M1.034,22V5.001h22V22H1.034z"/>
	<path d="M5.504,8h-2c-0.276,0-0.5,0.224-0.5,0.5v11c0,0.276,0.224,0.5,0.5,0.5h2c0.276,0,0.5-0.224,0.5-0.5v-11
		C6.004,8.223,5.781,8,5.504,8z M5.004,19h-1V9h1V19z"/>
	<path d="M20.506,8h-2c-0.276,0-0.5,0.224-0.5,0.5v11c0,0.276,0.224,0.5,0.5,0.5h2c0.276,0,0.5-0.224,0.5-0.5v-11
		C21.006,8.223,20.782,8,20.506,8z M20.006,19h-1V9h1V19z"/>
	<path d="M15.506,8H8.505c-0.276,0-0.5,0.224-0.5,0.5v11c0,0.276,0.224,0.5,0.5,0.5h7.001c0.276,0,0.5-0.224,0.5-0.5v-11
		C16.006,8.223,15.782,8,15.506,8z M15.006,19H9.005V9h6.001V19z"/>
</g>
</svg>
