<?xml version="1.0" encoding="utf-8"?>
<!-- Generator: Adobe Illustrator 19.2.0, SVG Export Plug-In . SVG Version: 6.00 Build 0)  -->
<svg version="1.1" id="Layer_1" xmlns="http://www.w3.org/2000/svg" xmlns:xlink="http://www.w3.org/1999/xlink" x="0px" y="0px"
	 width="24px" height="24px" viewBox="0 0 24 24" style="enable-background:new 0 0 24 24;" xml:space="preserve">
<g>
	<path d="M23.543,1h-23c-0.276,0-0.5,0.224-0.5,0.5v21c0,0.276,0.224,0.5,0.5,0.5h23c0.276,0,0.5-0.224,0.5-0.5v-21
		C24.043,1.223,23.819,1,23.543,1z M23.043,2v2.001h-22V2H23.043z M1.043,22V5.001h22V22H1.043z"/>
	<path d="M10.516,15.001H3.514c-0.276,0-0.5,0.224-0.5,0.5V19.5c0,0.276,0.224,0.5,0.5,0.5h7.001c0.276,0,0.5-0.224,0.5-0.5v-3.999
		C11.016,15.224,10.792,15.001,10.516,15.001z M10.016,19H4.014v-2.999h6.001V19z"/>
	<path d="M20.517,15.001h-7.001c-0.276,0-0.5,0.224-0.5,0.5V19.5c0,0.276,0.224,0.5,0.5,0.5h7.001c0.276,0,0.5-0.224,0.5-0.5v-3.999
		C21.017,15.224,20.793,15.001,20.517,15.001z M20.017,19h-6.001v-2.999h6.001V19z"/>
	<path d="M10.516,8H3.514c-0.276,0-0.5,0.224-0.5,0.5v4c0,0.276,0.224,0.5,0.5,0.5h7.001c0.276,0,0.5-0.224,0.5-0.5v-4
		C11.016,8.223,10.792,8,10.516,8z M10.016,11.999H4.014V9h6.001V11.999z"/>
	<path d="M20.517,8h-7.001c-0.276,0-0.5,0.224-0.5,0.5v4c0,0.276,0.224,0.5,0.5,0.5h7.001c0.276,0,0.5-0.224,0.5-0.5v-4
		C21.017,8.223,20.793,8,20.517,8z M20.017,11.999h-6.001V9h6.001V11.999z"/>
</g>
</svg>
