<?xml version="1.0" encoding="utf-8"?>
<!-- Generator: Adobe Illustrator 19.2.0, SVG Export Plug-In . SVG Version: 6.00 Build 0)  -->
<svg version="1.1" id="Layer_1" xmlns="http://www.w3.org/2000/svg" xmlns:xlink="http://www.w3.org/1999/xlink" x="0px" y="0px"
	 width="24px" height="24px" viewBox="0 0 24 24" style="enable-background:new 0 0 24 24;" xml:space="preserve">
<g>
	<path d="M21.144,0H2.875c-1.58,0-2.865,1.285-2.865,2.865v18.27c0,1.58,1.285,2.865,2.865,2.865h18.269
		c1.58,0,2.865-1.285,2.865-2.865V2.865C24.009,1.285,22.724,0,21.144,0z M23.009,21.135c0,1.028-0.837,1.865-1.865,1.865H2.875
		c-1.028,0-1.865-0.837-1.865-1.865V2.865C1.009,1.837,1.846,1,2.875,1h18.269c1.028,0,1.865,0.837,1.865,1.865V21.135z"/>
	<path d="M8.981,13H5.02C4.458,13,4,13.457,4,14.019v3.962C4,18.543,4.458,19,5.02,19h3.961C9.543,19,10,18.543,10,17.981v-3.962
		C10,13.457,9.543,13,8.981,13z M8.981,18L5,17.981L5.02,14h3.961C8.992,14,9,14.009,9,14.019L8.981,18z"/>
	<path d="M19.438,14h-6.896c-0.276,0-0.5,0.224-0.5,0.5s0.224,0.5,0.5,0.5h6.896c0.276,0,0.5-0.224,0.5-0.5S19.714,14,19.438,14z"/>
	<path d="M19.438,16h-6.896c-0.276,0-0.5,0.224-0.5,0.5s0.224,0.5,0.5,0.5h6.896c0.276,0,0.5-0.224,0.5-0.5S19.714,16,19.438,16z"/>
	<path d="M8.98,3.999H5.02C4.458,3.999,4,4.457,4,5.019V8.98c0,0.562,0.458,1.019,1.02,1.019h3.961C9.543,9.999,10,9.542,10,8.98
		V5.019C10,4.457,9.542,3.999,8.98,3.999z M8.981,8.999L5,8.98l0.02-3.981H8.98C8.991,4.999,9,5.008,9,5.019L8.981,8.999z"/>
	<path d="M19.438,4.999h-6.896c-0.276,0-0.5,0.224-0.5,0.5s0.224,0.5,0.5,0.5h6.896c0.276,0,0.5-0.224,0.5-0.5
		S19.714,4.999,19.438,4.999z"/>
	<path d="M19.438,6.999h-6.896c-0.276,0-0.5,0.224-0.5,0.5s0.224,0.5,0.5,0.5h6.896c0.276,0,0.5-0.224,0.5-0.5
		S19.714,6.999,19.438,6.999z"/>
</g>
</svg>
