<?xml version="1.0" encoding="UTF-8"?>
<svg width="35px" height="35px" viewBox="0 0 35 35" version="1.1" xmlns="http://www.w3.org/2000/svg" xmlns:xlink="http://www.w3.org/1999/xlink">
    <title>linkedin</title>
    <g id="linkedin" stroke="none" stroke-width="1" fill="none" fill-rule="evenodd">
        <path d="M9.40039131,7 C10.7030449,7 11.8,8.09694955 11.8,9.39959655 C11.8,10.7707835 10.6344658,11.8334825 9.40039131,11.7991931 C8.13202728,11.8334825 7.00078263,10.7707835 7.00078263,9.39959655 C6.96649307,8.06266017 8.063487,7 9.40039131,7" id="Path" fill="#FFFFFF" fill-rule="nonzero"></path>
        <path d="M10.000034,27.4 L7.6,27.4 C7.2700085,27.4 7,27.0676843 7,26.6615438 L7,13.7384562 C7,13.3323157 7.24,13 7.5699915,13 L10,13 C10.3299915,13 10.6,13.3323157 10.6,13.7384562 L10.6,26.6984771 C10.6,27.0676843 10.3300255,27.4 10.000034,27.4" id="Path" fill="#FFFFFF" fill-rule="nonzero"></path>
        <path d="M27.3653842,17.751987 C27.3653842,15.0879967 25.459867,13 22.8961003,13 L22.1685406,13 C20.7827313,13 19.4315379,13.6839821 18.7039782,14.8 C18.4614714,15.051987 18.3575063,15.1600163 18.3575063,15.1600163 L18.3575063,13.7200326 C18.3575063,13.5760343 18.1496153,13.3600163 18.0110343,13.3600163 L14.5464719,13.3600163 C14.407891,13.3600163 14.2,13.5040147 14.2,13.6840228 L14.2,27.1120033 C14.2,27.2560016 14.407891,27.4 14.5464719,27.4 L18.357467,27.4 C18.496048,27.4 18.703939,27.2560016 18.703939,27.1120033 L18.703939,19.335969 C18.703939,18.0039739 19.6740054,16.887956 20.9558888,16.851987 C21.6141384,16.851987 22.2031172,17.1039739 22.653515,17.5719788 C23.0692578,18.0039739 23.2424937,18.6159772 23.2424937,19.2999592 L23.2424937,27.0399429 C23.2424937,27.1839413 23.4503847,27.4 23.5889657,27.4 L27.0535281,27.4 C27.192109,27.4 27.4,27.1839413 27.4,27.0399429 L27.4,17.751987 L27.3653842,17.751987 Z" id="Path" fill="#FFFFFF" fill-rule="nonzero"></path>
    </g>
</svg>