<?xml version="1.0" encoding="utf-8"?>
<!-- Generator: Adobe Illustrator 19.2.0, SVG Export Plug-In . SVG Version: 6.00 Build 0)  -->
<svg version="1.1" id="Layer_1" xmlns="http://www.w3.org/2000/svg" xmlns:xlink="http://www.w3.org/1999/xlink" x="0px" y="0px"
	 width="24px" height="24px" viewBox="0 0 24 24" style="enable-background:new 0 0 24 24;" xml:space="preserve">
<g>
	<path d="M23.802,10.664c0.025-0.06,0.039-0.126,0.039-0.192s-0.014-0.132-0.039-0.192c-0.025-0.061-0.062-0.116-0.108-0.162
		l-3.315-3.314c-0.195-0.195-0.512-0.195-0.707,0s-0.195,0.512,0,0.707l2.462,2.461H11.489c-0.276,0-0.5,0.224-0.5,0.5
		s0.224,0.5,0.5,0.5h10.645l-2.462,2.462c-0.195,0.195-0.195,0.512,0,0.707c0.098,0.098,0.226,0.146,0.354,0.146
		s0.256-0.049,0.354-0.146l3.315-3.315C23.74,10.78,23.777,10.725,23.802,10.664z"/>
	<path d="M15.396,12.981c-0.276,0-0.5,0.224-0.5,0.5v4.553H8.083V4.782c0-0.175-0.091-0.337-0.241-0.428l-5.572-3.38h12.625v6.487
		c0,0.276,0.224,0.5,0.5,0.5s0.5-0.224,0.5-0.5V0.474c0-0.276-0.224-0.5-0.5-0.5H0.482c-0.082,0-0.156,0.024-0.224,0.059
		C0.251,0.037,0.243,0.035,0.237,0.039C0.225,0.046,0.22,0.059,0.208,0.067C0.157,0.101,0.115,0.143,0.079,0.193
		C0.067,0.211,0.054,0.227,0.044,0.246C0.007,0.316-0.018,0.391-0.018,0.474v18.305c0,0.175,0.091,0.337,0.241,0.428l7.102,4.308
		c0.08,0.048,0.169,0.072,0.259,0.072c0.084,0,0.169-0.021,0.245-0.064c0.158-0.089,0.255-0.255,0.255-0.436v-4.053h7.312
		c0.276,0,0.5-0.224,0.5-0.5v-5.053C15.896,13.205,15.672,12.981,15.396,12.981z M7.083,22.199l-6.102-3.701V1.363l6.102,3.701
		V22.199z"/>
</g>
</svg>
