<?xml version="1.0" encoding="utf-8"?>
<!-- Generator: Adobe Illustrator 19.2.0, SVG Export Plug-In . SVG Version: 6.00 Build 0)  -->
<svg version="1.1" id="Layer_1" xmlns="http://www.w3.org/2000/svg" xmlns:xlink="http://www.w3.org/1999/xlink" x="0px" y="0px"
	 width="24px" height="24px" viewBox="0 0 24 24" style="enable-background:new 0 0 24 24;" xml:space="preserve">
<g>
	<path d="M8.5,18h-6C2.224,18,2,18.223,2,18.5S2.224,19,2.5,19h6C8.776,19,9,18.776,9,18.5S8.776,18,8.5,18z"/>
	<path d="M23.5,4C23.776,4,24,3.776,24,3.5v-3C24,0.223,23.776,0,23.5,0h-9C14.224,0,14,0.223,14,0.5v3V6H6.035H5.14
		C2.354,6,0,8.351,0,11.135V20.5C0,20.776,0.224,21,0.5,21h10H12v2.401c0,0.276,0.224,0.5,0.5,0.5s0.5-0.224,0.5-0.5V21h10.5
		c0.276,0,0.5-0.224,0.5-0.5v-9.223C24,8.416,21.568,6,18.69,6H15V4H23.5z M1,11.135C1,8.893,2.896,7,5.14,7h0.895
		C8.221,7,10,8.855,10,11.135V20H1V11.135z M18.69,7C21.026,7,23,8.958,23,11.277V20H11v-8.865c0-1.701-0.813-3.2-2.048-4.135H14
		v3.825c-0.686,0.232-1.184,0.875-1.184,1.638c0,0.957,0.778,1.735,1.735,1.735s1.735-0.778,1.735-1.735
		c0-0.801-0.548-1.471-1.287-1.67V7H18.69z M14.552,11.727c0.405,0,0.735,0.33,0.735,0.736c0,0.405-0.33,0.735-0.735,0.735
		s-0.735-0.33-0.735-0.735C13.816,12.057,14.146,11.727,14.552,11.727z M15,1h8v2h-8V1z"/>
</g>
</svg>
