<?xml version="1.0" encoding="UTF-8"?>
<svg width="46px" height="42px" viewBox="0 0 46 42" version="1.1" xmlns="http://www.w3.org/2000/svg" xmlns:xlink="http://www.w3.org/1999/xlink">
    <!-- Generator: Sketch 59.1 (86144) - https://sketch.com -->
    <title>noun_Alert_982233</title>
    <desc>Created with Sketch.</desc>
    <g id="Components" stroke="none" stroke-width="1" fill="none" fill-rule="evenodd">
        <g id="vcom_components" transform="translate(-138.000000, -888.000000)" fill="#000000" fill-rule="nonzero">
            <g id="alert_site-level_danger" transform="translate(-1.000000, 864.000000)">
                <g id="noun_Alert_982233" transform="translate(139.000000, 24.000000)">
                    <path d="M1.01956522,38.357337 C2.34918478,40.6570652 4.8923913,41.9809783 7.9986413,41.9904891 L37.657337,41.9904891 L37.6592391,41.9904891 C40.7692935,41.9809783 43.3125,40.6608696 44.6383152,38.3649457 C46.0173913,35.973913 45.8671196,32.9741848 44.2255435,30.1342391 L29.2782609,4.35597826 C27.6557065,1.55217391 25.363587,0.00760869565 22.826087,0.00760869565 C20.288587,0.00760869565 17.9964674,1.55027174 16.3720109,4.35217391 L1.42092391,30.1057065 C-0.214945652,32.9513587 -0.363315217,35.9605978 1.01956522,38.357337 Z M2.73722826,30.8665761 L17.6883152,5.11494565 C19.0293478,2.80380435 20.8535326,1.52934783 22.826087,1.52934783 C24.7967391,1.52934783 26.6228261,2.80380435 27.9638587,5.11875 L42.907337,30.8970109 C44.2692935,33.2538043 44.417663,35.6980978 43.3182065,37.6040761 C42.2720109,39.41875 40.20625,40.4630435 37.6535326,40.46875 L8.00054348,40.46875 C5.45353261,40.4630435 3.38967391,39.4149457 2.33777174,37.5964674 C1.23451087,35.6809783 1.38097826,33.2271739 2.73722826,30.8665761 Z" id="Shape"></path>
                    <path d="M21.8464674,28.5116848 L23.8038043,28.5116848 C25.1467391,28.5116848 26.2404891,27.4179348 26.2404891,26.0730978 L26.2404891,11.7307065 C26.2404891,10.3858696 25.1467391,9.29211957 23.8038043,9.29211957 L21.8464674,9.29211957 C20.5035326,9.29211957 19.4097826,10.3858696 19.4097826,11.7307065 L19.4097826,26.0711957 C19.4097826,27.4179348 20.5035326,28.5116848 21.8464674,28.5116848 Z M20.9334239,11.7307065 C20.9334239,11.2247283 21.3423913,10.8157609 21.8464674,10.8157609 L23.8038043,10.8157609 C24.3097826,10.8157609 24.7168478,11.2266304 24.7168478,11.7307065 L24.7168478,26.0711957 C24.7168478,26.5771739 24.3078804,26.9861413 23.8038043,26.9861413 L21.8464674,26.9861413 C21.3404891,26.9861413 20.9334239,26.5752717 20.9334239,26.0711957 L20.9334239,11.7307065 Z" id="Shape"></path>
                    <path d="M21.8464674,36.0404891 L23.8038043,36.0404891 C25.1467391,36.0404891 26.2404891,34.9467391 26.2404891,33.6019022 L26.2404891,32.6774457 C26.2404891,31.3326087 25.1467391,30.2388587 23.8038043,30.2388587 L21.8464674,30.2388587 C20.5035326,30.2388587 19.4097826,31.3326087 19.4097826,32.6774457 L19.4097826,33.6019022 C19.4097826,34.9467391 20.5035326,36.0404891 21.8464674,36.0404891 Z M20.9334239,32.6755435 C20.9334239,32.1695652 21.3423913,31.7605978 21.8464674,31.7605978 L23.8038043,31.7605978 C24.3097826,31.7605978 24.7168478,32.1714674 24.7168478,32.6755435 L24.7168478,33.6 C24.7168478,34.1059783 24.3078804,34.5149457 23.8038043,34.5149457 L21.8464674,34.5149457 C21.3404891,34.5149457 20.9334239,34.1040761 20.9334239,33.6 L20.9334239,32.6755435 Z" id="Shape"></path>
                </g>
            </g>
        </g>
    </g>
</svg>