<svg xmlns="http://www.w3.org/2000/svg" width="67" height="68"><path d="M3.754 0h28.42c1.03 0 1.968.42 2.646 1.1s1.1 1.616 1.1 2.646v9.172c0 1.03-.42 1.968-1.1 2.646s-1.615 1.1-2.646 1.1H31.4v2.584h.194a4.38 4.38 0 0 1 4.392 4.392v38.495a4.38 4.38 0 0 1-4.392 4.392H4.594c-1.21 0-2.307-.494-3.102-1.29a4.38 4.38 0 0 1-1.29-3.103V23.64a4.38 4.38 0 0 1 1.29-3.103 4.38 4.38 0 0 1 3.038-1.289v-2.584h-.775c-1.03 0-1.968-.42-2.646-1.1S.01 13.95.01 12.918V3.746c0-1.03.42-1.968 1.1-2.646S2.724 0 3.754 0zM40.05 54.057v5.43h.003c0 1.83.75 3.492 1.955 4.698s2.87 1.955 4.698 1.955 3.492-.75 4.698-1.955 1.958-2.87 1.958-4.698h-.003v-5.462l-13.31.032zm-1.544 5.43l-.003-12.4c0-2.257.923-4.308 2.41-5.794s3.537-2.41 5.794-2.41 4.308.923 5.794 2.41 2.406 3.535 2.406 5.794h.003l-.003 12.4c0 2.26-.922 4.31-2.406 5.794s-3.537 2.41-5.794 2.41-4.308-.923-5.794-2.41-2.41-3.537-2.41-5.794h.003zm1.544-6.974l13.31-.032v-5.395h.003c0-1.827-.75-3.5-1.958-4.698a6.63 6.63 0 0 0-9.396 0c-1.206 1.206-1.955 2.87-1.955 4.698h-.003v5.427zm-9.427-33.265v-2.584H5.305v2.584h25.32zm.97 1.55H4.594c-.78 0-1.49.32-2.006.836s-.836 1.226-.836 2.006v6.847h12.595c1.067 0 2.036.436 2.738 1.138s1.138 1.67 1.138 2.738v19.635c0 1.067-.436 2.036-1.138 2.738s-1.67 1.138-2.738 1.138H1.752v4.263c0 .78.32 1.49.836 2.007s1.226.835 2.006.835h26.998c.78 0 1.49-.32 2.006-.835s.836-1.226.836-2.007V23.64c0-.78-.32-1.49-.836-2.006s-1.226-.836-2.006-.836zm-29.84 11.24v7.04H12.54c.214 0 .388.174.388.388s-.174.388-.388.388H1.752v3.94H12.54c.214 0 .388.174.388.388s-.174.388-.388.388H1.752v3.94h3.746c.214 0 .388.173.388.388s-.174.388-.388.388H1.752v7.04h12.595c.64 0 1.22-.262 1.642-.684s.684-1.003.684-1.642V34.362c0-.638-.262-1.22-.684-1.642a2.32 2.32 0 0 0-1.642-.684H1.752zm4.864-21.444c0 .214-.174.388-.388.388s-.388-.174-.388-.388V6.588c0-.214.174-.388.388-.388s.388.174.388.388v4.005zm23.47 0c0 .214-.174.388-.388.388s-.388-.174-.388-.388V6.588c0-.214.173-.388.388-.388s.388.174.388.388v4.005zm-5.868 0c0 .214-.174.388-.388.388s-.388-.174-.388-.388V6.588c0-.214.173-.388.388-.388s.388.174.388.388v4.005zm-5.868 0c0 .214-.173.388-.388.388s-.388-.174-.388-.388V6.588c0-.214.174-.388.388-.388s.388.174.388.388v4.005zm-5.868 0c0 .214-.173.388-.388.388s-.388-.174-.388-.388V6.588c0-.214.174-.388.388-.388s.388.174.388.388v4.005zM49.91 31.925l3.84 3.84a6.63 6.63 0 0 0 9.408 0c1.293-1.293 1.94-3 1.94-4.704a6.63 6.63 0 0 0-1.939-4.704l-3.862-3.862-9.386 9.43zm2.743 4.935l-8.77-8.77c-1.596-1.596-2.394-3.698-2.394-5.8s.798-4.205 2.394-5.8 3.698-2.393 5.8-2.393 4.205.798 5.8 2.393l8.77 8.77c1.596 1.596 2.393 3.698 2.393 5.8s-.798 4.205-2.393 5.8a8.18 8.18 0 0 1-5.8 2.394c-2.102 0-4.205-.798-5.8-2.394zm-3.836-6.028l9.386-9.43-3.814-3.814c-1.293-1.293-2.998-1.94-4.704-1.94s-3.41.647-4.704 1.94-1.94 3-1.94 4.704.646 3.41 1.94 4.704l3.837 3.837zM32.174 1.55H3.754a2.19 2.19 0 0 0-1.55.646 2.19 2.19 0 0 0-.646 1.55v9.172a2.19 2.19 0 0 0 .646 1.55 2.19 2.19 0 0 0 1.55.646h28.42a2.19 2.19 0 0 0 2.196-2.196V3.746a2.19 2.19 0 0 0-.646-1.55 2.19 2.19 0 0 0-1.55-.646z" fill="#83003f" fill-rule="nonzero"/></svg>