<?xml version="1.0" encoding="utf-8"?>
<!-- Generator: Adobe Illustrator 19.2.0, SVG Export Plug-In . SVG Version: 6.00 Build 0)  -->
<svg version="1.1" id="Layer_1" xmlns="http://www.w3.org/2000/svg" xmlns:xlink="http://www.w3.org/1999/xlink" x="0px" y="0px"
	 width="24px" height="24px" viewBox="0 0 24 24" style="enable-background:new 0 0 24 24;" xml:space="preserve">
<g>
	<path d="M1.518,5.997h20.958c0.276,0,0.5-0.224,0.5-0.5s-0.224-0.5-0.5-0.5H1.518c-0.276,0-0.5,0.224-0.5,0.5
		S1.242,5.997,1.518,5.997z"/>
	<path d="M22.476,11.998H1.518c-0.276,0-0.5,0.224-0.5,0.5s0.224,0.5,0.5,0.5h20.958c0.276,0,0.5-0.224,0.5-0.5
		S22.752,11.998,22.476,11.998z"/>
	<path d="M22.476,19H1.518c-0.276,0-0.5,0.224-0.5,0.5s0.224,0.5,0.5,0.5h20.958c0.276,0,0.5-0.224,0.5-0.5S22.752,19,22.476,19z"/>
</g>
</svg>
