<?xml version="1.0" encoding="utf-8"?>
<!-- Generator: Adobe Illustrator 19.2.0, SVG Export Plug-In . SVG Version: 6.00 Build 0)  -->
<svg version="1.1" id="Layer_1" xmlns="http://www.w3.org/2000/svg" xmlns:xlink="http://www.w3.org/1999/xlink" x="0px" y="0px"
	 width="24px" height="24px" viewBox="0 0 24 24" style="enable-background:new 0 0 24 24;" xml:space="preserve">
<g>
	<path d="M18.587,0.133c-1.219,0-2.357,0.606-3.021,1.533c-0.663-0.927-1.802-1.533-3.02-1.533c-1.622,0-3.026,1.08-3.414,2.625
		C8.877,3.766,9.093,4.82,9.743,5.674l5.38,6.217c0.094,0.109,0.23,0.172,0.375,0.173c0.001,0,0.002,0,0.003,0
		c0.143,0,0.279-0.061,0.374-0.168l5.406-6.092c0.532-0.619,0.825-1.407,0.825-2.219C22.106,1.681,20.527,0.133,18.587,0.133z
		 M20.528,5.146l-5.022,5.659l-4.987-5.761c-0.445-0.585-0.598-1.33-0.418-2.042c0.276-1.1,1.282-1.869,2.444-1.869
		c1.156,0,2.248,0.772,2.54,1.796c0.061,0.214,0.257,0.363,0.48,0.363s0.419-0.148,0.48-0.363c0.293-1.024,1.385-1.796,2.541-1.796
		c1.39,0,2.52,1.1,2.52,2.452C21.106,4.157,20.899,4.714,20.528,5.146z"/>
	<path d="M16.035,18.998h-9c-0.276,0-0.5,0.224-0.5,0.5s0.224,0.5,0.5,0.5h9c0.276,0,0.5-0.224,0.5-0.5S16.312,18.998,16.035,18.998
		z"/>
	<path d="M16.035,15.998h-9c-0.276,0-0.5,0.224-0.5,0.5s0.224,0.5,0.5,0.5h9c0.276,0,0.5-0.224,0.5-0.5S16.312,15.998,16.035,15.998
		z"/>
	<path d="M11.036,12.998h-4c-0.276,0-0.5,0.224-0.5,0.5s0.224,0.5,0.5,0.5h4c0.276,0,0.5-0.224,0.5-0.5S11.312,12.998,11.036,12.998
		z"/>
	<path d="M19.471,11.018c-0.276,0-0.5,0.224-0.5,0.5V22.79c0,0.108-0.091,0.196-0.203,0.196H4.165c-0.112,0-0.203-0.088-0.203-0.196
		V4.167c0-0.108,0.091-0.196,0.203-0.196h3.409c0.276,0,0.5-0.224,0.5-0.5s-0.224-0.5-0.5-0.5H4.165
		c-0.663,0-1.203,0.537-1.203,1.196V22.79c0,0.659,0.54,1.196,1.203,1.196h14.603c0.663,0,1.203-0.537,1.203-1.196V11.518
		C19.971,11.241,19.747,11.018,19.471,11.018z"/>
</g>
</svg>
