<?xml version="1.0" encoding="UTF-8"?>
<svg width="39px" height="45px" viewBox="0 0 39 45" version="1.1" xmlns="http://www.w3.org/2000/svg" xmlns:xlink="http://www.w3.org/1999/xlink">
    <!-- Generator: Sketch 59.1 (86144) - https://sketch.com -->
    <title>noun_notification_1128376</title>
    <desc>Created with Sketch.</desc>
    <g id="Components" stroke="none" stroke-width="1" fill="none" fill-rule="evenodd">
        <g id="vcom_components" transform="translate(-141.000000, -988.000000)" fill="#FFFFFF" fill-rule="nonzero">
            <g id="alert_site-level_danger-copy" transform="translate(-1.000000, 964.000000)">
                <g id="noun_notification_1128376" transform="translate(142.000000, 24.000000)">
                    <path d="M34.7727273,33.4090909 L34.7727273,22.5 C34.7727273,15.2365909 29.8084091,9.1125 23.0945455,7.33840909 C23.5731818,6.59522727 23.8636364,5.72045455 23.8636364,4.77272727 C23.8636364,2.14090909 21.7220455,0 19.0909091,0 C16.4590909,0 14.3181818,2.14090909 14.3181818,4.77272727 C14.3181818,5.71909091 14.6004545,6.59863636 15.0784091,7.34045455 C8.36931818,9.11795455 3.40909091,15.2393182 3.40909091,22.5 L3.40909091,33.4090909 C1.52931818,33.4090909 0,34.9384091 0,36.8181818 C0,38.6979545 1.52931818,40.2272727 3.40909091,40.2272727 L13.1072727,40.2272727 C13.7290909,42.9565909 16.1761364,45 19.0909091,45 C22.0056818,45 24.4520455,42.9565909 25.0738636,40.2272727 L34.7727273,40.2272727 C36.6525,40.2272727 38.1818182,38.6979545 38.1818182,36.8181818 C38.1818182,34.9384091 36.6525,33.4090909 34.7727273,33.4090909 Z M34.7727273,38.1818182 L3.40909091,38.1818182 C2.65704545,38.1818182 2.04545455,37.5709091 2.04545455,36.8181818 C2.04545455,36.0654545 2.65704545,35.4545455 3.40909091,35.4545455 L34.7727273,35.4545455 C35.5254545,35.4545455 36.1363636,36.0654545 36.1363636,36.8181818 C36.1363636,37.5709091 35.5254545,38.1818182 34.7727273,38.1818182 Z M19.0909091,42.9545455 C17.0679545,42.9545455 15.3879545,41.4770455 15.0613636,39.5454545 L23.1204545,39.5454545 C22.7945455,41.4770455 21.1138636,42.9545455 19.0909091,42.9545455 Z M16.3636364,4.77272727 C16.3636364,3.26863636 17.5868182,2.04545455 19.0909091,2.04545455 C20.595,2.04545455 21.8181818,3.26863636 21.8181818,4.77272727 C21.8181818,5.64204545 21.4015909,6.40909091 20.7661364,6.90886364 C19.6315909,6.78818182 18.5509091,6.78818182 17.4156818,6.90886364 C16.7802273,6.40909091 16.3636364,5.64204545 16.3636364,4.77272727 Z M19.0909091,8.86363636 C26.6093182,8.86363636 32.7272727,14.9809091 32.7272727,22.5 L32.7272727,34.0909091 L5.45454545,34.0909091 L5.45454545,22.5 C5.45454545,14.9809091 11.5718182,8.86363636 19.0909091,8.86363636 Z M7.74818182,20.1129545 C7.81977273,19.7713636 7.90772727,19.4290909 8.01,19.0963636 C8.27659091,18.2345455 9.5775,18.6340909 9.31363636,19.4972727 C9.22363636,19.7904545 9.14659091,20.0890909 9.08318182,20.3925 C8.89704545,21.2802273 7.56272727,21.0006818 7.74818182,20.1129545 Z M8.98431818,16.8252273 C10.6254545,13.9077273 13.4393182,11.8418182 16.7038636,11.1572727 C17.5854545,10.9725 17.8697727,12.3047727 16.9840909,12.4915909 C14.1047727,13.095 11.6222727,14.9181818 10.1734091,17.4934091 C9.73363636,18.2713636 8.53704545,17.6222727 8.98431818,16.8252273 Z" id="Shape"></path>
                </g>
            </g>
        </g>
    </g>
</svg>