<?xml version="1.0" encoding="utf-8"?>
<!-- Generator: Adobe Illustrator 19.2.0, SVG Export Plug-In . SVG Version: 6.00 Build 0)  -->
<svg version="1.1" id="Layer_1" xmlns="http://www.w3.org/2000/svg" xmlns:xlink="http://www.w3.org/1999/xlink" x="0px" y="0px"
	 width="24px" height="24px" viewBox="0 0 24 24" style="enable-background:new 0 0 24 24;" xml:space="preserve">
<g>
	<path d="M22.761,9.868c-0.452-0.788-1.242-1.171-2.048-1.036l0.984-0.824c0.859-0.622,1.048-1.942,0.411-2.883
		c-0.302-0.445-0.755-0.74-1.276-0.832c-0.094-0.017-0.189-0.019-0.283-0.021c0.74-0.671,0.861-1.904,0.237-2.783
		c-0.311-0.438-0.77-0.724-1.293-0.804c-0.514-0.079-1.032,0.051-1.472,0.385l-0.267,0.223C17.378,0.537,16.601,0,15.72,0H8.213
		C7.014,0,6,1.048,6,2.288v3.333C5.64,4.602,5.153,3.73,4.498,3.305C3.985,2.973,3.399,2.917,2.8,3.148
		c-1.146,0.441-1.01,2.235-0.82,4.718c0.169,2.226,0.381,4.997-0.413,6.971c-0.761,1.895-0.621,4.118,0.367,5.804
		c0.717,1.224,2.218,2.767,5.293,3.164c0.062,0.008,0.13,0.012,0.203,0.012c1.722,0,5.984-2.223,7.09-2.816h1.199
		c1.185,0,2.183-0.95,2.265-2.104c1.609-0.97,2.996-2.069,3.047-2.11c0.716-0.539,1.507-1.302,1.26-2.428
		c-0.111-0.507-0.413-0.938-0.852-1.214c-0.026-0.017-0.054-0.033-0.08-0.048l0.677-0.45C22.972,11.935,23.256,10.883,22.761,9.868z
		 M17,17.001H7V4h10V17.001z M21.28,5.686c0.324,0.479,0.242,1.214-0.197,1.533L18,9.799V6.948l1.958-1.507
		c0.205-0.148,0.454-0.207,0.7-0.164C20.911,5.322,21.132,5.467,21.28,5.686z M18.644,1.851c0.202-0.154,0.452-0.218,0.698-0.179
		c0.253,0.039,0.476,0.179,0.629,0.394c0.334,0.471,0.268,1.208-0.162,1.534L18,5.159V2.39L18.644,1.851z M8.213,1h7.506
		C16.39,1,17,1.614,17,2.288V3H7V2.288C7,1.59,7.556,1,8.213,1z M7.355,22.812c-2.115-0.273-3.692-1.199-4.558-2.678
		c-0.835-1.424-0.951-3.312-0.302-4.925c0.88-2.191,0.659-5.09,0.482-7.419c-0.114-1.492-0.27-3.535,0.182-3.709
		c0.304-0.117,0.547-0.098,0.794,0.062C5.209,4.958,5.875,8.966,6,11.308v7.44C6,19.99,6.993,21,8.213,21h4.113
		C10.36,21.964,8.107,22.922,7.355,22.812z M15.72,20H8.213C7.544,20,7,19.438,7,18.748v-0.747h10v0.747
		C17,19.415,16.401,20,15.72,20z M20.419,15.996c-0.013,0.01-1.094,0.866-2.419,1.714v-2.382l2.203-1.464
		c0.244-0.044,0.498-0.004,0.704,0.126c0.21,0.132,0.354,0.339,0.408,0.583C21.414,15.029,21.158,15.439,20.419,15.996z
		 M21.457,11.831l-1.703,1.131L18,14.128v-2.462l2.601-1.774c0.471-0.244,0.99-0.053,1.277,0.443
		C22.146,10.889,21.988,11.427,21.457,11.831z"/>
	<path d="M11.65,18.66c-0.1,0.1-0.15,0.22-0.15,0.36c0,0.13,0.05,0.26,0.15,0.35c0.09,0.09,0.22,0.15,0.35,0.15
		c0.13,0,0.25-0.051,0.36-0.15c0.09-0.1,0.14-0.22,0.14-0.35c0-0.131-0.05-0.261-0.15-0.36C12.16,18.469,11.83,18.48,11.65,18.66z"
		/>
</g>
</svg>
