<?xml version="1.0" encoding="utf-8"?>
<!-- Generator: Adobe Illustrator 19.2.0, SVG Export Plug-In . SVG Version: 6.00 Build 0)  -->
<svg version="1.1" id="Layer_1" xmlns="http://www.w3.org/2000/svg" xmlns:xlink="http://www.w3.org/1999/xlink" x="0px" y="0px"
	 width="24px" height="24px" viewBox="0 0 24 24" style="enable-background:new 0 0 24 24;" xml:space="preserve">
<g>
	<path d="M14.01,2.503c0-1.396-1.136-2.531-2.532-2.531H2.542c-1.396,0-2.532,1.136-2.532,2.531v18.972
		c0,1.396,1.136,2.531,2.532,2.531h8.936c1.396,0,2.532-1.136,2.532-2.531v-2.934c0.001-0.015,0.009-0.028,0.009-0.044v-15
		c0-0.016-0.007-0.028-0.009-0.044V2.503z M13.01,17.998H1.019v-14H13.01V17.998z M2.542,0.972h8.936
		c0.845,0,1.532,0.687,1.532,1.531v0.495h-12V2.503C1.01,1.659,1.697,0.972,2.542,0.972z M11.478,23.007H2.542
		c-0.845,0-1.532-0.687-1.532-1.531v-2.478h12v2.478C13.01,22.32,12.323,23.007,11.478,23.007z"/>
	<path d="M7.01,19.675c-0.746,0-1.353,0.607-1.353,1.354s0.607,1.353,1.353,1.353s1.354-0.606,1.354-1.353S7.756,19.675,7.01,19.675
		z M7.01,21.381c-0.195,0-0.353-0.158-0.353-0.353c0-0.195,0.158-0.354,0.353-0.354s0.354,0.158,0.354,0.354
		C7.363,21.222,7.205,21.381,7.01,21.381z"/>
	<path d="M16.958,7.014c-0.208-0.183-0.523-0.164-0.706,0.044c-0.183,0.207-0.163,0.523,0.044,0.706
		c1.09,0.961,1.689,2.256,1.689,3.648c0,1.393-0.6,2.688-1.689,3.65c-0.207,0.183-0.227,0.499-0.044,0.706
		c0.099,0.111,0.236,0.169,0.375,0.169c0.118,0,0.235-0.041,0.331-0.125c1.308-1.154,2.027-2.717,2.027-4.4
		S18.265,8.168,16.958,7.014z"/>
	<path d="M19.483,5.085c-0.195-0.196-0.512-0.195-0.707-0.001c-0.195,0.195-0.195,0.512,0,0.707c3.042,3.048,3.042,8.198,0,11.245
		c-0.195,0.195-0.195,0.513,0,0.707c0.098,0.098,0.226,0.146,0.354,0.146s0.256-0.049,0.354-0.146
		C22.967,14.254,22.967,8.575,19.483,5.085z"/>
</g>
</svg>
