<?xml version="1.0" encoding="utf-8"?>
<!-- Generator: Adobe Illustrator 19.2.0, SVG Export Plug-In . SVG Version: 6.00 Build 0)  -->
<svg version="1.1" id="Layer_1" xmlns="http://www.w3.org/2000/svg" xmlns:xlink="http://www.w3.org/1999/xlink" x="0px" y="0px"
	 width="24px" height="24px" viewBox="0 0 24 24" style="enable-background:new 0 0 24 24;" xml:space="preserve">
<g>
	<path d="M8,19.675c-0.746,0-1.354,0.607-1.354,1.354S7.254,22.381,8,22.381s1.353-0.606,1.353-1.353S8.747,19.675,8,19.675z
		 M8,21.381c-0.195,0-0.354-0.158-0.354-0.353c0-0.195,0.159-0.354,0.354-0.354s0.353,0.158,0.353,0.354
		C8.354,21.222,8.195,21.381,8,21.381z"/>
	<path d="M18.517,1.998h-3.568c-0.235-1.154-1.258-2.026-2.481-2.026H3.532C2.136-0.028,1,1.108,1,2.503v18.972
		c0,1.396,1.136,2.531,2.532,2.531h8.936c1.396,0,2.532-1.136,2.532-2.531v-2.934c0.001-0.015,0.009-0.028,0.009-0.044
		S15.001,18.469,15,18.454v-2.739l2.124-1.718h1.393c2.99,0,5.423-2.691,5.423-6C23.939,4.69,21.507,1.998,18.517,1.998z
		 M3.532,0.972h8.936c0.666,0,1.229,0.431,1.439,1.026h-0.374c-1.131,0-2.183,0.369-3.058,1H2V2.503
		C2,1.659,2.688,0.972,3.532,0.972z M12.468,23.007H3.532C2.688,23.007,2,22.32,2,21.475v-2.478h12v2.478
		C14,22.32,13.312,23.007,12.468,23.007z M14,17.998H2.009v-14h7.408C8.556,5.042,8.029,6.409,8.029,7.91
		c0,2.804,1.995,5.051,3.976,5.706v3.475c0,0.192,0.111,0.368,0.285,0.451c0.068,0.033,0.142,0.049,0.215,0.049
		c0.112,0,0.224-0.038,0.314-0.111L14,16.524V17.998z M18.517,12.998h-1.569c-0.114,0-0.226,0.039-0.314,0.111l-3.628,2.934v-2.806
		c0-0.234-0.163-0.437-0.391-0.488c-1.724-0.386-3.585-2.345-3.585-4.839c0-2.663,2.063-4.912,4.504-4.912h0.94
		c0.009,0,0.017,0.005,0.027,0.005s0.017-0.005,0.027-0.005h3.99c2.397,0,4.423,2.29,4.423,5
		C22.939,10.708,20.914,12.998,18.517,12.998z"/>
	<path d="M12.249,7.791c-0.331-0.096-0.416-0.164-0.421-0.152c0.006-0.035,0.106-0.125,0.283-0.125c0.136,0,0.237,0.055,0.273,0.107
		c0.16,0.225,0.473,0.279,0.697,0.117c0.225-0.16,0.277-0.472,0.117-0.697c-0.234-0.33-0.641-0.527-1.088-0.527
		c-0.708,0-1.284,0.506-1.284,1.129c0,0.779,0.832,1.019,1.155,1.112c0.3,0.081,0.395,0.153,0.411,0.153h0
		c-0.013,0.038-0.112,0.122-0.282,0.122c-0.136,0-0.406-0.095-0.577-0.231c-0.216-0.172-0.531-0.137-0.703,0.08
		c-0.172,0.216-0.137,0.53,0.08,0.703c0.336,0.269,0.819,0.449,1.2,0.449c0.708,0,1.284-0.506,1.284-1.129
		C13.395,8.367,13.006,7.993,12.249,7.791z"/>
	<path d="M20.604,7.791c-0.323-0.093-0.396-0.173-0.422-0.152c0.007-0.035,0.106-0.125,0.283-0.125c0.136,0,0.236,0.055,0.273,0.107
		c0.161,0.225,0.474,0.279,0.697,0.117c0.225-0.16,0.277-0.472,0.117-0.697c-0.234-0.33-0.642-0.527-1.088-0.527
		c-0.708,0-1.283,0.506-1.283,1.129c0,0.78,0.832,1.019,1.154,1.112c0.301,0.081,0.395,0.153,0.411,0.153c0,0,0,0,0.001,0
		c-0.014,0.038-0.112,0.122-0.283,0.122c-0.136,0-0.405-0.095-0.576-0.231c-0.214-0.17-0.529-0.137-0.702,0.08
		c-0.173,0.216-0.137,0.53,0.079,0.703c0.337,0.269,0.818,0.449,1.199,0.449c0.708,0,1.284-0.506,1.284-1.129
		C21.75,8.367,21.361,7.993,20.604,7.791z"/>
	<path d="M17.365,6.515c-0.434,0-0.757,0.156-0.999,0.371c-0.174-0.173-0.474-0.371-0.954-0.371c-0.277,0-0.509,0.064-0.705,0.165
		c-0.091-0.1-0.22-0.165-0.366-0.165c-0.276,0-0.5,0.224-0.5,0.5v2.514c0,0.276,0.224,0.5,0.5,0.5s0.5-0.224,0.5-0.5V8.051
		c0.025-0.123,0.14-0.536,0.571-0.536c0.155,0,0.218,0.045,0.251,0.08c0.102,0.103,0.131,0.317,0.13,0.418v1.516
		c0,0.276,0.224,0.5,0.5,0.5s0.5-0.224,0.5-0.5v-1.48c0.014-0.077,0.118-0.534,0.572-0.534c0.154,0,0.217,0.045,0.251,0.079
		c0.101,0.103,0.131,0.318,0.13,0.419v1.516c0,0.276,0.224,0.5,0.5,0.5s0.5-0.224,0.5-0.5V8.03c0.002-0.07,0.011-0.694-0.409-1.129
		C18.166,6.725,17.859,6.515,17.365,6.515z"/>
</g>
</svg>
