<?xml version="1.0" encoding="utf-8"?>
<!-- Generator: Adobe Illustrator 19.2.0, SVG Export Plug-In . SVG Version: 6.00 Build 0)  -->
<svg version="1.1" id="Layer_1" xmlns="http://www.w3.org/2000/svg" xmlns:xlink="http://www.w3.org/1999/xlink" x="0px" y="0px"
	 width="24px" height="24px" viewBox="0 0 24 24" style="enable-background:new 0 0 24 24;" xml:space="preserve">
<g>
	<path d="M8.005,19.675c-0.746,0-1.353,0.607-1.353,1.354s0.607,1.353,1.353,1.353s1.354-0.606,1.354-1.353
		S8.751,19.675,8.005,19.675z M8.005,21.381c-0.195,0-0.353-0.158-0.353-0.353c0-0.195,0.158-0.354,0.353-0.354
		s0.354,0.158,0.354,0.354C8.358,21.222,8.2,21.381,8.005,21.381z"/>
	<path d="M18.521,1.998h-3.568c-0.235-1.154-1.258-2.026-2.481-2.026H3.537c-1.396,0-2.532,1.136-2.532,2.531v18.972
		c0,1.396,1.136,2.531,2.532,2.531h8.936c1.396,0,2.532-1.136,2.532-2.531v-2.934c0.001-0.015,0.009-0.028,0.009-0.044
		s-0.007-0.028-0.009-0.044v-2.739l2.124-1.718h1.393c2.99,0,5.423-2.691,5.423-6C23.944,4.69,21.512,1.998,18.521,1.998z
		 M3.537,0.972h8.936c0.666,0,1.229,0.431,1.439,1.026h-0.374c-1.131,0-2.183,0.369-3.058,1H2.005V2.503
		C2.005,1.659,2.692,0.972,3.537,0.972z M12.473,23.007H3.537c-0.845,0-1.532-0.687-1.532-1.531v-2.478h12v2.478
		C14.005,22.32,13.317,23.007,12.473,23.007z M14.005,17.998H2.014v-14h7.408C8.561,5.042,8.034,6.409,8.034,7.91
		c0,2.804,1.995,5.051,3.976,5.706v3.475c0,0.192,0.111,0.368,0.285,0.451c0.068,0.033,0.142,0.049,0.215,0.049
		c0.112,0,0.224-0.038,0.314-0.111l1.181-0.955V17.998z M18.521,12.998h-1.569c-0.114,0-0.226,0.039-0.314,0.111l-3.628,2.934
		v-2.806c0-0.234-0.163-0.437-0.391-0.488c-1.724-0.386-3.585-2.345-3.585-4.839c0-2.663,2.063-4.912,4.504-4.912h0.94
		c0.009,0,0.017,0.005,0.027,0.005s0.017-0.005,0.027-0.005h3.99c2.397,0,4.423,2.29,4.423,5
		C22.944,10.708,20.919,12.998,18.521,12.998z"/>
	<path d="M17.681,9.078c-0.455-0.491-0.663-0.715-1.007-0.72c-0.301,0.018-0.496,0.189-0.68,0.375
		c-0.021,0.022-0.045,0.047-0.07,0.072c-0.296-0.168-0.815-0.703-0.994-1.018c0.214-0.191,0.45-0.427,0.46-0.741
		c0.006-0.171-0.058-0.332-0.23-0.508c-1.547-1.608-1.599-1.608-1.844-1.609c-0.256-0.001-0.449,0.152-0.928,0.647
		c-1.367,1.397,0.081,3.196,1.288,4.428c0.853,0.869,2.035,1.92,3.153,1.92c0.254,0,0.505-0.054,0.748-0.177
		c0.382-0.193,0.973-0.827,0.997-0.854c0.234-0.252,0.23-0.643-0.013-0.893C18.172,9.608,17.891,9.304,17.681,9.078z M17.126,10.855
		c-0.521,0.267-1.494-0.286-2.735-1.551c-2.128-2.17-1.54-2.772-1.256-3.062c0.064-0.067,0.118-0.122,0.164-0.167
		c0.174,0.168,0.467,0.46,0.96,0.97c-0.02,0.017-0.037,0.033-0.052,0.046c-0.055,0.048-0.104,0.093-0.156,0.144
		c-0.293,0.308-0.221,0.759,0.213,1.342c0.049,0.067,1.219,1.629,2.053,1.201c0.043-0.021,0.101-0.062,0.14-0.097v0
		c0.086-0.08,0.157-0.152,0.219-0.214c0.078,0.08,0.174,0.184,0.272,0.29c0.169,0.182,0.382,0.413,0.657,0.696
		C17.406,10.645,17.208,10.814,17.126,10.855z"/>
	<path d="M15.85,6.521c0.005,0,0.011,0,0.017,0c0.342-0.01,0.7,0.121,0.954,0.375c0.254,0.254,0.387,0.593,0.375,0.955
		c-0.009,0.276,0.208,0.507,0.483,0.516c0.006,0,0.012,0,0.017,0c0.269,0,0.491-0.213,0.5-0.483
		c0.021-0.642-0.216-1.243-0.668-1.695c-0.451-0.452-1.057-0.692-1.694-0.667c-0.275,0.009-0.492,0.24-0.483,0.516
		C15.358,6.308,15.581,6.521,15.85,6.521z"/>
	<path d="M16.17,4.295c-0.276,0.006-0.495,0.235-0.489,0.511c0.006,0.276,0.256,0.498,0.511,0.489
		c0.566-0.021,1.167,0.212,1.592,0.636c0.425,0.424,0.651,0.99,0.638,1.593c-0.006,0.276,0.213,0.504,0.489,0.511
		c0.004,0,0.007,0,0.011,0c0.271,0,0.494-0.217,0.5-0.489c0.019-0.878-0.312-1.703-0.931-2.322
		C17.872,4.606,17.089,4.28,16.17,4.295z"/>
</g>
</svg>
