<?xml version="1.0" encoding="utf-8"?>
<!-- Generator: Adobe Illustrator 19.2.0, SVG Export Plug-In . SVG Version: 6.00 Build 0)  -->
<svg version="1.1" id="Layer_1" xmlns="http://www.w3.org/2000/svg" xmlns:xlink="http://www.w3.org/1999/xlink" x="0px" y="0px"
	 width="24px" height="24px" viewBox="0 0 24 24" style="enable-background:new 0 0 24 24;" xml:space="preserve">
<g>
	<path d="M11.479,13H6.5C6.224,13,6,13.223,6,13.5S6.224,14,6.5,14h4.979c0.276,0,0.5-0.224,0.5-0.5S11.755,13,11.479,13z"/>
	<path d="M11.479,16H6.5C6.224,16,6,16.223,6,16.5S6.224,17,6.5,17h4.979c0.276,0,0.5-0.224,0.5-0.5S11.755,16,11.479,16z"/>
	<path d="M11.479,10H6.5C6.224,10,6,10.224,6,10.5S6.224,11,6.5,11h4.979c0.276,0,0.5-0.224,0.5-0.5S11.755,10,11.479,10z"/>
	<path d="M11.479,7H6.5C6.224,7,6,7.223,6,7.5S6.224,8,6.5,8h4.979c0.276,0,0.5-0.224,0.5-0.5S11.755,7,11.479,7z"/>
	<path d="M20.479,16h-5.979c-0.276,0-0.5,0.224-0.5,0.5c0,0,0,0,0,0s0,0,0,0c0,0.276,0.224,0.5,0.5,0.5h5.979
		c0.276,0,0.5-0.224,0.5-0.5c0,0,0,0,0,0s0,0,0,0C20.979,16.223,20.756,16,20.479,16z"/>
	<path d="M20.48,7h-5.979c-0.276,0-0.5,0.224-0.5,0.5v6c0,0.276,0.224,0.5,0.5,0.5h5.979c0.276,0,0.5-0.224,0.5-0.5v-6
		C20.98,7.224,20.757,7,20.48,7z M19.98,13h-4.979V8h4.979V13z"/>
	<path d="M21.752,4.053H3.497c-0.276,0-0.5,0.224-0.5,0.5v0.94H0.504c-0.276,0-0.5,0.224-0.5,0.5v12.018
		c0,1.098,0.912,2.024,1.992,2.024c0.024,0,0.047-0.007,0.071-0.008c0.006,0,0.011,0.004,0.018,0.004h19.727
		c1.2,0,2.176-0.989,2.176-2.206V6.379C23.987,5.096,22.984,4.053,21.752,4.053z M1.004,18.011V6.493h1.993l0,11.51
		c0,0.55-0.467,1.032-1,1.032C1.468,19.036,1.004,18.557,1.004,18.011z M22.987,17.826c0,0.677-0.517,1.206-1.176,1.206H3.703
		c0.182-0.305,0.293-0.655,0.293-1.028l0-12.01c0-0.001,0-0.002,0-0.002V5.053h17.755c0.67,0,1.235,0.607,1.235,1.326V17.826z"/>
</g>
</svg>
