<?xml version="1.0" encoding="utf-8"?>
<!-- Generator: Adobe Illustrator 19.2.0, SVG Export Plug-In . SVG Version: 6.00 Build 0)  -->
<svg version="1.1" id="Layer_1" xmlns="http://www.w3.org/2000/svg" xmlns:xlink="http://www.w3.org/1999/xlink" x="0px" y="0px"
	 width="24px" height="24px" viewBox="0 0 24 24" style="enable-background:new 0 0 24 24;" xml:space="preserve">
<g>
	<path d="M7.536,6h8.948c0.276,0,0.5-0.224,0.5-0.5S16.76,5,16.483,5H7.536c-0.276,0-0.5,0.224-0.5,0.5S7.259,6,7.536,6z"/>
	<path d="M7.536,9h8.948c0.276,0,0.5-0.224,0.5-0.5S16.76,8,16.483,8H7.536c-0.276,0-0.5,0.224-0.5,0.5S7.259,9,7.536,9z"/>
	<path d="M7.536,12h8.948c0.276,0,0.5-0.224,0.5-0.5s-0.224-0.5-0.5-0.5H7.536c-0.276,0-0.5,0.224-0.5,0.5S7.259,12,7.536,12z"/>
	<path d="M14.959,14.5c0-0.276-0.224-0.5-0.5-0.5H7.536c-0.276,0-0.5,0.224-0.5,0.5s0.224,0.5,0.5,0.5h6.923
		C14.735,15,14.959,14.776,14.959,14.5z"/>
	<path d="M16.014,17.287c-0.949,0-1.721,0.771-1.721,1.721s0.771,1.721,1.721,1.721s1.721-0.771,1.721-1.721
		S16.963,17.287,16.014,17.287z M16.014,19.728c-0.397,0-0.721-0.323-0.721-0.721s0.323-0.721,0.721-0.721s0.721,0.323,0.721,0.721
		S16.411,19.728,16.014,19.728z"/>
	<path d="M18.135,0H5.865C4.285,0,3,1.285,3,2.865v18.27C3,22.715,4.285,24,5.865,24h12.27C19.715,24,21,22.715,21,21.135V2.865
		C21,1.285,19.715,0,18.135,0z M20,21.135C20,22.163,19.163,23,18.135,23H5.865C4.837,23,4,22.163,4,21.135V2.865
		C4,1.837,4.837,1,5.865,1h12.27C19.163,1,20,1.837,20,2.865V21.135z"/>
</g>
</svg>
