<?xml version="1.0" encoding="utf-8"?>
<!-- Generator: Adobe Illustrator 19.2.0, SVG Export Plug-In . SVG Version: 6.00 Build 0)  -->
<svg version="1.1" id="Layer_1" xmlns="http://www.w3.org/2000/svg" xmlns:xlink="http://www.w3.org/1999/xlink" x="0px" y="0px"
	 width="24px" height="24px" viewBox="0 0 24 24" style="enable-background:new 0 0 24 24;" xml:space="preserve">
<g>
	<path d="M18.141,2h-2.635V0.51c0-0.276-0.224-0.5-0.5-0.5s-0.5,0.224-0.5,0.5V2h-2V0.51c0-0.276-0.224-0.5-0.5-0.5
		s-0.5,0.224-0.5,0.5V2h-2V0.51c0-0.276-0.224-0.5-0.5-0.5s-0.5,0.224-0.5,0.5V2H5.871c-1.58,0-2.865,1.285-2.865,2.865v16.27
		c0,1.58,1.285,2.865,2.865,2.865h12.27c1.58,0,2.865-1.285,2.865-2.865V4.865C21.006,3.285,19.721,2,18.141,2z M20.006,21.135
		c0,1.028-0.837,1.865-1.865,1.865H5.871c-1.028,0-1.865-0.837-1.865-1.865V4.865C4.006,3.837,4.843,3,5.871,3h2.635v0.503
		c0,0.276,0.224,0.5,0.5,0.5s0.5-0.224,0.5-0.5V3h2v0.503c0,0.276,0.224,0.5,0.5,0.5s0.5-0.224,0.5-0.5V3h2v0.503
		c0,0.276,0.224,0.5,0.5,0.5s0.5-0.224,0.5-0.5V3h2.635c1.028,0,1.865,0.836,1.865,1.865V21.135z"/>
	<path d="M16.438,8H7.511c-0.276,0-0.5,0.224-0.5,0.5S7.234,9,7.511,9h8.927c0.276,0,0.5-0.224,0.5-0.5S16.714,8,16.438,8z"/>
	<path d="M16.438,12H7.511c-0.276,0-0.5,0.224-0.5,0.5s0.224,0.5,0.5,0.5h8.927c0.276,0,0.5-0.224,0.5-0.5S16.714,12,16.438,12z"/>
	<path d="M16.438,16H7.511c-0.276,0-0.5,0.224-0.5,0.5s0.224,0.5,0.5,0.5h8.927c0.276,0,0.5-0.224,0.5-0.5S16.714,16,16.438,16z"/>
</g>
</svg>
