<?xml version="1.0" encoding="utf-8"?>
<!-- Generator: Adobe Illustrator 19.2.0, SVG Export Plug-In . SVG Version: 6.00 Build 0)  -->
<svg version="1.1" id="Layer_1" xmlns="http://www.w3.org/2000/svg" xmlns:xlink="http://www.w3.org/1999/xlink" x="0px" y="0px"
	 width="24px" height="24px" viewBox="0 0 24 24" style="enable-background:new 0 0 24 24;" xml:space="preserve">
<path d="M21.979,3.327c0-2.09-4.978-3.183-9.894-3.183S2.192,1.238,2.192,3.327c0,0.012,0.005,0.023,0.005,0.034
	c0,0.01-0.004,0.019-0.003,0.03l1.695,18.174c0,0.263,0.122,0.494,0.32,0.703c0.017,0.025,0.028,0.053,0.051,0.075
	c0.024,0.024,0.054,0.035,0.081,0.053c1.315,1.112,5.24,1.437,7.745,1.437c3.044,0,8.197-0.478,8.195-2.223l1.697-18.22
	c0.001-0.01-0.003-0.019-0.003-0.03C21.975,3.35,21.979,3.339,21.979,3.327z M19.331,21.046l-2.268-2.292l2.755-2.939L19.331,21.046
	z M12.086,15.146l3.589,3.626l-3.59,3.831l-3.598-3.821L12.086,15.146z M7.801,18.054l-3.38-3.589l3.495-3.531l3.466,3.502
	L7.801,18.054z M12.789,14.436l3.479-3.515l3.485,3.501l-3.394,3.621L12.789,14.436z M12.086,13.725L8.62,10.223l3.467-3.503
	l3.476,3.492L12.086,13.725z M13.266,6.487c3.071-0.11,5.999-0.647,7.555-1.588l-4.554,4.602L13.266,6.487z M7.916,9.512L3.351,4.9
	c1.557,0.941,4.486,1.478,7.559,1.588L7.916,9.512z M7.213,10.223l-3.088,3.12L3.484,6.455L7.213,10.223z M4.36,15.858l2.738,2.907
	l-2.255,2.278L4.36,15.858z M7.783,19.494l3.123,3.317c-2.733-0.099-4.637-0.525-5.5-0.915L7.783,19.494z M16.379,19.484
	l2.394,2.419c-0.86,0.382-2.768,0.809-5.512,0.908L16.379,19.484z M20.051,13.304l-3.08-3.094l3.716-3.755L20.051,13.304z
	 M12.085,1.144c5.425,0,8.888,1.291,8.893,2.181l-0.001,0.007c-0.013,0.89-3.472,2.178-8.889,2.178c-0.002,0-0.004,0-0.005,0
	c-0.001,0-0.002,0-0.003,0C6.664,5.51,3.206,4.222,3.193,3.333L3.192,3.325C3.198,2.435,6.661,1.144,12.085,1.144z"/>
</svg>
