<?xml version="1.0" encoding="utf-8"?>
<!-- Generator: Adobe Illustrator 19.2.0, SVG Export Plug-In . SVG Version: 6.00 Build 0)  -->
<svg version="1.1" id="Layer_1" xmlns="http://www.w3.org/2000/svg" xmlns:xlink="http://www.w3.org/1999/xlink" x="0px" y="0px"
	 width="24px" height="24px" viewBox="0 0 24 24" style="enable-background:new 0 0 24 24;" xml:space="preserve">
<g>
	<path d="M23.469,21.003h-2.24l2.259-0.81c0.253-0.091,0.389-0.366,0.308-0.622l-4.5-14.143c-0.041-0.129-0.133-0.237-0.255-0.297
		c-0.121-0.059-0.263-0.068-0.391-0.022l-4.678,1.676V6.503c0-0.276-0.224-0.5-0.5-0.5h-6h-6c-0.276,0-0.5,0.224-0.5,0.5v14.5H0.548
		c-0.276,0-0.5,0.224-0.5,0.5s0.224,0.5,0.5,0.5h0.925h6h6h9.996c0.276,0,0.5-0.224,0.5-0.5S23.745,21.003,23.469,21.003z
		 M18.5,6.225l4.196,13.19l-4.018,1.439L14.481,7.665L18.5,6.225z M17.676,21.003h-3.704V9.365L17.676,21.003z M1.973,7.003h5v14h-5
		V7.003z M7.973,21.003v-14h5v14H7.973z"/>
	<path d="M5.442,18.003H3.42c-0.276,0-0.5,0.224-0.5,0.5s0.224,0.5,0.5,0.5h2.022c0.276,0,0.5-0.224,0.5-0.5
		S5.719,18.003,5.442,18.003z"/>
	<path d="M11.443,18.003H9.42c-0.276,0-0.5,0.224-0.5,0.5s0.224,0.5,0.5,0.5h2.022c0.276,0,0.5-0.224,0.5-0.5
		S11.719,18.003,11.443,18.003z"/>
	<path d="M18.7,8.967c-0.128-0.388-0.396-0.698-0.756-0.873c-0.348-0.169-0.74-0.193-1.104-0.061
		c-0.753,0.269-1.157,1.12-0.901,1.896c0.127,0.388,0.396,0.698,0.755,0.873c0.198,0.097,0.411,0.146,0.624,0.146
		c0.162,0,0.324-0.028,0.481-0.084C18.552,10.594,18.956,9.742,18.7,8.967z M17.462,9.922c-0.107,0.039-0.226,0.031-0.329-0.019
		c-0.114-0.056-0.201-0.158-0.244-0.288c-0.087-0.266,0.042-0.553,0.289-0.642c0.047-0.017,0.095-0.025,0.143-0.025
		c0.063,0,0.127,0.014,0.186,0.043c0.115,0.056,0.202,0.159,0.245,0.288C17.837,9.541,17.705,9.835,17.462,9.922z"/>
	<path d="M4.432,7.961c-0.833,0-1.511,0.678-1.511,1.511s0.678,1.511,1.511,1.511c0.833,0,1.511-0.678,1.511-1.511
		S5.265,7.961,4.432,7.961z M4.432,9.983c-0.282,0-0.511-0.229-0.511-0.511S4.15,8.961,4.432,8.961S4.942,9.19,4.942,9.472
		S4.713,9.983,4.432,9.983z"/>
	<path d="M10.432,10.983c0.833,0,1.511-0.678,1.511-1.511s-0.678-1.511-1.511-1.511c-0.833,0-1.511,0.678-1.511,1.511
		S9.598,10.983,10.432,10.983z M10.432,8.961c0.282,0,0.511,0.229,0.511,0.511s-0.229,0.511-0.511,0.511S9.92,9.754,9.92,9.472
		S10.15,8.961,10.432,8.961z"/>
</g>
</svg>
