<?xml version="1.0" encoding="utf-8"?>
<!-- Generator: Adobe Illustrator 19.2.0, SVG Export Plug-In . SVG Version: 6.00 Build 0)  -->
<svg version="1.1" id="Layer_1" xmlns="http://www.w3.org/2000/svg" xmlns:xlink="http://www.w3.org/1999/xlink" x="0px" y="0px"
	 width="24px" height="24px" viewBox="0 0 24 24" style="enable-background:new 0 0 24 24;" xml:space="preserve">
<g>
	<path d="M6.6,0H5.5C4.122,0,3,1.121,3,2.5v14.7c0,0.029,0,0.056,0.036,0.176c0.003,0.008,0.004,0.016,0.007,0.023
		c0.112,0.376,0.53,1.57,2.093,5.886c0.178,0.444,0.564,0.727,0.99,0.727c0.009,0,0.019,0,0.028,0
		c0.417-0.013,0.769-0.302,0.919-0.75c1.485-4.308,1.881-5.495,1.987-5.868c0.001-0.002,0.001-0.004,0.002-0.006
		C9.099,17.259,9.1,17.229,9.1,17.2V2.5C9.1,1.121,7.979,0,6.6,0z M6.809,21H5.373c-0.461-1.281-0.92-2.563-1.178-3.3h3.721
		C7.674,18.43,7.242,19.706,6.809,21z M4,2.5C4,1.673,4.673,1,5.5,1h1.1c0.827,0,1.5,0.673,1.5,1.5v14.2H7V4.5
		C7,4.223,6.776,4,6.5,4S6,4.223,6,4.5v12.2H4V2.5z M6.14,23.015c-0.009-0.003-0.047-0.029-0.07-0.085
		C5.964,22.638,5.851,22.324,5.734,22h0.742C6.359,22.352,6.245,22.695,6.14,23.015z"/>
	<path d="M20.5,0h-8C12.224,0,12,0.223,12,0.5v23c0,0.276,0.224,0.5,0.5,0.5h8c0.276,0,0.5-0.224,0.5-0.5v-23
		C21,0.223,20.776,0,20.5,0z M20,23h-7v-1h3.5c0.276,0,0.5-0.224,0.5-0.5S16.776,21,16.5,21H13v-2h1.5c0.276,0,0.5-0.224,0.5-0.5
		S14.776,18,14.5,18H13v-2h3.5c0.276,0,0.5-0.224,0.5-0.5S16.776,15,16.5,15H13v-2h1.5c0.276,0,0.5-0.224,0.5-0.5S14.776,12,14.5,12
		H13v-2h3.5c0.276,0,0.5-0.224,0.5-0.5S16.776,9,16.5,9H13V7h1.5C14.776,7,15,6.776,15,6.5S14.776,6,14.5,6H13V4h3.5
		C16.776,4,17,3.776,17,3.5S16.776,3,16.5,3H13V1h7V23z"/>
</g>
</svg>
