<?xml version="1.0" encoding="utf-8"?>
<!-- Generator: Adobe Illustrator 19.2.0, SVG Export Plug-In . SVG Version: 6.00 Build 0)  -->
<svg version="1.1" id="Layer_1" xmlns="http://www.w3.org/2000/svg" xmlns:xlink="http://www.w3.org/1999/xlink" x="0px" y="0px"
	 width="24px" height="24px" viewBox="0 0 24 24" style="enable-background:new 0 0 24 24;" xml:space="preserve">
<g>
	<path d="M16.876,13.559c-0.372-0.377-0.972-0.391-1.373-0.018c0,0-1.346,1.316-1.41,1.386c-0.139,0.077-0.826-0.105-2.013-1.111
		c-1.911-1.623-3.075-3.547-2.984-3.892l1.463-1.434c0.187-0.184,0.291-0.43,0.292-0.692c0.002-0.262-0.098-0.508-0.28-0.691
		l-4.786-4.88C5.605,2.042,5.354,1.934,5.095,1.932C4.843,1.92,4.59,2.029,4.4,2.213C4.242,2.368,4.078,2.523,3.912,2.68
		C2.728,3.799,1.385,5.066,1.345,7.156c-0.048,2.502,1.79,5.565,5.786,9.641c4.022,4.103,7.066,6.018,9.568,6.018
		c0.025,0,0.051,0,0.076-0.001c2.149-0.033,3.489-1.487,4.672-2.771l0.252-0.273c0.358-0.384,0.351-0.979-0.019-1.356L16.876,13.559
		z M20.712,19.365c-1.097,1.19-2.231,2.422-3.952,2.448c-0.02,0.001-0.039,0.001-0.059,0.001c-2.187,0-5.085-1.871-8.856-5.717
		c-3.743-3.819-5.542-6.737-5.5-8.922c0.032-1.67,1.162-2.736,2.253-3.768c0.171-0.162,0.34-0.321,0.473-0.481l4.788,4.852
		L8.383,9.224c-0.524,0.553-0.254,1.551,0.801,2.967c1.076,1.443,3.909,4.363,5.353,3.633c0.043-0.021,0.159-0.103,0.194-0.135
		c0.087-0.079,1.312-1.276,1.449-1.411l4.787,4.81L20.712,19.365z"/>
	<path d="M20.179,10.325c-0.009,0.276,0.208,0.507,0.483,0.516c0.006,0,0.012,0,0.017,0c0.269,0,0.491-0.213,0.5-0.483
		c0.066-2.04-0.687-3.954-2.121-5.388c-1.435-1.434-3.334-2.186-5.388-2.12c-0.275,0.009-0.492,0.24-0.483,0.516
		c0.009,0.274,0.193,0.504,0.517,0.483c1.743-0.054,3.409,0.591,4.647,1.829C19.587,6.915,20.236,8.565,20.179,10.325z"/>
	<path d="M21.454,2.573c-2.071-2.072-4.849-3.16-7.778-3.113c-0.276,0.006-0.495,0.235-0.489,0.511
		c0.006,0.276,0.237,0.514,0.511,0.489c2.668-0.068,5.173,0.943,7.05,2.82c1.878,1.878,2.88,4.382,2.821,7.051
		c-0.006,0.276,0.213,0.504,0.489,0.511c0.004,0,0.007,0,0.011,0c0.271,0,0.494-0.217,0.5-0.489
		C24.633,7.409,23.526,4.646,21.454,2.573z"/>
	<path d="M13.188,6.772c0.019,0.277,0.259,0.483,0.532,0.466c0.832-0.053,1.647,0.25,2.233,0.836
		c0.587,0.586,0.892,1.401,0.837,2.235c-0.018,0.275,0.19,0.514,0.466,0.532c0.012,0,0.022,0.001,0.034,0.001
		c0.261,0,0.48-0.203,0.498-0.467c0.073-1.121-0.338-2.217-1.128-3.007s-1.866-1.196-3.007-1.127
		C13.378,6.259,13.17,6.497,13.188,6.772z"/>
</g>
</svg>
