<?xml version="1.0" encoding="utf-8"?>
<!-- Generator: Adobe Illustrator 19.2.0, SVG Export Plug-In . SVG Version: 6.00 Build 0)  -->
<svg version="1.1" id="Layer_1" xmlns="http://www.w3.org/2000/svg" xmlns:xlink="http://www.w3.org/1999/xlink" x="0px" y="0px"
	 width="24px" height="24px" viewBox="0 0 24 24" style="enable-background:new 0 0 24 24;" xml:space="preserve">
<g>
	<path d="M3.954,0.837c-1.72,0-3.119,1.399-3.119,3.119s1.399,3.119,3.119,3.119s3.119-1.399,3.119-3.119S5.674,0.837,3.954,0.837z
		 M3.954,6.075c-1.168,0-2.119-0.951-2.119-2.119s0.951-2.119,2.119-2.119s2.119,0.951,2.119,2.119S5.123,6.075,3.954,6.075z"/>
	<path d="M11.991,0.837c-1.72,0-3.119,1.399-3.119,3.119s1.399,3.119,3.119,3.119s3.119-1.399,3.119-3.119
		S13.711,0.837,11.991,0.837z M11.991,6.075c-1.168,0-2.119-0.951-2.119-2.119s0.951-2.119,2.119-2.119
		c1.169,0,2.119,0.951,2.119,2.119S13.16,6.075,11.991,6.075z"/>
	<path d="M20.028,7.075c1.72,0,3.119-1.399,3.119-3.119s-1.399-3.119-3.119-3.119s-3.119,1.399-3.119,3.119
		S18.309,7.075,20.028,7.075z M20.028,1.837c1.169,0,2.119,0.951,2.119,2.119s-0.95,2.119-2.119,2.119s-2.119-0.951-2.119-2.119
		S18.859,1.837,20.028,1.837z"/>
	<path d="M3.954,8.874c-1.72,0-3.119,1.399-3.119,3.119c0,1.719,1.399,3.119,3.119,3.119s3.119-1.399,3.119-3.119
		C7.073,10.274,5.674,8.874,3.954,8.874z M3.954,14.112c-1.168,0-2.119-0.95-2.119-2.119s0.951-2.119,2.119-2.119
		s2.119,0.951,2.119,2.119S5.123,14.112,3.954,14.112z"/>
	<path d="M11.991,8.874c-1.72,0-3.119,1.399-3.119,3.119c0,1.719,1.399,3.119,3.119,3.119s3.119-1.399,3.119-3.119
		C15.11,10.274,13.711,8.874,11.991,8.874z M11.991,14.112c-1.168,0-2.119-0.95-2.119-2.119s0.951-2.119,2.119-2.119
		c1.169,0,2.119,0.951,2.119,2.119S13.16,14.112,11.991,14.112z"/>
	<path d="M20.028,8.874c-1.72,0-3.119,1.399-3.119,3.119c0,1.719,1.399,3.119,3.119,3.119s3.119-1.399,3.119-3.119
		C23.147,10.274,21.748,8.874,20.028,8.874z M20.028,14.112c-1.169,0-2.119-0.95-2.119-2.119s0.95-2.119,2.119-2.119
		s2.119,0.951,2.119,2.119S21.197,14.112,20.028,14.112z"/>
	<path d="M3.954,16.912c-1.72,0-3.119,1.399-3.119,3.119s1.399,3.118,3.119,3.118s3.119-1.398,3.119-3.118
		S5.674,16.912,3.954,16.912z M3.954,22.149c-1.168,0-2.119-0.95-2.119-2.118c0-1.169,0.951-2.119,2.119-2.119
		s2.119,0.95,2.119,2.119C6.073,21.199,5.123,22.149,3.954,22.149z"/>
	<path d="M11.991,16.912c-1.72,0-3.119,1.399-3.119,3.119s1.399,3.118,3.119,3.118s3.119-1.398,3.119-3.118
		S13.711,16.912,11.991,16.912z M11.991,22.149c-1.168,0-2.119-0.95-2.119-2.118c0-1.169,0.951-2.119,2.119-2.119
		c1.169,0,2.119,0.95,2.119,2.119C14.11,21.199,13.16,22.149,11.991,22.149z"/>
	<path d="M20.028,16.912c-1.72,0-3.119,1.399-3.119,3.119s1.399,3.118,3.119,3.118s3.119-1.398,3.119-3.118
		S21.748,16.912,20.028,16.912z M20.028,22.149c-1.169,0-2.119-0.95-2.119-2.118c0-1.169,0.95-2.119,2.119-2.119
		s2.119,0.95,2.119,2.119C22.147,21.199,21.197,22.149,20.028,22.149z"/>
</g>
</svg>
