<?xml version="1.0" encoding="utf-8"?>
<!-- Generator: Adobe Illustrator 19.2.0, SVG Export Plug-In . SVG Version: 6.00 Build 0)  -->
<svg version="1.1" id="Layer_1" xmlns="http://www.w3.org/2000/svg" xmlns:xlink="http://www.w3.org/1999/xlink" x="0px" y="0px"
	 width="24px" height="24px" viewBox="0 0 24 24" style="enable-background:new 0 0 24 24;" xml:space="preserve">
<g>
	<path d="M19.5,7h-7C12.224,7,12,7.223,12,7.5S12.224,8,12.5,8h7C19.776,8,20,7.776,20,7.5S19.776,7,19.5,7z"/>
	<path d="M23.597,6.345C23.417,4.724,23.145,4,22,4H11.5C11.224,4,11,4.224,11,4.5S11.224,5,11.5,5H22c0.294,0,0.441,0,0.603,1.453
		c0.299,2.782,0.299,7.31,0,10.092C22.441,18,22.294,18,22,18H11.5c-0.276,0-0.5,0.224-0.5,0.5s0.224,0.5,0.5,0.5H22
		c1.144,0,1.417-0.724,1.597-2.346C23.902,13.811,23.902,9.188,23.597,6.345z"/>
	<path d="M1.833,5.013C1.842,5.009,1.875,5,2,5h0.5C2.776,5,3,4.776,3,4.5S2.776,4,2.5,4H2C0.949,4,0.68,4.756,0.503,6.347
		c-0.304,2.841-0.304,7.464,0,10.309C0.684,18.276,0.957,19,2.1,19h0.4C2.776,19,3,18.776,3,18.5S2.776,18,2.5,18H2.1
		c-0.294,0-0.441,0-0.603-1.452c-0.298-2.784-0.298-7.312,0-10.092C1.635,5.218,1.803,5.036,1.833,5.013z"/>
	<path d="M9.554,2.539C9.252,2.191,8.807,2,8.3,2H5.6C4.703,2,4,2.746,4,3.7v15.7c0,0.905,0.748,1.7,1.6,1.7h2.7
		c0.897,0,1.6-0.747,1.6-1.7L9.895,3.771C9.961,3.306,9.84,2.869,9.554,2.539z M8.9,19.4c0,0.399-0.258,0.7-0.6,0.7H5.6
		c-0.297,0-0.6-0.354-0.6-0.7V3.7C5,3.301,5.258,3,5.6,3h2.7c0.213,0,0.39,0.069,0.499,0.194C8.893,3.303,8.93,3.454,8.9,3.7V19.4z"
		/>
	<path d="M12.5,11h1c0.276,0,0.5-0.224,0.5-0.5S13.776,10,13.5,10h-1c-0.276,0-0.5,0.224-0.5,0.5S12.224,11,12.5,11z"/>
	<path d="M12.5,13h1c0.276,0,0.5-0.224,0.5-0.5S13.776,12,13.5,12h-1c-0.276,0-0.5,0.224-0.5,0.5S12.224,13,12.5,13z"/>
	<path d="M12.5,15h1c0.276,0,0.5-0.224,0.5-0.5S13.776,14,13.5,14h-1c-0.276,0-0.5,0.224-0.5,0.5S12.224,15,12.5,15z"/>
	<path d="M16.5,10h-1c-0.276,0-0.5,0.224-0.5,0.5s0.224,0.5,0.5,0.5h1c0.276,0,0.5-0.224,0.5-0.5S16.776,10,16.5,10z"/>
	<path d="M16.5,12h-1c-0.276,0-0.5,0.224-0.5,0.5s0.224,0.5,0.5,0.5h1c0.276,0,0.5-0.224,0.5-0.5S16.776,12,16.5,12z"/>
	<path d="M16.5,14h-1c-0.276,0-0.5,0.224-0.5,0.5s0.224,0.5,0.5,0.5h1c0.276,0,0.5-0.224,0.5-0.5S16.776,14,16.5,14z"/>
	<path d="M19.5,10h-1c-0.276,0-0.5,0.224-0.5,0.5s0.224,0.5,0.5,0.5h1c0.276,0,0.5-0.224,0.5-0.5S19.776,10,19.5,10z"/>
	<path d="M19.5,12h-1c-0.276,0-0.5,0.224-0.5,0.5s0.224,0.5,0.5,0.5h1c0.276,0,0.5-0.224,0.5-0.5S19.776,12,19.5,12z"/>
	<path d="M19.5,14h-1c-0.276,0-0.5,0.224-0.5,0.5s0.224,0.5,0.5,0.5h1c0.276,0,0.5-0.224,0.5-0.5S19.776,14,19.5,14z"/>
</g>
</svg>
