<?xml version="1.0" encoding="utf-8"?>
<!-- Generator: Adobe Illustrator 19.2.0, SVG Export Plug-In . SVG Version: 6.00 Build 0)  -->
<svg version="1.1" id="Layer_1" xmlns="http://www.w3.org/2000/svg" xmlns:xlink="http://www.w3.org/1999/xlink" x="0px" y="0px"
	 width="24px" height="24px" viewBox="0 0 24 24" style="enable-background:new 0 0 24 24;" xml:space="preserve">
<path d="M22.193,15.431l-4.427-4.47c-0.304-0.309-0.858-0.471-1.43,0.088l-0.224,0.218c-0.369,0.361-0.933,0.913-0.956,0.946
	c-0.076,0.034-0.627-0.022-1.779-0.992c-1.767-1.487-2.834-3.23-2.78-3.554l1.348-1.321c0.18-0.176,0.279-0.413,0.281-0.665
	c0.002-0.251-0.094-0.488-0.269-0.665L7.549,0.52c-0.36-0.369-0.957-0.377-1.332-0.013C6.069,0.652,5.915,0.797,5.758,0.945
	C4.665,1.972,3.427,3.137,3.387,5.076C3.34,7.395,5.039,10.23,8.732,13.999c1.789,1.823,5.396,5.502,8.82,5.501
	c0.893,0,1.771-0.27,2.604-0.868c0.092,0.757-0.006,2.046-1.296,3.337c-0.672,0.672-1.466,0.802-2.011,0.78
	c-0.999-0.026-2.021-0.517-2.747-1.326l-7.391-7.578c-0.697-0.565-2.414-1.259-3.912,0.148c-0.005,0.004-0.079,0.075-0.083,0.08
	c-0.585,0.583-0.908,1.358-0.909,2.185c-0.001,0.826,0.32,1.602,0.903,2.185l2.581,2.581c0.195,0.195,0.512,0.195,0.707,0
	s0.195-0.512,0-0.707l-2.581-2.581c-0.394-0.395-0.611-0.918-0.61-1.477s0.219-1.083,0.673-1.533
	c1.213-1.143,2.464-0.213,2.558-0.144l7.333,7.523c0.892,0.995,2.182,1.609,3.451,1.644c0.038,0.001,0.076,0.002,0.114,0.002
	c1.019,0,1.926-0.371,2.63-1.075c1.976-1.977,1.682-3.995,1.46-4.782c0.395-0.384,1.147-1.119,1.184-1.158
	C22.556,16.366,22.548,15.795,22.193,15.431z M17.41,11.312l-0.355,0.35c-0.002-0.001-0.005-0.003-0.006-0.004L17.41,11.312z
	 M20.113,17.386l-0.084,0.079c-3.003,2.814-7.231-0.751-10.583-4.167c-3.445-3.515-5.1-6.198-5.06-8.202
	c0.031-1.519,1.061-2.487,2.056-3.423C6.605,1.521,6.765,1.37,6.834,1.219l4.412,4.414l-1.36,1.334
	c-0.498,0.525-0.251,1.46,0.733,2.781c0.997,1.338,3.631,4.043,4.988,3.359c0.042-0.021,0.149-0.097,0.184-0.129
	c0.069-0.063,0.646-0.626,1.022-0.996l0.224-0.218c0.025-0.025,0.047-0.043,0.063-0.056l4.388,4.337
	C21.416,16.118,20.195,17.31,20.113,17.386z"/>
</svg>
