<?xml version="1.0" encoding="utf-8"?>
<!-- Generator: Adobe Illustrator 19.2.0, SVG Export Plug-In . SVG Version: 6.00 Build 0)  -->
<svg version="1.1" id="Layer_1" xmlns="http://www.w3.org/2000/svg" xmlns:xlink="http://www.w3.org/1999/xlink" x="0px" y="0px"
	 width="24px" height="24px" viewBox="0 0 24 24" style="enable-background:new 0 0 24 24;" xml:space="preserve">
<g>
	<path d="M15.016,9.317V8.462c0-0.276-0.224-0.5-0.5-0.5s-0.5,0.224-0.5,0.5v0.53H9.958v-0.53c0-0.276-0.224-0.5-0.5-0.5
		s-0.5,0.224-0.5,0.5v0.84l-6.789,7.613c-0.082,0.092-0.127,0.21-0.127,0.333v4.25c0,0.276,0.224,0.5,0.5,0.5h1.487v1.414
		c0,0.276,0.224,0.5,0.5,0.5s0.5-0.224,0.5-0.5v-1.414h13.924v1.414c0,0.276,0.224,0.5,0.5,0.5s0.5-0.224,0.5-0.5v-1.414h1.487
		c0.276,0,0.5-0.224,0.5-0.5v-4.25c0-0.123-0.045-0.242-0.127-0.333L15.016,9.317z M20.94,20.998H3.042v-3.56l6.64-7.446h4.596
		l6.663,7.447V20.998z"/>
	<path d="M8.155,16.055c0,2.115,1.721,3.836,3.835,3.836s3.835-1.721,3.835-3.836s-1.721-3.835-3.835-3.835
		S8.155,13.94,8.155,16.055z M14.826,16.055c0,1.563-1.272,2.836-2.835,2.836c-1.563,0-2.835-1.272-2.835-2.836
		s1.272-2.835,2.835-2.835C13.554,13.22,14.826,14.492,14.826,16.055z"/>
	<path d="M10.112,16.055c0,1.036,0.843,1.879,1.879,1.879c1.037,0,1.879-0.843,1.879-1.879s-0.843-1.879-1.879-1.879
		C10.955,14.177,10.112,15.019,10.112,16.055z M12.87,16.055c0,0.484-0.395,0.879-0.879,0.879s-0.879-0.395-0.879-0.879
		s0.394-0.879,0.879-0.879S12.87,15.571,12.87,16.055z"/>
	<path d="M22.686,3.68l-0.474,0.161L22.686,3.68c-0.857-2.507-4.351-3.697-10.689-3.636C5.648-0.033,2.154,1.174,1.296,3.68
		c-0.335,0.98-0.25,3.324-0.249,3.346C1.064,7.51,1.465,7.893,1.961,7.899l5.996,0.029c0.001,0,0.002,0,0.004,0
		c0.498,0,0.901-0.382,0.92-0.882c0,0,0.019-1.165,0.03-1.542c0.219-0.199,1.287-0.511,3.147-0.527
		c1.809,0.007,2.822,0.335,3.014,0.519c0.011,0.367,0.03,1.551,0.03,1.562c0.02,0.489,0.424,0.871,0.92,0.871
		c0.002,0,0.003,0,0.004,0l5.999-0.029c0.493-0.005,0.894-0.389,0.911-0.871C22.937,7.004,23.021,4.66,22.686,3.68z M21.939,6.899
		L16.1,6.927c-0.026-1.633-0.027-1.635-0.061-1.732c-0.376-1.1-2.948-1.219-4.036-1.219c-0.001,0-0.002,0-0.002,0
		c-1.097,0-3.681,0.119-4.058,1.222C7.91,5.295,7.91,5.297,7.883,6.927L2.043,6.899c-0.029-0.909,0.013-2.351,0.2-2.896
		C2.934,1.986,6.224,1,11.996,1.045c5.781-0.054,9.053,0.941,9.744,2.96C21.926,4.548,21.968,5.989,21.939,6.899z"/>
</g>
</svg>
