<?xml version="1.0" encoding="utf-8"?>
<!-- Generator: Adobe Illustrator 19.2.0, SVG Export Plug-In . SVG Version: 6.00 Build 0)  -->
<svg version="1.1" id="Layer_1" xmlns="http://www.w3.org/2000/svg" xmlns:xlink="http://www.w3.org/1999/xlink" x="0px" y="0px"
	 width="24px" height="24px" viewBox="0 0 24 24" style="enable-background:new 0 0 24 24;" xml:space="preserve">
<g>
	<path d="M15.084,5.998H8.933C8.41,5.998,8,6.379,8,6.865v5.196c0,0.536,0.492,0.937,0.932,0.937h6.151
		c0.497,0,0.917-0.429,0.917-0.938V6.865C16,6.438,15.657,5.998,15.084,5.998z M15,11.999l-6,0.062V6.998h6V11.999z"/>
	<path d="M17.658,2.998H9.537L9.231,1.412c-0.113-0.78-0.799-1.369-1.594-1.369H6.621c-0.888,0-1.611,0.716-1.611,1.597v20.897
		c0,0.771,0.631,1.396,1.408,1.396h11.241c0.776,0,1.407-0.626,1.407-1.396V4.394C19.065,3.624,18.435,2.998,17.658,2.998z
		 M18.065,22.538c0,0.219-0.183,0.396-0.407,0.396H6.417c-0.225,0-0.408-0.178-0.408-0.396V1.641c0-0.329,0.274-0.597,0.611-0.597
		h1.016c0.302,0,0.562,0.221,0.608,0.535l0.387,2.013c0.045,0.236,0.251,0.406,0.491,0.406h8.535c0.225,0,0.407,0.178,0.407,0.396
		V22.538z"/>
	<path d="M9.46,14.999H8.5c-0.276,0-0.5,0.224-0.5,0.5s0.224,0.5,0.5,0.5h0.96c0.276,0,0.5-0.224,0.5-0.5S9.737,14.999,9.46,14.999z
		"/>
	<path d="M9.46,16.999H8.5c-0.276,0-0.5,0.224-0.5,0.5s0.224,0.5,0.5,0.5h0.96c0.276,0,0.5-0.224,0.5-0.5S9.737,16.999,9.46,16.999z
		"/>
	<path d="M9.46,18.999H8.5c-0.276,0-0.5,0.224-0.5,0.5s0.224,0.5,0.5,0.5h0.96c0.276,0,0.5-0.224,0.5-0.5S9.737,18.999,9.46,18.999z
		"/>
	<path d="M12.461,14.999H11.5c-0.276,0-0.5,0.224-0.5,0.5s0.224,0.5,0.5,0.5h0.96c0.276,0,0.5-0.224,0.5-0.5
		S12.737,14.999,12.461,14.999z"/>
	<path d="M12.461,16.999H11.5c-0.276,0-0.5,0.224-0.5,0.5s0.224,0.5,0.5,0.5h0.96c0.276,0,0.5-0.224,0.5-0.5
		S12.737,16.999,12.461,16.999z"/>
	<path d="M12.461,18.999H11.5c-0.276,0-0.5,0.224-0.5,0.5s0.224,0.5,0.5,0.5h0.96c0.276,0,0.5-0.224,0.5-0.5
		S12.737,18.999,12.461,18.999z"/>
	<path d="M15.461,14.999h-0.96c-0.276,0-0.5,0.224-0.5,0.5s0.224,0.5,0.5,0.5h0.96c0.276,0,0.5-0.224,0.5-0.5
		S15.737,14.999,15.461,14.999z"/>
	<path d="M15.461,16.999h-0.96c-0.276,0-0.5,0.224-0.5,0.5s0.224,0.5,0.5,0.5h0.96c0.276,0,0.5-0.224,0.5-0.5
		S15.737,16.999,15.461,16.999z"/>
	<path d="M15.461,18.999h-0.96c-0.276,0-0.5,0.224-0.5,0.5s0.224,0.5,0.5,0.5h0.96c0.276,0,0.5-0.224,0.5-0.5
		S15.737,18.999,15.461,18.999z"/>
</g>
</svg>
