<?xml version="1.0" encoding="utf-8"?>
<!-- Generator: Adobe Illustrator 19.2.0, SVG Export Plug-In . SVG Version: 6.00 Build 0)  -->
<svg version="1.1" id="Layer_1" xmlns="http://www.w3.org/2000/svg" xmlns:xlink="http://www.w3.org/1999/xlink" x="0px" y="0px"
	 width="24px" height="24px" viewBox="0 0 24 24" style="enable-background:new 0 0 24 24;" xml:space="preserve">
<g>
	<path d="M17.341,13.465c-0.374-0.379-0.973-0.389-1.371-0.02l-0.093,0.092c-1.083,1.063-1.335,1.296-1.319,1.296
		c-0.136,0.078-0.825-0.104-2.011-1.11C10.634,12.1,9.47,10.175,9.561,9.83l1.463-1.434c0.187-0.184,0.291-0.43,0.292-0.692
		c0.002-0.262-0.098-0.508-0.28-0.691l-4.786-4.88C5.875,1.747,5.254,1.74,4.865,2.118c-0.158,0.155-0.322,0.31-0.488,0.467
		C3.192,3.703,1.85,4.97,1.81,7.061C1.761,9.563,3.6,12.626,7.596,16.702c4.022,4.103,7.066,6.018,9.569,6.017
		c0.025,0,0.05,0,0.075,0c2.149-0.033,3.49-1.488,4.672-2.771l0.252-0.272c0.358-0.384,0.351-0.979-0.019-1.356L17.341,13.465z
		 M21.177,19.269c-1.097,1.191-2.231,2.423-3.952,2.449c-2.158,0.025-5.109-1.836-8.915-5.716c-3.744-3.819-5.543-6.737-5.5-8.923
		c0.032-1.67,1.162-2.736,2.254-3.768c0.171-0.161,0.34-0.321,0.472-0.481l4.788,4.852L8.848,9.129
		c-0.524,0.553-0.254,1.552,0.803,2.968c1.076,1.442,3.924,4.359,5.357,3.629c0.097-0.048,0.137-0.068,1.569-1.477l0.068-0.066
		l4.787,4.81L21.177,19.269z"/>
	<path d="M22.948,6.049h-3.976V2.073c0-0.276-0.224-0.5-0.5-0.5s-0.5,0.224-0.5,0.5v3.976h-3.976c-0.276,0-0.5,0.224-0.5,0.5
		s0.224,0.5,0.5,0.5h3.976v3.976c0,0.276,0.224,0.5,0.5,0.5s0.5-0.224,0.5-0.5V7.049h3.976c0.276,0,0.5-0.224,0.5-0.5
		S23.225,6.049,22.948,6.049z"/>
</g>
</svg>
