<?xml version="1.0" encoding="utf-8"?>
<!-- Generator: Adobe Illustrator 19.2.0, SVG Export Plug-In . SVG Version: 6.00 Build 0)  -->
<svg version="1.1" id="Layer_1" xmlns="http://www.w3.org/2000/svg" xmlns:xlink="http://www.w3.org/1999/xlink" x="0px" y="0px"
	 width="24px" height="24px" viewBox="0 0 24 24" style="enable-background:new 0 0 24 24;" xml:space="preserve">
<path d="M23.453,7.246l-6.699-6.7c-0.24-0.24-0.55-0.354-0.862-0.322c-0.323,0.032-0.617,0.214-0.82,0.519
	C14.455,1.77,14.3,3.102,14.637,4.361l-3.944,4.033C7.858,7.103,4.751,7.442,2.847,9.346C2.679,9.514,2.5,9.836,2.5,10.1
	c0,0.409,0.226,0.633,0.345,0.752l4.775,4.821l-7.273,7.273c-0.195,0.195-0.195,0.512,0,0.707C0.444,23.751,0.572,23.8,0.7,23.8
	s0.256-0.049,0.354-0.146l7.27-7.27l4.821,4.868c0.001,0.001,0.001,0.001,0.002,0.002c0.188,0.188,0.463,0.297,0.754,0.297
	c0.29,0,0.564-0.108,0.753-0.297c1.905-1.905,2.265-4.955,0.95-7.851l4.039-4.039c1.259,0.336,2.591,0.178,3.635-0.449
	c0.285-0.19,0.467-0.484,0.499-0.808C23.808,7.792,23.692,7.486,23.453,7.246z M22.743,8.071c-0.86,0.516-2.014,0.61-3.085,0.255
	c-0.179-0.06-0.377-0.013-0.512,0.121l-4.5,4.5c-0.152,0.152-0.19,0.385-0.094,0.577c1.3,2.599,1.062,5.355-0.599,7.017
	c-0.022,0.013-0.081,0.014-0.105,0.002L3.494,10.161c0.008-0.028,0.042-0.088,0.06-0.108c1.677-1.678,4.473-1.88,7.022-0.606
	c0.194,0.098,0.43,0.058,0.581-0.098l4.4-4.5c0.131-0.134,0.176-0.33,0.117-0.508c-0.357-1.07-0.263-2.223,0.254-3.084L15.5,1
	l0.547,0.253l6.699,6.7C22.746,7.953,22.742,8.071,22.743,8.071z"/>
</svg>
