<?xml version="1.0" encoding="utf-8"?>
<!-- Generator: Adobe Illustrator 19.2.0, SVG Export Plug-In . SVG Version: 6.00 Build 0)  -->
<svg version="1.1" id="Layer_1" xmlns="http://www.w3.org/2000/svg" xmlns:xlink="http://www.w3.org/1999/xlink" x="0px" y="0px"
	 width="24px" height="24px" viewBox="0 0 24 24" style="enable-background:new 0 0 24 24;" xml:space="preserve">
<g>
	<path d="M17.608,1.25c-3.031,0-5.607,2.214-6.12,5.142C10.601,6.073,9.649,5.89,8.652,5.89c-4.648,0-8.431,3.782-8.431,8.431
		s3.782,8.431,8.431,8.431s8.431-3.782,8.431-8.431c0-0.227-0.016-0.45-0.034-0.672c0.186,0.017,0.373,0.028,0.559,0.028
		c3.426,0,6.213-2.787,6.213-6.213C23.821,4.037,21.034,1.25,17.608,1.25z M8.652,21.752c-4.097,0-7.431-3.333-7.431-7.431
		c0-4.097,3.333-7.431,7.431-7.431s7.431,3.333,7.431,7.431C16.083,18.419,12.75,21.752,8.652,21.752z M17.608,12.677
		c-0.236,0-0.468-0.038-0.701-0.069c-0.526-2.538-2.201-4.656-4.451-5.8c0.328-2.573,2.529-4.557,5.153-4.557
		c2.874,0,5.213,2.339,5.213,5.213S20.482,12.677,17.608,12.677z"/>
	<path d="M12.721,13.821H4.584c-0.276,0-0.5,0.224-0.5,0.5s0.224,0.5,0.5,0.5h8.137c0.276,0,0.5-0.224,0.5-0.5
		S12.997,13.821,12.721,13.821z"/>
	<path d="M19.887,6.964h-1.778V5.185c0-0.276-0.224-0.5-0.5-0.5s-0.5,0.224-0.5,0.5v1.778H15.33c-0.276,0-0.5,0.224-0.5,0.5
		s0.224,0.5,0.5,0.5h1.778v1.778c0,0.276,0.224,0.5,0.5,0.5s0.5-0.224,0.5-0.5V7.964h1.778c0.276,0,0.5-0.224,0.5-0.5
		S20.163,6.964,19.887,6.964z"/>
</g>
</svg>
