<?xml version="1.0" encoding="utf-8"?>
<!-- Generator: Adobe Illustrator 19.2.0, SVG Export Plug-In . SVG Version: 6.00 Build 0)  -->
<svg version="1.1" id="Layer_1" xmlns="http://www.w3.org/2000/svg" xmlns:xlink="http://www.w3.org/1999/xlink" x="0px" y="0px"
	 width="24px" height="24px" viewBox="0 0 24 24" style="enable-background:new 0 0 24 24;" xml:space="preserve">
<g>
	<path d="M11.997,0.12c-6.552,0-11.882,5.331-11.882,11.882s5.331,11.882,11.882,11.882s11.882-5.33,11.882-11.882
		S18.549,0.12,11.997,0.12z M11.997,22.885c-6,0-10.882-4.882-10.882-10.882c0-6,4.882-10.882,10.882-10.882
		c6,0,10.882,4.882,10.882,10.882C22.879,18.003,17.997,22.885,11.997,22.885z"/>
	<path d="M18.599,11.503h-6.1v-6.1c0-0.276-0.224-0.5-0.5-0.5s-0.5,0.224-0.5,0.5v6.1h-6.1c-0.276,0-0.5,0.224-0.5,0.5
		s0.224,0.5,0.5,0.5h6.1v6.1c0,0.276,0.224,0.5,0.5,0.5s0.5-0.224,0.5-0.5v-6.1h6.1c0.276,0,0.5-0.224,0.5-0.5
		S18.875,11.503,18.599,11.503z"/>
</g>
</svg>
