<?xml version="1.0" encoding="utf-8"?>
<!-- Generator: Adobe Illustrator 19.2.0, SVG Export Plug-In . SVG Version: 6.00 Build 0)  -->
<svg version="1.1" id="Layer_1" xmlns="http://www.w3.org/2000/svg" xmlns:xlink="http://www.w3.org/1999/xlink" x="0px" y="0px"
	 width="24px" height="24px" viewBox="0 0 24 24" style="enable-background:new 0 0 24 24;" xml:space="preserve">
<g>
	<path d="M21.885,18.569c0.401-0.64,0.422-1.481,0.052-2.143c-0.152-0.273-0.152-0.612,0-0.885c0.354-0.634,0.354-1.422,0-2.056
		c-0.136-0.241-0.44-0.326-0.681-0.192c-0.24,0.135-0.327,0.439-0.192,0.681c0.183,0.327,0.183,0.752,0,1.08
		c-0.32,0.573-0.32,1.285,0,1.859c0.191,0.342,0.181,0.794-0.026,1.124c-0.325,0.519-0.318,1.225,0.018,1.8
		c0.307,0.527,0.116,1.063-0.191,1.339c-0.16,0.141-0.485,0.336-0.879,0.044c-0.56-0.416-1.244-0.42-1.745-0.019
		c-0.254,0.205-0.577,0.218-0.843,0.027c-0.546-0.39-1.251-0.389-1.794,0c-0.25,0.178-0.557,0.178-0.807,0
		c-0.545-0.389-1.248-0.389-1.795,0c-0.247,0.178-0.557,0.178-0.805,0c-0.545-0.389-1.25-0.389-1.795,0
		c-0.249,0.178-0.557,0.178-0.805,0c-0.545-0.389-1.25-0.389-1.795,0c-0.264,0.188-0.586,0.179-0.841-0.026
		c-0.503-0.405-1.188-0.398-1.746,0.018c-0.276,0.206-0.535,0.145-0.666,0.093c-0.278-0.114-0.483-0.395-0.535-0.731
		c-0.042-0.271-0.293-0.456-0.571-0.417c-0.273,0.042-0.46,0.298-0.417,0.571c0.106,0.681,0.544,1.257,1.145,1.502
		c0.555,0.229,1.153,0.148,1.642-0.215c0.069-0.053,0.314-0.208,0.523-0.041c0.602,0.484,1.424,0.505,2.048,0.062
		c0.201-0.145,0.432-0.144,0.632-0.001c0.598,0.429,1.371,0.426,1.968,0.001c0.201-0.145,0.432-0.145,0.633,0
		c0.597,0.425,1.371,0.427,1.967,0c0.201-0.146,0.433-0.145,0.634,0c0.598,0.426,1.369,0.426,1.967,0
		c0.201-0.146,0.433-0.145,0.634,0c0.623,0.445,1.448,0.419,2.049-0.062c0.21-0.169,0.454-0.012,0.522,0.041
		c0.314,0.233,0.665,0.35,1.014,0.35c0.398,0,0.793-0.151,1.128-0.451c0.62-0.554,0.952-1.62,0.389-2.588
		C21.768,19.076,21.755,18.776,21.885,18.569z"/>
	<path d="M2.998,11.574c0,0.276,0.224,0.5,0.5,0.5s0.5-0.224,0.5-0.5c0-0.213,0.056-0.415,0.163-0.584
		c0.33-0.525,0.323-1.215-0.017-1.8c-0.125-0.215-0.172-0.48-0.131-0.745c0.052-0.337,0.257-0.617,0.535-0.73
		c0.131-0.053,0.39-0.114,0.666,0.092C5.771,8.222,6.456,8.229,6.96,7.825c0.255-0.204,0.577-0.215,0.841-0.028
		c0.545,0.39,1.25,0.389,1.795,0c0.248-0.177,0.557-0.177,0.805,0c0.546,0.39,1.251,0.39,1.795,0c0.249-0.177,0.557-0.178,0.806,0
		c0.224,0.159,0.536,0.109,0.697-0.117c0.16-0.225,0.107-0.537-0.117-0.697c-0.596-0.426-1.369-0.425-1.967,0
		c-0.201,0.144-0.431,0.144-0.633,0c-0.597-0.426-1.369-0.426-1.967,0c-0.2,0.144-0.431,0.144-0.633,0
		C7.759,6.54,6.935,6.563,6.334,7.045C6.126,7.214,5.88,7.057,5.81,7.005C5.322,6.642,4.724,6.562,4.169,6.79
		c-0.6,0.246-1.039,0.821-1.145,1.503C2.949,8.783,3.039,9.281,3.279,9.694c0.15,0.258,0.164,0.559,0.035,0.765
		C3.107,10.787,2.998,11.174,2.998,11.574z"/>
	<path d="M12.925,9.5c0-0.276-0.224-0.5-0.5-0.5H5.503c-0.276,0-0.5,0.224-0.5,0.5v1.033c0,0.276,0.224,0.5,0.5,0.5
		s0.5-0.224,0.5-0.5V10h6.422C12.702,10,12.925,9.776,12.925,9.5z"/>
	<path d="M12.609,20h6.894c0.276,0,0.5-0.224,0.5-0.5v-5c0-0.276-0.224-0.5-0.5-0.5s-0.5,0.224-0.5,0.5V19h-6.394
		c-0.276,0-0.5,0.224-0.5,0.5S12.333,20,12.609,20z"/>
	<path d="M18.995,5.272c-1.654,0-3,1.374-3,3.062s1.346,3.062,3,3.062s3-1.374,3-3.062S20.649,5.272,18.995,5.272z M18.995,10.397
		c-1.103,0-2-0.925-2-2.062s0.897-2.062,2-2.062s2,0.925,2,2.062S20.098,10.397,18.995,10.397z"/>
	<path d="M18.995,3.504c-2.605,0-4.725,2.167-4.725,4.831c0,2.663,2.119,4.83,4.725,4.83s4.725-2.167,4.725-4.83
		C23.72,5.671,21.601,3.504,18.995,3.504z M18.995,12.165c-2.054,0-3.725-1.718-3.725-3.83c0-2.112,1.671-3.831,3.725-3.831
		s3.725,1.718,3.725,3.831C22.72,10.447,21.049,12.165,18.995,12.165z"/>
	<path d="M1.043,13.962c0.473-0.484,1.292-0.484,1.765,0c0.853,0.873,2.344,0.873,3.196,0c0.472-0.484,1.29-0.485,1.764,0
		c0.426,0.437,0.994,0.677,1.598,0.677s1.172-0.24,1.598-0.677c0.193-0.198,0.189-0.515-0.009-0.708
		c-0.197-0.192-0.513-0.189-0.707,0.009c-0.473,0.486-1.292,0.486-1.765,0c-0.851-0.873-2.344-0.872-3.196,0
		c-0.473,0.486-1.292,0.486-1.765,0c-0.853-0.873-2.344-0.873-3.196,0c-0.193,0.198-0.189,0.514,0.009,0.707
		C0.534,14.164,0.85,14.158,1.043,13.962z"/>
	<path d="M1.043,16.373c0.473-0.486,1.292-0.486,1.765,0c0.853,0.873,2.344,0.874,3.196-0.001c0.472-0.484,1.29-0.486,1.764,0.001
		c0.426,0.437,0.994,0.677,1.598,0.677s1.172-0.24,1.598-0.677c0.193-0.198,0.189-0.515-0.009-0.707
		c-0.197-0.193-0.513-0.188-0.707,0.008c-0.473,0.486-1.292,0.485-1.765,0.001C7.633,14.8,6.14,14.802,5.288,15.674
		c-0.473,0.486-1.292,0.486-1.765,0c-0.853-0.873-2.344-0.873-3.196,0c-0.193,0.198-0.189,0.515,0.009,0.707
		C0.534,16.576,0.85,16.57,1.043,16.373z"/>
	<path d="M6.004,18.783c0.472-0.484,1.29-0.486,1.764,0.001c0.426,0.437,0.994,0.677,1.598,0.677s1.172-0.24,1.598-0.677
		c0.193-0.198,0.189-0.515-0.009-0.707c-0.197-0.194-0.513-0.188-0.707,0.008c-0.473,0.486-1.292,0.485-1.765,0.001
		c-0.851-0.875-2.344-0.874-3.196-0.001c-0.473,0.486-1.292,0.486-1.765,0c-0.853-0.873-2.344-0.873-3.196,0
		c-0.193,0.198-0.189,0.515,0.009,0.707c0.198,0.195,0.514,0.188,0.707-0.008c0.473-0.486,1.292-0.486,1.765,0
		C3.66,19.657,5.151,19.658,6.004,18.783z"/>
</g>
</svg>
