<?xml version="1.0" encoding="utf-8"?>
<!-- Generator: Adobe Illustrator 19.2.0, SVG Export Plug-In . SVG Version: 6.00 Build 0)  -->
<svg version="1.1" id="Layer_1" xmlns="http://www.w3.org/2000/svg" xmlns:xlink="http://www.w3.org/1999/xlink" x="0px" y="0px"
	 width="24px" height="24px" viewBox="0 0 24 24" style="enable-background:new 0 0 24 24;" xml:space="preserve">
<path d="M21.524-0.011h-7h-7h-7c-0.276,0-0.5,0.224-0.5,0.5v7c0,0,0,0,0,0s0,0,0,0v7c0,0,0,0,0,0s0,0,0,0v7
	c0,0.276,0.224,0.5,0.5,0.5h7c0.276,0,0.5-0.224,0.5-0.5v-6.501h6.5c0.276,0,0.5-0.224,0.5-0.5v-6.5h6.5c0.276,0,0.5-0.224,0.5-0.5
	v-7C22.024,0.213,21.801-0.011,21.524-0.011z M7.024,7.99v6h-6v-6H7.024z M14.024,6.989h-6v-6h6V6.989z M1.024,0.989h6v6h-6V0.989z
	 M7.024,20.99h-6v-6h6V20.99z M14.024,13.989h-6v-6h6V13.989z M21.024,6.989h-6v-6h6V6.989z"/>
</svg>
