<?xml version="1.0" encoding="utf-8"?>
<!-- Generator: Adobe Illustrator 19.2.0, SVG Export Plug-In . SVG Version: 6.00 Build 0)  -->
<svg version="1.1" id="Layer_1" xmlns="http://www.w3.org/2000/svg" xmlns:xlink="http://www.w3.org/1999/xlink" x="0px" y="0px"
	 width="24px" height="24px" viewBox="0 0 24 24" style="enable-background:new 0 0 24 24;" xml:space="preserve">
<path d="M23.469,11.648l-3.514-3.514c0.657-0.134,1.27-0.455,1.751-0.937c1.352-1.351,1.352-3.55,0-4.901
	c-1.353-1.353-3.552-1.351-4.901,0c-0.481,0.482-0.803,1.094-0.938,1.75l-3.514-3.514c-0.195-0.195-0.512-0.195-0.707,0L7.44,4.739
	c-0.148,0.148-0.188,0.373-0.1,0.563c0.087,0.189,0.273,0.299,0.494,0.289C8.565,5.53,9.272,5.787,9.777,6.291
	c0.961,0.961,0.961,2.526,0,3.487c-0.466,0.465-1.084,0.722-1.743,0.722h0c-0.659,0-1.278-0.257-1.744-0.723
	C5.785,9.274,5.53,8.566,5.589,7.835c0.017-0.209-0.099-0.406-0.289-0.494c-0.19-0.088-0.416-0.048-0.563,0.1l-4.207,4.207
	c-0.195,0.195-0.195,0.512,0,0.707L11.646,23.47c0.094,0.094,0.221,0.146,0.354,0.146s0.26-0.053,0.354-0.146l11.115-11.116
	C23.664,12.159,23.664,11.843,23.469,11.648z M12,22.41L1.591,12.001l3.096-3.096c0.15,0.595,0.456,1.141,0.896,1.58
	c1.351,1.351,3.55,1.352,4.901,0c1.351-1.352,1.351-3.55,0-4.901c-0.439-0.439-0.986-0.745-1.581-0.896L12,1.593l3.981,3.981
	c0.152,0.153,0.388,0.19,0.581,0.092c0.193-0.099,0.301-0.311,0.266-0.525c-0.128-0.796,0.121-1.576,0.684-2.139
	c0.933-0.932,2.557-0.931,3.487,0c0.466,0.466,0.722,1.085,0.722,1.744s-0.256,1.278-0.722,1.744
	c-0.562,0.562-1.341,0.814-2.139,0.683c-0.22-0.033-0.426,0.073-0.525,0.266c-0.099,0.193-0.062,0.428,0.092,0.581l3.981,3.982
	L12,22.41z"/>
</svg>
