<?xml version="1.0" encoding="UTF-8"?>
<svg width="38px" height="27px" viewBox="0 0 38 27" version="1.1" xmlns="http://www.w3.org/2000/svg" xmlns:xlink="http://www.w3.org/1999/xlink">
    <!-- Generator: Sketch 59.1 (86144) - https://sketch.com -->
    <title>“</title>
    <desc>Created with Sketch.</desc>
    <g id="Components" stroke="none" stroke-width="1" fill="none" fill-rule="evenodd">
        <g id="vcom_components" transform="translate(-240.000000, -2905.000000)" fill="#B6B6B8" fill-rule="nonzero">
            <g id="quote-w-attribution" transform="translate(154.000000, 2825.000000)">
                <g id="Group" transform="translate(50.000000, 80.000000)">
                    <path d="M66.0342857,27 C62.8609365,27 60.5619119,25.8669178 59.1371429,23.6007194 C58.4895206,22.6294915 57.9714305,21.4316618 57.5828571,20.0071942 C57.1942838,18.5827267 57,17.0935329 57,15.5395683 C57,12.172645 57.8580867,9.12951 59.5742857,6.41007194 C61.2904848,3.69063388 63.8323641,1.5539646 67.2,0 L68.0742857,1.74820144 C66.1961811,2.52518374 64.5609593,3.72301349 63.1685714,5.34172662 C61.7761835,6.96043975 60.9504775,8.61150237 60.6914286,10.294964 C60.4971419,11.0719463 60.4,11.8165432 60.4,12.528777 C60.4,13.1762622 60.4971419,13.791364 60.6914286,14.3741007 C62.1161976,12.8201361 63.9942741,12.0431655 66.3257143,12.0431655 C68.5923923,12.0431655 70.4380881,12.7068279 71.8628571,14.0341727 C73.2876262,15.3615174 74,17.1906358 74,19.5215827 C74,21.7230326 73.2552455,23.5197772 71.7657143,24.9118705 C70.276183,26.3039638 68.3657259,27 66.0342857,27 Z M45.0342857,27 C41.8609365,27 39.5619119,25.8669178 38.1371429,23.6007194 C37.4895206,22.6294915 36.9714305,21.4316618 36.5828571,20.0071942 C36.1942838,18.5827267 36,17.0935329 36,15.5395683 C36,12.172645 36.8580867,9.12951 38.5742857,6.41007194 C40.2904848,3.69063388 42.8323641,1.5539646 46.2,0 L47.0742857,1.74820144 C45.1961811,2.52518374 43.5609593,3.72301349 42.1685714,5.34172662 C40.7761835,6.96043975 39.9504775,8.61150237 39.6914286,10.294964 C39.4971419,11.0719463 39.4,11.8165432 39.4,12.528777 C39.4,13.1762622 39.4971419,13.791364 39.6914286,14.3741007 C41.1161976,12.8201361 42.9942741,12.0431655 45.3257143,12.0431655 C47.5923923,12.0431655 49.4380881,12.7068279 50.8628571,14.0341727 C52.2876262,15.3615174 53,17.1906358 53,19.5215827 C53,21.7230326 52.2552455,23.5197772 50.7657143,24.9118705 C49.276183,26.3039638 47.3657259,27 45.0342857,27 Z" id="“"></path>
                </g>
            </g>
        </g>
    </g>
</svg>