<?xml version="1.0" encoding="UTF-8"?>
<svg width="17px" height="27px" viewBox="0 0 17 27" version="1.1" xmlns="http://www.w3.org/2000/svg" xmlns:xlink="http://www.w3.org/1999/xlink">
    <!-- Generator: Sketch 59.1 (86144) - https://sketch.com -->
    <title>Path</title>
    <desc>Created with Sketch.</desc>
    <g id="Components" stroke="none" stroke-width="1" fill="none" fill-rule="evenodd">
        <g id="vcom_components" transform="translate(-90.000000, -2905.000000)" fill="#B6B6B8">
            <g id="quote-w-attribution" transform="translate(90.000000, 2825.000000)">
                <g id="Group" transform="translate(0.000000, 80.000000)">
                    <path d="M9.03428571,27 C5.86093651,27 3.56191189,25.8669178 2.13714286,23.6007194 C1.48952057,22.6294915 0.971430514,21.4316618 0.582857143,20.0071942 C0.194283771,18.5827267 0,17.0935329 0,15.5395683 C0,12.172645 0.858086657,9.12951 2.57428571,6.41007194 C4.29048477,3.69063388 6.83236411,1.5539646 10.2,0 L11.0742857,1.74820144 C9.19618109,2.52518374 7.56095934,3.72301349 6.16857143,5.34172662 C4.77618351,6.96043975 3.95047749,8.61150237 3.69142857,10.294964 C3.49714189,11.0719463 3.4,11.8165432 3.4,12.528777 C3.4,13.1762622 3.49714189,13.791364 3.69142857,14.3741007 C5.1161976,12.8201361 6.99427406,12.0431655 9.32571429,12.0431655 C11.5923923,12.0431655 13.4380881,12.7068279 14.8628571,14.0341727 C16.2876262,15.3615174 17,17.1906358 17,19.5215827 C17,21.7230326 16.2552455,23.5197772 14.7657143,24.9118705 C13.276183,26.3039638 11.3657259,27 9.03428571,27 Z" id="Path"></path>
                </g>
            </g>
        </g>
    </g>
</svg>