<?xml version="1.0" encoding="utf-8"?>
<!-- Generator: Adobe Illustrator 19.2.0, SVG Export Plug-In . SVG Version: 6.00 Build 0)  -->
<svg version="1.1" id="Layer_1" xmlns="http://www.w3.org/2000/svg" xmlns:xlink="http://www.w3.org/1999/xlink" x="0px" y="0px"
	 width="24px" height="24px" viewBox="0 0 24 24" style="enable-background:new 0 0 24 24;" xml:space="preserve">
<g>
	<path d="M4,1C2.346,1,1,2.345,1,4s1.346,3,3,3s3-1.346,3-3S5.654,1,4,1z M4,6C2.897,6,2,5.103,2,4s0.897-2,2-2s2,0.897,2,2
		S5.103,6,4,6z"/>
	<path d="M4,9c-1.654,0-3,1.346-3,3s1.346,3,3,3s3-1.346,3-3S5.654,9,4,9z M4,14c-1.103,0-2-0.897-2-2s0.897-2,2-2s2,0.897,2,2
		S5.103,14,4,14z"/>
	<path d="M4,17c-1.654,0-3,1.346-3,3s1.346,3,3,3s3-1.346,3-3S5.654,17,4,17z M4,22c-1.103,0-2-0.897-2-2s0.897-2,2-2s2,0.897,2,2
		S5.103,22,4,22z"/>
	<path d="M21.5,19h-12C9.224,19,9,19.223,9,19.5S9.224,20,9.5,20h12c0.276,0,0.5-0.224,0.5-0.5S21.776,19,21.5,19z"/>
	<path d="M21.5,11h-12C9.224,11,9,11.223,9,11.5S9.224,12,9.5,12h12c0.276,0,0.5-0.224,0.5-0.5S21.776,11,21.5,11z"/>
	<path d="M9.5,4h12C21.776,4,22,3.776,22,3.5S21.776,3,21.5,3h-12C9.224,3,9,3.223,9,3.5S9.224,4,9.5,4z"/>
	<path d="M4.1,3.5H4C3.724,3.5,3.5,3.723,3.5,4S3.724,4.5,4,4.5h0.1c0.276,0,0.5-0.224,0.5-0.5S4.376,3.5,4.1,3.5z"/>
</g>
</svg>
