<?xml version="1.0" encoding="utf-8"?>
<!-- Generator: Adobe Illustrator 19.2.0, SVG Export Plug-In . SVG Version: 6.00 Build 0)  -->
<svg version="1.1" id="Layer_1" xmlns="http://www.w3.org/2000/svg" xmlns:xlink="http://www.w3.org/1999/xlink" x="0px" y="0px"
	 width="24px" height="24px" viewBox="0 0 24 24" style="enable-background:new 0 0 24 24;" xml:space="preserve">
<path d="M23.267,13.884c-0.005-0.069-0.021-0.138-0.056-0.203l-4.458-8.328c-0.121-0.225-1.222-2.184-2.822-2.184
	c-0.006,0-0.012,0-0.018,0c-0.979,0.009-1.852,0.747-2.595,2.192c-0.127,0.245-0.03,0.547,0.216,0.673
	c0.244,0.126,0.547,0.03,0.673-0.216c0.385-0.748,0.995-1.642,1.714-1.649c0.003,0,0.006,0,0.01,0c0.855,0,1.691,1.196,1.941,1.657
	l3.144,5.874c-0.788-0.365-1.702-0.587-2.69-0.587c-2.053,0-3.816,0.917-4.664,2.235c-1.084-0.212-2.201-0.187-3.272,0.074
	c-0.828-1.359-2.624-2.309-4.716-2.309c-0.98,0-1.888,0.22-2.672,0.58l3.112-5.815C6.346,5.447,7.2,4.22,8.056,4.22
	c0.003,0,0.005,0,0.008,0c0.719,0.007,1.329,0.901,1.714,1.649c0.125,0.245,0.426,0.342,0.673,0.216
	c0.246-0.126,0.342-0.428,0.216-0.673C9.924,3.967,9.052,3.229,8.074,3.22c-1.654,0-2.719,1.958-2.841,2.185l-4.338,8.104
	c-0.013,0.023-0.025,0.047-0.038,0.071l-0.082,0.154c-0.031,0.058-0.047,0.119-0.054,0.18c-0.152,0.372-0.257,0.759-0.257,1.168
	c0,2.188,2.337,3.97,5.21,3.97s5.21-1.781,5.21-3.97c0-0.249-0.039-0.49-0.096-0.726c0.799-0.173,1.624-0.198,2.435-0.071
	c-0.069,0.258-0.106,0.524-0.106,0.797c0,2.188,2.337,3.97,5.21,3.97s5.21-1.781,5.21-3.97
	C23.536,14.662,23.427,14.264,23.267,13.884z M5.674,18.052c-2.321,0-4.21-1.332-4.21-2.97c0-0.367,0.107-0.716,0.281-1.041
	l0.086-0.16c0.656-1.04,2.129-1.769,3.843-1.769c2.321,0,4.21,1.332,4.21,2.969S7.995,18.052,5.674,18.052z M18.326,18.052
	c-2.321,0-4.21-1.332-4.21-2.97s1.889-2.969,4.21-2.969s4.21,1.332,4.21,2.969S20.647,18.052,18.326,18.052z"/>
</svg>
