<svg xmlns="http://www.w3.org/2000/svg" width="78" height="68"><path d="M46.146 58.838l-6.95-6.14c-4.683-4.04-5.79-8.225-5.006-11.488a8.06 8.06 0 0 1 2.243-3.929c1.067-1.028 2.394-1.73 3.8-2 2.224-.428 4.627.212 6.505 2.34 1.878-2.13 4.28-2.77 6.505-2.34 1.406.27 2.732.974 3.8 2 1.06 1.02 1.868 2.367 2.243 3.93.296 1.23.322 2.6-.01 4.025h6.07V15.327c0-.374-.153-.714-.4-.96s-.586-.4-.96-.4h-7.714a3.64 3.64 0 0 1-1.034 2.068c-.66.66-1.57 1.07-2.574 1.07h-11.85c-1.003 0-1.914-.4-2.574-1.07a3.64 3.64 0 0 1-1.034-2.068h-5.2l.47 2.806c.365 2.185-.348 4.09-1.77 5.746-.99 1.152-2.325 2.18-3.876 3.094l-.002 35.274c.004.384.154.726.4.97v.001c.24.24.577.386.962.386H56.82v-6.514c0-.554.226-1.057.6-1.42.01-.01.018-.017.027-.025.362-.35.854-.565 1.394-.565h6.513v-7.294H58.92c-.738 2.03-2.206 4.17-4.64 6.27l-.02.017-6.93 6.126c-.342.303-.85.295-1.184-.001zM24.578 3.777h-2.73c-.283 0-.54-.116-.726-.302a.52.52 0 0 1-.045-.051 1.02 1.02 0 0 1-.256-.676V1.187c0-.28.116-.538.303-.725V.46c.186-.186.443-.3.726-.3h2.73c.283 0 .54.116.726.3s.3.443.3.726v.19l.827.01c.912.01 1.916.4 2.708 1.154.68.64 1.2 1.534 1.398 2.657l.772 4.62h11.452l.32-2.88c.11-.98.554-1.722 1.178-2.238v-.002c.69-.57 1.59-.84 2.48-.84s1.792.27 2.48.84l-.001.002c.625.517 1.07 1.258 1.178 2.238l.32 2.88h14.263a5.44 5.44 0 0 1 3.853 1.602c.99.988 1.602 2.352 1.602 3.853v21.408h2.323c2.32 0 3.808 1.273 4.463 2.902a5.3 5.3 0 0 1 .377 1.971h-.002c0 .674-.125 1.35-.374 1.97-.655 1.63-2.144 2.902-4.463 2.902h-2.323v16.076a5.44 5.44 0 0 1-5.455 5.455H27.195a5.44 5.44 0 0 1-5.456-5.455V37.876h-1.212c-1.488 0-2.64-.532-3.45-1.348-.927-.934-1.4-2.233-1.4-3.525V30.57l-8.09-3.96c-2.34-1.146-4.367-2.5-5.733-4.1C.443 20.863-.27 18.96.095 16.774L2.03 5.2a4.66 4.66 0 0 1 1.398-2.657C4.22 1.798 5.222 1.4 6.135 1.388l.827-.01v-.19c0-.283.116-.54.3-.726l.001.001.001-.001c.186-.186.442-.3.724-.3h2.73c.283 0 .54.116.726.3l-.001.001c.187.187.303.444.303.725V2.75a1.02 1.02 0 0 1-.256.676c-.014.017-.03.035-.045.05-.186.186-.443.302-.726.302H7.99a1.02 1.02 0 0 1-.678-.258c-.017-.014-.033-.028-.05-.044-.186-.186-.3-.443-.3-.726v-.182l-.814.01c-.63.008-1.334.295-1.906.833-.504.474-.898 1.142-1.04 1.986L1.27 16.97c-.3 1.796.303 3.382 1.5 4.776.488.568 1.074 1.106 1.737 1.615 4.2 1.313 8.24 1.91 12.165 1.88a36.75 36.75 0 0 0 5.068-.392v-9.575c0-1.5.614-2.865 1.602-3.853a5.44 5.44 0 0 1 3.854-1.602h2.908l-.74-4.424c-.14-.844-.535-1.512-1.04-1.986-.57-.537-1.277-.825-1.906-.833l-.814-.01v.182c0 .283-.116.54-.3.726s-.443.302-.726.302zm-2.565-1.194h2.4v-1.23h-2.4v1.23zm-13.856 0h2.4v-1.23h-2.4v1.23zm49.436 60.42c-.08.086-.197.14-.324.14H28.186c-.63 0-1.19-.247-1.594-.65s-.652-.968-.66-1.6v-.004h-.002v-34.77c-.314.168-.635.333-.962.493l-1.44.705v35.19c0 1.007.413 1.923 1.077 2.587s1.58 1.077 2.588 1.077h37.783c1.007 0 1.923-.413 2.588-1.077s1.077-1.58 1.077-2.587V46.428H66.24l-.005 7.81-.001.006v.004h0l-.001.006v.004h-.001v.006.004.002l-.001.005v.004l-.001.002-.001.005v.003l-.001.002-.003.008v.003l-.002.005-.001.002-.001.003-.002.005v.002l-.001.003-.002.005v.002l-.001.003-.002.005v.002l-.001.003-.002.005-.001.002v.003l-.002.005-.001.001-.002.004-.002.005v.001l-.002.004-.002.005-.003.005-.003.005-.003.005-.003.005-.003.005-.003.004-.003.005-.003.004-.003.005-.003.004-.004.004-.003.004-.004.005-.003.004-.004.005-.003.004-.004.005-.003.004-.004.005-.003.003-.005.005-.003.003-.001.001-.004.004-.003.003-.001.001-.004.004-8.512 8.512zm7.12-8.386h-5.88c-.298 0-.57.118-.77.308-.006.007-.012.013-.018.02a1.11 1.11 0 0 0-.328.788v5.88l6.996-6.996zm-17.974-8.19c-.33 0-.597-.267-.597-.597s.267-.597.597-.597h1.503c-.082-.206-.205-.392-.36-.546l-.001-.002a1.61 1.61 0 0 0-2.286.002 1.61 1.61 0 0 0 0 2.285c.29.293.696.473 1.143.473s.85-.18 1.144-.472c.153-.155.277-.34.358-.547H46.74zm2.44-1.194h1.156a3.63 3.63 0 0 0-1.024-2.027c-.658-.658-1.567-1.065-2.57-1.065s-1.913.407-2.57 1.065-1.065 1.567-1.065 2.57.407 1.914 1.065 2.57 1.567 1.065 2.57 1.065 1.914-.407 2.57-1.065c.513-.513.873-1.178 1.007-1.922H49.18a2.51 2.51 0 0 1-.664 1.179h-.001a2.5 2.5 0 0 1-3.548 0h-.001a2.5 2.5 0 0 1-.736-1.776c0-.693.28-1.32.736-1.776s1.082-.736 1.776-.736 1.32.28 1.774.736l.002.002c.32.32.553.725.664 1.177zm2.36 0h5.893c.373-1.304.38-2.527.12-3.612a6.27 6.27 0 0 0-1.746-3.054c-.82-.79-1.83-1.328-2.897-1.533-1.87-.36-3.93.33-5.425 2.53a.89.89 0 0 1-1.483.01c-1.496-2.2-3.56-2.9-5.43-2.54-1.066.205-2.078.744-2.897 1.533a6.27 6.27 0 0 0-1.746 3.054c-.645 2.683.353 6.2 4.44 9.725l.007.007 6.366 5.627 6.34-5.603c.01-.01.022-.02.034-.03 1.937-1.67 3.18-3.34 3.882-4.92h-5.47c-.145 1.074-.642 2.036-1.37 2.765-.874.874-2.082 1.415-3.415 1.415s-2.54-.54-3.415-1.415-1.415-2.08-1.415-3.415.54-2.54 1.415-3.415 2.082-1.415 3.415-1.415 2.54.54 3.415 1.415c.753.753 1.26 1.755 1.384 2.87zm14.702 0h2.402v-29.96c0-1.007-.413-1.923-1.077-2.588s-1.58-1.077-2.588-1.077h-8.67v1.463h7.678c.62 0 1.182.254 1.59.662l.002.001c.408.41.662.972.662 1.59v29.907zm4.193 0h2.323c1.754 0 2.872-.944 3.358-2.15a4.11 4.11 0 0 0 .291-1.528h-.002a4.11 4.11 0 0 0-.288-1.528c-.485-1.208-1.603-2.152-3.357-2.152h-2.323v7.358zM25.43 25.037a39.14 39.14 0 0 1-1.901.414v.54l.918-.45a27.72 27.72 0 0 0 .983-.505zm-3.69.714a37.69 37.69 0 0 1-5.061.382c-3.128.024-6.33-.34-9.614-1.136.343.186.695.368 1.056.545l8.163 3.997 5.455-2.67V25.75zm1.79-1.21c.806-.158 1.606-.343 2.402-.553v-8.662c0-.622.25-1.18.657-1.587a2.28 2.28 0 0 1 1.592-.665h.005v-.002h2.46l-.245-1.463h-3.207c-1.007 0-1.923.413-2.588 1.077s-1.077 1.58-1.077 2.588v9.268zm3.298-.8a40.94 40.94 0 0 0 1.225-.374c.667-.51 1.256-1.05 1.746-1.622 1.197-1.394 1.8-2.98 1.5-4.776l-.502-3.002h-2.6v-.002a1.39 1.39 0 0 0-.965.406c-.244.244-.394.58-.394.955v8.415zM31.6 11.61l.244 1.463h5.315V11.61H31.6zm-9.87 16.582l-4.858 2.38v2.432c0 .996.347 1.987 1.04 2.685.597.602 1.465.994 2.606.994h1.212v-8.5zM44 26.698c-.33 0-.597-.267-.597-.597s.267-.597.597-.597h2.143V23.36c0-.33.267-.597.597-.597s.597.267.597.597v2.143h2.143c.33 0 .597.267.597.597s-.267.597-.597.597h-2.143v2.143c0 .33-.267.597-.597.597s-.597-.267-.597-.597v-2.143H44zm2.74-6.73c1.694 0 3.228.687 4.338 1.797s1.797 2.644 1.797 4.338-.687 3.227-1.797 4.337-2.644 1.797-4.338 1.797-3.227-.687-4.337-1.797-1.797-2.644-1.797-4.337.687-3.228 1.797-4.338 2.644-1.797 4.337-1.797zm3.494 2.64c-.894-.894-2.13-1.447-3.494-1.447s-2.6.553-3.493 1.447-1.447 2.13-1.447 3.494.553 2.6 1.447 3.494 2.13 1.447 3.493 1.447 2.6-.553 3.494-1.447 1.447-2.13 1.447-3.494-.553-2.6-1.447-3.494zM44.56 9.82h4.355l-.297-2.685c-.052-.477-.255-.825-.536-1.058h-.004c-.356-.294-.844-.434-1.34-.434s-.984.14-1.34.434h-.003c-.282.232-.484.58-.537 1.058L44.56 9.82zm9.956 1.79H38.96v1.853c0 .51.21.972.545 1.308s.8.545 1.308.545h11.85c.51 0 .972-.21 1.308-.545s.545-.8.545-1.308V11.61z" fill="#83003f" fill-rule="nonzero"/></svg>