<?xml version="1.0" encoding="utf-8"?>
<!-- Generator: Adobe Illustrator 19.2.0, SVG Export Plug-In . SVG Version: 6.00 Build 0)  -->
<svg version="1.1" id="Layer_1" xmlns="http://www.w3.org/2000/svg" xmlns:xlink="http://www.w3.org/1999/xlink" x="0px" y="0px"
	 width="24px" height="24px" viewBox="0 0 24 24" style="enable-background:new 0 0 24 24;" xml:space="preserve">
<g>
	<path d="M22.069,11.495c0-0.133-0.053-0.26-0.146-0.354l-2.737-2.737c-0.195-0.195-0.512-0.195-0.707,0s-0.195,0.512,0,0.707
		l1.89,1.89H14v-9c0-0.276-0.224-0.5-0.5-0.5S13,1.725,13,2.001v19c0,0.276,0.224,0.5,0.5,0.5s0.5-0.224,0.5-0.5v-9h6.356
		l-1.877,1.877c-0.195,0.195-0.195,0.512,0,0.707c0.098,0.098,0.226,0.146,0.354,0.146s0.256-0.049,0.354-0.146l2.717-2.717
		c0.101-0.091,0.167-0.22,0.167-0.367c0-0.001-0.001-0.002-0.001-0.003S22.069,11.496,22.069,11.495z"/>
	<path d="M10.568,1.501c-0.276,0-0.5,0.224-0.5,0.5v9H3.712l1.877-1.877c0.195-0.195,0.195-0.512,0-0.707s-0.512-0.195-0.707,0
		l-2.718,2.718c-0.056,0.051-0.1,0.112-0.128,0.184c-0.002,0.005-0.001,0.011-0.003,0.017c-0.019,0.052-0.033,0.107-0.033,0.166
		C1.999,11.502,2,11.503,2,11.504c-0.001,0.129,0.047,0.258,0.146,0.357l2.737,2.737c0.098,0.098,0.226,0.146,0.354,0.146
		s0.256-0.049,0.354-0.146c0.195-0.195,0.195-0.512,0-0.707L3.7,12.001h6.368v9c0,0.276,0.224,0.5,0.5,0.5s0.5-0.224,0.5-0.5v-19
		C11.068,1.725,10.844,1.501,10.568,1.501z"/>
</g>
</svg>
