<?xml version="1.0" encoding="utf-8"?>
<!-- Generator: Adobe Illustrator 19.2.0, SVG Export Plug-In . SVG Version: 6.00 Build 0)  -->
<svg version="1.1" id="Layer_1" xmlns="http://www.w3.org/2000/svg" xmlns:xlink="http://www.w3.org/1999/xlink" x="0px" y="0px"
	 width="24px" height="24px" viewBox="0 0 24 24" style="enable-background:new 0 0 24 24;" xml:space="preserve">
<g>
	<path d="M23.55,10.055c-0.199-0.19-0.515-0.183-0.707,0.017l-1.789,1.877c-0.082-4.751-3.576-8.839-8.327-9.418
		C10.193,2.22,7.69,2.919,5.68,4.492c-2.011,1.573-3.288,3.835-3.597,6.37c-0.638,5.231,3.099,10.006,8.33,10.644
		c0.396,0.049,0.79,0.072,1.181,0.072c3.469,0,6.668-1.87,8.367-4.977c0.133-0.243,0.044-0.547-0.198-0.679
		c-0.242-0.135-0.547-0.044-0.679,0.198c-1.692,3.095-5.047,4.817-8.549,4.393c-4.684-0.571-8.029-4.847-7.458-9.53
		c0.277-2.269,1.42-4.294,3.221-5.703c1.8-1.41,4.042-2.03,6.31-1.756c4.312,0.526,7.47,4.289,7.455,8.628l-2.057-1.959
		c-0.198-0.188-0.515-0.183-0.707,0.018c-0.19,0.2-0.183,0.517,0.018,0.707l2.839,2.703c0.015,0.014,0.033,0.02,0.049,0.031
		c0.026,0.02,0.052,0.038,0.082,0.052c0.033,0.016,0.066,0.025,0.101,0.033c0.018,0.004,0.034,0.015,0.053,0.018
		c0.009,0.001,0.018-0.003,0.027-0.002c0.011,0.001,0.022,0.006,0.033,0.006c0.028,0,0.055-0.012,0.083-0.017
		c0.026-0.005,0.051-0.007,0.075-0.015c0.035-0.012,0.066-0.03,0.098-0.05c0.026-0.016,0.051-0.03,0.073-0.05
		c0.01-0.009,0.024-0.013,0.033-0.023l2.707-2.842C23.758,10.562,23.75,10.246,23.55,10.055z"/>
	<path d="M11.53,7.178c-1.382,0-2.507,1.055-2.507,2.352v1.467c-0.62,0.086-1.107,0.596-1.105,1.278l0.341,3.474
		c0,0.697,0.573,1.264,1.277,1.264h3.987c0.704,0,1.277-0.566,1.275-1.215l0.346-3.571c0-0.637-0.487-1.144-1.107-1.23V9.53
		C14.037,8.233,12.913,7.178,11.53,7.178z M11.53,8.178c0.831,0,1.507,0.606,1.507,1.352v1.433h-3.014V9.53
		C10.023,8.784,10.699,8.178,11.53,8.178z M14.146,12.178l-0.346,3.571c0,0.146-0.124,0.264-0.277,0.264H9.537
		c-0.153,0-0.277-0.118-0.28-0.312l-0.341-3.474c0-0.146,0.125-0.264,0.277-0.264h4.674C14.021,11.963,14.145,12.081,14.146,12.178z
		"/>
	<path d="M11.53,13.241c-0.276,0-0.5,0.224-0.5,0.5v0.904c0,0.276,0.224,0.5,0.5,0.5s0.5-0.224,0.5-0.5v-0.904
		C12.03,13.465,11.806,13.241,11.53,13.241z"/>
</g>
</svg>
