<?xml version="1.0" encoding="utf-8"?>
<!-- Generator: Adobe Illustrator 19.2.0, SVG Export Plug-In . SVG Version: 6.00 Build 0)  -->
<svg version="1.1" id="Layer_1" xmlns="http://www.w3.org/2000/svg" xmlns:xlink="http://www.w3.org/1999/xlink" x="0px" y="0px"
	 width="24px" height="24px" viewBox="0 0 24 24" style="enable-background:new 0 0 24 24;" xml:space="preserve">
<g>
	<path d="M8.91,20.131c-3.427-1.446-5.544-5.042-5.312-8.802l1.551,1.58c0.098,0.1,0.228,0.15,0.357,0.15
		c0.126,0,0.253-0.048,0.35-0.143c0.197-0.193,0.2-0.51,0.007-0.707L3.575,9.877c-0.013-0.013-0.03-0.019-0.044-0.03
		c-0.026-0.021-0.052-0.04-0.082-0.056C3.42,9.776,3.39,9.765,3.358,9.756C3.339,9.75,3.324,9.738,3.305,9.735
		C3.291,9.732,3.278,9.737,3.264,9.736C3.25,9.735,3.237,9.727,3.223,9.727c-0.027,0-0.042,0.009-0.065,0.012
		C3.13,9.743,3.102,9.746,3.075,9.754c-0.042,0.012-0.082,0.03-0.116,0.052C2.941,9.817,2.925,9.829,2.908,9.842
		C2.895,9.853,2.881,9.858,2.868,9.87L0.52,12.175c-0.197,0.193-0.2,0.51-0.007,0.707c0.193,0.198,0.51,0.199,0.707,0.007
		l1.367-1.342c-0.136,4.074,2.201,7.931,5.934,9.506c0.063,0.026,0.129,0.039,0.194,0.039c0.195,0,0.38-0.114,0.46-0.306
		C9.284,20.532,9.165,20.238,8.91,20.131z"/>
	<path d="M22.133,10.869c-0.035-0.274-0.289-0.464-0.56-0.433c-0.273,0.035-0.468,0.286-0.433,0.56
		c0.471,3.69-1.574,7.327-4.942,9.017l0.588-2.135c0.073-0.267-0.084-0.542-0.35-0.615c-0.271-0.069-0.541,0.084-0.615,0.35
		l-0.866,3.148c-0.005,0.019-0.001,0.038-0.004,0.057c-0.005,0.031-0.008,0.061-0.007,0.092c0.001,0.035,0.007,0.068,0.016,0.103
		c0.004,0.018,0.002,0.036,0.008,0.053c0.003,0.009,0.013,0.013,0.017,0.021c0.007,0.017,0.008,0.036,0.018,0.053
		c0.036,0.063,0.087,0.115,0.145,0.157c0.011,0.008,0.022,0.01,0.034,0.017c0.039,0.024,0.078,0.049,0.123,0.062l3.172,0.872
		c0.045,0.012,0.089,0.018,0.133,0.018c0.22,0,0.421-0.146,0.482-0.367c0.073-0.267-0.084-0.542-0.35-0.615l-1.848-0.508
		C20.486,18.847,22.646,14.888,22.133,10.869z"/>
	<path d="M15.293,6.065l3.15-0.86c0.015-0.004,0.026-0.015,0.041-0.021c0.027-0.01,0.051-0.023,0.077-0.038
		c0.039-0.023,0.073-0.049,0.103-0.081c0.011-0.011,0.025-0.015,0.035-0.027c0.009-0.011,0.011-0.024,0.018-0.035
		c0.02-0.029,0.034-0.058,0.048-0.091c0.013-0.03,0.024-0.058,0.03-0.089c0.006-0.029,0.007-0.059,0.008-0.089
		c0.001-0.036,0-0.069-0.007-0.104c-0.002-0.013,0.001-0.026-0.003-0.039l-0.866-3.174c-0.072-0.265-0.345-0.425-0.614-0.351
		c-0.267,0.073-0.423,0.348-0.351,0.614l0.504,1.848C13.977,1.422,9.47,1.583,6.275,4.073c-0.218,0.17-0.256,0.484-0.087,0.702
		C6.357,4.993,6.67,5.031,6.89,4.863c2.934-2.287,7.105-2.381,10.275-0.346L15.029,5.1c-0.267,0.073-0.423,0.348-0.351,0.614
		c0.061,0.222,0.263,0.368,0.482,0.368C15.204,6.082,15.249,6.076,15.293,6.065z"/>
</g>
</svg>
