<?xml version="1.0" encoding="utf-8"?>
<!-- Generator: Adobe Illustrator 19.2.0, SVG Export Plug-In . SVG Version: 6.00 Build 0)  -->
<svg version="1.1" id="Layer_1" xmlns="http://www.w3.org/2000/svg" xmlns:xlink="http://www.w3.org/1999/xlink" x="0px" y="0px"
	 width="24px" height="24px" viewBox="0 0 24 24" style="enable-background:new 0 0 24 24;" xml:space="preserve">
<g>
	<path d="M17,12H7c-0.276,0-0.5,0.224-0.5,0.5S6.724,13,7,13h10c0.276,0,0.5-0.224,0.5-0.5S17.276,12,17,12z"/>
	<path d="M16.996,22.516C16.473,21.395,15.82,20,13.82,20H12.5v-1.5c0-0.276-0.224-0.5-0.5-0.5s-0.5,0.224-0.5,0.5V20h-1.323
		c-1.955,0-2.627,1.376-3.167,2.482l-0.197,0.396c-0.036,0.07-0.055,0.149-0.055,0.229c0,0.484,0.43,0.894,0.939,0.894h8.604
		c0.518,0,0.938-0.386,0.938-0.859c0-0.077-0.018-0.152-0.052-0.222L16.996,22.516z M7.869,23l0.039-0.079
		C8.412,21.89,8.847,21,10.177,21h3.644c1.363,0,1.783,0.899,2.27,1.94L16.119,23H7.869z"/>
	<path d="M21.894,0H2.103C0.943,0,0,0.979,0,2.183v12.79C0,16.147,0.884,17,2.103,17h19.791C23.114,17,24,16.147,24,14.973V2.183
		C24,0.979,23.055,0,21.894,0z M23,14.973C23,15.588,22.556,16,21.894,16H2.103C1.443,16,1,15.588,1,14.973V2.183
		C1,1.531,1.495,1,2.103,1h19.791C22.504,1,23,1.531,23,2.183V14.973z"/>
	<path d="M11.999,11.034c2.208,0,4.003-1.796,4.003-4.004s-1.796-4.003-4.003-4.003S7.995,4.823,7.995,7.03
		S9.791,11.034,11.999,11.034z M11.999,4.027c1.656,0,3.003,1.347,3.003,3.003s-1.348,3.004-3.003,3.004
		c-1.656,0-3.003-1.348-3.003-3.004S10.342,4.027,11.999,4.027z"/>
	<path d="M11.062,8.729c0.004,0.004,0.009,0.005,0.013,0.009c0.004,0.004,0.006,0.01,0.01,0.014c0.03,0.028,0.066,0.044,0.101,0.063
		c0.018,0.01,0.034,0.026,0.053,0.033c0.06,0.025,0.124,0.038,0.188,0.038s0.128-0.014,0.188-0.038
		c0.019-0.008,0.035-0.023,0.053-0.033c0.034-0.019,0.07-0.035,0.101-0.063c0.004-0.004,0.006-0.01,0.01-0.014
		c0.004-0.004,0.01-0.005,0.013-0.009l2.136-2.283c0.188-0.202,0.178-0.518-0.023-0.707c-0.202-0.189-0.518-0.176-0.707,0.023
		l-1.771,1.893L10.8,6.985c-0.189-0.201-0.505-0.211-0.707-0.023C9.892,7.151,9.881,7.467,10.07,7.669L11.062,8.729z"/>
</g>
</svg>
