<?xml version="1.0" encoding="utf-8"?>
<!-- Generator: Adobe Illustrator 19.2.0, SVG Export Plug-In . SVG Version: 6.00 Build 0)  -->
<svg version="1.1" id="Layer_1" xmlns="http://www.w3.org/2000/svg" xmlns:xlink="http://www.w3.org/1999/xlink" x="0px" y="0px"
	 width="24px" height="24px" viewBox="0 0 24 24" style="enable-background:new 0 0 24 24;" xml:space="preserve">
<g>
	<path d="M7.501,9h-4c-0.276,0-0.5,0.224-0.5,0.5v4c0,0.276,0.224,0.5,0.5,0.5h4c0.276,0,0.5-0.224,0.5-0.5v-4
		C8.001,9.223,7.778,9,7.501,9z M7.001,13h-3v-3h3V13z"/>
	<path d="M7.501,3h-4c-0.276,0-0.5,0.224-0.5,0.5v4c0,0.276,0.224,0.5,0.5,0.5h4c0.276,0,0.5-0.224,0.5-0.5v-4
		C8.001,3.223,7.778,3,7.501,3z M7.001,7h-3V4h3V7z"/>
	<path d="M19.486,4h-8.909c-0.276,0-0.5,0.224-0.5,0.5s0.224,0.5,0.5,0.5h8.909c0.276,0,0.5-0.224,0.5-0.5S19.763,4,19.486,4z"/>
	<path d="M19.486,10h-8.909c-0.276,0-0.5,0.224-0.5,0.5s0.224,0.5,0.5,0.5h8.909c0.276,0,0.5-0.224,0.5-0.5S19.763,10,19.486,10z"/>
	<path d="M10.577,7h3.877c0.276,0,0.5-0.224,0.5-0.5S14.73,6,14.454,6h-3.877c-0.276,0-0.5,0.224-0.5,0.5S10.301,7,10.577,7z"/>
	<path d="M14.454,12h-3.877c-0.276,0-0.5,0.224-0.5,0.5s0.224,0.5,0.5,0.5h3.877c0.276,0,0.5-0.224,0.5-0.5S14.73,12,14.454,12z"/>
	<path d="M17.002,22.514C16.478,21.394,15.826,20,13.826,20h-1.32v-1.5c0-0.276-0.224-0.5-0.5-0.5s-0.5,0.224-0.5,0.5V20h-1.323
		c-1.955,0-2.627,1.376-3.167,2.481l-0.197,0.396c-0.036,0.07-0.055,0.149-0.055,0.229c0,0.484,0.43,0.894,0.938,0.894h8.604
		c0.518,0,0.939-0.386,0.939-0.859c0-0.077-0.018-0.152-0.052-0.222L17.002,22.514z M7.875,23l0.04-0.079
		C8.418,21.889,8.853,21,10.183,21h3.643c1.363,0,1.783,0.898,2.27,1.938c0.01,0.021,0.02,0.041,0.029,0.062H7.875z"/>
	<path d="M21.899,0H2.109c-1.16,0-2.103,0.979-2.103,2.184v12.79C0.006,16.147,0.89,17,2.109,17h19.791
		c1.221,0,2.106-0.853,2.106-2.026V2.183C24.006,0.979,23.061,0,21.899,0z M23.006,14.973c0,0.614-0.444,1.026-1.106,1.026H2.109
		c-0.66,0-1.103-0.412-1.103-1.026V2.183C1.006,1.531,1.5,1,2.109,1h19.791c0.61,0,1.106,0.531,1.106,1.184V14.973z"/>
</g>
</svg>
