<?xml version="1.0" encoding="utf-8"?>
<!-- Generator: Adobe Illustrator 19.2.0, SVG Export Plug-In . SVG Version: 6.00 Build 0)  -->
<svg version="1.1" id="Layer_1" xmlns="http://www.w3.org/2000/svg" xmlns:xlink="http://www.w3.org/1999/xlink" x="0px" y="0px"
	 width="24px" height="24px" viewBox="0 0 24 24" style="enable-background:new 0 0 24 24;" xml:space="preserve">
<g>
	<path d="M7.504,9h-4c-0.276,0-0.5,0.224-0.5,0.5v4c0,0.276,0.224,0.5,0.5,0.5h4c0.276,0,0.5-0.224,0.5-0.5v-4
		C8.004,9.223,7.781,9,7.504,9z M7.004,13h-3v-3h3V13z"/>
	<path d="M7.504,3h-4c-0.276,0-0.5,0.224-0.5,0.5v4c0,0.276,0.224,0.5,0.5,0.5h4c0.276,0,0.5-0.224,0.5-0.5v-4
		C8.004,3.223,7.781,3,7.504,3z M7.004,7h-3V4h3V7z"/>
	<path d="M13.505,9h-4c-0.276,0-0.5,0.224-0.5,0.5v4c0,0.276,0.224,0.5,0.5,0.5h4c0.276,0,0.5-0.224,0.5-0.5v-4
		C14.005,9.223,13.781,9,13.505,9z M13.005,13h-3v-3h3V13z"/>
	<path d="M13.505,3h-4c-0.276,0-0.5,0.224-0.5,0.5v4c0,0.276,0.224,0.5,0.5,0.5h4c0.276,0,0.5-0.224,0.5-0.5v-4
		C14.005,3.223,13.781,3,13.505,3z M13.005,7h-3V4h3V7z"/>
	<path d="M19.505,9h-4c-0.276,0-0.5,0.224-0.5,0.5v4c0,0.276,0.224,0.5,0.5,0.5h4c0.276,0,0.5-0.224,0.5-0.5v-4
		C20.005,9.223,19.781,9,19.505,9z M19.005,13h-3v-3h3V13z"/>
	<path d="M19.505,3h-4c-0.276,0-0.5,0.224-0.5,0.5v4c0,0.276,0.224,0.5,0.5,0.5h4c0.276,0,0.5-0.224,0.5-0.5v-4
		C20.005,3.223,19.781,3,19.505,3z M19.005,7h-3V4h3V7z"/>
	<path d="M17.005,22.514C16.48,21.394,15.829,20,13.829,20h-1.32v-1.5c0-0.276-0.224-0.5-0.5-0.5s-0.5,0.224-0.5,0.5V20h-1.323
		c-1.955,0-2.627,1.376-3.167,2.481l-0.197,0.396c-0.036,0.07-0.055,0.149-0.055,0.229c0,0.484,0.43,0.894,0.938,0.894h8.605
		c0.518,0,0.938-0.386,0.938-0.859c0-0.077-0.018-0.152-0.052-0.222L17.005,22.514z M7.878,23l0.04-0.079
		C8.421,21.889,8.855,21,10.186,21h3.643c1.363,0,1.783,0.898,2.27,1.938c0.01,0.021,0.02,0.041,0.029,0.062H7.878z"/>
	<path d="M21.903,0H2.112C0.953,0,0.009,0.979,0.009,2.183v12.79C0.009,16.147,0.894,17,2.112,17h19.792
		c1.22,0,2.105-0.853,2.105-2.026V2.183C24.009,0.979,23.064,0,21.903,0z M23.009,14.973c0,0.614-0.444,1.026-1.105,1.026H2.112
		c-0.66,0-1.103-0.412-1.103-1.026V2.183C1.009,1.531,1.504,1,2.112,1h19.792c0.609,0,1.105,0.531,1.105,1.184V14.973z"/>
</g>
</svg>
