<?xml version="1.0" encoding="utf-8"?>
<!-- Generator: Adobe Illustrator 19.2.0, SVG Export Plug-In . SVG Version: 6.00 Build 0)  -->
<svg version="1.1" id="Layer_1" xmlns="http://www.w3.org/2000/svg" xmlns:xlink="http://www.w3.org/1999/xlink" x="0px" y="0px"
	 width="24px" height="24px" viewBox="0 0 24 24" style="enable-background:new 0 0 24 24;" xml:space="preserve">
<g>
	<path d="M18.483,4H5.574c-0.276,0-0.5,0.224-0.5,0.5S5.298,5,5.574,5h12.909c0.276,0,0.5-0.224,0.5-0.5S18.76,4,18.483,4z"/>
	<path d="M18.483,10H5.574c-0.276,0-0.5,0.224-0.5,0.5s0.224,0.5,0.5,0.5h12.909c0.276,0,0.5-0.224,0.5-0.5S18.76,10,18.483,10z"/>
	<path d="M5.574,7h5.877c0.276,0,0.5-0.224,0.5-0.5S11.728,6,11.451,6H5.574c-0.276,0-0.5,0.224-0.5,0.5S5.298,7,5.574,7z"/>
	<path d="M11.451,12H5.574c-0.276,0-0.5,0.224-0.5,0.5s0.224,0.5,0.5,0.5h5.877c0.276,0,0.5-0.224,0.5-0.5S11.728,12,11.451,12z"/>
	<path d="M16.999,22.516C16.476,21.395,15.823,20,13.823,20h-1.32v-1.5c0-0.276-0.224-0.5-0.5-0.5s-0.5,0.224-0.5,0.5V20H10.18
		c-1.955,0-2.627,1.376-3.167,2.481l-0.197,0.396c-0.036,0.07-0.055,0.149-0.055,0.229C6.761,23.591,7.191,24,7.7,24h8.604
		c0.518,0,0.938-0.386,0.938-0.859c0-0.077-0.018-0.152-0.052-0.222L16.999,22.516z M7.873,23l0.04-0.079
		C8.415,21.889,8.85,21,10.18,21h3.643c1.363,0,1.783,0.899,2.27,1.94L16.122,23H7.873z"/>
	<path d="M21.896,0H2.106c-1.16,0-2.103,0.979-2.103,2.184v12.79C0.003,16.147,0.887,17,2.106,17h19.791
		c1.221,0,2.106-0.853,2.106-2.026V2.183C24.003,0.979,23.058,0,21.896,0z M23.003,14.973c0,0.614-0.444,1.026-1.106,1.026H2.106
		c-0.66,0-1.103-0.412-1.103-1.026V2.183C1.003,1.531,1.498,1,2.106,1h19.791c0.61,0,1.106,0.531,1.106,1.184V14.973z"/>
</g>
</svg>
