<?xml version="1.0" encoding="utf-8"?>
<!-- Generator: Adobe Illustrator 19.2.0, SVG Export Plug-In . SVG Version: 6.00 Build 0)  -->
<svg version="1.1" id="Layer_1" xmlns="http://www.w3.org/2000/svg" xmlns:xlink="http://www.w3.org/1999/xlink" x="0px" y="0px"
	 width="24px" height="24px" viewBox="0 0 24 24" style="enable-background:new 0 0 24 24;" xml:space="preserve">
<path d="M23.646,1.373c-0.225-0.175-0.533-0.205-0.782-0.076L0.548,12.71c-0.266,0.133-0.423,0.412-0.399,0.716
	c0.026,0.294,0.225,0.542,0.505,0.632c0.001,0,0.002,0,0.003,0.001l9.223,2.88l0.002,6.154c-0.019,0.397,0.19,0.568,0.347,0.642
	c0.075,0.041,0.16,0.063,0.247,0.063c0.142,0,0.407-0.044,0.585-0.322l3.567-5.054l4.206,1.313c0.049,0.016,0.166,0.034,0.218,0.034
	c0.128,0,0.255-0.034,0.362-0.097c0.176-0.101,0.303-0.271,0.348-0.462l4.146-17.093C23.971,1.841,23.87,1.55,23.646,1.373z
	 M10.882,21.994l-0.002-4.743l2.745,0.857L10.882,21.994z M18.856,18.694l-7.638-2.385l7.709-8.602
	c0.185-0.206,0.167-0.521-0.038-0.706c-0.205-0.183-0.521-0.167-0.706,0.039l-8.015,8.941l-8.581-2.68L22.796,2.456L18.856,18.694z"
	/>
</svg>
