<?xml version="1.0" encoding="utf-8"?>
<!-- Generator: Adobe Illustrator 19.2.0, SVG Export Plug-In . SVG Version: 6.00 Build 0)  -->
<svg version="1.1" id="Layer_1" xmlns="http://www.w3.org/2000/svg" xmlns:xlink="http://www.w3.org/1999/xlink" x="0px" y="0px"
	 width="24px" height="24px" viewBox="0 0 24 24" style="enable-background:new 0 0 24 24;" xml:space="preserve">
<g>
	<path d="M11.998,7.366c-2.563,0-4.648,2.085-4.648,4.648c0,2.562,2.085,4.647,4.648,4.647c2.562,0,4.647-2.085,4.647-4.647
		C16.646,9.451,14.561,7.366,11.998,7.366z M11.998,15.662c-2.012,0-3.648-1.637-3.648-3.647c0-2.012,1.636-3.648,3.648-3.648
		c2.011,0,3.647,1.636,3.647,3.648C15.646,14.025,14.009,15.662,11.998,15.662z"/>
	<path d="M23.583,10.398c-0.031-0.223-0.207-0.398-0.431-0.427l-2.699-0.354c-0.186-0.655-0.447-1.287-0.781-1.884l1.661-2.161
		c0.137-0.178,0.138-0.427,0.002-0.606c-0.652-0.864-1.422-1.633-2.284-2.286c-0.181-0.135-0.428-0.135-0.606,0.002l-2.16,1.66
		c-0.598-0.335-1.229-0.597-1.886-0.783l-0.354-2.7c-0.029-0.223-0.204-0.399-0.428-0.43c-1.1-0.153-2.126-0.154-3.229-0.001
		c-0.224,0.03-0.398,0.207-0.428,0.43L9.606,3.558c-0.658,0.186-1.291,0.448-1.89,0.783L5.556,2.68
		C5.376,2.543,5.129,2.542,4.95,2.678C4.099,3.322,3.309,4.111,2.666,4.961C2.529,5.141,2.53,5.389,2.667,5.568l1.66,2.16
		C3.992,8.326,3.729,8.96,3.542,9.619l-2.7,0.354c-0.223,0.029-0.399,0.204-0.43,0.427c-0.148,1.072-0.148,2.158,0,3.229
		c0.031,0.224,0.207,0.398,0.43,0.428l2.7,0.354c0.186,0.659,0.449,1.293,0.785,1.892l-1.66,2.16
		c-0.137,0.179-0.138,0.427-0.002,0.606C3.31,19.919,4.1,20.709,4.95,21.351c0.179,0.136,0.427,0.134,0.606-0.003l2.161-1.66
		c0.598,0.335,1.231,0.598,1.89,0.783L9.96,23.17c0.029,0.224,0.204,0.4,0.428,0.431c0.55,0.076,1.081,0.113,1.611,0.113
		c0.533,0,1.066-0.038,1.618-0.114c0.224-0.03,0.398-0.207,0.428-0.43l0.354-2.701c0.656-0.187,1.288-0.448,1.886-0.783l2.16,1.66
		c0.179,0.138,0.428,0.137,0.606,0.002c0.861-0.651,1.631-1.421,2.284-2.285c0.136-0.18,0.135-0.428-0.002-0.606l-1.66-2.16
		c0.334-0.599,0.596-1.23,0.78-1.885l2.7-0.354c0.223-0.029,0.399-0.204,0.43-0.428C23.736,12.527,23.736,11.5,23.583,10.398z
		 M22.639,13.116l-2.649,0.347c-0.205,0.027-0.372,0.178-0.421,0.38c-0.188,0.783-0.499,1.534-0.924,2.23
		c-0.107,0.177-0.096,0.401,0.03,0.565l1.629,2.119c-0.466,0.572-0.987,1.094-1.558,1.559l-2.119-1.629
		c-0.166-0.126-0.389-0.139-0.566-0.03c-0.693,0.426-1.444,0.737-2.231,0.927c-0.201,0.049-0.352,0.216-0.379,0.421l-0.347,2.65
		c-0.744,0.077-1.459,0.076-2.203,0.001l-0.347-2.647c-0.027-0.206-0.177-0.373-0.379-0.422c-0.789-0.189-1.541-0.501-2.235-0.927
		c-0.176-0.106-0.402-0.096-0.566,0.03l-2.12,1.629c-0.565-0.461-1.095-0.99-1.557-1.557l1.628-2.118
		c0.126-0.164,0.138-0.39,0.03-0.566c-0.426-0.695-0.739-1.447-0.928-2.237c-0.048-0.201-0.216-0.352-0.421-0.379l-2.648-0.347
		c-0.075-0.731-0.075-1.469,0-2.201l2.648-0.347c0.205-0.027,0.373-0.177,0.421-0.379c0.189-0.79,0.502-1.542,0.928-2.237
		c0.108-0.177,0.097-0.402-0.03-0.566L3.697,5.266C4.159,4.701,4.688,4.171,5.255,3.71l2.119,1.628
		c0.164,0.127,0.39,0.139,0.566,0.03c0.695-0.425,1.447-0.737,2.235-0.926c0.201-0.048,0.352-0.216,0.379-0.421l0.347-2.648
		c0.746-0.077,1.459-0.077,2.203,0.001l0.347,2.649c0.027,0.205,0.178,0.373,0.379,0.421c0.787,0.189,1.538,0.501,2.231,0.926
		c0.178,0.107,0.4,0.096,0.566-0.03l2.119-1.629c0.57,0.465,1.093,0.987,1.558,1.559l-1.63,2.12
		c-0.126,0.164-0.138,0.389-0.03,0.566c0.426,0.694,0.736,1.445,0.925,2.23c0.049,0.202,0.216,0.352,0.422,0.379l2.648,0.347
		C22.717,11.656,22.717,12.371,22.639,13.116z"/>
</g>
</svg>
