<?xml version="1.0" encoding="utf-8"?>
<!-- Generator: Adobe Illustrator 19.2.0, SVG Export Plug-In . SVG Version: 6.00 Build 0)  -->
<svg version="1.1" id="Layer_1" xmlns="http://www.w3.org/2000/svg" xmlns:xlink="http://www.w3.org/1999/xlink" x="0px" y="0px"
	 width="24px" height="24px" viewBox="0 0 24 24" style="enable-background:new 0 0 24 24;" xml:space="preserve">
<g>
	<path d="M22.866,6.441C22.866,6.441,22.866,6.441,22.866,6.441c-0.058-0.291-0.269-0.524-0.552-0.61
		c-0.283-0.085-0.589-0.01-0.8,0.199l-2.519,2.519l-2.128,0.44l-1.763-1.761L15.547,5.1l2.52-2.52
		c0.208-0.209,0.285-0.516,0.198-0.799c-0.086-0.283-0.319-0.495-0.61-0.552c-2.179-0.431-4.414,0.249-5.98,1.816
		C9.882,4.836,10.136,7.836,10.4,9.31l-9.007,7.847c-1.529,1.528-1.529,4.016,0,5.546c0.737,0.737,1.716,1.146,2.756,1.149
		c0.005,0,0.011,0,0.017,0c1.047,0,2.037-0.414,2.811-1.19l7.809-8.965c1.473,0.266,4.469,0.523,6.266-1.275
		C22.617,10.855,23.296,8.619,22.866,6.441z M20.344,11.715c-1.626,1.625-4.732,1.136-5.645,0.947
		c-0.182-0.035-0.36,0.026-0.479,0.161L6.246,21.98c-0.564,0.565-1.333,0.91-2.092,0.872c-0.775-0.003-1.504-0.308-2.054-0.856
		c-1.139-1.14-1.139-2.993-0.025-4.108l9.198-8.013c0.136-0.118,0.197-0.301,0.161-0.477c-0.187-0.916-0.672-4.027,0.947-5.646
		c1.067-1.067,2.5-1.649,3.979-1.649c0.24,0,0.481,0.015,0.723,0.046l-2.349,2.349c-0.069,0.069-0.116,0.157-0.136,0.252
		l-0.526,2.539c-0.034,0.165,0.017,0.336,0.136,0.455l2.144,2.143c0.119,0.119,0.287,0.17,0.455,0.136l2.539-0.525
		c0.096-0.02,0.183-0.067,0.252-0.136l2.35-2.35C22.169,8.74,21.584,10.474,20.344,11.715z"/>
	<path d="M3.432,18.972c-0.464,0.466-0.465,1.224,0.001,1.691c0.233,0.233,0.539,0.35,0.845,0.35s0.612-0.116,0.845-0.35
		c0,0,0.001,0,0.001-0.001c0.465-0.466,0.465-1.225-0.001-1.691C4.656,18.503,3.897,18.507,3.432,18.972z M4.417,19.957
		c-0.077,0.075-0.201,0.076-0.277,0.001c-0.077-0.077-0.077-0.202,0-0.278c0.038-0.039,0.089-0.058,0.139-0.058
		s0.1,0.019,0.138,0.056C4.493,19.755,4.493,19.88,4.417,19.957z"/>
</g>
</svg>
