<?xml version="1.0" encoding="utf-8"?>
<!-- Generator: Adobe Illustrator 19.2.0, SVG Export Plug-In . SVG Version: 6.00 Build 0)  -->
<svg version="1.1" id="Layer_1" xmlns="http://www.w3.org/2000/svg" xmlns:xlink="http://www.w3.org/1999/xlink" x="0px" y="0px"
	 width="24px" height="24px" viewBox="0 0 24 24" style="enable-background:new 0 0 24 24;" xml:space="preserve">
<g>
	<path d="M21.116,0H2.883C1.293,0,0,1.293,0,2.883v18.234C0,22.707,1.293,24,2.883,24h18.233C22.706,24,24,22.707,24,21.117V2.883
		C24,1.293,22.706,0,21.116,0z M23,21.117C23,22.155,22.155,23,21.116,23H2.883C1.845,23,1,22.155,1,21.117V2.883
		C1,1.844,1.845,1,2.883,1h18.233C22.155,1,23,1.844,23,2.883V21.117z"/>
	<path d="M6.997,4.729V4.431c0-0.276-0.224-0.5-0.5-0.5s-0.5,0.224-0.5,0.5v0.299C4.821,4.963,3.932,6.001,3.932,7.243
		s0.889,2.28,2.064,2.514v9.776c0,0.276,0.224,0.5,0.5,0.5s0.5-0.224,0.5-0.5V9.757c1.175-0.233,2.064-1.271,2.064-2.514
		S8.172,4.963,6.997,4.729z M6.497,8.808c-0.863,0-1.564-0.702-1.564-1.564s0.702-1.564,1.564-1.564s1.564,0.702,1.564,1.564
		S7.359,8.808,6.497,8.808z"/>
	<path d="M12.593,13.485V4.431c0-0.276-0.224-0.5-0.5-0.5s-0.5,0.224-0.5,0.5v9.054c-1.175,0.233-2.064,1.271-2.064,2.514
		s0.889,2.28,2.064,2.514v1.02c0,0.276,0.224,0.5,0.5,0.5s0.5-0.224,0.5-0.5v-1.02c1.175-0.233,2.064-1.271,2.064-2.514
		S13.768,13.718,12.593,13.485z M12.093,17.563c-0.863,0-1.564-0.702-1.564-1.564s0.702-1.564,1.564-1.564s1.564,0.702,1.564,1.564
		S12.956,17.563,12.093,17.563z"/>
	<path d="M17.979,7.231v-2.8c0-0.276-0.224-0.5-0.5-0.5s-0.5,0.224-0.5,0.5v2.8c-1.175,0.233-2.064,1.271-2.064,2.514
		s0.889,2.28,2.064,2.514v7.274c0,0.276,0.224,0.5,0.5,0.5s0.5-0.224,0.5-0.5v-7.274c1.175-0.233,2.064-1.271,2.064-2.514
		S19.155,7.464,17.979,7.231z M17.479,11.309c-0.862,0-1.564-0.702-1.564-1.564s0.702-1.564,1.564-1.564s1.564,0.702,1.564,1.564
		S18.342,11.309,17.479,11.309z"/>
</g>
</svg>
