<?xml version="1.0" encoding="utf-8"?>
<!-- Generator: Adobe Illustrator 19.2.0, SVG Export Plug-In . SVG Version: 6.00 Build 0)  -->
<svg version="1.1" id="Layer_1" xmlns="http://www.w3.org/2000/svg" xmlns:xlink="http://www.w3.org/1999/xlink" x="0px" y="0px"
	 width="24px" height="24px" viewBox="0 0 24 24" style="enable-background:new 0 0 24 24;" xml:space="preserve">
<path d="M17.5,3C17.776,3,18,2.776,18,2.5V1.669c0-0.16-0.076-0.31-0.205-0.403l-1.599-1.169C16.111,0.033,16.008,0,15.901,0H8.099
	C7.993,0,7.89,0.033,7.804,0.096L6.205,1.265C6.076,1.36,6,1.51,6,1.669V2.5C6,2.776,6.224,3,6.5,3h5v0.734h-1.138
	c-0.276,0-0.5,0.224-0.5,0.5s0.224,0.5,0.5,0.5H11.5V5.23h-1.138c-0.276,0-0.5,0.224-0.5,0.5s0.224,0.5,0.5,0.5H11.5V7h-5
	C6.224,7,6,7.223,6,7.5v0.76c0,0.154,0.071,0.3,0.193,0.395l1.599,1.24C7.88,9.963,7.988,10,8.099,10H11.5v2h-1
	c-0.276,0-0.5,0.224-0.5,0.5v11c0,0.276,0.224,0.5,0.5,0.5h3c0.276,0,0.5-0.224,0.5-0.5v-11c0-0.276-0.224-0.5-0.5-0.5h-1v-2h3.401
	c0.111,0,0.219-0.037,0.307-0.105l1.599-1.24C17.929,8.56,18,8.414,18,8.26V7.5C18,7.223,17.776,7,17.5,7h-5V6.23h1.139
	c0.276,0,0.5-0.224,0.5-0.5s-0.224-0.5-0.5-0.5H12.5V4.734h1.139c0.276,0,0.5-0.224,0.5-0.5s-0.224-0.5-0.5-0.5H12.5V3H17.5z M13,23
	h-2V13h2V23z M15.73,9h-7.46L7,8.014L17,8L15.73,9z M7,1.923L8.262,1h7.476L17,1.923V2H7V1.923z"/>
</svg>
