<?xml version="1.0" encoding="utf-8"?>
<!-- Generator: Adobe Illustrator 19.2.0, SVG Export Plug-In . SVG Version: 6.00 Build 0)  -->
<svg version="1.1" id="Layer_1" xmlns="http://www.w3.org/2000/svg" xmlns:xlink="http://www.w3.org/1999/xlink" x="0px" y="0px"
	 width="24px" height="24px" viewBox="0 0 24 24" style="enable-background:new 0 0 24 24;" xml:space="preserve">
<path d="M18.539,9.06c-0.819,0-1.559,0.339-2.092,0.883L8.64,4.457C8.811,4.085,8.913,3.675,8.913,3.24
	c0-1.619-1.317-2.936-2.936-2.936S3.042,1.621,3.042,3.24c0,1.618,1.317,2.935,2.936,2.935c0.823,0,1.566-0.343,2.099-0.891
	l7.805,5.484c-0.174,0.375-0.278,0.788-0.278,1.228c0,0.452,0.111,0.875,0.294,1.258l-7.851,5.398
	c-0.531-0.529-1.263-0.856-2.07-0.856c-1.619,0-2.936,1.316-2.936,2.935c0,1.619,1.317,2.936,2.936,2.936s2.936-1.316,2.936-2.936
	c0-0.452-0.111-0.875-0.294-1.258l7.851-5.398c0.531,0.529,1.263,0.857,2.069,0.857c1.619,0,2.936-1.316,2.936-2.936
	C21.475,10.377,20.158,9.06,18.539,9.06z M5.978,5.175c-1.067,0-1.936-0.868-1.936-1.935c0-1.067,0.868-1.936,1.936-1.936
	S7.913,2.172,7.913,3.24C7.913,4.306,7.045,5.175,5.978,5.175z M5.978,22.666c-1.067,0-1.936-0.868-1.936-1.936
	c0-1.066,0.868-1.935,1.936-1.935s1.936,0.868,1.936,1.935C7.913,21.798,7.045,22.666,5.978,22.666z M18.539,13.931
	c-1.066,0-1.935-0.868-1.935-1.936s0.868-1.936,1.935-1.936c1.067,0,1.936,0.868,1.936,1.936S19.606,13.931,18.539,13.931z"/>
</svg>
