<?xml version="1.0" encoding="utf-8"?>
<!-- Generator: Adobe Illustrator 19.2.0, SVG Export Plug-In . SVG Version: 6.00 Build 0)  -->
<svg version="1.1" id="Layer_1" xmlns="http://www.w3.org/2000/svg" xmlns:xlink="http://www.w3.org/1999/xlink" x="0px" y="0px"
	 width="24px" height="24px" viewBox="0 0 24 24" style="enable-background:new 0 0 24 24;" xml:space="preserve">
<g>
	<path d="M16.631,1.834c-0.141-0.141-0.351-0.183-0.536-0.112L6.911,5.318C6.698,5.401,6.569,5.62,6.597,5.847
		c0.008,0.061,0.682,6.195-6.36,14.45c-0.169,0.198-0.158,0.493,0.027,0.678l1.376,1.376c0,0,0,0,0,0.001s0,0,0.001,0l1.376,1.376
		c0.097,0.098,0.225,0.146,0.354,0.146c0.115,0,0.23-0.04,0.325-0.119c8.254-7.042,14.393-6.367,14.45-6.36
		c0.221,0.032,0.445-0.101,0.529-0.313l3.595-9.186c0.072-0.185,0.028-0.395-0.112-0.536L16.631,1.834z M17.878,16.374
		c-1.52-0.05-7.137,0.201-14.479,6.322l-0.699-0.698l9.683-9.684c0.236,0.125,0.501,0.202,0.786,0.202
		c0.935,0,1.695-0.761,1.695-1.695s-0.761-1.695-1.695-1.695s-1.695,0.76-1.695,1.695c0,0.285,0.077,0.55,0.202,0.786l-9.684,9.684
		l-0.698-0.698C7.418,13.249,7.677,7.629,7.618,6.115l8.537-3.343l5.063,5.064L17.878,16.374z M12.475,10.821
		c0-0.383,0.312-0.695,0.695-0.695c0.384,0,0.695,0.312,0.695,0.695s-0.312,0.695-0.695,0.695c-0.192,0-0.365-0.078-0.491-0.204
		c0,0,0,0,0,0s0,0,0,0C12.553,11.186,12.475,11.013,12.475,10.821z"/>
	<path d="M23.736,6.068l-5.852-5.852c-0.195-0.195-0.512-0.195-0.707,0s-0.195,0.512,0,0.707l5.852,5.852
		c0.098,0.098,0.226,0.146,0.354,0.146s0.256-0.049,0.354-0.146C23.932,6.579,23.932,6.263,23.736,6.068z"/>
</g>
</svg>
