<?xml version="1.0" encoding="utf-8"?>
<!-- Generator: Adobe Illustrator 19.2.0, SVG Export Plug-In . SVG Version: 6.00 Build 0)  -->
<svg version="1.1" id="Layer_1" xmlns="http://www.w3.org/2000/svg" xmlns:xlink="http://www.w3.org/1999/xlink" x="0px" y="0px"
	 width="24px" height="24px" viewBox="0 0 24 24" style="enable-background:new 0 0 24 24;" xml:space="preserve">
<g>
	<path d="M14.786,8.042h-5.59c-1.216,0-2.205,0.989-2.205,2.205v7.546c0,1.216,0.989,2.205,2.205,2.205h5.59
		c1.216,0,2.204-0.989,2.204-2.205v-7.546C16.99,9.031,16.002,8.042,14.786,8.042z M15.99,17.793c0,0.664-0.54,1.205-1.204,1.205
		h-0.785v-3.455c0-0.276-0.224-0.5-0.5-0.5s-0.5,0.224-0.5,0.5v3.455h-0.473H11v-3.455c0-0.276-0.224-0.5-0.5-0.5
		s-0.5,0.224-0.5,0.5v3.455H9.196c-0.664,0-1.205-0.541-1.205-1.205v-7.546c0-0.664,0.541-1.205,1.205-1.205H10v3.44
		c0,0.276,0.224,0.5,0.5,0.5s0.5-0.224,0.5-0.5v-3.44h2v3.44c0,0.276,0.224,0.5,0.5,0.5s0.5-0.224,0.5-0.5v-3.44h0.785
		c0.664,0,1.204,0.541,1.204,1.205V17.793z"/>
	<path d="M20.578,3.679L17.08,0.376c-0.254-0.24-0.592-0.378-0.926-0.378H4.373C3.628-0.002,3,0.603,3,1.32v21.347
		c0,0.709,0.642,1.331,1.373,1.331h15.261c0.74,0,1.366-0.609,1.366-1.331V4.617C21,4.276,20.847,3.934,20.578,3.679z M20,22.667
		c0,0.164-0.185,0.331-0.366,0.331H4.373C4.188,22.998,4,22.831,4,22.667V1.32c0-0.16,0.188-0.322,0.373-0.322h11.782
		c0.08,0,0.169,0.039,0.239,0.105l3.497,3.302C19.956,4.468,20,4.553,20,4.617V22.667z"/>
</g>
</svg>
