<?xml version="1.0" encoding="utf-8"?>
<!-- Generator: Adobe Illustrator 19.2.0, SVG Export Plug-In . SVG Version: 6.00 Build 0)  -->
<svg version="1.1" id="Layer_1" xmlns="http://www.w3.org/2000/svg" xmlns:xlink="http://www.w3.org/1999/xlink" x="0px" y="0px"
	 width="24px" height="24px" viewBox="0 0 24 24" style="enable-background:new 0 0 24 24;" xml:space="preserve">
<g>
	<path d="M17.5,5.004h-11c-0.276,0-0.5,0.224-0.5,0.5v13c0,0.276,0.224,0.5,0.5,0.5h11c0.276,0,0.5-0.224,0.5-0.5v-13
		C18,5.228,17.776,5.004,17.5,5.004z M17,18.004H7v-12h10V18.004z"/>
	<path d="M3.5,6.004c-0.276,0-0.5,0.224-0.5,0.5v11c0,0.276,0.224,0.5,0.5,0.5S4,17.78,4,17.504v-11C4,6.228,3.776,6.004,3.5,6.004z
		"/>
	<path d="M0.5,7.004c-0.276,0-0.5,0.224-0.5,0.5v9c0,0.276,0.224,0.5,0.5,0.5S1,16.78,1,16.504v-9C1,7.228,0.776,7.004,0.5,7.004z"
		/>
	<path d="M20.5,6.004c-0.276,0-0.5,0.224-0.5,0.5v11c0,0.276,0.224,0.5,0.5,0.5s0.5-0.224,0.5-0.5v-11
		C21,6.228,20.776,6.004,20.5,6.004z"/>
	<path d="M23.5,7.004c-0.276,0-0.5,0.224-0.5,0.5v9c0,0.276,0.224,0.5,0.5,0.5s0.5-0.224,0.5-0.5v-9
		C24,7.228,23.776,7.004,23.5,7.004z"/>
</g>
</svg>
