<?xml version="1.0" encoding="utf-8"?>
<!-- Generator: Adobe Illustrator 19.2.0, SVG Export Plug-In . SVG Version: 6.00 Build 0)  -->
<svg version="1.1" id="Layer_1" xmlns="http://www.w3.org/2000/svg" xmlns:xlink="http://www.w3.org/1999/xlink" x="0px" y="0px"
	 width="24px" height="24px" viewBox="0 0 24 24" style="enable-background:new 0 0 24 24;" xml:space="preserve">
<g>
	<path d="M12.004,0.215c-6.512,0-11.809,5.297-11.809,11.809c0,6.512,5.297,11.81,11.809,11.81s11.809-5.298,11.809-11.81
		C23.812,5.512,18.516,0.215,12.004,0.215z M12.004,22.834c-5.96,0-10.809-4.85-10.809-10.81c0-5.96,4.849-10.809,10.809-10.809
		s10.809,4.849,10.809,10.809C22.812,17.984,17.964,22.834,12.004,22.834z"/>
	<path d="M11.008,9.547c0-1.349-1.098-2.446-2.447-2.446S6.115,8.198,6.115,9.547s1.097,2.447,2.446,2.447
		S11.008,10.896,11.008,9.547z M7.115,9.547c0-0.797,0.649-1.446,1.446-1.446c0.798,0,1.447,0.649,1.447,1.446
		c0,0.798-0.649,1.447-1.447,1.447C7.764,10.994,7.115,10.345,7.115,9.547z"/>
	<path d="M15.469,7.101c-1.35,0-2.447,1.097-2.447,2.446s1.098,2.447,2.447,2.447c1.349,0,2.446-1.098,2.446-2.447
		S16.817,7.101,15.469,7.101z M15.469,10.994c-0.798,0-1.447-0.649-1.447-1.447c0-0.797,0.649-1.446,1.447-1.446
		s1.446,0.649,1.446,1.446C16.915,10.345,16.267,10.994,15.469,10.994z"/>
	<path d="M12.003,13.983c-1.696,0-3.246,1.239-3.949,3.158c-0.095,0.26,0.039,0.547,0.298,0.642
		c0.261,0.096,0.547-0.039,0.642-0.298c0.556-1.52,1.737-2.502,3.009-2.502s2.453,0.982,3.009,2.502
		c0.074,0.202,0.266,0.328,0.47,0.328c0.057,0,0.115-0.01,0.172-0.03c0.26-0.095,0.393-0.382,0.298-0.642
		C15.25,15.222,13.7,13.983,12.003,13.983z"/>
</g>
</svg>
