<?xml version="1.0" encoding="utf-8"?>
<!-- Generator: Adobe Illustrator 19.2.0, SVG Export Plug-In . SVG Version: 6.00 Build 0)  -->
<svg version="1.1" id="Layer_1" xmlns="http://www.w3.org/2000/svg" xmlns:xlink="http://www.w3.org/1999/xlink" x="0px" y="0px"
	 width="24px" height="24px" viewBox="0 0 24 24" style="enable-background:new 0 0 24 24;" xml:space="preserve">
<g>
	<path d="M11.999,0.215C5.487,0.215,0.19,5.512,0.19,12.024c0,6.512,5.297,11.81,11.809,11.81s11.809-5.298,11.809-11.81
		C23.808,5.512,18.511,0.215,11.999,0.215z M11.999,22.834c-5.96,0-10.809-4.85-10.809-10.81c0-5.96,4.849-10.809,10.809-10.809
		s10.809,4.849,10.809,10.809C22.808,17.984,17.959,22.834,11.999,22.834z"/>
	<path d="M11.003,9.547c0-1.349-1.097-2.446-2.446-2.446S6.11,8.198,6.11,9.547s1.098,2.447,2.447,2.447S11.003,10.896,11.003,9.547
		z M7.11,9.547c0-0.797,0.649-1.446,1.447-1.446c0.797,0,1.446,0.649,1.446,1.446c0,0.798-0.649,1.447-1.446,1.447
		C7.759,10.994,7.11,10.345,7.11,9.547z"/>
	<path d="M15.464,7.101c-1.349,0-2.446,1.097-2.446,2.446s1.098,2.447,2.446,2.447s2.446-1.098,2.446-2.447
		S16.812,7.101,15.464,7.101z M15.464,10.994c-0.798,0-1.446-0.649-1.446-1.447c0-0.797,0.648-1.446,1.446-1.446
		S16.91,8.75,16.91,9.547C16.91,10.345,16.262,10.994,15.464,10.994z"/>
	<path d="M15.22,15.98H8.778c-0.276,0-0.5,0.224-0.5,0.5s0.224,0.5,0.5,0.5h6.441c0.276,0,0.5-0.224,0.5-0.5
		S15.496,15.98,15.22,15.98z"/>
</g>
</svg>
