<?xml version="1.0" encoding="utf-8"?>
<!-- Generator: Adobe Illustrator 19.2.0, SVG Export Plug-In . SVG Version: 6.00 Build 0)  -->
<svg version="1.1" id="Layer_1" xmlns="http://www.w3.org/2000/svg" xmlns:xlink="http://www.w3.org/1999/xlink" x="0px" y="0px"
	 width="24px" height="24px" viewBox="0 0 24 24" style="enable-background:new 0 0 24 24;" xml:space="preserve">
<g>
	<path d="M17.173,15.02H6.825c-0.172,0-0.333,0.089-0.424,0.235c-0.092,0.146-0.101,0.329-0.025,0.483
		c1.019,2.09,3.227,3.44,5.624,3.44c2.396,0,4.604-1.351,5.623-3.44c0.076-0.154,0.066-0.338-0.025-0.483
		C17.506,15.109,17.346,15.02,17.173,15.02z M11.999,18.179c-1.725,0-3.332-0.826-4.294-2.159h8.588
		C15.33,17.353,13.724,18.179,11.999,18.179z"/>
	<path d="M11.994,0.215c-6.512,0-11.809,5.297-11.809,11.809c0,6.512,5.297,11.81,11.809,11.81s11.809-5.298,11.809-11.81
		C23.803,5.512,18.506,0.215,11.994,0.215z M11.994,22.834c-5.96,0-10.809-4.85-10.809-10.81c0-5.96,4.849-10.809,10.809-10.809
		s10.809,4.849,10.809,10.809C22.803,17.984,17.954,22.834,11.994,22.834z"/>
	<path d="M8.552,11.994c1.349,0,2.446-1.098,2.446-2.447S9.901,7.101,8.552,7.101S6.105,8.198,6.105,9.547
		S7.203,11.994,8.552,11.994z M8.552,8.101c0.797,0,1.446,0.649,1.446,1.446c0,0.798-0.649,1.447-1.446,1.447
		c-0.798,0-1.447-0.649-1.447-1.447C7.105,8.75,7.754,8.101,8.552,8.101z"/>
	<path d="M15.459,7.101c-1.349,0-2.446,1.097-2.446,2.446s1.098,2.447,2.446,2.447s2.446-1.098,2.446-2.447
		S16.808,7.101,15.459,7.101z M15.459,10.994c-0.798,0-1.446-0.649-1.446-1.447c0-0.797,0.648-1.446,1.446-1.446
		s1.446,0.649,1.446,1.446C16.905,10.345,16.257,10.994,15.459,10.994z"/>
</g>
</svg>
