<?xml version="1.0" encoding="utf-8"?>
<!-- Generator: Adobe Illustrator 19.2.0, SVG Export Plug-In . SVG Version: 6.00 Build 0)  -->
<svg version="1.1" id="Layer_1" xmlns="http://www.w3.org/2000/svg" xmlns:xlink="http://www.w3.org/1999/xlink" x="0px" y="0px"
	 width="24px" height="24px" viewBox="0 0 24 24" style="enable-background:new 0 0 24 24;" xml:space="preserve">
<g>
	<path d="M21.708,15.351c-0.52-0.938-1.373-1.619-2.405-1.916l-2.413-0.692c-0.67-0.256-0.735-0.608-0.757-0.724
		c-0.154-0.839,0.878-2.392,2.65-3.977c1.105-1.113,1.529-2.688,1.133-4.213c-0.396-1.522-1.533-2.691-3.043-3.125
		c-1.604-0.458-3.247-0.016-4.401,1.193c-1.139,1.194-1.519,2.901-1.002,4.419c0.551,2.125,0.556,3.802,0.012,4.378
		c-0.078,0.084-0.318,0.339-0.978,0.209l-2.457-0.707c-2.127-0.612-4.358,0.622-4.971,2.75C3,13.213,3.153,13.49,3.419,13.566
		l0.46,0.132L3.53,14.913c-0.076,0.265,0.077,0.542,0.342,0.618l16.138,4.64c0.046,0.014,0.092,0.02,0.138,0.02
		c0.218,0,0.417-0.143,0.48-0.361l0.349-1.212l0.458,0.132c0.047,0.014,0.093,0.02,0.139,0.02c0.218,0,0.417-0.143,0.48-0.361
		C22.351,17.376,22.228,16.291,21.708,15.351z M7.771,11.158l2.498,0.717c1.029,0.202,1.622-0.157,1.94-0.495
		c1.097-1.163,0.614-3.83,0.218-5.351c-0.414-1.218-0.126-2.505,0.768-3.443c0.892-0.933,2.163-1.276,3.4-0.922
		c1.167,0.336,2.046,1.239,2.353,2.416c0.307,1.18-0.021,2.397-0.853,3.236c-0.993,0.887-3.267,3.139-2.946,4.883
		c0.086,0.465,0.396,1.099,1.424,1.491l2.453,0.705c0.775,0.223,1.417,0.734,1.807,1.439c0.308,0.556,0.423,1.181,0.351,1.8
		l-0.402-0.116c-0.004-0.001-0.006-0.004-0.01-0.005l-15.269-4.39l-1.279-0.368C4.849,11.454,6.336,10.747,7.771,11.158z
		 M19.805,19.071L4.629,14.708l0.21-0.732l3.393,0.976l11.783,3.39L19.805,19.071z"/>
	<path d="M20.003,23h-17c-0.276,0-0.5,0.224-0.5,0.5s0.224,0.5,0.5,0.5h17c0.276,0,0.5-0.224,0.5-0.5S20.279,23,20.003,23z"/>
</g>
</svg>
