<svg xmlns="http://www.w3.org/2000/svg" width="59" height="68"><path d="M33.315 1.55a1.97 1.97 0 0 0-.521.068c-.172.047-.334.118-.483.206a.77.77 0 0 1-.191.082l-.004.001-.003.001-1.284.354v2.595l1.443.34c.06.014.117.035.17.06a1.94 1.94 0 0 0 .422.153c.142.033.293.05.45.05a1.95 1.95 0 0 0 1.956-1.956 1.95 1.95 0 0 0-1.956-1.956zM47.836 0c.317 0 .63.045.933.128l.04.012a3.51 3.51 0 0 1 .729.302l1.766.487c.343.095.567.406.567.745h.002v1.2c1.825.293 3.452 1.172 4.662 2.43 1.364 1.417 2.2 3.31 2.2 5.384v16.565c0 2.375-.693 4.604-1.893 6.51a13.01 13.01 0 0 1-4.709 4.427c-.037.982-.464 1.87-1.134 2.523a3.87 3.87 0 0 1-2.703 1.097h-2.298a1.38 1.38 0 0 0-.967.388 1.27 1.27 0 0 0-.389.912v6.356c0 1.037-.435 1.98-1.136 2.66a3.87 3.87 0 0 1-2.019 1.037c-.614 4.016-2.637 7.583-5.545 10.175-3.024 2.697-7.005 4.34-11.35 4.34-4.7 0-8.975-1.923-12.073-5.02s-5.02-7.37-5.02-12.073V32.62c-1.928-.183-3.66-1.04-4.954-2.336C1.078 28.816.17 26.79.17 24.554s.907-4.263 2.373-5.73 3.49-2.373 5.73-2.373 4.263.907 5.73 2.373 2.373 3.492 2.373 5.73-.907 4.263-2.373 5.73c-1.295 1.295-3.026 2.153-4.954 2.336v17.978c0 4.274 1.75 8.16 4.566 10.977s6.703 4.566 10.977 4.566c3.952 0 7.572-1.495 10.322-3.947 2.598-2.317 4.42-5.488 5.013-9.06-.7-.163-1.33-.515-1.825-.997-.7-.683-1.136-1.625-1.136-2.66V43.12a1.27 1.27 0 0 0-.389-.912 1.38 1.38 0 0 0-.967-.388H32.51a3.87 3.87 0 0 1-2.703-1.097c-.7-.683-1.136-1.625-1.136-2.66v-.068c-1.838-1.1-3.378-2.605-4.468-4.398-1.135-1.868-1.787-4.035-1.787-6.34V21.06l-.035-.065c-.095-.178-.075-.387.035-.54V10.69c0-2.074.837-3.968 2.2-5.384a8.3 8.3 0 0 1 4.662-2.429V1.674h.002c0-.34.224-.65.567-.745l1.766-.487a3.48 3.48 0 0 1 .767-.314A3.5 3.5 0 0 1 33.315 0c.968 0 1.845.393 2.48 1.027s1.027 1.51 1.027 2.48-.392 1.845-1.027 2.48-1.51 1.027-2.48 1.027a3.51 3.51 0 0 1-.802-.094 3.5 3.5 0 0 1-.677-.234l-1.918-.45c-.363-.065-.64-.382-.64-.763V4.45c-1.387.274-2.62.965-3.548 1.93-1.094 1.136-1.766 2.653-1.766 4.313V21.7c2.127 3.525 4.848 6.133 7.853 7.82 2.69 1.51 5.603 2.28 8.52 2.313s5.848-.675 8.557-2.124c3.177-1.7 6.06-4.423 8.288-8.175V10.698c0-1.66-.67-3.177-1.766-4.313a6.74 6.74 0 0 0-3.548-1.929V5.47c0 .382-.276.7-.64.763l-1.918.45c-.213.1-.44.178-.677.234a3.51 3.51 0 0 1-.802.094c-.968 0-1.845-.392-2.48-1.027s-1.027-1.51-1.027-2.48.392-1.844 1.027-2.48S46.868 0 47.836 0zm.52 1.618c-.16-.044-.335-.068-.52-.068a1.95 1.95 0 0 0-1.956 1.956 1.95 1.95 0 0 0 .573 1.383 1.95 1.95 0 0 0 1.383.573 1.97 1.97 0 0 0 .451-.051 1.92 1.92 0 0 0 .422-.153c.053-.026.1-.047.17-.06l1.443-.34V2.262l-1.29-.356c-.065-.018-.13-.045-.19-.082-.143-.085-.296-.153-.454-.2l-.03-.007zM8.272 20.465c1.13 0 2.15.458 2.89 1.198s1.198 1.762 1.198 2.89-.458 2.15-1.198 2.89-1.762 1.197-2.89 1.197-2.15-.458-2.89-1.197-1.198-1.762-1.198-2.89.458-2.15 1.198-2.89 1.762-1.198 2.89-1.198zm2.16 1.928c-.553-.553-1.317-.895-2.16-.895s-1.608.342-2.16.895-.895 1.317-.895 2.16.342 1.608.895 2.16 1.317.895 2.16.895 1.608-.342 2.16-.895.895-1.317.895-2.16-.342-1.608-.895-2.16zm2.472-2.472a6.53 6.53 0 0 0-4.633-1.919 6.53 6.53 0 0 0-4.633 1.919 6.53 6.53 0 0 0 0 9.266 6.53 6.53 0 0 0 4.633 1.919 6.53 6.53 0 0 0 4.633-1.919 6.53 6.53 0 0 0 0-9.266zm19.83 14.415a26.04 26.04 0 0 0 7.536 1.137c2.558.004 5.16-.37 7.81-1.137a2.64 2.64 0 0 1 .736-.108c.77 0 1.474.34 2.034.874.422.402.764.92.987 1.48 1.503-.922 2.77-2.168 3.696-3.634 1.047-1.66 1.65-3.608 1.65-5.686v-3.807c-2.187 3.208-4.873 5.595-7.803 7.162-2.864 1.532-5.96 2.28-9.05 2.245s-6.178-.85-9.017-2.443c-2.75-1.544-5.273-3.82-7.35-6.824v3.66c0 2.015.568 3.907 1.558 5.534.877 1.442 2.083 2.68 3.517 3.615.225-.498.543-.956.927-1.32h.003c.556-.526 1.25-.862 2.007-.862a2.6 2.6 0 0 1 .756.113zm7.536 2.68c-2.714-.004-5.374-.408-7.984-1.198a1.07 1.07 0 0 0-.308-.047c-.338 0-.667.168-.946.43l.002.002c-.32.303-.57.72-.705 1.17-.07.228-.107.46-.107.686 0 .604.254 1.154.664 1.553.415.404 1 .655 1.625.655h3.097c.795 0 1.52.318 2.045.83.532.518.862 1.233.862 2.02v6.356c0 .605.254 1.154.664 1.553.415.404 1 .655 1.625.655s1.2-.25 1.625-.655c.4-.4.664-.948.664-1.553V43.12c0-.787.33-1.502.862-2.02.526-.512 1.25-.83 2.045-.83h2.298c.635 0 1.2-.25 1.625-.655.41-.4.664-.95.664-1.553a2.35 2.35 0 0 0-.094-.653c-.13-.452-.38-.876-.706-1.185-.284-.27-.622-.444-.968-.444a1.1 1.1 0 0 0-.306.041c-2.79.807-5.538 1.202-8.24 1.198z" fill="#83003f" fill-rule="evenodd"/></svg>