<?xml version="1.0" encoding="utf-8"?>
<!-- Generator: Adobe Illustrator 19.2.0, SVG Export Plug-In . SVG Version: 6.00 Build 0)  -->
<svg version="1.1" id="Layer_1" xmlns="http://www.w3.org/2000/svg" xmlns:xlink="http://www.w3.org/1999/xlink" x="0px" y="0px"
	 width="24px" height="24px" viewBox="0 0 24 24" style="enable-background:new 0 0 24 24;" xml:space="preserve">
<g>
	<path d="M22.292,5.156l-1.471-1.49c-0.143-0.149-0.349-0.214-0.569-0.183c-0.157,0.026-0.308,0.106-0.42,0.223l-1.267,1.283
		c-0.356,0.365-0.053,0.685,0.407,1.169c0.251,0.264,0.57,0.589,0.832,0.844c0.135,0.131,0.254,0.245,0.342,0.324
		c0.197,0.178,0.363,0.242,0.5,0.242c0.144,0,0.254-0.07,0.335-0.152l1.266-1.283c0.116-0.119,0.192-0.268,0.215-0.414
		C22.498,5.504,22.436,5.298,22.292,5.156z M20.599,6.38c-0.294-0.284-0.724-0.72-1-1.014l0.748-0.758l1,1.013L20.599,6.38z"/>
	<path d="M16.115,9.187l-4.887,5.026c-0.192,0.198-0.188,0.515,0.01,0.707c0.097,0.095,0.223,0.142,0.349,0.142
		c0.13,0,0.26-0.051,0.358-0.151l4.887-5.026c0.192-0.198,0.188-0.515-0.01-0.707C16.624,8.986,16.308,8.99,16.115,9.187z"/>
	<path d="M14,4.682V4h0.5C14.776,4,15,3.776,15,3.5V1c0-0.551-0.448-1-1-1h-4C9.449,0,9,0.448,9,1v2.5C9,3.776,9.224,4,9.5,4H10
		v0.705c-4.3,0.951-7.531,4.833-7.531,9.468c0,5.346,4.295,9.695,9.574,9.695s9.574-4.35,9.574-9.695
		C21.616,9.506,18.343,5.6,14,4.682z M10.5,3H10V1h4v2h-0.5C13.224,3,13,3.223,13,3.5v1.026c-0.315-0.032-0.634-0.049-0.958-0.049
		c-0.353,0-0.7,0.022-1.042,0.06V3.5C11,3.223,10.776,3,10.5,3z M12.042,22.868c-4.728,0-8.574-3.9-8.574-8.695
		s3.846-8.696,8.574-8.696c4.728,0,8.574,3.901,8.574,8.696S16.771,22.868,12.042,22.868z"/>
</g>
</svg>
