<?xml version="1.0" encoding="utf-8"?>
<!-- Generator: Adobe Illustrator 19.2.0, SVG Export Plug-In . SVG Version: 6.00 Build 0)  -->
<svg version="1.1" id="Layer_1" xmlns="http://www.w3.org/2000/svg" xmlns:xlink="http://www.w3.org/1999/xlink" x="0px" y="0px"
	 width="24px" height="24px" viewBox="0 0 24 24" style="enable-background:new 0 0 24 24;" xml:space="preserve">
<g>
	<path d="M15,3.504v-3c0-0.276-0.224-0.5-0.5-0.5h-14c-0.276,0-0.5,0.224-0.5,0.5v3c0,0.276,0.224,0.5,0.5,0.5h14
		C14.776,4.004,15,3.781,15,3.504z M14,3.004H1v-2h13V3.004z"/>
	<path d="M23.501,20.006H17v-2.501c0-0.276-0.224-0.5-0.5-0.5s-0.5,0.224-0.5,0.5v2.501H9.5c-0.276,0-0.5,0.224-0.5,0.5v3
		c0,0.276,0.224,0.5,0.5,0.5h14c0.276,0,0.5-0.224,0.5-0.5v-3C24.001,20.229,23.777,20.006,23.501,20.006z M23.001,23.006H10v-2h13
		V23.006z"/>
	<path d="M23.501,12.005H17V9.753c0-0.997-0.803-1.749-1.868-1.749H9.224C8.698,8.004,8,7.453,8,7.037V5.504
		c0-0.276-0.224-0.5-0.5-0.5S7,5.228,7,5.504v1.533c0,1.06,1.223,1.967,2.224,1.967h5.908C15.55,9.004,16,9.239,16,9.753v2.252H9.5
		c-0.276,0-0.5,0.224-0.5,0.5v3c0,0.276,0.224,0.5,0.5,0.5h14c0.276,0,0.5-0.224,0.5-0.5v-3
		C24.001,12.228,23.777,12.005,23.501,12.005z M23.001,15.005H10v-2h6.497c0.001,0,0.002,0,0.002,0s0.002,0,0.002,0h6.499V15.005z"
		/>
</g>
</svg>
