<?xml version="1.0" encoding="utf-8"?>
<!-- Generator: Adobe Illustrator 19.2.0, SVG Export Plug-In . SVG Version: 6.00 Build 0)  -->
<svg version="1.1" id="Layer_1" xmlns="http://www.w3.org/2000/svg" xmlns:xlink="http://www.w3.org/1999/xlink" x="0px" y="0px"
	 width="24px" height="24px" viewBox="0 0 24 24" style="enable-background:new 0 0 24 24;" xml:space="preserve">
<path d="M18.983,10.003V8.066c0-3.856-3.138-6.994-6.995-6.994c-3.856,0-6.994,3.138-6.994,6.994v1.937
	C3.884,10.069,3,10.867,3,11.849v4.288c0,1.024,0.96,1.858,2.14,1.858h1.332c0.276,0,0.5-0.224,0.5-0.5V10.49
	c0-0.276-0.224-0.5-0.5-0.5H5.995V8.066c0-3.305,2.689-5.994,5.994-5.994s5.995,2.689,5.995,5.994V9.99h-0.482
	c-0.276,0-0.5,0.224-0.5,0.5v7.005c0,0.276,0.224,0.5,0.5,0.5h1.332c0.083,0,0.162-0.013,0.242-0.021
	c-0.283,2.312-1.525,3.223-4.527,3.394c-0.198-0.363-0.57-0.62-1.012-0.62h-1.424c-0.644,0-1.167,0.523-1.167,1.167
	s0.523,1.167,1.167,1.167h1.424c0.48,0,0.892-0.292,1.071-0.707c3.137-0.173,5.259-1.122,5.515-4.764
	c0.513-0.34,0.851-0.871,0.851-1.473v-4.288C20.973,10.869,20.092,10.072,18.983,10.003z M5.972,16.995H5.14
	c-0.618,0-1.14-0.394-1.14-0.858v-4.288c0-0.465,0.522-0.859,1.14-0.859h0.832V16.995z M13.536,22.082h-1.424
	c-0.092,0-0.167-0.075-0.167-0.167s0.075-0.167,0.167-0.167h1.424c0.092,0,0.167,0.075,0.167,0.167S13.628,22.082,13.536,22.082z
	 M18.001,16.995V10.99h0.832c0.618,0,1.14,0.394,1.14,0.859v4.288c0,0.465-0.521,0.858-1.14,0.858H18.001z"/>
</svg>
