<?xml version="1.0" encoding="utf-8"?>
<!-- Generator: Adobe Illustrator 19.2.0, SVG Export Plug-In . SVG Version: 6.00 Build 0)  -->
<svg version="1.1" id="Layer_1" xmlns="http://www.w3.org/2000/svg" xmlns:xlink="http://www.w3.org/1999/xlink" x="0px" y="0px"
	 width="24px" height="24px" viewBox="0 0 24 24" style="enable-background:new 0 0 24 24;" xml:space="preserve">
<path d="M20.583,19.958c1.93-2.088,3.121-4.869,3.121-7.93s-1.19-5.842-3.121-7.93c-0.019-0.028-0.031-0.06-0.056-0.085
	c-0.015-0.015-0.035-0.022-0.052-0.035c-2.134-2.246-5.14-3.655-8.475-3.655c-3.059,0-5.839,1.189-7.927,3.118
	C4.043,3.462,4.011,3.475,3.985,3.501C3.969,3.517,3.962,3.537,3.949,3.555c-2.245,2.134-3.654,5.139-3.654,8.474
	c0,3.334,1.408,6.339,3.652,8.472c0.014,0.018,0.021,0.04,0.037,0.056c0.027,0.027,0.06,0.041,0.091,0.061
	c2.087,1.926,4.865,3.114,7.923,3.114c3.335,0,6.341-1.409,8.475-3.655c0.017-0.013,0.037-0.019,0.052-0.035
	C20.551,20.018,20.564,19.987,20.583,19.958z M20.145,18.955l-3.541-3.541c0.7-0.95,1.119-2.118,1.119-3.385
	c0-1.267-0.419-2.436-1.119-3.385l3.54-3.541c1.591,1.869,2.558,4.285,2.558,6.926S21.737,17.086,20.145,18.955z M7.274,12.029
	c0-2.605,2.12-4.725,4.725-4.725c2.605,0,4.725,2.12,4.725,4.725s-2.119,4.725-4.725,4.725C9.394,16.754,7.274,14.634,7.274,12.029z
	 M19.463,4.371l-3.519,3.519c-1.028-0.98-2.416-1.587-3.945-1.587c-1.267,0-2.436,0.419-3.385,1.119l-3.54-3.541
	c1.869-1.591,4.285-2.557,6.926-2.557C14.901,1.325,17.533,2.49,19.463,4.371z M1.295,12.029c0-2.902,1.165-5.534,3.047-7.464
	l3.519,3.519c-0.98,1.028-1.586,2.415-1.586,3.945c0,1.529,0.606,2.917,1.587,3.945l-3.519,3.519
	C2.46,17.563,1.295,14.931,1.295,12.029z M5.074,20.175l3.54-3.541c0.949,0.7,2.118,1.119,3.385,1.119
	c1.529,0,2.917-0.606,3.945-1.587l3.519,3.519c-1.93,1.881-4.562,3.046-7.464,3.046C9.358,22.732,6.942,21.766,5.074,20.175z"/>
</svg>
