<svg xmlns="http://www.w3.org/2000/svg" width="52" height="68"><path d="M19.398 39.796c.137-.16.253-.335.344-.527.17-.357.26-.786.26-1.312V34.76c-.995-.708-1.9-1.603-2.695-2.628-2.144-2.77-3.47-6.512-3.47-10.124 0-2.033.41-5.857 1.096-9.35.53-2.698 1.696-5.51 2.51-6.9.285 0 .517.23.517.517 0 1.745 1.29 3.015 3.017 3.923 3.098 1.63 7.523 2.095 8.89 2.095v-.002c3.267 0 4.968 1.158 5.86 3.252.846 1.985.9 4.772.9 8.21 0 3.5-1.274 6.692-3.335 9a12.04 12.04 0 0 1-.984.982v4.22c0 .53.1 1.023.278 1.447.06.138.126.27.2.392.095-.008.193.002.29.032l7.062 2.17c2.023-4.067 3.164-11.153 2.643-18.26-.444-6.056-2.1-12.09-5.454-16.218-.657-.767-1.395-1.487-2.198-2.14-2.596-2.114-5.884-3.573-9.327-3.81-3.42-.235-7.003.743-10.217 3.495a18.97 18.97 0 0 0-2.365 2.441C9.91 11.575 8.526 17.462 8.37 23.38c-.192 7.295 1.472 14.588 3.7 18.614l7.05-2.165a.77.77 0 0 1 .288-.032zm20.707 3.806v4.362l3.847 1.884c2.472 1.2 2.517 2.345 2.6 4.465l.004.094v.007l.26 6.746c.004.68-.328 1.203-.777 1.558-.426.336-.968.52-1.414.536h-.018l-.026.001h-.015l-.06.001v.1a.85.85 0 0 1-.25.602l-.001-.001-.001.001a.85.85 0 0 1-.6.25H41.73c-.213 0-.408-.08-.558-.2-.015-.012-.03-.025-.044-.04a.85.85 0 0 1-.25-.602V62.14a.85.85 0 0 1 .25-.602l.001.001.001-.001a.85.85 0 0 1 .6-.25h1.923c.213 0 .408.08.558.2.016.012.03.025.044.04a.85.85 0 0 1 .25.602v.086h.05.003l.025-.001h.006c.252-.01.563-.117.813-.314.222-.176.387-.427.385-.744v-.001l-.001-.03v-.006l-.264-6.78c-.04-1.062-.07-1.82-.54-2.465-1.92-.608-3.776-.885-5.575-.87-1.783.014-3.517.317-5.21.87-.472.646-.5 1.405-.542 2.47l-.004.09-.26 6.72c-.002.318.163.57.385.745a1.47 1.47 0 0 0 .813.314l.032.001h.052v-.086a.85.85 0 0 1 .25-.602.57.57 0 0 1 .044-.039c.15-.13.345-.2.558-.2h1.923a.85.85 0 0 1 .6.25l.001.001.001-.001a.85.85 0 0 1 .25.602v1.214a.85.85 0 0 1-.25.602c-.014.014-.03.027-.044.04-.15.13-.345.2-.558.2h-1.923a.85.85 0 0 1-.6-.25l-.001-.001-.001.001a.85.85 0 0 1-.25-.602v-.1l-.07-.001h-.006l-.038-.001h-.006c-.446-.017-.988-.2-1.414-.536-.452-.357-.785-.884-.777-1.57v-.006-.04-.006l.264-6.776c.082-2.123.126-3.26 2.6-4.47l3.847-1.884v-4.68l-5.898-1.81-3.25 24.662h17.092a6.88 6.88 0 0 0 .758-.038c.96-.106 1.63-.416 2.05-.852.393-.407.577-.948.577-1.545a3.22 3.22 0 0 0-.012-.288l-4.768-15.7c-.315-1.036-.812-1.795-1.426-2.353s-1.367-.93-2.174-1.18l-1.917-.59zm-26.206-.557v7.723c.905.116 1.717.532 2.33 1.147.73.73 1.18 1.735 1.18 2.847s-.45 2.118-1.18 2.847-1.735 1.18-2.847 1.18-2.12-.45-2.847-1.18-1.18-1.735-1.18-2.847.45-2.12 1.18-2.847c.614-.614 1.425-1.03 2.33-1.147v-7.406l-2.697.828c-.807.248-1.555.617-2.174 1.18s-1.11 1.318-1.426 2.353L1.8 63.412a3.22 3.22 0 0 0-.012.288c0 .596.184 1.137.577 1.545.42.435 1.092.745 2.05.852a6.88 6.88 0 0 0 .758.038h17.092l-3.25-24.662-5.117 1.57zm15.245 23.09l3.065-23.253L26.55 53.57a.51.51 0 0 1-.216.216c-.252.133-.564.036-.697-.216L19.98 42.883l3.064 23.252h6.1zm-3.05 1.55H5.174a8.39 8.39 0 0 1-.928-.051c-1.345-.15-2.332-.63-2.996-1.318-.7-.715-1.013-1.63-1.013-2.616a4.72 4.72 0 0 1 .03-.517c.007-.067.023-.13.046-.19L5.1 47.275c.404-1.33 1.054-2.315 1.862-3.05s1.75-1.202 2.76-1.512l.845-.26C8.3 38.165 6.63 30.73 6.826 23.343 7 17.123 8.47 10.905 12.018 6.547c.82-1.006 1.676-1.883 2.56-2.64C18.134.863 22.108-.22 25.908.042c3.777.26 7.374 1.85 10.205 4.156a18.74 18.74 0 0 1 2.399 2.334c.01.01.02.023.028.035 3.567 4.393 5.323 10.732 5.787 17.062.53 7.23-.63 14.496-2.696 18.825l.843.26c1 .3 1.958.782 2.76 1.512s1.458 1.72 1.862 3.05l4.777 15.718c.023.06.038.124.046.19a4.72 4.72 0 0 1 .03.517c0 .987-.323 1.9-1.013 2.616-.663.687-1.65 1.17-2.996 1.318a8.39 8.39 0 0 1-.928.051h-20.92zM20.1 40.547a.77.77 0 0 1-.048.287l6.032 11.394 6.032-11.394c-.03-.08-.046-.163-.048-.25-.172-.236-.32-.5-.438-.782-.233-.552-.363-1.182-.363-1.846v-3.4c-1.764 1.24-3.854 1.957-6.095 1.957v.002c-1.47 0-2.867-.4-4.146-1.103v2.545c0 .682-.127 1.257-.362 1.752a3.4 3.4 0 0 1-.565.838zm-4.612 12.098c-.542-.54-1.3-.876-2.116-.876s-1.575.335-2.116.876-.877 1.3-.877 2.117.335 1.575.877 2.116 1.3.876 2.116.876 1.575-.335 2.116-.876.877-1.3.877-2.116-.335-1.575-.877-2.117zm21.372-2.458a17.71 17.71 0 0 1 2.528-.202c.967-.008 1.948.063 2.944.22l-2.754-1.348-2.718 1.33zm.394 12.134h-1.56v.85h1.56v-.85zm6.206 0h-1.56v.85h1.56v-.85zM20.643 33.95a.52.52 0 0 1 .296.2c1.292.84 2.728 1.33 4.243 1.33v.002c2.865 0 5.462-1.305 7.345-3.414 1.896-2.123 3.068-5.062 3.068-8.313l-.037-2.986-1.773.95c.015.134.023.27.023.408a3.61 3.61 0 0 1-1.06 2.559c-.655.655-1.56 1.06-2.558 1.06s-1.904-.405-2.56-1.06-1.06-1.56-1.06-2.56c0-.038.001-.076.002-.114a1.72 1.72 0 0 0-.304-.262c-.333-.226-.74-.34-1.143-.34-.395.001-.784.115-1.095.347a1.57 1.57 0 0 0-.266.251l.002.118c0 1-.405 1.904-1.06 2.558s-1.56 1.06-2.558 1.06-1.904-.405-2.558-1.06-1.06-1.56-1.06-2.558a3.63 3.63 0 0 1 .025-.43l-1.65-.883c-.024.445-.036.847-.036 1.194 0 3.39 1.243 6.9 3.252 9.495.744.96 1.592 1.795 2.52 2.447zm-3.4-26.017c-.493 1.316-.933 3.07-1.297 4.923a64.84 64.84 0 0 0-.984 7.112l1.774.95c.182-.513.476-.973.853-1.35.655-.655 1.56-1.06 2.558-1.06s1.904.405 2.558 1.06a3.62 3.62 0 0 1 .826 1.278c.47-.3 1.03-.463 1.593-.465.583-.001 1.174.162 1.67.485.183-.492.47-.933.834-1.297a3.61 3.61 0 0 1 2.559-1.06c1 0 1.904.405 2.558 1.06a3.62 3.62 0 0 1 .86 1.369l1.91-1.023c-.093-1.587-.296-2.925-.74-3.966-.72-1.69-2.142-2.623-4.912-2.623v-.002c-1.437 0-6.098-.492-9.37-2.212-1.49-.783-2.703-1.82-3.253-3.178zM32.018 20.3c-.467-.468-1.114-.757-1.828-.757s-1.36.29-1.828.757-.757 1.114-.757 1.828.29 1.36.757 1.828 1.114.757 1.828.757 1.36-.29 1.828-.757.757-1.114.757-1.828-.29-1.36-.757-1.828zm-10.04 0c-.467-.468-1.114-.757-1.828-.757s-1.36.29-1.828.757-.757 1.114-.757 1.828.29 1.36.757 1.828 1.114.757 1.828.757 1.36-.29 1.828-.757.757-1.114.757-1.828-.29-1.36-.757-1.828z" fill="#83003f" fill-rule="nonzero"/></svg>