<svg xmlns="http://www.w3.org/2000/svg" width="63" height="68"><path d="M54.293 65.205c.214 0 .388.174.388.388s-.174.388-.388.388h-10.8c-.214 0-.388-.174-.388-.388s.174-.388.388-.388h10.8zM24.943 16.06c-.05.017-.106.026-.163.026h-7.386c-.088.395-.156.844-.202 1.35a19.51 19.51 0 0 0-.07 1.756l.024.902c.047 1.056.086 1.947-.354 2.473l7.405 9.447c.036-.005.072-.008.11-.008v-.002h3.38c.293 0 .55.163.68.404a.57.57 0 0 0 .139.108c.453.276 1.29.41 2.15.406s1.7-.146 2.18-.418a.51.51 0 0 0 .166-.128c.146-.238.4-.37.66-.37v-.002h4.552c.028 0 .057.002.084.005l6.97-9.564c-.344-.536-.307-1.373-.264-2.35l.024-.902-.086-1.9c-.046-.447-.11-.847-.19-1.205h-7.383c-.057 0-.112-.01-.163-.026a7.91 7.91 0 0 1-.59.661c-1.42 1.42-3.38 2.296-5.543 2.296s-4.124-.878-5.543-2.296a7.86 7.86 0 0 1-.59-.66zm-9.08-.206c-.054-.082-.086-.18-.086-.285v-7.5c0-.285.23-.517.517-.517h.166c.984-3.328 4.145-5.543 8.062-6.67 2.047-.59 4.313-.882 6.58-.88s4.532.297 6.574.884c3.923 1.13 7.08 3.342 8.027 6.637a.65.65 0 0 1 .008.03h.143c.285 0 .517.23.517.517v7.5c0 .105-.03.203-.085.284a12.49 12.49 0 0 1 .194 1.28 20.21 20.21 0 0 1 .098 2.059c0 .3-.016.64-.03.968-.034.772-.06 1.356.136 1.367 1.085.062 1.864.586 2.386 1.393.535.827.77 1.943.77 3.127 0 .87-.135 1.793-.392 2.673-.247.847-.61 1.654-1.075 2.332-.4.607-.88 1.118-1.423 1.473-.54.35-1.138.548-1.786.538h-.002-.098c-.434 1.348-.96 2.58-1.565 3.694a17.7 17.7 0 0 1-2.509 3.549l-.001.001.518 7.32c5.375.817 10.867 2.505 14.9 4.69 3.882 2.103 6.465 4.71 6.465 7.533v7.064c0 .428-.347.775-.775.775s-.775-.347-.775-.775V59.85c0-2.18-2.257-4.333-5.648-6.17-3.53-1.912-8.235-3.43-12.973-4.286a51.2 51.2 0 0 0-1.592-.262l-8.985 11.3c-.028.036-.06.07-.096.1a.77.77 0 0 1-1.09-.073l-9.876-11.32c-.49.073-.98.153-1.47.24-4.663.836-9.138 2.33-12.472 4.215-3.274 1.85-5.406 4.038-5.406 6.266v7.064c0 .428-.347.775-.775.775s-.775-.347-.775-.775V59.85c0-2.85 2.445-5.488 6.2-7.6 3.8-2.148 8.986-3.806 14.275-4.612l.52-7.32c-.922-1.004-1.763-2.18-2.494-3.523-.612-1.126-1.146-2.367-1.582-3.723h-.1c-.648.01-1.248-.186-1.787-.538s-1.013-.857-1.413-1.46c-.47-.68-.836-1.49-1.085-2.344-.257-.88-.39-1.803-.39-2.673 0-1.184.235-2.3.77-3.126.522-.807 1.3-1.33 2.386-1.394.196-.01.17-.596.136-1.367l-.03-.97c0-.677.028-1.308.082-1.896.05-.537.12-1.016.21-1.442zm2.23-8.3h5.856a.51.51 0 0 1 .16.025 7.87 7.87 0 0 1 1.423-1.944c1.42-1.42 3.38-2.296 5.543-2.296s4.124.877 5.543 2.296c.568.568 1.05 1.224 1.423 1.944a.51.51 0 0 1 .16-.025h5.885c-.924-2.504-3.565-4.237-6.833-5.178-1.917-.552-4.035-.83-6.15-.83s-4.237.274-6.157.827c-3.25.936-5.89 2.663-6.852 5.18zm5.582 1.033H16.81v6.465h7.45a7.8 7.8 0 0 1-1.024-3.875c0-.908.154-1.78.438-2.59zm14.216 6.465h7.448V8.587h-6.863c.284.81.438 1.683.438 2.59a7.8 7.8 0 0 1-1.024 3.875zm-6.815-6.375a2.49 2.49 0 0 1 1.768.732c.452.452.732 1.078.732 1.768s-.28 1.315-.732 1.767-1.078.732-1.768.732-1.315-.28-1.768-.732-.732-1.077-.732-1.767.28-1.315.732-1.768 1.078-.732 1.768-.732zm1.22 1.28a1.72 1.72 0 0 0-2.439 0 1.72 1.72 0 0 0 0 2.439 1.72 1.72 0 0 0 2.439 0 1.72 1.72 0 0 0 0-2.439zm6.625 22.505a.76.76 0 0 1 .056.181l1.583 5.786a16.63 16.63 0 0 0 1.579-2.406c.645-1.19 1.196-2.526 1.63-4.004h.001a.77.77 0 0 1 .859-.545l.272.043.29.001a1.63 1.63 0 0 0 .921-.29c.356-.232.685-.59.976-1.03l.01-.012c.374-.543.668-1.2.87-1.897.213-.73.325-1.505.325-2.243 0-.91-.158-1.73-.516-2.285-.26-.4-.643-.66-1.175-.69-.29-.017-.53-.066-.73-.144l-6.95 9.536zm.743 11.008l-.73 1.842a.77.77 0 0 1-.46.445c-2.332 1.036-4.7 1.598-7.108 1.62-2.43.023-4.888-.504-7.38-1.648a.77.77 0 0 1-.384-.387l-1.083-2.306-.356 5 9.33 10.695 8.496-10.677-.324-4.585zM21.64 38.493l1.93-5.95a.85.85 0 0 1 .019-.053l-7.456-9.513c-.167.05-.36.082-.583.095a1.44 1.44 0 0 0-1.175.691c-.36.554-.516 1.376-.516 2.285a8.12 8.12 0 0 0 .325 2.243c.204.697.498 1.354.872 1.896l.01.015c.288.437.617.794.975 1.028.3.19.6.295.92.29h.01l.26-.001.292-.045v.002c.377-.06.75.17.86.546.438 1.492.993 2.834 1.64 4.026.488.897 1.03 1.713 1.618 2.446zm5.685-4.94h-2.46l-2.082 6.42 2.098 4.467c2.193.967 4.35 1.413 6.47 1.393 2.107-.02 4.19-.5 6.256-1.385l1.772-4.475-1.756-6.42H34a2.31 2.31 0 0 1-.399.288c-.704.408-1.843.62-2.956.624s-2.254-.202-2.956-.63a2.27 2.27 0 0 1-.373-.282zm8.562-27.19c-1.23-1.23-2.933-1.993-4.812-1.993s-3.58.762-4.812 1.993-1.993 2.933-1.993 4.812.762 3.58 1.993 4.812 2.933 1.993 4.812 1.993 3.58-.762 4.812-1.993 1.993-2.933 1.993-4.812-.762-3.58-1.993-4.812z" fill="#83003f" fill-rule="nonzero"/></svg>