<?xml version="1.0" encoding="utf-8"?>
<!-- Generator: Adobe Illustrator 19.2.0, SVG Export Plug-In . SVG Version: 6.00 Build 0)  -->
<svg version="1.1" id="Layer_1" xmlns="http://www.w3.org/2000/svg" xmlns:xlink="http://www.w3.org/1999/xlink" x="0px" y="0px"
	 width="24px" height="24px" viewBox="0 0 24 24" style="enable-background:new 0 0 24 24;" xml:space="preserve">
<g>
	<path d="M12.024,8.133c-2.127,0-3.857,1.73-3.857,3.856c0,2.126,1.73,3.856,3.857,3.856c2.126,0,3.856-1.73,3.856-3.856
		C15.881,9.863,14.15,8.133,12.024,8.133z M12.024,14.845c-1.575,0-2.857-1.281-2.857-2.856s1.282-2.856,2.857-2.856
		s2.856,1.281,2.856,2.856S13.6,14.845,12.024,14.845z"/>
	<path d="M12.024,4.088c-4.357,0-7.901,3.544-7.901,7.901c0,4.356,3.544,7.901,7.901,7.901c4.356,0,7.901-3.545,7.901-7.901
		C19.926,7.632,16.381,4.088,12.024,4.088z M12.024,18.89c-3.806,0-6.901-3.096-6.901-6.901s3.096-6.901,6.901-6.901
		s6.901,3.096,6.901,6.901S15.83,18.89,12.024,18.89z"/>
	<path d="M12.024,0.16c-6.522,0-11.829,5.306-11.829,11.829s5.306,11.828,11.829,11.828s11.828-5.306,11.828-11.828
		S18.547,0.16,12.024,0.16z M12.024,22.817c-5.971,0-10.829-4.857-10.829-10.828S6.054,1.16,12.024,1.16s10.828,4.858,10.828,10.829
		S17.995,22.817,12.024,22.817z"/>
	<path d="M11.68,11.63c-0.1,0.09-0.15,0.22-0.15,0.36c0,0.13,0.05,0.26,0.14,0.36c0.1,0.09,0.23,0.14,0.35,0.14
		c0.13,0,0.26-0.05,0.36-0.15c0.09-0.09,0.14-0.22,0.14-0.35c0-0.14-0.05-0.27-0.14-0.35C12.19,11.45,11.85,11.45,11.68,11.63z"/>
</g>
</svg>
