<?xml version="1.0" encoding="utf-8"?>
<!-- Generator: Adobe Illustrator 19.2.0, SVG Export Plug-In . SVG Version: 6.00 Build 0)  -->
<svg version="1.1" id="Layer_1" xmlns="http://www.w3.org/2000/svg" xmlns:xlink="http://www.w3.org/1999/xlink" x="0px" y="0px"
	 width="24px" height="24px" viewBox="0 0 24 24" style="enable-background:new 0 0 24 24;" xml:space="preserve">
<g>
	<path d="M21.135,0H2.865C1.285,0,0,1.285,0,2.865v18.27C0,22.715,1.285,24,2.865,24h18.27C22.715,24,24,22.715,24,21.135V2.865
		C24,1.285,22.715,0,21.135,0z M23,21.135C23,22.163,22.163,23,21.135,23H2.865C1.837,23,1,22.163,1,21.135V2.865
		C1,1.837,1.837,1,2.865,1h18.27C22.163,1,23,1.837,23,2.865V21.135z"/>
	<path d="M18.485,5H5.515c-0.276,0-0.5,0.224-0.5,0.5S5.238,6,5.515,6h12.971c0.276,0,0.5-0.224,0.5-0.5S18.762,5,18.485,5z"/>
	<path d="M18.485,9H5.515c-0.276,0-0.5,0.224-0.5,0.5s0.224,0.5,0.5,0.5h12.971c0.276,0,0.5-0.224,0.5-0.5S18.762,9,18.485,9z"/>
	<path d="M18.485,13H5.515c-0.276,0-0.5,0.224-0.5,0.5s0.224,0.5,0.5,0.5h12.971c0.276,0,0.5-0.224,0.5-0.5S18.762,13,18.485,13z"/>
	<path d="M18.485,17H5.515c-0.276,0-0.5,0.224-0.5,0.5s0.224,0.5,0.5,0.5h12.971c0.276,0,0.5-0.224,0.5-0.5S18.762,17,18.485,17z"/>
</g>
</svg>
