<?xml version="1.0" encoding="utf-8"?>
<!-- Generator: Adobe Illustrator 19.2.0, SVG Export Plug-In . SVG Version: 6.00 Build 0)  -->
<svg version="1.1" id="Layer_1" xmlns="http://www.w3.org/2000/svg" xmlns:xlink="http://www.w3.org/1999/xlink" x="0px" y="0px"
	 width="24px" height="24px" viewBox="0 0 24 24" style="enable-background:new 0 0 24 24;" xml:space="preserve">
<g>
	<path d="M21.146,0H2.877c-1.58,0-2.865,1.285-2.865,2.865v18.27c0,1.58,1.285,2.865,2.865,2.865h18.269
		c1.58,0,2.865-1.285,2.865-2.865V2.865C24.012,1.285,22.727,0,21.146,0z M23.012,21.135c0,1.028-0.837,1.865-1.865,1.865H2.877
		c-1.028,0-1.865-0.837-1.865-1.865V2.865C1.012,1.837,1.849,1,2.877,1h18.269c1.028,0,1.865,0.837,1.865,1.865V21.135z"/>
	<path d="M10.398,16H4.531c-0.276,0-0.5,0.224-0.5,0.5s0.224,0.5,0.5,0.5h5.867c0.276,0,0.5-0.224,0.5-0.5S10.674,16,10.398,16z"/>
	<path d="M10.398,19H4.531c-0.276,0-0.5,0.224-0.5,0.5s0.224,0.5,0.5,0.5h5.867c0.276,0,0.5-0.224,0.5-0.5S10.674,19,10.398,19z"/>
	<path d="M19.398,16h-5.867c-0.276,0-0.5,0.224-0.5,0.5s0.224,0.5,0.5,0.5h5.867c0.276,0,0.5-0.224,0.5-0.5S19.675,16,19.398,16z"/>
	<path d="M19.398,19h-5.867c-0.276,0-0.5,0.224-0.5,0.5s0.224,0.5,0.5,0.5h5.867c0.276,0,0.5-0.224,0.5-0.5S19.675,19,19.398,19z"/>
	<path d="M19.398,10h-5.867c-0.276,0-0.5,0.224-0.5,0.5s0.224,0.5,0.5,0.5h5.867c0.276,0,0.5-0.224,0.5-0.5S19.675,10,19.398,10z"/>
	<path d="M19.398,6.999h-5.867c-0.276,0-0.5,0.224-0.5,0.5s0.224,0.5,0.5,0.5h5.867c0.276,0,0.5-0.224,0.5-0.5
		S19.675,6.999,19.398,6.999z"/>
	<path d="M19.399,4H4.532c-0.276,0-0.5,0.224-0.5,0.5S4.255,5,4.532,5h14.868c0.276,0,0.5-0.224,0.5-0.5S19.676,4,19.399,4z"/>
	<path d="M19.398,13h-5.867c-0.276,0-0.5,0.224-0.5,0.5s0.224,0.5,0.5,0.5h5.867c0.276,0,0.5-0.224,0.5-0.5S19.675,13,19.398,13z"/>
	<path d="M10.5,7h-6C4.224,7,4,7.223,4,7.5v6C4,13.776,4.224,14,4.5,14h6c0.276,0,0.5-0.224,0.5-0.5v-6C11,7.223,10.776,7,10.5,7z
		 M10,13H5V8h5V13z"/>
</g>
</svg>
