<?xml version="1.0" encoding="utf-8"?>
<!-- Generator: Adobe Illustrator 19.2.0, SVG Export Plug-In . SVG Version: 6.00 Build 0)  -->
<svg version="1.1" id="Layer_1" xmlns="http://www.w3.org/2000/svg" xmlns:xlink="http://www.w3.org/1999/xlink" x="0px" y="0px"
	 width="24px" height="24px" viewBox="0 0 24 24" style="enable-background:new 0 0 24 24;" xml:space="preserve">
<g>
	<path d="M18.343,8.859c1.82,0,3.301-1.493,3.301-3.329s-1.48-3.329-3.301-3.329c-1.819,0-3.3,1.494-3.3,3.329
		S16.523,8.859,18.343,8.859z M18.343,3.201c1.269,0,2.301,1.045,2.301,2.329s-1.032,2.329-2.301,2.329s-2.3-1.044-2.3-2.329
		S17.074,3.201,18.343,3.201z"/>
	<path d="M5.605,11.001h12.737c3.013,0,5.464-2.467,5.464-5.5s-2.451-5.5-5.464-5.5H5.605c-3.012,0-5.463,2.467-5.464,5.5
		C0.142,8.534,2.593,11.001,5.605,11.001z M5.605,1.001h12.737c2.461,0,4.464,2.019,4.464,4.5s-2.003,4.5-4.464,4.5H5.605
		c-2.461,0-4.464-2.019-4.464-4.5C1.142,3.02,3.145,1.001,5.605,1.001z"/>
	<path d="M5.605,15.143c-1.82,0-3.301,1.493-3.301,3.329s1.481,3.329,3.301,3.329s3.301-1.493,3.301-3.329
		S7.425,15.143,5.605,15.143z M5.605,20.802c-1.269,0-2.301-1.045-2.301-2.329s1.032-2.329,2.301-2.329s2.301,1.045,2.301,2.329
		S6.874,20.802,5.605,20.802z"/>
	<path d="M18.343,13.002H5.605c-3.013,0-5.464,2.468-5.464,5.5s2.451,5.5,5.464,5.5h12.737c3.013,0,5.464-2.468,5.464-5.5
		S21.355,13.002,18.343,13.002z M18.343,23.002H5.605c-2.461,0-4.464-2.019-4.464-4.5s2.002-4.5,4.464-4.5h12.737
		c2.461,0,4.464,2.019,4.464,4.5S20.804,23.002,18.343,23.002z"/>
	<path d="M20.4,16.615h-1.795c-0.276,0-0.5,0.224-0.5,0.5v2.774c0,0.276,0.224,0.5,0.5,0.5s0.5-0.224,0.5-0.5v-0.888h1.042
		c0.276,0,0.5-0.224,0.5-0.5s-0.224-0.5-0.5-0.5h-1.042v-0.387H20.4c0.276,0,0.5-0.224,0.5-0.5S20.677,16.615,20.4,16.615z"/>
	<path d="M11.981,16.615c-0.991,0-1.797,0.847-1.797,1.887c0,1.041,0.806,1.888,1.797,1.888c0.991,0,1.797-0.847,1.797-1.888
		C13.778,17.462,12.972,16.615,11.981,16.615z M11.981,19.389c-0.439,0-0.797-0.398-0.797-0.888s0.358-0.887,0.797-0.887
		s0.797,0.397,0.797,0.887S12.421,19.389,11.981,19.389z"/>
	<path d="M5.77,7.417c0.991,0,1.797-0.847,1.797-1.887S6.761,3.643,5.77,3.643S3.972,4.49,3.972,5.53S4.778,7.417,5.77,7.417z
		 M5.77,4.643c0.439,0,0.797,0.398,0.797,0.887S6.209,6.417,5.77,6.417S4.972,6.019,4.972,5.53S5.33,4.643,5.77,4.643z"/>
	<path d="M16.9,16.615h-1.796c-0.276,0-0.5,0.224-0.5,0.5v2.774c0,0.276,0.224,0.5,0.5,0.5s0.5-0.224,0.5-0.5v-0.888h1.042
		c0.276,0,0.5-0.224,0.5-0.5s-0.224-0.5-0.5-0.5h-1.042v-0.387H16.9c0.276,0,0.5-0.224,0.5-0.5S17.177,16.615,16.9,16.615z"/>
	<path d="M8.768,7.418c0.276,0,0.5-0.224,0.5-0.5v-1.31l1.244,1.61c0.13,0.169,0.354,0.235,0.557,0.167
		c0.202-0.069,0.338-0.259,0.338-0.473V4.195c0-0.276-0.224-0.5-0.5-0.5s-0.5,0.224-0.5,0.5v1.253l-1.244-1.61
		C9.033,3.668,8.808,3.6,8.606,3.67C8.404,3.739,8.268,3.929,8.268,4.143v2.774C8.268,7.194,8.492,7.418,8.768,7.418z"/>
</g>
</svg>
