<?xml version="1.0" encoding="UTF-8"?>
<svg width="35px" height="35px" viewBox="0 0 35 35" version="1.1" xmlns="http://www.w3.org/2000/svg" xmlns:xlink="http://www.w3.org/1999/xlink">
    <title>twitter</title>
    <g id="twitter" stroke="none" stroke-width="1" fill="none" fill-rule="evenodd">
        <path d="M27.448,10.9683465 C26.6966677,11.3020053 25.8865251,11.527645 25.0391759,11.629663 C25.9057285,11.1099715 26.5706455,10.2878267 26.8827005,9.30845431 C26.0725578,9.78973904 25.1747998,10.1378003 24.2182314,10.3250333 C23.454897,9.5100898 22.3639049,9 21.1564923,9 C18.8412847,9 16.962954,10.8807311 16.962954,13.1959387 C16.962954,13.5259968 16.9977602,13.8440528 17.0709731,14.1513069 C13.5843592,13.9760761 10.4938151,12.3077824 8.42345061,9.76693502 C8.062187,10.3898447 7.85575066,11.1099715 7.85575066,11.8793069 C7.85575066,13.3327628 8.59628104,14.6181891 9.72207924,15.3707216 C9.03435816,15.3491178 8.38744427,15.1594844 7.82094453,14.8462293 L7.82094453,14.8978384 C7.82094453,16.9321965 9.26719915,18.6280951 11.1875372,19.0121627 C10.8346751,19.11058 10.46501,19.1597887 10.0809424,19.1597887 C9.81089488,19.1597887 9.54684839,19.1357845 9.29240359,19.0865758 C9.82529741,20.7512689 11.3747702,21.9658827 13.2110935,21.9982884 C11.7744406,23.1240866 9.96572213,23.7950048 8.00097623,23.7950048 C7.66251664,23.7950048 7.32765769,23.7758014 7,23.7373946 C8.85672689,24.926804 11.0615151,25.6217264 13.4307322,25.6217264 C21.1480909,25.6217264 25.3668336,19.229401 25.3668336,13.6832245 C25.3668336,13.5007924 25.363233,13.3195605 25.3548315,13.140729 C26.1745758,12.5478246 26.8875013,11.8096947 27.448,10.9683465" id="Fill-2" fill="#FFFFFF"></path>
    </g>
</svg>