<svg xmlns="http://www.w3.org/2000/svg" width="68" height="68"><path d="M10.577 7.192c.212-.37.685-.5 1.057-.288s.5.685.288 1.057l-.168.31c-.305.595-.57 1.29-.78 2.054-.668 2.448-.774 5.617.174 8.684.94 3.044 2.93 5.984 6.462 8.002 1.247.713 2.682 1.31 4.324 1.76a30.48 30.48 0 0 1 3.174 1.045c6.675 2.634 7.86 6.385 7.834 8.78l5.064-4.55c2.683-2.4 6.107-3.504 9.462-3.324 3.345.18 6.622 1.622 9.03 4.285.02.02.04.043.06.066a13.07 13.07 0 0 1 3.292 9.426c-.18 3.345-1.622 6.62-4.285 9.028-.02.02-.04.038-.06.056L44.105 63.82c-2.683 2.4-6.107 3.504-9.462 3.324s-6.647-1.633-9.056-4.315a12.99 12.99 0 0 1-1.895-2.75c-.466-.907-.82-1.86-1.06-2.833l-2.454-1.57-1.854 3.654-1.497 2.845c-.798 1.16-1.943 1.985-3.198 2.334-1.22.34-2.54.23-3.746-.452l-6.88-3.887C.876 58.97.17 57.032.413 55.2c.093-.698.327-1.38.675-1.995a5.56 5.56 0 0 1 1.361-1.608c1.327-1.06 3.144-1.48 5.077-.61L9.473 46.5 7.06 47.53c-.716.305-1.47.37-2.133.172-.658-.196-1.217-.64-1.566-1.35l-2.14-4.364c-1.36-2.25-1.14-4.113-.214-5.42.402-.568.933-1.02 1.522-1.343a5.08 5.08 0 0 1 1.869-.594c1.482-.166 2.94.36 3.6 1.7l.217.334 7.403-3.974c1.32-.758 2.658-1.303 4.042-1.366 1.436-.065 2.876.382 4.326 1.628l.036.033 7.173 7.004a4.42 4.42 0 0 0 .066-.246c.317-1.33.52-4.784-4.686-7.56-1.31-.7-2.965-1.355-5.048-1.923-1.785-.487-3.34-1.134-4.688-1.904-3.915-2.237-6.124-5.505-7.17-8.892a17.53 17.53 0 0 1-.186-9.544c.284-1.042.66-1.968 1.093-2.728zm-.2 37.247l.473-1.09a6.87 6.87 0 0 1 3.598-3.591 6.6 6.6 0 0 1 4.977-.104 6.64 6.64 0 0 1 .928.33 6.69 6.69 0 0 1 .902.487l.002.001.001-.001 5.608 3.59 3.28-2.95-7.173-7.004c-1.112-.95-2.186-1.292-3.237-1.244-1.103.05-2.225.518-3.358 1.17l-.018.012-8.656 4.65-1.062-1.637-.015-.032c-.333-.698-1.172-.962-2.05-.864-.44.05-.888.2-1.294.413a3 3 0 0 0-1.008.877c-.597.843-.7 2.1.284 3.736l.003.005 2.195 4.474c.142.3.364.47.62.546.316.094.7.052 1.085-.112l3.913-1.666zm1.312.854a.8.8 0 0 1-.039.089l-3.028 6.98c-.01.025-.023.05-.036.073a.77.77 0 0 1-1.05.294l-.243-.137c-1.486-.84-2.884-.577-3.87.212a4.01 4.01 0 0 0-.98 1.16 4.01 4.01 0 0 0-.487 1.438c-.167 1.254.33 2.587 1.813 3.426l6.88 3.886c.827.467 1.735.54 2.577.306.91-.253 1.747-.862 2.338-1.722.076-.11.69-1.298 1.394-2.67l2.215-4.39.002.001a.81.81 0 0 1 .05-.092.77.77 0 0 1 1.066-.236l3.435 2.197a.77.77 0 0 1 .35.491 11.51 11.51 0 0 0 1.001 2.773c.44.857.997 1.672 1.672 2.423 2.126 2.366 5.025 3.648 7.984 3.806s5.983-.805 8.348-2.93l11.427-10.266c2.366-2.126 3.648-5.025 3.807-7.984s-.805-5.982-2.93-8.348-5.025-3.648-7.985-3.807-5.983.805-8.348 2.93L27.453 45.61c-.253.227-.635.268-.935.076l-6.104-3.91c-.217-.14-.45-.262-.694-.37s-.49-.194-.74-.26c-.027-.008-.055-.017-.082-.027-1.29-.505-2.663-.44-3.853.068-1.206.516-2.225 1.485-2.786 2.78l-.578 1.332zM52.67.01a15.23 15.23 0 0 1 10.804 4.475A15.23 15.23 0 0 1 67.95 15.29a15.23 15.23 0 0 1-4.475 10.804 15.23 15.23 0 0 1-21.608 0 15.23 15.23 0 0 1-4.475-10.804 15.23 15.23 0 0 1 4.475-10.804A15.23 15.23 0 0 1 52.671.011zm9.708 5.57c-2.484-2.484-5.917-4.02-9.708-4.02s-7.223 1.537-9.708 4.02-4.02 5.917-4.02 9.708 1.537 7.223 4.02 9.708 5.917 4.02 9.708 4.02 7.224-1.536 9.708-4.02S66.4 19.08 66.4 15.3s-1.537-7.223-4.02-9.708z" fill="#83003f" fill-rule="nonzero"/></svg>