<?xml version="1.0" encoding="utf-8"?>
<!-- Generator: Adobe Illustrator 19.2.0, SVG Export Plug-In . SVG Version: 6.00 Build 0)  -->
<svg version="1.1" id="Layer_1" xmlns="http://www.w3.org/2000/svg" xmlns:xlink="http://www.w3.org/1999/xlink" x="0px" y="0px"
	 width="24px" height="24px" viewBox="0 0 24 24" style="enable-background:new 0 0 24 24;" xml:space="preserve">
<path d="M20.352,3.634c-4.605-4.606-12.1-4.604-16.706,0c-2.228,2.228-3.455,5.194-3.455,8.353s1.227,6.125,3.455,8.352
	c2.228,2.228,5.194,3.455,8.353,3.455c0,0,0.001,0,0.001,0c3.158,0,6.125-1.227,8.352-3.454c2.228-2.228,3.455-5.194,3.455-8.353
	S22.579,5.862,20.352,3.634z M4.353,4.341c2.108-2.108,4.877-3.162,7.646-3.162c2.612,0,5.217,0.95,7.275,2.826L4.017,19.261
	c-1.819-1.992-2.825-4.552-2.825-7.274C1.191,9.095,2.314,6.38,4.353,4.341z M19.645,19.633c-2.038,2.039-4.753,3.161-7.645,3.161
	c0,0,0,0-0.001,0c-2.723,0-5.282-1.007-7.275-2.826L19.981,4.712c1.819,1.992,2.826,4.552,2.826,7.275
	C22.807,14.879,21.684,17.594,19.645,19.633z"/>
</svg>
