<?xml version="1.0" encoding="utf-8"?>
<!-- Generator: Adobe Illustrator 19.2.0, SVG Export Plug-In . SVG Version: 6.00 Build 0)  -->
<svg version="1.1" id="Layer_1" xmlns="http://www.w3.org/2000/svg" xmlns:xlink="http://www.w3.org/1999/xlink" x="0px" y="0px"
	 width="24px" height="24px" viewBox="0 0 24 24" style="enable-background:new 0 0 24 24;" xml:space="preserve">
<path d="M23.687,15.822l-1.973-3.214c-0.007-0.011-0.018-0.017-0.025-0.027c-0.02-0.027-0.042-0.05-0.067-0.072
	c-0.023-0.021-0.046-0.042-0.073-0.058c-0.027-0.017-0.056-0.028-0.086-0.04c-0.02-0.008-0.037-0.022-0.059-0.027
	c-0.013-0.003-0.026,0.001-0.039-0.001c-0.012-0.002-0.022-0.009-0.035-0.01c-0.018-0.001-0.035,0.006-0.053,0.007
	c-0.039,0.001-0.076,0.005-0.114,0.015c-0.013,0.004-0.025,0.009-0.039,0.014c-0.033,0.012-0.068,0.017-0.098,0.036l-3.157,1.939
	c-0.235,0.145-0.309,0.452-0.164,0.688c0.144,0.235,0.453,0.311,0.688,0.164l2.244-1.377c-0.397,1.96-1.426,3.714-2.974,5.013
	c-1.813,1.522-4.126,2.249-6.499,2.047c-2.375-0.202-4.529-1.317-6.066-3.14c-1.537-1.823-2.271-4.135-2.069-6.51
	c0.202-2.375,1.317-4.53,3.14-6.066c1.823-1.537,4.135-2.272,6.51-2.069c2.329,0.198,4.455,1.28,5.985,3.044
	c0.181,0.208,0.499,0.231,0.705,0.05c0.209-0.181,0.231-0.497,0.051-0.706c-1.702-1.962-4.066-3.165-6.656-3.385
	C10.124,1.91,7.55,2.727,5.523,4.437c-2.026,1.708-3.267,4.104-3.491,6.746c-0.225,2.642,0.592,5.212,2.301,7.239
	c1.709,2.026,4.104,3.267,6.746,3.491c0.29,0.024,0.579,0.037,0.866,0.037c2.333,0,4.564-0.807,6.36-2.314
	c1.665-1.397,2.787-3.269,3.26-5.361l1.271,2.071c0.094,0.153,0.258,0.238,0.426,0.238c0.09,0,0.18-0.023,0.262-0.074
	C23.758,16.365,23.831,16.057,23.687,15.822z"/>
</svg>
