<?xml version="1.0" encoding="utf-8"?>
<!-- Generator: Adobe Illustrator 19.2.0, SVG Export Plug-In . SVG Version: 6.00 Build 0)  -->
<svg version="1.1" id="Layer_1" xmlns="http://www.w3.org/2000/svg" xmlns:xlink="http://www.w3.org/1999/xlink" x="0px" y="0px"
	 width="24px" height="24px" viewBox="0 0 24 24" style="enable-background:new 0 0 24 24;" xml:space="preserve">
<g>
	<path d="M12.046,6.969c-2.705,0-4.906,2.261-4.906,5.041c0,2.78,2.201,5.042,4.906,5.042s4.906-2.262,4.906-5.042
		C16.952,9.23,14.751,6.969,12.046,6.969z M12.046,16.051c-2.154,0-3.906-1.813-3.906-4.042s1.752-4.041,3.906-4.041
		c2.154,0,3.906,1.812,3.906,4.041S14.2,16.051,12.046,16.051z"/>
	<path d="M12.046,9.642c-1.275,0-2.312,1.062-2.312,2.368s1.037,2.367,2.312,2.367c1.274,0,2.312-1.062,2.312-2.367
		S13.32,9.642,12.046,9.642z M12.046,13.377c-0.724,0-1.312-0.613-1.312-1.367s0.588-1.368,1.312-1.368
		c0.723,0,1.312,0.614,1.312,1.368S12.769,13.377,12.046,13.377z"/>
	<path d="M23.555,11.788c-2.378-4.805-6.787-7.789-11.509-7.789c-4.721,0-9.131,2.984-11.509,7.789c-0.069,0.14-0.069,0.304,0,0.443
		c2.377,4.805,6.787,7.789,11.509,7.789s9.132-2.984,11.509-7.789C23.624,12.092,23.624,11.927,23.555,11.788z M12.046,19.02
		c-4.267,0-8.27-2.68-10.5-7.011c2.231-4.331,6.234-7.011,10.5-7.011c4.267,0,8.27,2.68,10.5,7.011
		C20.315,16.341,16.312,19.02,12.046,19.02z"/>
</g>
</svg>
