<?xml version="1.0" encoding="utf-8"?>
<!-- Generator: Adobe Illustrator 19.2.0, SVG Export Plug-In . SVG Version: 6.00 Build 0)  -->
<svg version="1.1" id="Layer_1" xmlns="http://www.w3.org/2000/svg" xmlns:xlink="http://www.w3.org/1999/xlink" x="0px" y="0px"
	 width="24px" height="24px" viewBox="0 0 24 24" style="enable-background:new 0 0 24 24;" xml:space="preserve">
<g>
	<path d="M23.597,0.409c-0.195-0.195-0.512-0.195-0.707,0L0.53,22.768c-0.195,0.195-0.195,0.512,0,0.707
		c0.098,0.098,0.226,0.146,0.354,0.146s0.256-0.049,0.354-0.146L23.597,1.116C23.792,0.921,23.792,0.605,23.597,0.409z"/>
	<path d="M14.146,8.15c0.104-0.256-0.019-0.547-0.274-0.651c-1.813-0.739-3.806-0.335-5.195,1.053
		C7.285,9.943,6.88,11.935,7.62,13.75c0.079,0.194,0.266,0.312,0.463,0.312c0.063,0,0.127-0.012,0.188-0.037
		c0.256-0.104,0.379-0.396,0.274-0.651c-0.584-1.436-0.264-3.013,0.838-4.114c1.1-1.099,2.674-1.418,4.111-0.834
		C13.748,8.529,14.041,8.405,14.146,8.15z"/>
	<path d="M4.47,17.266c0.091,0.069,0.198,0.104,0.304,0.104c0.15,0,0.298-0.067,0.397-0.195c0.168-0.219,0.127-0.533-0.092-0.701
		c-1.524-1.171-2.828-2.734-3.784-4.531c3.079-5.792,9.291-8.39,14.866-6.18c0.258,0.101,0.548-0.024,0.649-0.281
		c0.102-0.256-0.023-0.547-0.28-0.649c-6.138-2.434-12.97,0.46-16.244,6.882c-0.073,0.143-0.073,0.312,0,0.454
		C1.318,14.193,2.765,15.956,4.47,17.266z"/>
	<path d="M23.841,11.716c-1.031-2.022-2.478-3.785-4.184-5.097c-0.219-0.167-0.531-0.126-0.701,0.092
		c-0.168,0.219-0.127,0.533,0.092,0.701c1.525,1.172,2.829,2.735,3.784,4.531c-3.079,5.792-9.293,8.39-14.867,6.18
		c-0.257-0.103-0.547,0.023-0.649,0.28s0.024,0.548,0.281,0.649c1.46,0.579,2.959,0.856,4.441,0.856
		c4.746,0,9.308-2.846,11.803-7.739C23.914,12.027,23.914,11.858,23.841,11.716z"/>
	<path d="M10.256,16.386c0.601,0.245,1.222,0.364,1.833,0.364c1.235,0,2.432-0.487,3.36-1.415c1.219-1.218,1.681-2.896,1.282-4.513
		c-0.057-0.231-0.131-0.461-0.224-0.688c-0.104-0.256-0.396-0.381-0.651-0.274c-0.256,0.104-0.379,0.396-0.274,0.651
		c0.103,0.253,0.168,0.511,0.215,0.77c0.222,1.209-0.147,2.439-1.056,3.347c-1.099,1.099-2.672,1.415-4.108,0.832
		c-0.254-0.105-0.548,0.018-0.651,0.274c-0.026,0.064-0.038,0.13-0.037,0.195C9.947,16.125,10.064,16.309,10.256,16.386z"/>
	<path d="M11.471,9.567c-0.88,0.22-1.563,0.903-1.783,1.783c-0.066,0.268,0.097,0.539,0.365,0.606
		c0.041,0.01,0.081,0.015,0.121,0.015c0.224,0,0.428-0.152,0.485-0.379c0.129-0.521,0.533-0.924,1.054-1.054
		c0.268-0.067,0.431-0.338,0.364-0.606C12.01,9.663,11.736,9.497,11.471,9.567z"/>
	<path d="M12.535,14.333c0.04,0,0.081-0.005,0.122-0.015c0.878-0.219,1.562-0.902,1.783-1.782c0.065-0.26-0.089-0.52-0.344-0.597
		c-0.008-0.002-0.014-0.008-0.022-0.01c-0.018-0.004-0.036,0-0.054-0.002c-0.049-0.007-0.098-0.013-0.146-0.006
		c-0.193,0.03-0.357,0.171-0.407,0.372c-0.13,0.521-0.533,0.924-1.053,1.054c-0.268,0.067-0.431,0.338-0.364,0.606
		C12.107,14.181,12.311,14.333,12.535,14.333z"/>
</g>
</svg>
