<svg xmlns="http://www.w3.org/2000/svg" width="55" height="67"><path d="M52.642 25.957c.608.452 1.126 1.02 1.52 1.672A5.78 5.78 0 0 1 55 30.625v26.487a5.8 5.8 0 0 1-1.421 3.808c-.78.9-1.836 1.56-3.035 1.843-.272.97-.8 1.838-1.48 2.533-1.046 1.052-2.49 1.705-4.08 1.705H5.776c-1.59 0-3.034-.653-4.08-1.705S0 62.792 0 61.194l.008-26.78c-.005-.04-.008-.08-.008-.128v-3.662c0-1.597.65-3.05 1.696-4.1s2.49-1.705 4.08-1.705h4.67L24.03 2.39A4.95 4.95 0 0 1 27.1.143a4.93 4.93 0 0 1 3.753.581l13.72 8.397c1.166.714 1.936 1.842 2.236 3.085a5.06 5.06 0 0 1 .14 1.313l5.897 4.457c1.015.767 1.625 1.88 1.79 3.056s-.114 2.4-.876 3.43l-1.12 1.495zm-3.4 35.307V54.3H39.175c-1.306 0-2.494-.537-3.355-1.402a4.77 4.77 0 0 1-1.395-3.372v-3.552a4.77 4.77 0 0 1 1.395-3.372c.86-.865 2.048-1.402 3.355-1.402h10.057v-6.493l-.013-.335v-.004l-.003-.03-.001-.012-.002-.02-.003-.03-.001-.005-.006-.053v-.002c-.113-.98-.56-1.86-1.22-2.525a4.31 4.31 0 0 0-.531-.454 4.64 4.64 0 0 0-.459-.29 4.19 4.19 0 0 0-2.01-.512L5.6 30.44h-.04-.004l-.056.003c-1.058.07-2.014.533-2.723 1.246a4.27 4.27 0 0 0-1.249 3.016v26.488c0 1.174.478 2.242 1.25 3.016s1.833 1.255 3 1.255h39.207c1.168 0 2.23-.48 3-1.255a4.27 4.27 0 0 0 1.249-2.946zM46.32 29.06l2.338-3.125-.123-.09c-1.28-.968-2.1-2.314-2.364-3.708-.276-1.408-.008-2.866.87-4.04l.06-.077-1.445-1.093L38.403 28.9h6.58c.46 0 .908.055 1.338.158zm-9.7-.158l8.397-13.87a3.48 3.48 0 0 0 .225-.518 3.45 3.45 0 0 0 .163-.719l.01-.09c.034-.382.004-.766-.085-1.136a3.45 3.45 0 0 0-1.551-2.138L30.06 2.03c-.808-.494-1.744-.61-2.602-.402a3.43 3.43 0 0 0-2.127 1.559l-13.78 22.75a.78.78 0 0 1-.057.094L9.755 28.9h.983L25.845 3.964c.395-.617 1-1.024 1.664-1.187a2.73 2.73 0 0 1 2.079.322l13.467 8.242c.646.395 1.072 1.02 1.24 1.71a2.77 2.77 0 0 1-.321 2.09L35.637 28.9h.983zm-24.693 0h4.424a7.99 7.99 0 0 1-.096-2.459 7.96 7.96 0 0 1 1.102-3.208 7.89 7.89 0 0 1 4.89-3.591 7.85 7.85 0 0 1 5.984.934 7.91 7.91 0 0 1 3.303 4.022c.502 1.36.632 2.85.348 4.302h2.567l6.51-10.747-.183-.11c-1.486-.91-2.504-2.28-2.947-3.758-.447-1.492-.31-3.096.514-4.46l.08-.13-5.26-3.22-.077.13v.002c-.825 1.362-2.18 2.22-3.707 2.505-1.5.283-3.186.003-4.672-.906l-.18-.114-12.6 20.802zm5.46 0h9.46l.035-.065c.1-.2.174-.436.207-.71.05-.412-.045-.753-.226-1.01l-.013-.017a1.44 1.44 0 0 0-.63-.483 1.57 1.57 0 0 0-.796-.102c-.32.044-.625.198-.842.476l-.001-.001-.787.94-.01.015c-.348.445-.83.69-1.34.76-.396.054-.808.001-1.18-.15-.367-.148-.698-.39-.943-.718l-.018-.023c-.298-.4-.46-.942-.383-1.57.024-.203.067-.394.124-.573l.08-.216-.78-.477c-.18-.1-.236-.346-.127-.526a.38.38 0 0 1 .523-.127l.776.475c.227-.277.498-.488.78-.642.523-.287 1.1-.376 1.48-.328a1.3 1.3 0 0 1 .247.054c.2.064.3.28.246.48a.38.38 0 0 1-.479.247.59.59 0 0 0-.104-.021c-.263-.032-.654.034-1.028.238s-.72.55-.89 1.077c-.04.13-.073.272-.092.43-.05.42.05.768.24 1.03l.013.02c.157.208.374.366.616.464.252.102.53.14.796.102.32-.044.625-.198.843-.476.01-.012.02-.023.03-.033l.77-.92a2.02 2.02 0 0 1 1.339-.761 2.33 2.33 0 0 1 1.181.15c.377.152.715.403.96.74l.017.025c.287.407.44.93.366 1.546-.03.25-.086.48-.163.687h3.158a6.98 6.98 0 0 0-.264-3.947c-.52-1.412-1.5-2.664-2.878-3.507-1.627-.996-3.5-1.234-5.216-.815a6.88 6.88 0 0 0-4.261 3.132c-.533.88-.847 1.832-.96 2.792-.092.788-.047 1.58.124 2.344zm29.942.504a5.75 5.75 0 0 1 .597.312l4.618-6.172a3.11 3.11 0 0 0 .584-2.303 3.09 3.09 0 0 0-1.194-2.043l-5.312-4.015a5.01 5.01 0 0 1-.355.733l-.004.006-.033.055v.002h-.001v.001l-.001.001-.001.001-.04.065 5.066 3.83a2.57 2.57 0 0 1 .995 1.698c.092.65-.063 1.34-.487 1.905l-4.43 5.923zm1.8 1.26a5.8 5.8 0 0 1 1.639 4.043v26.4a4.28 4.28 0 0 0 1.669-1.184 4.27 4.27 0 0 0 1.046-2.801V30.625a4.25 4.25 0 0 0-.611-2.205 4.32 4.32 0 0 0-1.134-1.242l-2.61 3.487zm-47.593.12l.17-.178c.843-.847 1.943-1.435 3.17-1.632l.017-.003.07-.01.06-.008h.005l.055-.007.025-.003.042-.005.024-.003.044-.005.063-.006.05-.004.025-.002.035-.003.04-.003h.007l.054-.003h.005l.05-.002.02-.001h.01l.028-.001.042-.001.067-.001h.004.07 2.196l1.543-2.547h-3.74c-1.168 0-2.23.48-3 1.255a4.27 4.27 0 0 0-1.249 3.016v.16zm47.706 22.492V42.222H39.175a3.71 3.71 0 0 0-2.635 1.102 3.75 3.75 0 0 0-1.097 2.649v3.552a3.75 3.75 0 0 0 1.096 2.649 3.71 3.71 0 0 0 2.635 1.102h10.057zm-7.675-8.188c.73 0 1.392.298 1.87.78a2.66 2.66 0 0 1 .001 3.764c-.48.482-1.14.78-1.873.78s-1.393-.298-1.873-.78a2.66 2.66 0 0 1 .002-3.764c.48-.482 1.14-.78 1.87-.78zm1.335 1.322c-.34-.343-.813-.555-1.335-.555s-.993.212-1.334.555a1.89 1.89 0 0 0-.551 1.339c0 .523.21.997.552 1.34s.813.555 1.333.555.992-.212 1.333-.555.552-.817.552-1.34-.21-.998-.55-1.34zM3.38 61.843c-.41 0-.536.568-.144.74.047.02.094.028.144.028h1.435c.41 0 .536-.568.144-.74-.047-.02-.094-.028-.144-.028H3.38zm6.164.767c.41 0 .536-.568.144-.74-.047-.02-.094-.028-.144-.028H8.11c-.41 0-.536.568-.144.74.047.02.094.028.144.028h1.435zm4.73 0c.41 0 .536-.568.144-.74-.047-.02-.094-.028-.144-.028h-1.435c-.41 0-.536.568-.144.74a.38.38 0 0 0 .144.028h1.435zm4.73 0c.41 0 .536-.568.144-.74a.38.38 0 0 0-.144-.028h-1.435c-.41 0-.536.568-.144.74.047.02.094.028.144.028h1.435zm4.73 0c.41 0 .536-.568.144-.74-.047-.02-.094-.028-.144-.028h-1.435c-.41 0-.536.568-.144.74.047.02.094.028.144.028h1.435zm4.73 0c.41 0 .536-.568.144-.74-.047-.02-.094-.028-.144-.028h-1.435c-.41 0-.536.568-.144.74a.38.38 0 0 0 .144.028h1.435zm4.73 0c.41 0 .536-.568.144-.74a.38.38 0 0 0-.144-.028h-1.435c-.41 0-.536.568-.144.74.047.02.094.028.144.028h1.435zm4.73 0c.41 0 .536-.568.144-.74-.047-.02-.094-.028-.144-.028h-1.435c-.41 0-.536.568-.144.74.047.02.094.028.144.028h1.435zm4.73 0c.41 0 .536-.568.144-.74-.047-.02-.094-.028-.144-.028h-1.435c-.41 0-.536.568-.144.74a.38.38 0 0 0 .144.028h1.435zm4.73 0c.41 0 .536-.568.144-.74-.047-.02-.094-.028-.144-.028h-1.435c-.41 0-.536.568-.144.74.047.02.094.028.144.028h1.435zm-44-29.318c-.41 0-.536.568-.144.74.047.02.094.028.144.028h1.435c.41 0 .536-.568.144-.74-.047-.02-.094-.028-.144-.028H3.38zm6.164.767c.41 0 .536-.568.144-.74-.047-.02-.094-.028-.144-.028H8.11c-.41 0-.536.568-.144.74.047.02.094.028.144.028h1.435zm4.73 0c.41 0 .536-.568.144-.74-.047-.02-.094-.028-.144-.028h-1.435c-.41 0-.536.568-.144.74a.38.38 0 0 0 .144.028h1.435zm4.73 0c.41 0 .536-.568.144-.74-.047-.02-.094-.028-.144-.028h-1.435c-.41 0-.536.568-.144.74.047.02.094.028.144.028h1.435zm4.73 0c.41 0 .536-.568.144-.74-.047-.02-.094-.028-.144-.028h-1.435c-.41 0-.536.568-.144.74.047.02.094.028.144.028h1.435zm4.73 0c.41 0 .536-.568.144-.74-.047-.02-.094-.028-.144-.028h-1.435c-.41 0-.536.568-.144.74a.38.38 0 0 0 .144.028h1.435zm4.73 0c.41 0 .536-.568.144-.74-.047-.02-.094-.028-.144-.028h-1.435c-.41 0-.536.568-.144.74.047.02.094.028.144.028h1.435zm4.73 0c.41 0 .536-.568.144-.74-.047-.02-.094-.028-.144-.028h-1.435c-.41 0-.536.568-.144.74.047.02.094.028.144.028h1.435zm4.73 0c.41 0 .536-.568.144-.74-.047-.02-.094-.028-.144-.028h-1.435c-.41 0-.536.568-.144.74a.38.38 0 0 0 .144.028h1.435zm4.73 0c.41 0 .536-.568.144-.74-.047-.02-.094-.028-.144-.028h-1.435c-.41 0-.536.568-.144.74.047.02.094.028.144.028h1.435zM24.923 7.445l.18.115c1.32.808 2.805 1.057 4.14.807 1.318-.247 2.486-.984 3.194-2.152l.077-.13-3.457-2.116c-.406-.247-.877-.306-1.308-.2a1.73 1.73 0 0 0-1.072.786l-1.752 2.892zm14.15 2.654l-.08.13c-.707 1.167-.82 2.55-.434 3.842.39 1.305 1.293 2.516 2.613 3.323l.183.108 1.752-2.893c.248-.41.306-.884.2-1.318a1.74 1.74 0 0 0-.782-1.078L39.073 10.1zm10.042 15.224l1.835-2.452a1.56 1.56 0 0 0 .292-1.154 1.55 1.55 0 0 0-.598-1.023L47.7 18.477l-.06.076c-.742.992-.968 2.233-.73 3.436.24 1.217.948 2.394 2.072 3.243l.124.09z" fill="#83003f" fill-rule="nonzero"/></svg>