<?xml version="1.0" encoding="utf-8"?>
<!-- Generator: Adobe Illustrator 19.2.0, SVG Export Plug-In . SVG Version: 6.00 Build 0)  -->
<svg version="1.1" id="Layer_1" xmlns="http://www.w3.org/2000/svg" xmlns:xlink="http://www.w3.org/1999/xlink" x="0px" y="0px"
	 width="24px" height="24px" viewBox="0 0 24 24" style="enable-background:new 0 0 24 24;" xml:space="preserve">
<g>
	<path d="M23.976,4.382c-0.055-0.217-0.242-0.38-0.476-0.38H18c-0.276,0-0.5,0.224-0.5,0.5s0.224,0.5,0.5,0.5h4.397l-8.665,8.666
		c-0.195,0.195-0.195,0.512,0,0.707c0.098,0.098,0.226,0.146,0.354,0.146s0.256-0.049,0.354-0.146L23,5.812v4.189
		c0,0.276,0.224,0.5,0.5,0.5s0.5-0.224,0.5-0.5V4.694C24.024,4.589,24.02,4.481,23.976,4.382z"/>
	<path d="M20.5,11.001c-0.276,0-0.5,0.224-0.5,0.5v11.5H1v-15h15.5c0.276,0,0.5-0.224,0.5-0.5s-0.224-0.5-0.5-0.5h-16
		c-0.276,0-0.5,0.224-0.5,0.5v16c0,0.276,0.224,0.5,0.5,0.5h20c0.276,0,0.5-0.224,0.5-0.5v-12C21,11.225,20.776,11.001,20.5,11.001z
		"/>
</g>
</svg>
