<?xml version="1.0" encoding="utf-8"?>
<!-- Generator: Adobe Illustrator 19.2.0, SVG Export Plug-In . SVG Version: 6.00 Build 0)  -->
<svg version="1.1" id="Layer_1" xmlns="http://www.w3.org/2000/svg" xmlns:xlink="http://www.w3.org/1999/xlink" x="0px" y="0px"
	 width="24px" height="24px" viewBox="0 0 24 24" style="enable-background:new 0 0 24 24;" xml:space="preserve">
<g>
	<path d="M20.259,12.285l-3.329,1.553l-2.035-2.137c-0.103-0.108-0.249-0.165-0.398-0.154c-0.149,0.011-0.286,0.088-0.372,0.21
		l-2.216,3.135l-1.465-4.755c-0.062-0.199-0.24-0.339-0.447-0.352C9.788,9.782,9.593,9.89,9.508,10.08l-3.167,7.06l-2.37-1.679
		c-0.225-0.157-0.537-0.106-0.697,0.119c-0.159,0.226-0.106,0.537,0.119,0.697l2.866,2.03c0.085,0.061,0.187,0.092,0.289,0.092
		c0.044,0,0.088-0.006,0.132-0.018c0.144-0.039,0.263-0.142,0.324-0.277L9.877,11.7l1.374,4.459
		c0.056,0.182,0.211,0.316,0.399,0.347c0.191,0.029,0.377-0.05,0.487-0.206l2.452-3.469l1.863,1.956
		c0.148,0.155,0.379,0.198,0.573,0.108l3.654-1.704c0.251-0.117,0.359-0.414,0.242-0.665C20.806,12.276,20.507,12.171,20.259,12.285
		z"/>
	<path d="M23.503,1h-23c-0.276,0-0.5,0.224-0.5,0.5v21c0,0.276,0.224,0.5,0.5,0.5h23c0.276,0,0.5-0.224,0.5-0.5v-21
		C24.003,1.223,23.779,1,23.503,1z M23.003,2v3h-22V2H23.003z M1.003,22V6h22v16H1.003z"/>
	<path d="M2.5,4c0.13,0,0.26-0.05,0.36-0.15C2.95,3.76,3,3.63,3,3.5S2.95,3.24,2.86,3.15c-0.19-0.19-0.53-0.19-0.71,0
		C2.06,3.24,2,3.37,2,3.5s0.05,0.25,0.15,0.36C2.25,3.95,2.38,4,2.5,4z"/>
	<path d="M4.5,4c0.14,0,0.26-0.05,0.35-0.14C4.95,3.76,5,3.63,5,3.5S4.95,3.24,4.86,3.14C4.67,2.96,4.33,2.96,4.15,3.15
		C4.06,3.24,4,3.37,4,3.5s0.06,0.26,0.15,0.35S4.37,4,4.5,4z"/>
	<path d="M6.5,4c0.13,0,0.26-0.05,0.36-0.15C6.95,3.76,7,3.63,7,3.5S6.95,3.24,6.86,3.15c-0.19-0.19-0.54-0.18-0.71,0
		C6.06,3.24,6,3.37,6,3.5s0.06,0.26,0.15,0.35C6.24,3.95,6.37,4,6.5,4z"/>
</g>
</svg>
