<?xml version="1.0" encoding="utf-8"?>
<!-- Generator: Adobe Illustrator 19.2.0, SVG Export Plug-In . SVG Version: 6.00 Build 0)  -->
<svg version="1.1" id="Layer_1" xmlns="http://www.w3.org/2000/svg" xmlns:xlink="http://www.w3.org/1999/xlink" x="0px" y="0px"
	 width="24px" height="24px" viewBox="0 0 24 24" style="enable-background:new 0 0 24 24;" xml:space="preserve">
<g>
	<path d="M23.5,2h-23C0.224,2,0,2.223,0,2.5v19C0,21.776,0.224,22,0.5,22h23c0.276,0,0.5-0.224,0.5-0.5v-19
		C24,2.223,23.776,2,23.5,2z M23,7.001h-2.435l2.435-2V7.001z M23,3.708l-4.01,3.294h-2.427L21.055,3H23V3.708z M12.642,7.001
		L17.135,3h2.415l-4.492,4.001H12.642z M8.722,7.001L13.215,3h2.415l-4.492,4.001H8.722z M4.802,7.001L9.294,3h2.417L7.218,7.001
		H4.802z M1,7.001V6.723L5.37,3H7.79L3.298,7.001H1z M3.828,3L1,5.41V3H3.828z M1,21V8.001h22V21H1z"/>
	<path d="M15.395,11.122c-0.195-0.195-0.512-0.195-0.707,0L12.01,13.8l-2.678-2.678c-0.195-0.195-0.512-0.195-0.707,0
		s-0.195,0.512,0,0.707l2.678,2.678l-2.678,2.678c-0.195,0.195-0.195,0.512,0,0.707c0.098,0.098,0.226,0.146,0.354,0.146
		s0.256-0.049,0.354-0.146l2.678-2.678l2.678,2.678c0.098,0.098,0.226,0.146,0.354,0.146s0.256-0.049,0.354-0.146
		c0.195-0.195,0.195-0.512,0-0.707l-2.678-2.678l2.678-2.678C15.59,11.634,15.59,11.318,15.395,11.122z"/>
</g>
</svg>
