<?xml version="1.0" encoding="utf-8"?>
<!-- Generator: Adobe Illustrator 19.2.0, SVG Export Plug-In . SVG Version: 6.00 Build 0)  -->
<svg version="1.1" id="Layer_1" xmlns="http://www.w3.org/2000/svg" xmlns:xlink="http://www.w3.org/1999/xlink" x="0px" y="0px"
	 width="24px" height="24px" viewBox="0 0 24 24" style="enable-background:new 0 0 24 24;" xml:space="preserve">
<g>
	<path d="M23.524,1h-23c-0.276,0-0.5,0.224-0.5,0.5v21c0,0.276,0.224,0.5,0.5,0.5h23c0.276,0,0.5-0.224,0.5-0.5v-21
		C24.024,1.223,23.801,1,23.524,1z M23.024,2v5.001h-22V2H23.024z M1.024,22V8.001h22V22H1.024z"/>
	<path d="M19.123,5.858c0.098,0.095,0.224,0.143,0.35,0.143c0.13,0,0.26-0.05,0.357-0.15l0.652-0.666l0.652,0.666
		c0.098,0.1,0.228,0.15,0.357,0.15c0.126,0,0.252-0.047,0.35-0.143c0.197-0.193,0.201-0.51,0.008-0.707l-0.667-0.682l0.667-0.682
		c0.193-0.197,0.189-0.514-0.008-0.707c-0.197-0.193-0.515-0.188-0.707,0.008l-0.652,0.666L19.83,3.088
		c-0.191-0.196-0.509-0.201-0.707-0.008c-0.197,0.193-0.201,0.51-0.008,0.707l0.667,0.682l-0.667,0.682
		C18.922,5.348,18.926,5.665,19.123,5.858z"/>
	<path d="M15.51,6h2c0.276,0,0.5-0.224,0.5-0.5v-2c0-0.276-0.224-0.5-0.5-0.5h-2c-0.276,0-0.5,0.224-0.5,0.5v2
		C15.01,5.776,15.233,6,15.51,6z M16.01,4h1v1h-1V4z"/>
	<path d="M11.509,6h2c0.276,0,0.5-0.224,0.5-0.5S13.785,5,13.509,5h-2c-0.276,0-0.5,0.224-0.5,0.5S11.233,6,11.509,6z"/>
	<path d="M12.026,12.946c-1.114,0-2.021,0.906-2.021,2.021s0.906,2.021,2.021,2.021s2.021-0.906,2.021-2.021
		S13.141,12.946,12.026,12.946z M12.026,15.987c-0.562,0-1.021-0.458-1.021-1.021s0.458-1.021,1.021-1.021s1.021,0.458,1.021,1.021
		S12.589,15.987,12.026,15.987z"/>
	<path d="M17.104,13.74l-1.049-0.131c-0.066-0.197-0.147-0.39-0.243-0.576l0.64-0.842c0.136-0.179,0.136-0.428-0.002-0.606
		c-0.313-0.41-0.682-0.773-1.094-1.081c-0.18-0.135-0.427-0.132-0.606,0.006l-0.833,0.649c-0.188-0.093-0.381-0.172-0.579-0.236
		l-0.144-1.047c-0.031-0.223-0.207-0.398-0.43-0.428c-0.519-0.069-1.021-0.065-1.537,0.009C11.003,9.49,10.83,9.667,10.802,9.89
		l-0.131,1.047c-0.198,0.067-0.392,0.148-0.578,0.244l-0.842-0.639c-0.179-0.136-0.427-0.136-0.606,0.001
		c-0.403,0.309-0.776,0.687-1.08,1.093c-0.135,0.181-0.132,0.429,0.006,0.606l0.649,0.833c-0.094,0.188-0.173,0.382-0.237,0.583
		l-1.046,0.144c-0.223,0.03-0.398,0.207-0.428,0.43c-0.067,0.511-0.064,1.027,0.009,1.536c0.032,0.223,0.21,0.397,0.434,0.425
		l1.048,0.131c0.066,0.198,0.148,0.392,0.244,0.579l-0.639,0.841c-0.136,0.18-0.135,0.429,0.002,0.607
		c0.31,0.403,0.688,0.776,1.093,1.079c0.182,0.136,0.429,0.133,0.606-0.006l0.834-0.649c0.188,0.094,0.381,0.173,0.581,0.237
		l0.143,1.046c0.031,0.223,0.207,0.397,0.43,0.428c0.246,0.032,0.489,0.048,0.733,0.048c0.266,0,0.533-0.019,0.803-0.058
		c0.223-0.032,0.397-0.21,0.425-0.434l0.131-1.049c0.197-0.066,0.391-0.147,0.576-0.243l0.843,0.639
		c0.179,0.135,0.43,0.136,0.605-0.002c0.41-0.313,0.773-0.682,1.08-1.094c0.135-0.181,0.133-0.429-0.006-0.605l-0.648-0.834
		c0.093-0.188,0.171-0.381,0.235-0.579l1.045-0.144c0.224-0.03,0.398-0.206,0.428-0.429c0.069-0.515,0.066-1.018-0.008-1.538
		C17.504,13.942,17.327,13.768,17.104,13.74z M15.61,15.329c-0.206,0.027-0.372,0.18-0.42,0.382
		c-0.076,0.329-0.204,0.643-0.379,0.933c-0.107,0.178-0.094,0.402,0.033,0.565l0.606,0.78c-0.112,0.128-0.232,0.249-0.359,0.363
		l-0.787-0.597c-0.164-0.125-0.391-0.137-0.564-0.026c-0.29,0.179-0.603,0.312-0.931,0.393c-0.201,0.05-0.35,0.219-0.375,0.424
		l-0.123,0.98c-0.172,0.01-0.34,0.011-0.511,0.003l-0.134-0.979c-0.028-0.204-0.18-0.371-0.381-0.418
		c-0.331-0.078-0.646-0.206-0.936-0.382c-0.179-0.106-0.402-0.094-0.565,0.034l-0.779,0.606c-0.127-0.113-0.249-0.233-0.364-0.359
		l0.597-0.786c0.125-0.166,0.136-0.391,0.026-0.566c-0.18-0.29-0.312-0.603-0.393-0.931c-0.049-0.201-0.218-0.352-0.424-0.377
		L7.468,15.25c-0.011-0.17-0.012-0.341-0.003-0.511l0.978-0.135c0.206-0.028,0.372-0.18,0.419-0.382
		c0.077-0.329,0.205-0.644,0.381-0.936c0.107-0.177,0.094-0.402-0.033-0.565l-0.606-0.779c0.113-0.127,0.233-0.25,0.359-0.364
		l0.787,0.598c0.164,0.125,0.39,0.136,0.566,0.026c0.288-0.179,0.601-0.311,0.93-0.392c0.201-0.049,0.351-0.218,0.376-0.423
		l0.123-0.98c0.17-0.013,0.34-0.013,0.511-0.003l0.134,0.979c0.028,0.205,0.18,0.372,0.382,0.419
		c0.329,0.077,0.643,0.205,0.933,0.381c0.179,0.107,0.403,0.094,0.566-0.033l0.778-0.607c0.128,0.113,0.25,0.233,0.364,0.36
		l-0.598,0.787c-0.125,0.165-0.136,0.39-0.026,0.566c0.179,0.289,0.311,0.601,0.392,0.928c0.05,0.201,0.218,0.351,0.423,0.376
		l0.98,0.123c0.012,0.172,0.013,0.341,0.004,0.512L15.61,15.329z"/>
</g>
</svg>
