<?xml version="1.0" encoding="utf-8"?>
<!-- Generator: Adobe Illustrator 19.2.0, SVG Export Plug-In . SVG Version: 6.00 Build 0)  -->
<svg version="1.1" id="Layer_1" xmlns="http://www.w3.org/2000/svg" xmlns:xlink="http://www.w3.org/1999/xlink" x="0px" y="0px"
	 width="24px" height="24px" viewBox="0 0 24 24" style="enable-background:new 0 0 24 24;" xml:space="preserve">
<g>
	<path d="M23.52,1h-23c-0.276,0-0.5,0.224-0.5,0.5v21c0,0.276,0.224,0.5,0.5,0.5h23c0.276,0,0.5-0.224,0.5-0.5v-21
		C24.02,1.223,23.796,1,23.52,1z M23.02,2v5.001h-22V2H23.02z M1.019,22V8.001h22V22H1.019z"/>
	<path d="M19.118,5.858c0.098,0.095,0.224,0.143,0.35,0.143c0.13,0,0.26-0.05,0.357-0.15l0.652-0.666l0.652,0.666
		c0.098,0.1,0.228,0.15,0.357,0.15c0.126,0,0.252-0.047,0.35-0.143c0.197-0.193,0.201-0.51,0.008-0.707l-0.667-0.682l0.667-0.682
		c0.193-0.197,0.189-0.514-0.008-0.707c-0.197-0.193-0.514-0.188-0.707,0.008l-0.652,0.666l-0.652-0.666
		c-0.192-0.196-0.509-0.201-0.707-0.008c-0.197,0.193-0.201,0.51-0.008,0.707l0.667,0.682L19.11,5.151
		C18.917,5.348,18.921,5.665,19.118,5.858z"/>
	<path d="M15.505,6h2c0.276,0,0.5-0.224,0.5-0.5v-2c0-0.276-0.224-0.5-0.5-0.5h-2c-0.276,0-0.5,0.224-0.5,0.5v2
		C15.005,5.776,15.229,6,15.505,6z M16.005,4h1v1h-1V4z"/>
	<path d="M11.504,6h2c0.276,0,0.5-0.224,0.5-0.5S13.781,5,13.505,5h-2c-0.276,0-0.5,0.224-0.5,0.5S11.228,6,11.504,6z"/>
	<path d="M14.502,18H9.616c-0.276,0-0.5,0.224-0.5,0.5s0.224,0.5,0.5,0.5h4.886c0.276,0,0.5-0.224,0.5-0.5S14.778,18,14.502,18z"/>
	<path d="M5.001,10.169c-0.183-0.208-0.498-0.23-0.706-0.049c-0.208,0.182-0.23,0.497-0.049,0.706l3.196,3.673l-3.196,3.674
		c-0.181,0.208-0.159,0.524,0.049,0.705C4.39,18.96,4.507,19,4.624,19c0.14,0,0.278-0.059,0.377-0.172l3.481-4.002
		c0.164-0.188,0.164-0.468,0-0.656L5.001,10.169z"/>
</g>
</svg>
