<?xml version="1.0" encoding="utf-8"?>
<!-- Generator: Adobe Illustrator 19.2.0, SVG Export Plug-In . SVG Version: 6.00 Build 0)  -->
<svg version="1.1" id="Layer_1" xmlns="http://www.w3.org/2000/svg" xmlns:xlink="http://www.w3.org/1999/xlink" x="0px" y="0px"
	 width="24px" height="24px" viewBox="0 0 24 24" style="enable-background:new 0 0 24 24;" xml:space="preserve">
<g>
	<path d="M23.5,2h-23C0.224,2,0,2.223,0,2.5v19C0,21.776,0.224,22,0.5,22h23c0.276,0,0.5-0.224,0.5-0.5v-19
		C24,2.223,23.776,2,23.5,2z M23,7h-2.394L23,5.051V7z M23,3.762L19.023,7h-2.492l4.571-4H23V3.762z M12.631,7l4.572-4h2.381
		l-4.571,4H12.631z M8.731,7l4.572-4h2.382l-4.572,4H8.731z M4.813,7l4.49-4h2.481L7.212,7H4.813z M1,7V6.731L5.401,3h2.398l-4.49,4
		H1z M3.855,3L1,5.42V3H3.855z M1,21V8h22v13H1z"/>
	<path d="M16.733,16.851l-3.518-6.129c-0.562-0.842-1.953-0.87-2.549,0.028l-3.482,6.072c-0.281,0.421-0.302,0.944-0.058,1.401
		C7.382,18.703,7.87,19,8.4,19h6.9c0.595,0,1.099-0.264,1.382-0.723c0.266-0.429,0.289-0.952,0.065-1.4
		C16.743,16.868,16.738,16.86,16.733,16.851z M15.831,17.752C15.732,17.912,15.544,18,15.3,18H8.4c-0.191,0-0.331-0.133-0.392-0.247
		c-0.041-0.075-0.093-0.224,0.025-0.403l3.482-6.072c0.096-0.144,0.254-0.227,0.434-0.227c0.179,0,0.337,0.083,0.416,0.199
		l3.491,6.086C15.92,17.469,15.91,17.623,15.831,17.752z"/>
	<path d="M12,12.4c-0.276,0-0.5,0.224-0.5,0.5v2.6c0,0.276,0.224,0.5,0.5,0.5s0.5-0.224,0.5-0.5v-2.6
		C12.5,12.624,12.276,12.4,12,12.4z"/>
	<path d="M12,16.3c-0.276,0-0.5,0.224-0.5,0.5V16.9c0,0.276,0.224,0.5,0.5,0.5s0.5-0.224,0.5-0.5V16.8
		C12.5,16.523,12.276,16.3,12,16.3z"/>
</g>
</svg>
