<?xml version="1.0" encoding="utf-8"?>
<!-- Generator: Adobe Illustrator 19.2.0, SVG Export Plug-In . SVG Version: 6.00 Build 0)  -->
<svg version="1.1" id="Layer_1" xmlns="http://www.w3.org/2000/svg" xmlns:xlink="http://www.w3.org/1999/xlink" x="0px" y="0px"
	 width="24px" height="24px" viewBox="0 0 24 24" style="enable-background:new 0 0 24 24;" xml:space="preserve">
<g>
	<path d="M15.451,12H12V6.552c0-0.276-0.224-0.5-0.5-0.5S11,6.276,11,6.552V12.5c0,0.276,0.224,0.5,0.5,0.5h3.951
		c0.276,0,0.5-0.224,0.5-0.5S15.728,12,15.451,12z"/>
	<path d="M12.002,3.87c-4.478,0-8.121,3.643-8.121,8.121s3.643,8.121,8.121,8.121c4.478,0,8.121-3.643,8.121-8.121
		S16.48,3.87,12.002,3.87z M12.002,19.112c-3.926,0-7.121-3.194-7.121-7.121c0-3.927,3.194-7.121,7.121-7.121
		s7.121,3.194,7.121,7.121C19.123,15.918,15.929,19.112,12.002,19.112z"/>
	<path d="M17.106,19.755c-0.267-0.05-0.533,0.124-0.586,0.396L15.971,23H7.897l-0.55-2.873c-0.052-0.272-0.316-0.449-0.585-0.397
		c-0.271,0.052-0.449,0.314-0.397,0.585l0.628,3.279C7.038,23.83,7.244,24,7.483,24h8.9c0.239,0,0.445-0.17,0.491-0.405l0.628-3.254
		C17.555,20.069,17.378,19.807,17.106,19.755z"/>
	<path d="M6.764,4.363c0.275,0.049,0.533-0.129,0.583-0.4L7.899,1h8.069l0.553,2.986c0.044,0.241,0.254,0.409,0.49,0.409
		c0.03,0,0.062-0.002,0.092-0.008c0.271-0.05,0.451-0.311,0.4-0.583l-0.628-3.396C16.832,0.172,16.625,0,16.384,0h-8.9
		C7.243,0,7.036,0.172,6.992,0.408L6.364,3.779C6.313,4.051,6.493,4.312,6.764,4.363z"/>
	<path d="M22.5,10h-1.027c-0.276,0-0.5,0.224-0.5,0.5s0.224,0.5,0.5,0.5H22v3h-0.527c-0.276,0-0.5,0.224-0.5,0.5s0.224,0.5,0.5,0.5
		H22.5c0.276,0,0.5-0.224,0.5-0.5v-4C23,10.223,22.776,10,22.5,10z"/>
</g>
</svg>
