<?xml version="1.0" encoding="utf-8"?>
<!-- Generator: Adobe Illustrator 19.2.0, SVG Export Plug-In . SVG Version: 6.00 Build 0)  -->
<svg version="1.1" id="Layer_1" xmlns="http://www.w3.org/2000/svg" xmlns:xlink="http://www.w3.org/1999/xlink" x="0px" y="0px"
	 width="24px" height="24px" viewBox="0 0 24 24" style="enable-background:new 0 0 24 24;" xml:space="preserve">
<g>
	<path d="M12,17H4c-0.276,0-0.5,0.224-0.5,0.5S3.724,18,4,18h8c0.276,0,0.5-0.224,0.5-0.5S12.276,17,12,17z"/>
	<path d="M12,14H4c-0.276,0-0.5,0.224-0.5,0.5S3.724,15,4,15h8c0.276,0,0.5-0.224,0.5-0.5S12.276,14,12,14z"/>
	<path d="M12,11H4c-0.276,0-0.5,0.224-0.5,0.5S3.724,12,4,12h8c0.276,0,0.5-0.224,0.5-0.5S12.276,11,12,11z"/>
	<path d="M4,9h3c0.276,0,0.5-0.224,0.5-0.5S7.276,8,7,8H4C3.724,8,3.5,8.223,3.5,8.5S3.724,9,4,9z"/>
	<path d="M24,17.5V2.501C24,1.098,22.945,0,21.6,0h-1.125C19.11,0,18,1.122,18,2.501V17.5c0,0.03,0.001,0.057,0.035,0.174
		c0.003,0.009,0.004,0.018,0.008,0.026c0.11,0.365,0.512,1.503,1.985,5.563c0.141,0.438,0.526,0.732,0.96,0.733
		c0.001,0,0.001,0,0.002,0c0.432,0,0.804-0.287,0.94-0.712c1.503-4.074,1.912-5.216,2.025-5.583c0.004-0.01,0.006-0.021,0.01-0.031
		C24,17.556,24,17.529,24,17.5z M21.652,21.127h-1.334c-0.435-1.206-0.87-2.416-1.121-3.127h3.601
		C22.543,18.711,22.099,19.921,21.652,21.127z M19,2.501C19,1.659,19.647,1,20.475,1H21.6C22.398,1,23,1.645,23,2.501V17h-4V2.501z
		 M20.975,22.94c-0.093-0.257-0.192-0.531-0.295-0.813h0.6C21.174,22.409,21.071,22.683,20.975,22.94z"/>
	<path d="M11.921,0.148C11.827,0.053,11.699,0,11.566,0H1.385C0.647,0,0,0.604,0,1.294v21.412C0,23.395,0.647,24,1.385,24h13.314
		C15.416,24,16,23.42,16,22.706V4.467c0-0.132-0.052-0.258-0.145-0.352L11.921,0.148z M12.066,1.714L14.3,3.967h-2.234V1.714z
		 M14.699,23H1.385C1.205,23,1,22.844,1,22.706V1.294C1,1.159,1.208,1,1.385,1h9.681v3.467c0,0.276,0.224,0.5,0.5,0.5H15v17.739
		C15,22.862,14.859,23,14.699,23z"/>
</g>
</svg>
