<?xml version="1.0" encoding="utf-8"?>
<!-- Generator: Adobe Illustrator 19.2.0, SVG Export Plug-In . SVG Version: 6.00 Build 0)  -->
<svg version="1.1" id="Layer_1" xmlns="http://www.w3.org/2000/svg" xmlns:xlink="http://www.w3.org/1999/xlink" x="0px" y="0px"
	 width="24px" height="24px" viewBox="0 0 24 24" style="enable-background:new 0 0 24 24;" xml:space="preserve">
<g>
	<path d="M4.309,19.962c0.061,0.025,0.126,0.038,0.191,0.038H10c0.276,0,0.5-0.224,0.5-0.5s-0.224-0.5-0.5-0.5H5.707L19,5.708v4.293
		c0,0.276,0.224,0.5,0.5,0.5s0.5-0.224,0.5-0.5v-5.5c0-0.065-0.013-0.13-0.038-0.191c-0.051-0.122-0.148-0.22-0.271-0.271
		C19.63,4.014,19.565,4.001,19.5,4.001H14c-0.276,0-0.5,0.224-0.5,0.5s0.224,0.5,0.5,0.5h4.293L5,18.294v-4.293
		c0-0.276-0.224-0.5-0.5-0.5S4,13.724,4,14.001v5.5c0,0.065,0.013,0.13,0.038,0.191C4.089,19.814,4.187,19.912,4.309,19.962z"/>
	<path d="M23.5,0.001h-23c-0.276,0-0.5,0.224-0.5,0.5v23c0,0.276,0.224,0.5,0.5,0.5h23c0.276,0,0.5-0.224,0.5-0.5v-23
		C24,0.225,23.776,0.001,23.5,0.001z M23,23.001H1v-22h22V23.001z"/>
</g>
</svg>
