<svg xmlns="http://www.w3.org/2000/svg" xmlns:xlink="http://www.w3.org/1999/xlink" width="118.5" height="210" xmlns:v="https://vecta.io/nano"><style><![CDATA[.B{clip-path:url(#B)}.C{fill:#231f20}]]></style><defs><path id="A" d="M-21-39.5h162v288H-21z"/></defs><clipPath id="B"><use xlink:href="#A"/></clipPath><path fill="#e87722" d="M113.1 80.906l3.808-3.583-4.228-3.08 3.33-4.032-4.58-2.524 2.796-4.418-4.858-1.93 2.22-4.734-5.062-1.305 1.6-4.975-5.188-.662.976-5.136-5.23-.006.322-5.22-4.903.614-2.06 4.236-1.775 4.022c9.23 8.304 15.035 20.34 15.035 33.733 0 25.054-20.3 45.365-45.364 45.365s-45.365-20.31-45.365-45.365c0-13.39 5.8-25.42 15.026-33.725-1.065-2.426-2.5-5.497-4.012-8.3l-4.718-.6.323 5.22-5.23.006.975 5.136-5.188.662 1.61 4.975-5.063 1.305 2.22 4.734-4.86 1.93 2.797 4.418-4.58 2.524 3.33 4.032L3 77.323l3.808 3.583L3 84.5l4.228 3.078-3.33 4.032 4.58 2.524-2.797 4.42 4.86 1.93-2.22 4.735 5.062 1.305-1.6 4.975 5.188.662-.975 5.137 5.23.005-.323 5.22 5.188-.65.335 5.22 5.066-1.294.985 5.134 4.863-1.92 1.622 4.973 4.584-2.514 2.233 4.727 4.234-3.07 2.806 4.413 3.817-3.577 3.336 4.025 3.338-4.025 3.815 3.577 2.807-4.413 4.233 3.067 2.23-4.727 4.584 2.514 1.623-4.973 4.864 1.92.984-5.134 5.064 1.294.336-5.22 5.188.65-.322-5.22 5.23-.005-.976-5.137 5.188-.662-1.6-4.975 5.062-1.305-2.22-4.735 4.858-1.93-2.796-4.42 4.58-2.524-3.33-4.032 4.228-3.078-3.806-3.58z" class="B"/><path fill="#83003f" d="M33.764 51.704c-1.92-5.078-3.846-9.328-5.782-12.753-1.934-3.43-4.392-6.96-7.374-10.594H43.46c-.69 2.024-.85 4.74-.492 8.153s1.192 6.92 2.496 10.517L59.91 88.432l15.777-41.405c1.336-3.328 2.253-6.797 2.75-10.414s.455-6.37-.13-8.256h20.44c-1.573 1.815-3.25 4.436-5.01 7.865s-4.068 8.592-6.916 15.482L64.1 108.94h-9.77L33.764 51.704z" class="B"/><path fill="#1f3d7b" d="M117.01 138.022a4.71 4.71 0 0 1-4.696 4.695H7.914a4.71 4.71 0 0 1-4.695-4.695v-24.604a4.71 4.71 0 0 1 4.695-4.697h104.4c2.583 0 4.696 2.114 4.696 4.697v24.604z" class="B"/><path d="M2.978 179.678H117.01v1.205H2.978z" class="B C"/><path d="M15.022 113.708c-.2.73-.232.994-.232 1.325 0 .96.497 2.882 1.06 4.373l5.168 13.15 5.333-12.72c.53-1.292 1.193-3.114 1.193-4.505 0-.365-.033-.73-.298-1.624l6.46.1c-1.425 1.656-2.42 3.545-3.28 5.6L22.3 138.72h-2.816l-7-17.955-1.92-4.273c-.762-1.524-1.06-1.922-1.822-2.783h6.26zm38.124 4.705c-1.458-.763-3.512-1.8-6.46-1.8-5.532 0-9.408 4.108-9.408 9.64 0 5.068 3.313 9.44 9.143 9.44 3.8 0 5.963-1.656 7.32-2.684l-.2 3.843c-1.6.795-3.842 1.9-7.75 1.9-9.64 0-12.456-7.62-12.456-12.092 0-6.625 5.565-13.185 14.477-13.185 2.583 0 4.107.53 5.333.96v3.976zm15.63-4.913c8.216 0 12.356 6.228 12.356 12.522 0 7.75-5.963 12.688-12.985 12.688-8.017 0-12.986-6.493-12.986-12.854.001-5.532 4.97-12.356 13.615-12.356m.398 22.526c5.532 0 8.116-5.2 8.116-9.077 0-5.167-3.942-10.8-9.74-10.8-5.002 0-8.215 4.34-8.215 9.143 0 6.724 5.1 10.733 9.838 10.733m18.48-22.317c.43 1.027.828 1.822 2.152 3.445l6.8 8.448 7.42-9.177c.73-.895 1.06-1.292 1.8-2.617h4.87c-1.026 1.226-1.987 2.353-1.987 5.962v12.225c0 1.8.033 4.142 1.126 6.56h-5.963c.828-1.855 1.094-3.776 1.094-6.16V120.6l-8.35 10.4-8.414-10.4v12.423c0 .397 0 3.147 1.06 5.532h-5.896c.497-1.16 1.126-2.782 1.126-6.625v-15.504l-2.45-2.717h5.63z" class="B" fill="#fff"/><g class="C"><path d="M3.507 151.305l-.026-1.65a4.19 4.19 0 0 1 .91-.185h3.353c-.053.33-.158.502-.3.62-.16.066-.436.08-1.004.08H4.603v2.943h3.035c-.092.606-.356.7-.792.7H4.603v3.168c.263.08.976.105 1.6.105l1.9-.066.014.026c-.08.33-.278.58-.568.687-.172.026-.673.053-1.584.053-1.042 0-1.94-.053-2.3-.146l-.16-.2v-6.123zm9.688-1.122l-.053-1.28c.238-.08.713-.172.9-.172.132 0 .184.067.184.858v6.823c0 .62.093.792.516.872v.026c-.066.264-.317.554-.555.554-.58 0-.845-.356-.898-.778-.54.436-1.227.778-1.847.778-1.346 0-2.534-1-2.534-2.864 0-1.887 1.385-3.22 3.247-3.22.58 0 .858.12 1.03.198v-1.794zm0 2.468c-.2-.12-.567-.225-1.03-.225-.925 0-2.125.646-2.125 2.455 0 1.373.87 2.165 1.86 2.165.448 0 .976-.186 1.293-.476v-3.92zm3.287-.87c.106 0 .172.08.225.238l1.385 4.475 1.307-4c-.013-.105-.08-.276-.092-.356.145-.065.54-.197.74-.197.145 0 .2.158.304.515l1.174 3.96 1.53-4.633c.225 0 .462.054.66.16.12.08.145.237-.052.752l-1.703 4.633c-.093.264-.16.37-.356.435-.172.054-.383.094-.595.106l-1.254-4.303-1.28 3.828c-.066.197-.145.303-.3.356-.198.065-.396.105-.62.118L16.4 154.22l-.792-2.15a2.07 2.07 0 0 1 .871-.291h.013zm13.068 5.32c.013.502-.316.766-.78.766-.54 0-.804-.396-.87-.857-.396.475-1.03.857-1.715.857a1.43 1.43 0 0 1-1.492-1.452c0-1.425 1.927-1.808 2.614-1.953l.593-.118v-.5c.014-.673-.382-1.24-1.174-1.24-.555 0-1.043.263-1.452.567-.3.066-.436-.277-.422-.5.46-.396 1.306-.898 2.138-.898 1.306 0 1.927.938 1.927 2.165l-.04 2.706c.014.277.145.462.462.462.066 0 .132-.014.198-.026l.013.01zm-3.8-.87c0 .528.422.87.9.87.58 0 .924-.343 1.135-.606.053-.093.08-.186.08-.423l.013-1.175c-1.055.185-2.138.555-2.138 1.32v.013zm5.027-3.96c.04-.172.37-.5.634-.5.435 0 .633.502.646 1.334.396-.885 1-1.334 1.57-1.334.198 0 .396.066.515.146.092.053.12.146.12.225 0 .277-.238.634-.396.726a1.08 1.08 0 0 0-.581-.158c-.303 0-.74.238-1.003.897-.106.237-.158.436-.158.727v3.075c0 .197-.04.3-.225.316a6.71 6.71 0 0 1-.858.053c.04-.448.04-1.228.04-2.44v-2.204c0-.475-.053-.713-.304-.832v-.04zm8.41-2.087l-.053-1.28c.238-.08.713-.172.9-.172.132 0 .184.067.184.858v6.823c0 .62.093.792.516.872v.026c-.066.264-.317.554-.555.554-.58 0-.845-.356-.898-.778-.54.436-1.227.778-1.847.778-1.346 0-2.534-1-2.534-2.864 0-1.887 1.385-3.22 3.247-3.22.58 0 .858.12 1.03.198v-1.794zm0 2.468c-.2-.12-.567-.225-1.03-.225-.925 0-2.125.646-2.125 2.455 0 1.373.87 2.165 1.86 2.165.448 0 .976-.186 1.293-.476v-3.92zm6.256-3.234c.185 0 .237.146.58 1.07l2.217 5.94 2.68-7.02c.263.013.554.065.672.118.16.08.185.158.066.502l-2.97 7.325c-.08.185-.172.316-.264.383-.12.08-.4.132-.74.132l-3.195-8.17a2.38 2.38 0 0 1 .95-.277m8.242-.176c.356 0 .568.3.568.622 0 .356-.238.66-.62.66-.343 0-.594-.238-.594-.62a.64.64 0 0 1 .634-.661h.013zm.488 8.146c0 .237-.08.303-.264.33-.172.04-.462.053-.818.065l.04-2.072v-2.217l-.053-1.505c.2-.08.726-.132.9-.132.132 0 .185.065.185.818v4.713zm6.4-.3c.014.502-.315.766-.78.766-.54 0-.804-.396-.87-.857-.396.475-1.03.857-1.715.857a1.43 1.43 0 0 1-1.492-1.452c0-1.425 1.927-1.808 2.614-1.953l.593-.118v-.5c.014-.673-.382-1.24-1.174-1.24-.555 0-1.043.263-1.452.567-.3.066-.436-.277-.422-.5.46-.396 1.306-.898 2.138-.898 1.306 0 1.927.938 1.927 2.165l-.04 2.706c.014.277.146.462.462.462.066 0 .132-.014.198-.026l.013.01zm-3.8-.87c0 .528.422.87.9.87.58 0 .924-.343 1.135-.606.053-.093.08-.186.08-.423l.013-1.175c-1.055.185-2.138.555-2.138 1.32v.013zm14.427.512c0 .225-.172.595-.37.74-.304.2-1.07.423-1.94.423-2.917 0-4.448-1.756-4.448-4.276 0-2.627 1.953-4.37 4.527-4.37 1.293 0 2.15.4 2.362.66.014.237-.185.527-.396.567-.528-.264-1.188-.462-2.008-.462-1.74 0-3.3 1.2-3.3 3.537 0 2.06 1.228 3.537 3.55 3.537.832 0 1.65-.2 2.006-.383l.014.027zm3.907-4.962c1.875 0 2.746 1.387 2.746 2.97 0 1.77-1.122 3.115-2.904 3.115-1.914 0-2.785-1.426-2.785-2.97 0-1.755 1.188-3.115 2.932-3.115h.01zm-.16.634c-.9 0-1.663.832-1.663 2.323 0 1.663.818 2.494 1.795 2.494.792 0 1.65-.66 1.65-2.375 0-1.36-.58-2.442-1.77-2.442h-.013zm4.568-2.047l-.053-1.465a3.32 3.32 0 0 1 .911-.172c.145 0 .185.066.185.858v6.375l.053 1.73c-.237.066-.78.106-.924.106a.14.14 0 0 1-.172-.172v-7.26zm3.142 0l-.053-1.465a3.32 3.32 0 0 1 .911-.172c.145 0 .185.066.185.858v6.375l.053 1.73c-.237.066-.78.106-.924.106a.14.14 0 0 1-.172-.172v-7.26zm7.22 6.415a1.04 1.04 0 0 1-.436.791c-.197.133-.752.3-1.267.3-1.8 0-2.8-1.096-2.8-2.943 0-1.676 1-3.142 2.693-3.142 1.478 0 2.1 1.1 2.125 2.14 0 .132-.014.304-.04.4-.052.237-.66.37-1.095.436-.356.04-1.65.053-2.614.026 0 1.438.82 2.27 2.008 2.27a3.71 3.71 0 0 0 1.398-.291l.028.013zm-1.953-4.395c-.688 0-1.32.58-1.452 1.756h2.43c.17 0 .277-.12.277-.277.013-.818-.396-1.48-1.24-1.48h-.013zm5.77-.607c.277 0 .673.04.977.133.316.093.687.17.937.17.37 0 .792-.078.978-.132.013.066.026.105.026.185 0 .396-.238.58-.595.62l-.515.026c.16.3.277.66.277 1.03 0 1.346-1.017 2.046-2.138 2.046-.3 0-.344 0-.555-.066-.198.158-.33.344-.33.423 0 .224.158.422.752.448l1.624.08c1.108.105 1.505.766 1.505 1.505 0 1.466-1.492 2.323-2.983 2.323-1.637 0-2.44-.818-2.44-1.716 0-.528.515-1.003 1.267-1.412-.554-.198-.778-.66-.792-1.004 0-.065.014-.105.093-.158a3.96 3.96 0 0 0 .778-.633c-.7-.33-1.095-.898-1.095-1.73 0-1.24.937-2.14 2.217-2.14h.013zm-1.52 6.956c0 .688.87 1.1 1.756 1.1 1.07 0 1.8-.555 1.8-1.268 0-.4-.225-.805-1.03-.9-.515-.065-1.016-.065-1.412-.053-.092 0-.25.04-.356.093-.37.172-.766.58-.766 1.017v.013zm1.44-6.375c-.634 0-1.136.58-1.136 1.48 0 .817.45 1.45 1.188 1.45.792 0 1.134-.713 1.134-1.45 0-.714-.303-1.48-1.174-1.48h-.012zm8.222 4.42a1.04 1.04 0 0 1-.436.791c-.197.133-.752.3-1.267.3-1.8 0-2.8-1.096-2.8-2.943 0-1.676 1-3.142 2.693-3.142 1.478 0 2.1 1.1 2.125 2.14 0 .132-.014.304-.04.4-.052.237-.66.37-1.095.436-.356.04-1.65.053-2.614.026 0 1.438.82 2.27 2.008 2.27a3.71 3.71 0 0 0 1.398-.291l.028.013zm-1.953-4.395c-.688 0-1.32.58-1.452 1.756h2.43c.172 0 .277-.12.277-.277.013-.818-.396-1.48-1.24-1.48h-.013zm9.068-.607c1.875 0 2.746 1.387 2.746 2.97 0 1.77-1.122 3.115-2.904 3.115-1.914 0-2.785-1.426-2.785-2.97 0-1.755 1.188-3.115 2.93-3.115h.012zm-.158.634c-.9 0-1.663.832-1.663 2.323 0 1.663.818 2.494 1.795 2.494.792 0 1.65-.66 1.65-2.375 0-1.36-.58-2.442-1.77-2.442h-.013zm7.035-3.764c.304 0 .66.105.805.277.066.225-.158.646-.422.54a1.25 1.25 0 0 0-.462-.092c-.713 0-1.294.62-1.254 2.56l1.77-.026a.84.84 0 0 1-.343.567c-.172.132-.687.158-1.452.158l.04 5.042a4.71 4.71 0 0 1-.924.105c-.132 0-.17-.04-.17-.2l.013-4.937c-.528-.026-.7-.093-.7-.264.132-.158.356-.3.7-.436 0-1.44.344-2.218.924-2.732.462-.423.95-.555 1.465-.555h.013zM7.2 165.1c2.653 0 4.17 1.967 4.17 4.25 0 2.3-1.386 4.396-4.13 4.396-3.036 0-4.197-2.35-4.197-4.224 0-2.495 1.57-4.422 4.144-4.422H7.2zm-.092.672c-1.7 0-2.877 1.307-2.877 3.644 0 2.362 1.517 3.655 3.1 3.655 1.663 0 2.85-1.254 2.85-3.643 0-2.244-1.36-3.656-3.062-3.656h-.013zm7.457 1.848c.422 0 .977.12 1.28.437.053.17-.092.488-.33.554-.33-.172-.686-.264-1.003-.264-.54 0-.95.304-.95.818 0 .422.303.66.62.83l1.135.58c.58.343.82.818.82 1.307 0 1.24-1.056 1.82-2.1 1.82-.7 0-1.254-.237-1.505-.5-.08-.133-.052-.25-.013-.344.053-.118.132-.304.304-.3a2.47 2.47 0 0 0 1.293.396c.686 0 1.03-.383 1.03-.83 0-.356-.172-.607-.66-.845l-.924-.476c-.515-.3-.95-.766-.95-1.466 0-1.055.9-1.73 1.94-1.73h.013zm6.02 5.04c.066.265.08.476-.17.674-.265.225-.792.37-1.24.37-1.135 0-1.597-.726-1.597-1.73V168.5c-.4 0-.62-.12-.62-.25.118-.277.9-1 1.108-1.175a1.07 1.07 0 0 1 .621-.317l-.053 1.03h2.085c-.132.633-.396.633-.633.66-.462.04-.476.04-1.465.04l-.013 3.432c.065.806.527 1.003.976 1.003.37 0 .753-.105.977-.264l.026.013zm5.346-.037c-.014.355-.25.686-.436.8-.198.132-.752.3-1.268.3-1.808 0-2.797-1.097-2.797-2.944 0-1.676 1-3.142 2.692-3.142 1.48 0 2.1 1.1 2.125 2.14a1.91 1.91 0 0 1-.04.409c-.052.237-.66.37-1.095.436-.356.04-1.65.053-2.614.026 0 1.438.82 2.27 2.007 2.27.554 0 1.16-.172 1.4-.3l.027.014zm-1.954-4.396c-.687 0-1.32.58-1.452 1.756h2.43c.17 0 .277-.12.277-.276.013-.82-.396-1.48-1.24-1.48h-.013zm6.27-.607c1.874 0 2.745 1.387 2.745 2.97 0 1.77-1.122 3.115-2.904 3.115-1.914 0-2.785-1.426-2.785-2.97 0-1.755 1.188-3.115 2.93-3.115h.013zm-.16.634c-.9 0-1.663.832-1.663 2.323 0 1.663.818 2.494 1.795 2.494.792 0 1.65-.66 1.65-2.375 0-1.36-.58-2.442-1.77-2.442h-.013zm5.533 7.72c0 .2-.04.264-.25.33-.304.038-.54.052-.832.052.027-.356.04-1.096.04-2.3v-5.214c0-.436-.066-.634-.2-.713v-.053c.106-.198.356-.45.673-.45s.488.317.528.9c.792-.634 1.4-.9 2.032-.9 1.123 0 2.3.858 2.3 2.772 0 1.86-1.294 3.312-3.116 3.312a2.4 2.4 0 0 1-1.174-.343v2.615zm0-3.274c.277.172.74.304 1.16.304.792 0 2.006-.555 2.006-2.48 0-1.28-.74-2.06-1.636-2.06-.673 0-1.254.4-1.53.66v3.577zm10.242.237c.013.502-.316.766-.78.766-.54 0-.804-.396-.87-.857-.396.475-1.03.857-1.715.857a1.43 1.43 0 0 1-1.492-1.452c0-1.425 1.927-1.808 2.614-1.953l.593-.118v-.5c.014-.673-.382-1.24-1.174-1.24-.555 0-1.043.264-1.452.567-.3.066-.436-.277-.422-.5.46-.396 1.306-.898 2.138-.898 1.306 0 1.927.938 1.927 2.165l-.04 2.706c.014.277.145.462.462.462.066 0 .132-.014.198-.026l.013.01zm-3.8-.87c0 .528.422.87.9.87.58 0 .924-.343 1.135-.606.053-.093.08-.186.08-.423l.013-1.175c-1.055.185-2.138.555-2.138 1.32v.013zm8.26.592c.066.265.08.476-.17.674-.265.225-.792.37-1.24.37-1.135 0-1.597-.726-1.597-1.73V168.5c-.4 0-.62-.12-.62-.25.118-.277.9-1 1.108-1.175a1.07 1.07 0 0 1 .621-.317l-.053 1.03h2.085c-.132.633-.396.633-.633.66-.462.04-.476.04-1.465.04l-.013 3.432c.065.806.527 1.003.976 1.003.37 0 .753-.105.977-.264l.026.013zm2.403-4.13c.568-.528 1.2-.9 1.954-.9 1.465 0 1.847 1.215 1.847 2.416v1.82l.027 1.663c-.25.053-.568.105-.9.105-.132 0-.17-.065-.17-.2l.013-3.353c0-1.24-.594-1.636-1.24-1.636-.726 0-1.254.474-1.518.765v4.065c0 .212-.053.3-.237.316-.3.053-.594.053-.845.053l.04-2.44v-4.963l-.053-1.48c.343-.105.713-.172.9-.172.132 0 .185.066.185.858v3.104zm6.337-3.445c.356 0 .568.3.568.62 0 .356-.238.66-.62.66-.343 0-.594-.238-.594-.62a.64.64 0 0 1 .634-.66h.013zm.488 8.144c0 .237-.08.303-.264.33-.172.04-.462.053-.818.066l.04-2.073v-2.217l-.053-1.505c.2-.08.726-.132.9-.132.132 0 .185.065.185.818v4.713zm6.257-.594c-.026.3-.158.607-.344.74-.302.198-.857.33-1.372.33-1.294 0-2.996-.62-2.996-2.97 0-1.82 1.36-3.115 3.154-3.115.792 0 1.4.25 1.6.5.013.185-.093.515-.33.58-.462-.237-.897-.316-1.307-.316-1.16 0-2.02.857-2.02 2.244 0 1.808 1.294 2.27 2.178 2.27.45 0 1.003-.092 1.4-.277l.028.026zm11.154-7.233c.146-.08.62-.146.83-.146.105 0 .172.067.212.345l.845 4.9.554 2.996a3.73 3.73 0 0 1-.857.119c-.158 0-.25-.065-.277-.264l-.396-2.508-.633-4.08-2.416 6.35c-.065.17-.145.276-.33.342a2.29 2.29 0 0 1-.515.08l-2.415-6.77-1.123 6.666c-.052.158-.104.185-.2.185-.198 0-.502 0-.7-.12l1.47-7.813-.08-.3c.198-.066.528-.146.924-.146.16.212.33.595.687 1.506l1.967 5.108 2.494-6.217-.042-.253zm8.148 7.22c-.013.355-.25.686-.436.8-.197.132-.752.3-1.267.3-1.8 0-2.8-1.097-2.8-2.944 0-1.676 1-3.142 2.693-3.142 1.478 0 2.1 1.1 2.125 2.14 0 .132-.014.304-.04.4-.052.237-.66.37-1.095.436-.356.04-1.65.053-2.614.026 0 1.438.82 2.27 2.008 2.27.554 0 1.16-.172 1.398-.3l.028.014zm-1.953-4.396c-.688 0-1.32.58-1.452 1.756h2.43c.172 0 .277-.12.277-.276.013-.82-.396-1.48-1.24-1.48h-.013zm7.61-2.205l-.053-1.28c.238-.08.713-.172.9-.172.132 0 .185.066.185.857v6.824c0 .62.093.792.515.872v.026c-.065.264-.316.554-.554.554-.58 0-.845-.356-.897-.778-.542.436-1.228.778-1.85.778-1.346 0-2.534-1-2.534-2.864 0-1.887 1.387-3.22 3.247-3.22.58 0 .858.12 1.03.198v-1.794zm0 2.47c-.2-.12-.567-.225-1.03-.225-.924 0-2.125.646-2.125 2.455 0 1.372.87 2.164 1.86 2.164.45 0 .977-.185 1.293-.475v-3.92zm3.632-3.407c.356 0 .567.3.567.62 0 .356-.237.66-.62.66-.344 0-.595-.238-.595-.62 0-.448.356-.66.634-.66h.014zm.488 8.144c0 .237-.08.303-.265.33-.17.04-.462.053-.818.066l.04-2.073v-2.217l-.053-1.505c.2-.08.726-.132.9-.132.132 0 .185.065.185.818v4.713zm6.256-.594c-.027.3-.16.607-.344.74-.304.198-.857.33-1.373.33-1.293 0-2.996-.62-2.996-2.97 0-1.82 1.36-3.115 3.155-3.115.792 0 1.398.25 1.6.5.013.185-.093.515-.33.58-.462-.237-.897-.316-1.307-.316-1.162 0-2.02.857-2.02 2.244 0 1.808 1.293 2.27 2.178 2.27.448 0 1.003-.092 1.398-.277l.03.026zm1.9-7.55c.356 0 .567.3.567.62 0 .356-.237.66-.62.66-.344 0-.595-.238-.595-.62 0-.448.356-.66.634-.66h.014zm.488 8.144c0 .237-.08.303-.265.33-.172.04-.462.053-.818.066l.04-2.073v-2.217l-.053-1.505c.2-.08.726-.132.9-.132.132 0 .185.065.185.818v4.713zm5.795-3.247c.013-1.07-.502-1.558-1.215-1.558-.7 0-1.2.462-1.5.845v3.973c0 .277-.053.317-.265.33-.3.053-.54.053-.817.053l.04-2.44v-2.244c0-.476-.066-.7-.2-.805v-.053a.81.81 0 0 1 .647-.463c.408 0 .527.516.566.978.476-.502 1.175-.978 1.9-.978 1.452 0 1.888 1.043 1.888 2.35v1.928l.04 1.623c-.265.04-.594.105-.9.105-.145 0-.185-.065-.185-.185l.015-3.458zm7.075 2.64c-.013.355-.25.686-.436.8-.197.132-.752.3-1.267.3-1.8 0-2.8-1.097-2.8-2.944 0-1.676 1-3.142 2.694-3.142 1.477 0 2.098 1.1 2.125 2.14 0 .132-.015.304-.04.4-.053.237-.66.37-1.096.436-.356.04-1.65.053-2.613.026 0 1.438.818 2.27 2.007 2.27.554 0 1.16-.172 1.398-.3l.028.014zm-1.954-4.396c-.687 0-1.32.58-1.452 1.756h2.43c.172 0 .277-.12.277-.276.013-.82-.396-1.48-1.24-1.48h-.013zM56.96 27.16c-2.205-1-4.222-2.502-4.222-4.722 0-2.596 2.1-3.63 4.072-4.035l-.08-4.64c-4.6.734-9.35 3.08-9.35 8.7 0 6.532 6.696 9.4 9.67 9.973l-.1-5.278zm-.573 19.696c0-.552.352-.968.9-1.3l-.068-3.95c-2.573.964-5.082 2.546-5.082 5.214 0 4.37 4.04 5.708 5.274 6.016l-.072-4.25c-.568-.377-.94-.894-.94-1.74m18.062-21.9s.255-.28.307-.536-.127-1.837-.92-2.602-.562-.715-.688-1.123.153-2-1.02-2.857c-.96-.708-4.8-3.166-9.024-4.045l-.08 4.8a1.43 1.43 0 0 1 .377.148c.485.332 6.66 5.714 6.66 5.714a5.05 5.05 0 0 0 1.43.79c.818.28 1.835.308 2.168.128s2 1.148 2 1.148l.204-.255-1.404-1.3zm-3.84-3.734c-.7 0-1.254-.518-1.254-1.157s.562-1.158 1.254-1.158 1.254.52 1.254 1.158-.562 1.157-1.254 1.157m-7.754 7.608l-.083 4.977c1.4.646 2.454 1.55 2.443 2.758-.025 2.566-1.46 3.184-2.55 3.568l-.072 4.358c1.94-.13 7.545-1.108 7.545-7.9 0-6.107-5.906-7.515-7.284-7.76m-.36 21.508l-.066 4.004a1.3 1.3 0 0 1 .08.413c.003.18-.038.362-.096.545l-.05 3.015c1.7-.686 3.233-1.77 3.233-3.457.001-2.922-1.514-3.962-3.1-4.52" class="B"/><path d="M63.058 7.512c0-1.705-1.383-3.086-3.087-3.086s-3.088 1.38-3.088 3.086a3.07 3.07 0 0 0 .711 1.97L58.64 71.84a1.35 1.35 0 1 0 2.704 0l.99-62.346c.45-.536.723-1.227.723-1.982" class="B"/></g><path fill="none" stroke="#231f20" stroke-width=".529" d="M63.058 7.512c0-1.705-1.383-3.086-3.087-3.086s-3.088 1.38-3.088 3.086a3.07 3.07 0 0 0 .711 1.97L58.64 71.84a1.35 1.35 0 1 0 2.704 0l.99-62.346c.45-.536.723-1.227.723-1.982z" class="B"/><path d="M5.962 187.604c.165 0 .242.143.45.715l1.65 4.665 1.925-5.4c.364 0 .814.077.97.143.165.055.175.198.077.474l-2.4 5.95c-.088.198-.165.32-.275.363-.132.077-.56.132-1.012.132l-2.674-6.8c.44-.132.958-.242 1.288-.242m6.292 1.476l-.033-1.396a13.01 13.01 0 0 1 1.188-.089c.187 0 .22.1.22.594v4.95l.033 1.353c-.187.056-.924.1-1.177.1-.165 0-.23-.033-.23-.22v-5.28zm4.61 5.17c0 .22-.066.264-.253.286-.308.032-.913.044-1.133.044l.033-2.014V188.9l-.022-1.122c.286-.066 1.386-.188 1.892-.188 1.75 0 2.618.595 2.618 2 0 1.046-.88 1.552-1.32 1.75.253.22.594.77.968 1.42.53.924.88 1.42 1.155 1.716v.044c-.087.066-.495.1-.9.1a1.06 1.06 0 0 1-.98-.495c-.297-.385-.517-.825-.957-1.683-.34-.628-.55-.716-.913-.716h-.198v2.544zm0-3.334c.297.033.902 0 1.056-.077.23-.088.67-.418.67-1.155 0-.913-.572-1.298-1.254-1.298-.154 0-.34.01-.473.033v2.497zm9.338 1.344l-.044-.98 1.188-.166c.165 0 .23.066.23.297v2.486c-.208.176-.572.407-.87.55-.385.1-.98.23-1.507.23-1.848 0-3.807-.814-3.807-3.554 0-2.267 1.75-3.652 3.906-3.652 1.2 0 2.013.385 2.277.638.01.43-.308.76-.66.693-.495-.242-1.067-.363-1.65-.363-1.353 0-2.398.88-2.398 2.597 0 1.914 1.276 2.784 2.563 2.784.308 0 .638-.066.77-.122v-1.44zm3.004-3.18l-.033-1.396a13.01 13.01 0 0 1 1.188-.089c.187 0 .22.1.22.594v4.95l.033 1.353c-.187.056-.924.1-1.177.1-.165 0-.23-.033-.23-.22v-5.28zm3.08-1.344v-.055c.2-.033 1.155-.088 1.354-.088.1 0 .197.077.307.198l2.047 3.103 1.166 1.958-.055-1.826v-3.07c0-.253.077-.297.23-.32l.9-.044-.033 2.024v4.852a4.6 4.6 0 0 1-1.045.176c-.132 0-.198-.044-.275-.154l-2.003-2.992-1.353-2.387.055 2.244v2.882c0 .23-.066.265-.242.298a5.17 5.17 0 0 1-.88.044l.033-2.003v-4.565l-.198-.277zm7.82 1.344l-.033-1.396a13.01 13.01 0 0 1 1.188-.089c.187 0 .22.1.22.594v4.95l.033 1.353c-.187.056-.924.1-1.177.1-.165 0-.23-.033-.23-.22v-5.28zm4.532 3.54l-.716 1.805c-.043.1-.13.154-.308.154-.242 0-.726-.066-.968-.143v-.045l2.707-6.436-.088-.23a7.76 7.76 0 0 1 1.155-.132c.1 0 .198.066.253.198l1.727 4.334.935 2.277v.044c-.242.077-1 .133-1.232.133-.176 0-.264-.056-.374-.352l-.605-1.607h-2.486zm2.222-.913l-.957-2.54-.958 2.54h1.915z" class="B C"/><path fill="#6d6e71" d="M54.283 189.585c.77 0 1.276.67 1.276 1.364 0 .836-.55 1.386-1.375 1.386a1.29 1.29 0 0 1-1.287-1.342c0-.792.506-1.408 1.375-1.408h.01z" class="B"/><path d="M65.173 193.445c-.032.374-.176.693-.362.87-.275.176-.858.374-1.596.374-2.5 0-3.862-1.43-3.862-3.53 0-2.277 1.727-3.675 3.906-3.675 1.045 0 1.85.353 2.024.55.02.374-.23.748-.583.693-.33-.143-.848-.297-1.452-.297-1.33 0-2.42.87-2.42 2.63 0 1.496.957 2.64 2.707 2.64.737 0 1.32-.187 1.606-.275l.033.022zm2.782-.815l-.716 1.805c-.043.1-.13.154-.307.154a4.23 4.23 0 0 1-.97-.143v-.045l2.707-6.436-.1-.23a7.76 7.76 0 0 1 1.155-.132c.1 0 .198.066.253.198l1.728 4.334.936 2.277v.044c-.242.077-1 .133-1.232.133-.176 0-.265-.056-.374-.352l-.605-1.607h-2.487zm2.223-.913l-.957-2.54-.957 2.54h1.914zm4.972 2.543c0 .22-.066.264-.254.286-.308.032-.913.044-1.133.044l.033-2.014V188.9l-.022-1.122a13.72 13.72 0 0 1 1.893-.188c1.75 0 2.618.595 2.618 2 0 1.046-.88 1.552-1.32 1.75.253.22.595.77.97 1.42.527.924.88 1.42 1.155 1.716v.044c-.1.066-.495.1-.892.1-.407 0-.693-.1-.98-.495-.296-.385-.517-.825-.957-1.683-.34-.628-.55-.716-.913-.716h-.198v2.544zm0-3.334c.297.033.9 0 1.056-.077.23-.088.67-.418.67-1.155 0-.913-.572-1.298-1.254-1.298-.154 0-.34.01-.473.033v2.497zm8.108-3.444c2.22 0 3.5 1.606 3.5 3.543 0 1.97-1.22 3.663-3.553 3.663-2.542 0-3.543-1.88-3.543-3.543 0-2.08 1.33-3.663 3.575-3.663h.012zm-.133.86c-1.078 0-1.97.87-1.97 2.673 0 1.838 1 2.816 2.155 2.816 1.233 0 1.992-1 1.992-2.706 0-1.562-.803-2.783-2.167-2.783h-.01zm5.115.758l-.033-1.42a10.19 10.19 0 0 1 1.188-.088c.188 0 .22.1.22.65v5.347c.2.055.583.077 1 .077l1.66-.056.012.022c-.066.43-.286.738-.562.9-.154.033-.538.056-1.386.056-.913 0-1.65-.056-1.926-.1l-.165-.2v-5.16zm5.126-.01l-.033-1.396a13.01 13.01 0 0 1 1.188-.089c.188 0 .22.1.22.594v4.95l.033 1.353c-.187.056-.924.1-1.177.1-.165 0-.23-.033-.23-.22v-5.28zm3.08-1.344v-.055c.2-.033 1.155-.088 1.353-.088.1 0 .198.077.3.198l2.046 3.103 1.166 1.958-.055-1.826v-3.07c0-.253.078-.297.23-.32l.9-.044-.033 2.024v4.852a4.6 4.6 0 0 1-1.045.176c-.132 0-.198-.044-.275-.154l-2.002-2.992-1.354-2.387.056 2.244v2.882c0 .23-.066.265-.242.298a5.17 5.17 0 0 1-.88.044l.032-2.003v-4.565l-.198-.277zm9.086 4.884l-.715 1.805c-.045.1-.133.154-.3.154-.242 0-.726-.066-.968-.143v-.045l2.706-6.436-.088-.23c.408-.088 1.023-.132 1.155-.132.1 0 .198.066.252.198l1.73 4.334.935 2.277v.044c-.242.077-1 .133-1.232.133-.176 0-.265-.056-.374-.352l-.604-1.607h-2.487zm2.222-.913l-.957-2.54-.957 2.54h1.914zm5.776-4.235c.583 0 1.3.242 1.585.528 0 .274-.177.726-.562.704a2.73 2.73 0 0 0-1.078-.275c-.583 0-1 .275-1 .76 0 .518.363.78 1.386 1.364 1 .562 1.552.98 1.552 2.023 0 1.365-1.188 2.103-2.485 2.103-.76 0-1.32-.22-1.607-.43-.188-.12-.253-.23-.253-.374 0-.23.165-.64.264-.704.396.274 1.057.517 1.585.517.66 0 1.122-.286 1.122-.847 0-.484-.253-.76-1.364-1.364-1.276-.693-1.496-1.397-1.496-2.058 0-.748.527-1.947 2.343-1.947h.01zM9.56 205.63l-.716 1.805c-.043.1-.13.154-.308.154a4.22 4.22 0 0 1-.968-.143v-.045l2.707-6.436-.088-.23a7.76 7.76 0 0 1 1.155-.132c.1 0 .198.066.253.198l1.727 4.334.935 2.277v.044c-.242.077-1 .133-1.232.133-.176 0-.264-.056-.374-.352l-.605-1.607H9.56zm2.222-.913l-.957-2.54-.958 2.54h1.915zm4.708-.395c0 2.046.88 2.376 1.64 2.376.9 0 1.64-.374 1.64-2.476v-3.3c0-.2.1-.253.243-.275.318-.033.748-.044.968-.044l-.033 2.002v1.562c0 3.08-1.628 3.52-2.97 3.52-1.86 0-2.86-.957-2.86-3.322V202.1l-.033-1.42c.198-.033.957-.088 1.177-.088.198 0 .23.1.23.638v3.08zm6.235-2.145l-.033-1.397c.264-.065 1.3-.198 2.013-.198 2.068 0 2.388 1.046 2.388 1.728s-.463 1.188-.97 1.463c.947.264 1.397.913 1.397 1.64 0 1.476-1.22 2.224-2.948 2.224-.56 0-1.364-.077-1.848-.188v-5.27zm1.353 1.44c.308-.056.65-.066 1.166-.056.286-.132.528-.506.528-1.067 0-.692-.44-1.1-1.144-1.1a3.71 3.71 0 0 0-.55.044v2.168zm0 3.147a2.96 2.96 0 0 0 .572.055c.814 0 1.386-.45 1.386-1.3 0-.726-.54-1.133-1.452-1.133-.165 0-.34 0-.506.033v2.355zm6.172-2.442c0 2.046.88 2.376 1.64 2.376.9 0 1.64-.374 1.64-2.476v-3.3c0-.2.1-.253.243-.275.318-.033.748-.044.968-.044l-.033 2.002v1.562c0 3.08-1.628 3.52-2.97 3.52-1.86 0-2.86-.957-2.86-3.322V202.1l-.033-1.42c.198-.033.957-.088 1.177-.088.198 0 .23.1.23.638v3.08zm7.6 2.938c0 .22-.066.264-.253.286-.308.032-.913.044-1.133.044l.033-2.014V201.9l-.022-1.122c.286-.066 1.386-.188 1.892-.188 1.75 0 2.618.595 2.618 2 0 1.046-.88 1.552-1.32 1.75.253.22.594.77.968 1.42.53.924.88 1.42 1.155 1.716v.044c-.087.066-.495.1-.9.1a1.06 1.06 0 0 1-.98-.495c-.297-.385-.517-.825-.957-1.683-.34-.628-.55-.716-.913-.716h-.198v2.544zm0-3.334c.297.033.902 0 1.056-.077.23-.088.67-.418.67-1.155 0-.913-.572-1.298-1.254-1.298-.154 0-.34.01-.473.033v2.497zm4.827-3.18v-.055c.2-.033 1.155-.088 1.354-.088.1 0 .197.077.307.198l2.047 3.103 1.166 1.958-.055-1.826v-3.07c0-.253.077-.297.23-.32l.9-.044-.033 2.024v4.852a4.6 4.6 0 0 1-1.045.176c-.132 0-.198-.044-.275-.154l-2.003-2.992-1.353-2.387.055 2.244v2.882c0 .23-.066.265-.242.298a5.17 5.17 0 0 1-.88.044l.033-2.003v-4.565l-.198-.277z" class="B C"/><path fill="#6d6e71" d="M54.185 202.585c.77 0 1.276.67 1.276 1.364 0 .836-.55 1.386-1.375 1.386a1.29 1.29 0 0 1-1.287-1.342c0-.792.506-1.408 1.375-1.408h.01z" class="B"/><path d="M59.674 202.1l-.033-1.42a10.19 10.19 0 0 1 1.188-.088c.188 0 .22.1.22.65v5.347c.2.055.583.077 1 .077l1.662-.056.01.022c-.066.43-.286.738-.562.9-.153.033-.54.056-1.386.056-.914 0-1.65-.056-1.926-.1l-.165-.2v-5.16zm8.13-1.618c2.22 0 3.5 1.606 3.5 3.543 0 1.97-1.22 3.663-3.553 3.663-2.542 0-3.543-1.88-3.543-3.543 0-2.08 1.33-3.663 3.575-3.663h.012zm-.133.86c-1.078 0-1.97.87-1.97 2.673 0 1.838 1 2.816 2.155 2.816 1.233 0 1.992-1 1.992-2.706 0-1.562-.803-2.783-2.167-2.783h-.01zm6.337 2.98c0 2.046.88 2.376 1.64 2.376.9 0 1.64-.374 1.64-2.476v-3.3c0-.2.088-.253.242-.275a10.95 10.95 0 0 1 .968-.044l-.032 2.002v1.562c0 3.08-1.63 3.52-2.97 3.52-1.86 0-2.86-.957-2.86-3.322V202.1l-.033-1.42c.198-.033.957-.088 1.177-.088.198 0 .23.1.23.638v3.08zm6.247-2.232l-.033-1.396a13.01 13.01 0 0 1 1.188-.089c.188 0 .22.1.22.594v4.95l.033 1.353c-.187.056-.924.1-1.177.1-.165 0-.23-.033-.23-.22v-5.28zm5.203-1.608c.583 0 1.3.242 1.585.528 0 .274-.177.726-.562.704-.253-.132-.726-.275-1.078-.275-.583 0-1 .275-1 .76 0 .518.363.78 1.386 1.364 1 .562 1.552.98 1.552 2.023 0 1.365-1.188 2.103-2.486 2.103-.76 0-1.32-.22-1.606-.43-.187-.12-.253-.23-.253-.374 0-.23.165-.64.264-.704.396.274 1.057.517 1.585.517.66 0 1.122-.286 1.122-.847 0-.484-.253-.76-1.364-1.364-1.276-.693-1.497-1.397-1.497-2.058 0-.748.528-1.947 2.344-1.947h.01zm3.234 1.608l-.033-1.396a13.01 13.01 0 0 1 1.188-.089c.188 0 .22.1.22.594v4.95l.033 1.353c-.187.056-.924.1-1.177.1-.165 0-.23-.033-.23-.22v-5.28zm4.534 3.54l-.715 1.805c-.045.1-.133.154-.3.154-.242 0-.726-.066-.968-.143v-.045l2.706-6.436-.088-.23c.408-.088 1.023-.132 1.155-.132.1 0 .198.066.253.198l1.728 4.334.935 2.277v.044c-.242.077-1 .133-1.232.133-.176 0-.264-.056-.374-.352l-.604-1.607h-2.487zm2.22-.913l-.957-2.54-.957 2.54h1.914zm3.454-3.97v-.055c.2-.033 1.155-.088 1.353-.088.1 0 .198.077.3.198l2.046 3.103 1.166 1.958-.055-1.826v-3.07c0-.253.077-.297.23-.32l.9-.044-.033 2.024v4.852a4.6 4.6 0 0 1-1.045.176.29.29 0 0 1-.275-.154l-2.002-2.992-1.354-2.387.057 2.244v2.882c0 .23-.066.265-.242.298a5.17 5.17 0 0 1-.88.044l.032-2.003v-4.565l-.2-.277zm9.077 4.884l-.716 1.805c-.044.1-.132.154-.308.154-.242 0-.726-.066-.968-.143v-.045l2.706-6.436-.088-.23a7.76 7.76 0 0 1 1.155-.132c.1 0 .198.066.252.198l1.73 4.334.935 2.277v.044c-.242.077-1 .133-1.232.133-.176 0-.265-.056-.374-.352l-.604-1.607h-2.487zm2.22-.913l-.957-2.54-.957 2.54h1.914z" class="B C"/></svg>